<svg width="438" height="622" viewBox="0 0 438 622" fill="none" xmlns="http://www.w3.org/2000/svg">
<rect width="438" height="622" fill="#1E1E1E"/>
<g clip-path="url(#clip0_0_1)">
<path d="M437.32 0H0V621.25H437.32V0Z" fill="#141414"/>
<path d="M69.648 187V164.6H78.032C79.9307 164.6 81.5627 164.909 82.928 165.528C84.2933 166.125 85.3387 167 86.064 168.152C86.8107 169.283 87.184 170.659 87.184 172.28C87.184 173.859 86.8107 175.224 86.064 176.376C85.3387 177.507 84.2933 178.381 82.928 179C81.5627 179.597 79.9307 179.896 78.032 179.896H70.96L72.016 178.808V187H69.648ZM84.944 187L79.184 178.872H81.744L87.536 187H84.944ZM72.016 179L70.96 177.88H77.968C80.208 177.88 81.904 177.389 83.056 176.408C84.2293 175.427 84.816 174.051 84.816 172.28C84.816 170.488 84.2293 169.101 83.056 168.12C81.904 167.139 80.208 166.648 77.968 166.648H70.96L72.016 165.528V179ZM99.429 187.16C97.6797 187.16 96.1437 186.797 94.821 186.072C93.4983 185.325 92.4637 184.312 91.717 183.032C90.9703 181.731 90.597 180.248 90.597 178.584C90.597 176.92 90.949 175.448 91.653 174.168C92.3783 172.888 93.3597 171.885 94.597 171.16C95.8557 170.413 97.2637 170.04 98.821 170.04C100.4 170.04 101.797 170.403 103.013 171.128C104.25 171.832 105.221 172.835 105.925 174.136C106.629 175.416 106.981 176.899 106.981 178.584C106.981 178.691 106.97 178.808 106.949 178.936C106.949 179.043 106.949 179.16 106.949 179.288H92.325V177.592H105.733L104.837 178.264C104.837 177.048 104.57 175.971 104.037 175.032C103.525 174.072 102.821 173.325 101.925 172.792C101.029 172.259 99.9943 171.992 98.821 171.992C97.669 171.992 96.6343 172.259 95.717 172.792C94.7997 173.325 94.085 174.072 93.573 175.032C93.061 175.992 92.805 177.091 92.805 178.328V178.68C92.805 179.96 93.0823 181.091 93.637 182.072C94.213 183.032 95.0023 183.789 96.005 184.344C97.029 184.877 98.1917 185.144 99.493 185.144C100.517 185.144 101.466 184.963 102.341 184.6C103.237 184.237 104.005 183.683 104.645 182.936L105.925 184.408C105.178 185.304 104.24 185.987 103.109 186.456C102 186.925 100.773 187.16 99.429 187.16ZM121.665 187V183.288L121.569 182.68V176.472C121.569 175.043 121.163 173.944 120.353 173.176C119.563 172.408 118.379 172.024 116.801 172.024C115.713 172.024 114.678 172.205 113.697 172.568C112.715 172.931 111.883 173.411 111.201 174.008L110.177 172.312C111.03 171.587 112.054 171.032 113.249 170.648C114.443 170.243 115.702 170.04 117.025 170.04C119.201 170.04 120.875 170.584 122.049 171.672C123.243 172.739 123.841 174.371 123.841 176.568V187H121.665ZM115.873 187.16C114.614 187.16 113.515 186.957 112.577 186.552C111.659 186.125 110.955 185.549 110.465 184.824C109.974 184.077 109.729 183.224 109.729 182.264C109.729 181.389 109.931 180.6 110.337 179.896C110.763 179.171 111.446 178.595 112.385 178.168C113.345 177.72 114.625 177.496 116.225 177.496H122.017V179.192H116.289C114.667 179.192 113.537 179.48 112.897 180.056C112.278 180.632 111.969 181.347 111.969 182.2C111.969 183.16 112.342 183.928 113.089 184.504C113.835 185.08 114.881 185.368 116.225 185.368C117.505 185.368 118.603 185.08 119.521 184.504C120.459 183.907 121.142 183.053 121.569 181.944L122.081 183.512C121.654 184.621 120.907 185.507 119.841 186.168C118.795 186.829 117.473 187.16 115.873 187.16ZM136.988 187.16C135.324 187.16 133.83 186.797 132.508 186.072C131.206 185.325 130.182 184.312 129.436 183.032C128.689 181.731 128.316 180.248 128.316 178.584C128.316 176.899 128.689 175.416 129.436 174.136C130.182 172.856 131.206 171.853 132.508 171.128C133.83 170.403 135.324 170.04 136.988 170.04C138.417 170.04 139.708 170.317 140.86 170.872C142.012 171.427 142.918 172.259 143.58 173.368L141.884 174.52C141.308 173.667 140.593 173.037 139.74 172.632C138.886 172.227 137.958 172.024 136.956 172.024C135.761 172.024 134.684 172.301 133.724 172.856C132.764 173.389 132.006 174.147 131.452 175.128C130.897 176.109 130.62 177.261 130.62 178.584C130.62 179.907 130.897 181.059 131.452 182.04C132.006 183.021 132.764 183.789 133.724 184.344C134.684 184.877 135.761 185.144 136.956 185.144C137.958 185.144 138.886 184.941 139.74 184.536C140.593 184.131 141.308 183.512 141.884 182.68L143.58 183.832C142.918 184.92 142.012 185.752 140.86 186.328C139.708 186.883 138.417 187.16 136.988 187.16ZM153.543 187.16C151.964 187.16 150.748 186.733 149.895 185.88C149.041 185.027 148.615 183.821 148.615 182.264V166.488H150.887V182.136C150.887 183.117 151.132 183.875 151.623 184.408C152.135 184.941 152.86 185.208 153.799 185.208C154.801 185.208 155.633 184.92 156.295 184.344L157.095 185.976C156.647 186.381 156.103 186.68 155.463 186.872C154.844 187.064 154.204 187.16 153.543 187.16ZM145.607 172.088V170.2H156.007V172.088H145.607Z" fill="white"/>
<path d="M270.064 187L280.304 164.6H282.64L292.88 187H290.384L280.976 165.976H281.936L272.528 187H270.064ZM274.096 181.016L274.8 179.096H287.824L288.528 181.016H274.096ZM304.682 170.04C306.047 170.04 307.242 170.307 308.266 170.84C309.311 171.352 310.122 172.141 310.698 173.208C311.295 174.275 311.594 175.619 311.594 177.24V187H309.322V177.464C309.322 175.693 308.874 174.36 307.978 173.464C307.103 172.547 305.866 172.088 304.266 172.088C303.071 172.088 302.026 172.333 301.13 172.824C300.255 173.293 299.572 173.987 299.082 174.904C298.612 175.8 298.378 176.888 298.378 178.168V187H296.106V170.2H298.282V174.808L297.93 173.944C298.463 172.728 299.316 171.779 300.49 171.096C301.663 170.392 303.06 170.04 304.682 170.04ZM324.899 193.368C323.363 193.368 321.891 193.144 320.483 192.696C319.075 192.248 317.933 191.608 317.059 190.776L318.211 189.048C319 189.752 319.971 190.307 321.123 190.712C322.296 191.139 323.533 191.352 324.835 191.352C326.968 191.352 328.536 190.851 329.539 189.848C330.541 188.867 331.043 187.331 331.043 185.24V181.048L331.363 178.168L331.139 175.288V170.2H333.315V184.952C333.315 187.853 332.6 189.976 331.171 191.32C329.763 192.685 327.672 193.368 324.899 193.368ZM324.483 186.36C322.883 186.36 321.443 186.019 320.163 185.336C318.883 184.632 317.869 183.661 317.123 182.424C316.397 181.187 316.035 179.768 316.035 178.168C316.035 176.568 316.397 175.16 317.123 173.944C317.869 172.707 318.883 171.747 320.163 171.064C321.443 170.381 322.883 170.04 324.483 170.04C325.976 170.04 327.32 170.349 328.515 170.968C329.709 171.587 330.659 172.504 331.363 173.72C332.067 174.936 332.419 176.419 332.419 178.168C332.419 179.917 332.067 181.4 331.363 182.616C330.659 183.832 329.709 184.76 328.515 185.4C327.32 186.04 325.976 186.36 324.483 186.36ZM324.707 184.344C325.944 184.344 327.043 184.088 328.003 183.576C328.963 183.043 329.72 182.317 330.275 181.4C330.829 180.461 331.107 179.384 331.107 178.168C331.107 176.952 330.829 175.885 330.275 174.968C329.72 174.051 328.963 173.336 328.003 172.824C327.043 172.291 325.944 172.024 324.707 172.024C323.491 172.024 322.392 172.291 321.411 172.824C320.451 173.336 319.693 174.051 319.139 174.968C318.605 175.885 318.339 176.952 318.339 178.168C318.339 179.384 318.605 180.461 319.139 181.4C319.693 182.317 320.451 183.043 321.411 183.576C322.392 184.088 323.491 184.344 324.707 184.344ZM346.581 187.16C345.151 187.16 343.903 186.893 342.837 186.36C341.77 185.827 340.938 185.027 340.341 183.96C339.765 182.893 339.477 181.56 339.477 179.96V170.2H341.749V179.704C341.749 181.496 342.186 182.851 343.061 183.768C343.957 184.664 345.205 185.112 346.805 185.112C347.978 185.112 348.991 184.877 349.845 184.408C350.719 183.917 351.381 183.213 351.829 182.296C352.298 181.379 352.533 180.28 352.533 179V170.2H354.805V187H352.629V182.392L352.981 183.224C352.447 184.461 351.615 185.432 350.485 186.136C349.375 186.819 348.074 187.16 346.581 187.16ZM361.137 187V163.256H363.409V187H361.137ZM380.259 187V183.288L380.163 182.68V176.472C380.163 175.043 379.757 173.944 378.947 173.176C378.157 172.408 376.973 172.024 375.395 172.024C374.307 172.024 373.272 172.205 372.291 172.568C371.309 172.931 370.477 173.411 369.795 174.008L368.771 172.312C369.624 171.587 370.648 171.032 371.843 170.648C373.037 170.243 374.296 170.04 375.619 170.04C377.795 170.04 379.469 170.584 380.643 171.672C381.837 172.739 382.435 174.371 382.435 176.568V187H380.259ZM374.467 187.16C373.208 187.16 372.109 186.957 371.171 186.552C370.253 186.125 369.549 185.549 369.059 184.824C368.568 184.077 368.323 183.224 368.323 182.264C368.323 181.389 368.525 180.6 368.931 179.896C369.357 179.171 370.04 178.595 370.979 178.168C371.939 177.72 373.219 177.496 374.819 177.496H380.611V179.192H374.883C373.261 179.192 372.131 179.48 371.491 180.056C370.872 180.632 370.562 181.347 370.562 182.2C370.562 183.16 370.936 183.928 371.683 184.504C372.429 185.08 373.475 185.368 374.819 185.368C376.099 185.368 377.197 185.08 378.115 184.504C379.053 183.907 379.736 183.053 380.163 181.944L380.675 183.512C380.248 184.621 379.501 185.507 378.435 186.168C377.389 186.829 376.067 187.16 374.467 187.16ZM388.606 187V170.2H390.782V174.776L390.558 173.976C391.027 172.696 391.816 171.725 392.926 171.064C394.035 170.381 395.411 170.04 397.054 170.04V172.248C396.968 172.248 396.883 172.248 396.798 172.248C396.712 172.227 396.627 172.216 396.542 172.216C394.771 172.216 393.384 172.76 392.382 173.848C391.379 174.915 390.878 176.44 390.878 178.424V187H388.606Z" fill="white"/>
<path d="M86.032 291.6H88.368V314H86.032V291.6ZM72.016 314H69.648V291.6H72.016V314ZM86.256 303.664H71.76V301.584H86.256V303.664ZM100.031 314V293.648H92.1593V291.6H110.271V293.648H102.399V314H100.031ZM114.054 314V291.6H116.006L126.246 309.072H125.222L135.366 291.6H137.318V314H135.046V295.152H135.59L126.246 311.152H125.126L115.718 295.152H116.326V314H114.054ZM144.617 314V291.6H146.985V311.952H159.529V314H144.617Z" fill="white"/>
<path d="M283.376 314.192C281.691 314.192 280.133 313.915 278.704 313.36C277.275 312.784 276.037 311.984 274.992 310.96C273.947 309.936 273.125 308.731 272.528 307.344C271.952 305.957 271.664 304.443 271.664 302.8C271.664 301.157 271.952 299.643 272.528 298.256C273.125 296.869 273.947 295.664 274.992 294.64C276.059 293.616 277.307 292.827 278.736 292.272C280.165 291.696 281.723 291.408 283.408 291.408C285.029 291.408 286.555 291.685 287.984 292.24C289.413 292.773 290.619 293.584 291.6 294.672L290.096 296.176C289.179 295.237 288.165 294.565 287.056 294.16C285.947 293.733 284.752 293.52 283.472 293.52C282.128 293.52 280.88 293.755 279.728 294.224C278.576 294.672 277.573 295.323 276.72 296.176C275.867 297.008 275.195 297.989 274.704 299.12C274.235 300.229 274 301.456 274 302.8C274 304.144 274.235 305.381 274.704 306.512C275.195 307.621 275.867 308.603 276.72 309.456C277.573 310.288 278.576 310.939 279.728 311.408C280.88 311.856 282.128 312.08 283.472 312.08C284.752 312.08 285.947 311.867 287.056 311.44C288.165 311.013 289.179 310.331 290.096 309.392L291.6 310.896C290.619 311.984 289.413 312.805 287.984 313.36C286.555 313.915 285.019 314.192 283.376 314.192ZM302.762 314.192C301.098 314.192 299.498 313.925 297.962 313.392C296.447 312.837 295.274 312.133 294.442 311.28L295.37 309.456C296.159 310.224 297.215 310.875 298.538 311.408C299.882 311.92 301.29 312.176 302.762 312.176C304.17 312.176 305.311 312.005 306.186 311.664C307.082 311.301 307.732 310.821 308.138 310.224C308.564 309.627 308.778 308.965 308.778 308.24C308.778 307.365 308.522 306.661 308.01 306.128C307.519 305.595 306.868 305.179 306.058 304.88C305.247 304.56 304.351 304.283 303.37 304.048C302.388 303.813 301.407 303.568 300.426 303.312C299.444 303.035 298.538 302.672 297.706 302.224C296.895 301.776 296.234 301.189 295.722 300.464C295.231 299.717 294.986 298.747 294.986 297.552C294.986 296.443 295.274 295.429 295.85 294.512C296.447 293.573 297.354 292.827 298.57 292.272C299.786 291.696 301.343 291.408 303.242 291.408C304.5 291.408 305.748 291.589 306.986 291.952C308.223 292.293 309.29 292.773 310.186 293.392L309.385 295.28C308.426 294.64 307.402 294.171 306.314 293.872C305.247 293.573 304.212 293.424 303.21 293.424C301.866 293.424 300.756 293.605 299.882 293.968C299.007 294.331 298.356 294.821 297.93 295.44C297.524 296.037 297.322 296.72 297.322 297.488C297.322 298.363 297.567 299.067 298.058 299.6C298.57 300.133 299.231 300.549 300.042 300.848C300.874 301.147 301.78 301.413 302.762 301.648C303.743 301.883 304.714 302.139 305.674 302.416C306.655 302.693 307.551 303.056 308.362 303.504C309.194 303.931 309.855 304.507 310.346 305.232C310.858 305.957 311.114 306.907 311.114 308.08C311.114 309.168 310.815 310.181 310.218 311.12C309.62 312.037 308.703 312.784 307.466 313.36C306.25 313.915 304.682 314.192 302.762 314.192ZM322.449 314.192C320.785 314.192 319.185 313.925 317.649 313.392C316.134 312.837 314.961 312.133 314.129 311.28L315.057 309.456C315.846 310.224 316.902 310.875 318.225 311.408C319.569 311.92 320.977 312.176 322.449 312.176C323.857 312.176 324.998 312.005 325.873 311.664C326.769 311.301 327.42 310.821 327.825 310.224C328.252 309.627 328.465 308.965 328.465 308.24C328.465 307.365 328.209 306.661 327.697 306.128C327.206 305.595 326.556 305.179 325.745 304.88C324.934 304.56 324.038 304.283 323.057 304.048C322.076 303.813 321.094 303.568 320.113 303.312C319.132 303.035 318.225 302.672 317.393 302.224C316.582 301.776 315.921 301.189 315.409 300.464C314.918 299.717 314.673 298.747 314.673 297.552C314.673 296.443 314.961 295.429 315.537 294.512C316.134 293.573 317.041 292.827 318.257 292.272C319.473 291.696 321.03 291.408 322.929 291.408C324.188 291.408 325.436 291.589 326.673 291.952C327.91 292.293 328.977 292.773 329.873 293.392L329.073 295.28C328.113 294.64 327.089 294.171 326.001 293.872C324.934 293.573 323.9 293.424 322.897 293.424C321.553 293.424 320.444 293.605 319.569 293.968C318.694 294.331 318.044 294.821 317.617 295.44C317.212 296.037 317.009 296.72 317.009 297.488C317.009 298.363 317.254 299.067 317.745 299.6C318.257 300.133 318.918 300.549 319.729 300.848C320.561 301.147 321.468 301.413 322.449 301.648C323.43 301.883 324.401 302.139 325.361 302.416C326.342 302.693 327.238 303.056 328.049 303.504C328.881 303.931 329.542 304.507 330.033 305.232C330.545 305.957 330.801 306.907 330.801 308.08C330.801 309.168 330.502 310.181 329.905 311.12C329.308 312.037 328.39 312.784 327.153 313.36C325.937 313.915 324.369 314.192 322.449 314.192Z" fill="white"/>
<path d="M273.648 441V418.6H283.312C285.808 418.6 287.739 419.101 289.104 420.104C290.491 421.107 291.184 422.525 291.184 424.36C291.184 425.576 290.896 426.6 290.32 427.432C289.765 428.264 288.997 428.893 288.016 429.32C287.056 429.747 286 429.96 284.848 429.96L285.392 429.192C286.821 429.192 288.048 429.416 289.072 429.864C290.117 430.291 290.928 430.941 291.504 431.816C292.08 432.669 292.368 433.736 292.368 435.016C292.368 436.915 291.664 438.387 290.256 439.432C288.869 440.477 286.768 441 283.952 441H273.648ZM276.016 439.048H283.92C285.883 439.048 287.387 438.717 288.432 438.056C289.477 437.373 290 436.296 290 434.824C290 433.373 289.477 432.317 288.432 431.656C287.387 430.973 285.883 430.632 283.92 430.632H275.76V428.68H283.152C284.944 428.68 286.331 428.339 287.312 427.656C288.315 426.973 288.816 425.96 288.816 424.616C288.816 423.251 288.315 422.237 287.312 421.576C286.331 420.893 284.944 420.552 283.152 420.552H276.016V439.048ZM304.141 441.16C302.52 441.16 301.058 440.797 299.757 440.072C298.477 439.325 297.464 438.312 296.717 437.032C295.97 435.731 295.597 434.248 295.597 432.584C295.597 430.899 295.97 429.416 296.717 428.136C297.464 426.856 298.477 425.853 299.757 425.128C301.037 424.403 302.498 424.04 304.141 424.04C305.805 424.04 307.277 424.403 308.557 425.128C309.858 425.853 310.872 426.856 311.597 428.136C312.344 429.416 312.717 430.899 312.717 432.584C312.717 434.248 312.344 435.731 311.597 437.032C310.872 438.312 309.858 439.325 308.557 440.072C307.256 440.797 305.784 441.16 304.141 441.16ZM304.141 439.144C305.357 439.144 306.434 438.877 307.373 438.344C308.312 437.789 309.048 437.021 309.581 436.04C310.136 435.037 310.413 433.885 310.413 432.584C310.413 431.261 310.136 430.109 309.581 429.128C309.048 428.147 308.312 427.389 307.373 426.856C306.434 426.301 305.368 426.024 304.173 426.024C302.978 426.024 301.912 426.301 300.973 426.856C300.034 427.389 299.288 428.147 298.733 429.128C298.178 430.109 297.901 431.261 297.901 432.584C297.901 433.885 298.178 435.037 298.733 436.04C299.288 437.021 300.034 437.789 300.973 438.344C301.912 438.877 302.968 439.144 304.141 439.144ZM324.204 441.16C322.582 441.16 321.121 440.797 319.82 440.072C318.54 439.325 317.526 438.312 316.78 437.032C316.033 435.731 315.66 434.248 315.66 432.584C315.66 430.899 316.033 429.416 316.78 428.136C317.526 426.856 318.54 425.853 319.82 425.128C321.1 424.403 322.561 424.04 324.204 424.04C325.868 424.04 327.34 424.403 328.62 425.128C329.921 425.853 330.934 426.856 331.66 428.136C332.406 429.416 332.78 430.899 332.78 432.584C332.78 434.248 332.406 435.731 331.66 437.032C330.934 438.312 329.921 439.325 328.62 440.072C327.318 440.797 325.846 441.16 324.204 441.16ZM324.204 439.144C325.42 439.144 326.497 438.877 327.436 438.344C328.374 437.789 329.11 437.021 329.644 436.04C330.198 435.037 330.476 433.885 330.476 432.584C330.476 431.261 330.198 430.109 329.644 429.128C329.11 428.147 328.374 427.389 327.436 426.856C326.497 426.301 325.43 426.024 324.236 426.024C323.041 426.024 321.974 426.301 321.036 426.856C320.097 427.389 319.35 428.147 318.796 429.128C318.241 430.109 317.964 431.261 317.964 432.584C317.964 433.885 318.241 435.037 318.796 436.04C319.35 437.021 320.097 437.789 321.036 438.344C321.974 438.877 323.03 439.144 324.204 439.144ZM342.73 441.16C341.151 441.16 339.935 440.733 339.082 439.88C338.229 439.027 337.802 437.821 337.802 436.264V420.488H340.074V436.136C340.074 437.117 340.319 437.875 340.81 438.408C341.322 438.941 342.047 439.208 342.986 439.208C343.989 439.208 344.821 438.92 345.482 438.344L346.282 439.976C345.834 440.381 345.29 440.68 344.65 440.872C344.031 441.064 343.391 441.16 342.73 441.16ZM334.794 426.088V424.2H345.194V426.088H334.794ZM354.93 441.16C353.543 441.16 352.231 440.968 350.994 440.584C349.757 440.179 348.786 439.677 348.082 439.08L349.106 437.288C349.789 437.8 350.663 438.248 351.73 438.632C352.797 438.995 353.917 439.176 355.09 439.176C356.69 439.176 357.842 438.931 358.546 438.44C359.25 437.928 359.602 437.256 359.602 436.424C359.602 435.805 359.399 435.325 358.994 434.984C358.61 434.621 358.098 434.355 357.458 434.184C356.818 433.992 356.103 433.832 355.314 433.704C354.525 433.576 353.735 433.427 352.946 433.256C352.178 433.085 351.474 432.84 350.834 432.52C350.194 432.179 349.671 431.72 349.266 431.144C348.882 430.568 348.69 429.8 348.69 428.84C348.69 427.923 348.946 427.101 349.458 426.376C349.97 425.651 350.717 425.085 351.698 424.68C352.701 424.253 353.917 424.04 355.346 424.04C356.434 424.04 357.522 424.189 358.61 424.488C359.698 424.765 360.594 425.139 361.298 425.608L360.306 427.432C359.559 426.92 358.759 426.557 357.906 426.344C357.053 426.109 356.199 425.992 355.346 425.992C353.831 425.992 352.711 426.259 351.986 426.792C351.282 427.304 350.93 427.965 350.93 428.776C350.93 429.416 351.122 429.917 351.506 430.28C351.911 430.643 352.434 430.931 353.074 431.144C353.735 431.336 354.45 431.496 355.218 431.624C356.007 431.752 356.786 431.912 357.554 432.104C358.343 432.275 359.058 432.52 359.698 432.84C360.359 433.139 360.882 433.576 361.266 434.152C361.671 434.707 361.874 435.443 361.874 436.36C361.874 437.341 361.597 438.195 361.042 438.92C360.509 439.624 359.719 440.179 358.674 440.584C357.65 440.968 356.402 441.16 354.93 441.16ZM371.355 441.16C369.776 441.16 368.56 440.733 367.707 439.88C366.854 439.027 366.427 437.821 366.427 436.264V420.488H368.699V436.136C368.699 437.117 368.944 437.875 369.435 438.408C369.947 438.941 370.672 439.208 371.611 439.208C372.614 439.208 373.446 438.92 374.107 438.344L374.907 439.976C374.459 440.381 373.915 440.68 373.275 440.872C372.656 441.064 372.016 441.16 371.355 441.16ZM363.419 426.088V424.2H373.819V426.088H363.419ZM379.043 441V424.2H381.219V428.776L380.995 427.976C381.464 426.696 382.254 425.725 383.363 425.064C384.472 424.381 385.848 424.04 387.491 424.04V426.248C387.406 426.248 387.32 426.248 387.235 426.248C387.15 426.227 387.064 426.216 386.979 426.216C385.208 426.216 383.822 426.76 382.819 427.848C381.816 428.915 381.315 430.44 381.315 432.424V441H379.043ZM400.915 441V437.288L400.819 436.68V430.472C400.819 429.043 400.413 427.944 399.603 427.176C398.813 426.408 397.629 426.024 396.051 426.024C394.963 426.024 393.928 426.205 392.947 426.568C391.965 426.931 391.133 427.411 390.451 428.008L389.427 426.312C390.28 425.587 391.304 425.032 392.499 424.648C393.693 424.243 394.952 424.04 396.275 424.04C398.451 424.04 400.125 424.584 401.299 425.672C402.493 426.739 403.091 428.371 403.091 430.568V441H400.915ZM395.123 441.16C393.864 441.16 392.765 440.957 391.827 440.552C390.909 440.125 390.205 439.549 389.715 438.824C389.224 438.077 388.979 437.224 388.979 436.264C388.979 435.389 389.181 434.6 389.587 433.896C390.013 433.171 390.696 432.595 391.635 432.168C392.595 431.72 393.875 431.496 395.475 431.496H401.267V433.192H395.539C393.917 433.192 392.787 433.48 392.147 434.056C391.528 434.632 391.219 435.347 391.219 436.2C391.219 437.16 391.592 437.928 392.339 438.504C393.085 439.08 394.131 439.368 395.475 439.368C396.755 439.368 397.853 439.08 398.771 438.504C399.709 437.907 400.392 437.053 400.819 435.944L401.331 437.512C400.904 438.621 400.157 439.507 399.091 440.168C398.045 440.829 396.723 441.16 395.123 441.16ZM417.934 441.16C416.483 441.16 415.171 440.829 413.998 440.168C412.824 439.485 411.886 438.515 411.182 437.256C410.499 435.976 410.158 434.419 410.158 432.584C410.158 430.749 410.499 429.203 411.182 427.944C411.864 426.664 412.792 425.693 413.966 425.032C415.139 424.371 416.462 424.04 417.934 424.04C419.534 424.04 420.963 424.403 422.222 425.128C423.502 425.832 424.504 426.835 425.23 428.136C425.955 429.416 426.318 430.899 426.318 432.584C426.318 434.291 425.955 435.784 425.23 437.064C424.504 438.344 423.502 439.347 422.222 440.072C420.963 440.797 419.534 441.16 417.934 441.16ZM409.262 447.208V424.2H411.438V429.256L411.214 432.616L411.534 436.008V447.208H409.262ZM417.774 439.144C418.968 439.144 420.035 438.877 420.974 438.344C421.912 437.789 422.659 437.021 423.214 436.04C423.768 435.037 424.046 433.885 424.046 432.584C424.046 431.283 423.768 430.141 423.214 429.16C422.659 428.179 421.912 427.411 420.974 426.856C420.035 426.301 418.968 426.024 417.774 426.024C416.579 426.024 415.502 426.301 414.542 426.856C413.603 427.411 412.856 428.179 412.302 429.16C411.768 430.141 411.502 431.283 411.502 432.584C411.502 433.885 411.768 435.037 412.302 436.04C412.856 437.021 413.603 437.789 414.542 438.344C415.502 438.877 416.579 439.144 417.774 439.144Z" fill="white"/>
<path d="M74 441V420.648H66.128V418.6H84.24V420.648H76.368V441H74ZM97.1335 441V437.288L97.0375 436.68V430.472C97.0375 429.043 96.6322 427.944 95.8215 427.176C95.0322 426.408 93.8482 426.024 92.2695 426.024C91.1815 426.024 90.1468 426.205 89.1655 426.568C88.1842 426.931 87.3522 427.411 86.6695 428.008L85.6455 426.312C86.4988 425.587 87.5228 425.032 88.7175 424.648C89.9122 424.243 91.1708 424.04 92.4935 424.04C94.6695 424.04 96.3442 424.584 97.5175 425.672C98.7122 426.739 99.3095 428.371 99.3095 430.568V441H97.1335ZM91.3415 441.16C90.0828 441.16 88.9842 440.957 88.0455 440.552C87.1282 440.125 86.4242 439.549 85.9335 438.824C85.4428 438.077 85.1975 437.224 85.1975 436.264C85.1975 435.389 85.4002 434.6 85.8055 433.896C86.2322 433.171 86.9148 432.595 87.8535 432.168C88.8135 431.72 90.0935 431.496 91.6935 431.496H97.4855V433.192H91.7575C90.1362 433.192 89.0055 433.48 88.3655 434.056C87.7468 434.632 87.4375 435.347 87.4375 436.2C87.4375 437.16 87.8108 437.928 88.5575 438.504C89.3042 439.08 90.3495 439.368 91.6935 439.368C92.9735 439.368 94.0722 439.08 94.9895 438.504C95.9282 437.907 96.6108 437.053 97.0375 435.944L97.5495 437.512C97.1228 438.621 96.3762 439.507 95.3095 440.168C94.2642 440.829 92.9415 441.16 91.3415 441.16ZM105.481 441V424.2H107.753V441H105.481ZM106.633 420.488C106.163 420.488 105.769 420.328 105.449 420.008C105.129 419.688 104.969 419.304 104.969 418.856C104.969 418.408 105.129 418.035 105.449 417.736C105.769 417.416 106.163 417.256 106.633 417.256C107.102 417.256 107.497 417.405 107.817 417.704C108.137 418.003 108.297 418.376 108.297 418.824C108.297 419.293 108.137 419.688 107.817 420.008C107.518 420.328 107.123 420.488 106.633 420.488ZM114.074 441V417.256H116.346V441H114.074ZM126.092 441L119.756 424.2H121.932L127.692 439.784H126.7L132.62 424.2H134.572L140.428 439.784H139.436L145.292 424.2H147.372L141.004 441H138.86L133.228 426.344H133.9L128.236 441H126.092ZM150.793 441V424.2H153.065V441H150.793ZM151.945 420.488C151.476 420.488 151.081 420.328 150.761 420.008C150.441 419.688 150.281 419.304 150.281 418.856C150.281 418.408 150.441 418.035 150.761 417.736C151.081 417.416 151.476 417.256 151.945 417.256C152.414 417.256 152.809 417.405 153.129 417.704C153.449 418.003 153.609 418.376 153.609 418.824C153.609 419.293 153.449 419.688 153.129 420.008C152.83 420.328 152.436 420.488 151.945 420.488ZM167.963 424.04C169.328 424.04 170.523 424.307 171.547 424.84C172.592 425.352 173.403 426.141 173.979 427.208C174.576 428.275 174.875 429.619 174.875 431.24V441H172.603V431.464C172.603 429.693 172.155 428.36 171.259 427.464C170.384 426.547 169.147 426.088 167.547 426.088C166.352 426.088 165.307 426.333 164.411 426.824C163.536 427.293 162.853 427.987 162.363 428.904C161.893 429.8 161.659 430.888 161.659 432.168V441H159.387V424.2H161.563V428.808L161.211 427.944C161.744 426.728 162.597 425.779 163.771 425.096C164.944 424.392 166.341 424.04 167.963 424.04ZM187.7 441.16C186.1 441.16 184.66 440.797 183.38 440.072C182.121 439.347 181.129 438.344 180.404 437.064C179.678 435.763 179.316 434.269 179.316 432.584C179.316 430.877 179.678 429.384 180.404 428.104C181.129 426.824 182.121 425.832 183.38 425.128C184.66 424.403 186.1 424.04 187.7 424.04C189.172 424.04 190.484 424.371 191.636 425.032C192.809 425.693 193.737 426.664 194.42 427.944C195.124 429.203 195.476 430.749 195.476 432.584C195.476 434.397 195.134 435.944 194.452 437.224C193.769 438.504 192.841 439.485 191.668 440.168C190.516 440.829 189.193 441.16 187.7 441.16ZM187.86 439.144C189.054 439.144 190.121 438.877 191.06 438.344C192.02 437.789 192.766 437.021 193.3 436.04C193.854 435.037 194.132 433.885 194.132 432.584C194.132 431.261 193.854 430.109 193.3 429.128C192.766 428.147 192.02 427.389 191.06 426.856C190.121 426.301 189.054 426.024 187.86 426.024C186.686 426.024 185.63 426.301 184.692 426.856C183.753 427.389 183.006 428.147 182.452 429.128C181.897 430.109 181.62 431.261 181.62 432.584C181.62 433.885 181.897 435.037 182.452 436.04C183.006 437.021 183.753 437.789 184.692 438.344C185.63 438.877 186.686 439.144 187.86 439.144ZM194.196 441V435.944L194.42 432.552L194.1 429.16V417.256H196.372V441H194.196Z" fill="white"/>
<path d="M283.472 569.192C281.765 569.192 280.187 568.915 278.736 568.36C277.307 567.784 276.059 566.984 274.992 565.96C273.947 564.936 273.125 563.731 272.528 562.344C271.952 560.957 271.664 559.443 271.664 557.8C271.664 556.157 271.952 554.643 272.528 553.256C273.125 551.869 273.957 550.664 275.024 549.64C276.091 548.616 277.339 547.827 278.768 547.272C280.219 546.696 281.797 546.408 283.504 546.408C285.211 546.408 286.768 546.675 288.176 547.208C289.605 547.741 290.821 548.552 291.824 549.64L290.352 551.144C289.413 550.205 288.379 549.533 287.248 549.128C286.117 548.723 284.901 548.52 283.6 548.52C282.213 548.52 280.933 548.755 279.76 549.224C278.608 549.672 277.595 550.323 276.72 551.176C275.867 552.008 275.195 552.989 274.704 554.12C274.235 555.229 274 556.456 274 557.8C274 559.123 274.235 560.349 274.704 561.48C275.195 562.611 275.867 563.603 276.72 564.456C277.595 565.288 278.608 565.939 279.76 566.408C280.933 566.856 282.203 567.08 283.568 567.08C284.848 567.08 286.053 566.888 287.184 566.504C288.336 566.12 289.392 565.469 290.352 564.552L291.696 566.344C290.629 567.283 289.381 567.997 287.952 568.488C286.523 568.957 285.029 569.192 283.472 569.192ZM289.424 566.056V557.8H291.696V566.344L289.424 566.056ZM304.574 569.192C302.91 569.192 301.31 568.925 299.774 568.392C298.259 567.837 297.086 567.133 296.254 566.28L297.182 564.456C297.971 565.224 299.027 565.875 300.35 566.408C301.694 566.92 303.102 567.176 304.574 567.176C305.982 567.176 307.123 567.005 307.998 566.664C308.894 566.301 309.545 565.821 309.95 565.224C310.377 564.627 310.59 563.965 310.59 563.24C310.59 562.365 310.334 561.661 309.822 561.128C309.331 560.595 308.681 560.179 307.87 559.88C307.059 559.56 306.163 559.283 305.182 559.048C304.201 558.813 303.219 558.568 302.238 558.312C301.257 558.035 300.35 557.672 299.518 557.224C298.707 556.776 298.046 556.189 297.534 555.464C297.043 554.717 296.798 553.747 296.798 552.552C296.798 551.443 297.086 550.429 297.662 549.512C298.259 548.573 299.166 547.827 300.382 547.272C301.598 546.696 303.155 546.408 305.054 546.408C306.313 546.408 307.561 546.589 308.798 546.952C310.035 547.293 311.102 547.773 311.998 548.392L311.198 550.28C310.238 549.64 309.214 549.171 308.126 548.872C307.059 548.573 306.025 548.424 305.022 548.424C303.678 548.424 302.569 548.605 301.694 548.968C300.819 549.331 300.169 549.821 299.742 550.44C299.337 551.037 299.134 551.72 299.134 552.488C299.134 553.363 299.379 554.067 299.87 554.6C300.382 555.133 301.043 555.549 301.854 555.848C302.686 556.147 303.593 556.413 304.574 556.648C305.555 556.883 306.526 557.139 307.486 557.416C308.467 557.693 309.363 558.056 310.174 558.504C311.006 558.931 311.667 559.507 312.158 560.232C312.67 560.957 312.926 561.907 312.926 563.08C312.926 564.168 312.627 565.181 312.03 566.12C311.433 567.037 310.515 567.784 309.278 568.36C308.062 568.915 306.494 569.192 304.574 569.192ZM314.502 569L324.742 546.6H327.078L337.318 569H334.822L325.414 547.976H326.374L316.966 569H314.502ZM318.534 563.016L319.238 561.096H332.262L332.966 563.016H318.534ZM341.023 569V546.6H349.407C351.306 546.6 352.938 546.909 354.303 547.528C355.668 548.125 356.714 549 357.439 550.152C358.186 551.283 358.559 552.659 358.559 554.28C358.559 555.859 358.186 557.224 357.439 558.376C356.714 559.507 355.668 560.381 354.303 561C352.938 561.619 351.306 561.928 349.407 561.928H342.335L343.391 560.808V569H341.023ZM343.391 561L342.335 559.848H349.343C351.583 559.848 353.279 559.368 354.431 558.408C355.604 557.427 356.191 556.051 356.191 554.28C356.191 552.488 355.604 551.101 354.431 550.12C353.279 549.139 351.583 548.648 349.343 548.648H342.335L343.391 547.528V561Z" fill="white"/>
<path d="M71.76 557.448H83.6V559.496H71.76V557.448ZM72.016 569H69.648V546.6H85.008V548.648H72.016V569ZM89.418 569V552.2H91.69V569H89.418ZM90.57 548.488C90.1007 548.488 89.706 548.328 89.386 548.008C89.066 547.688 88.906 547.304 88.906 546.856C88.906 546.408 89.066 546.035 89.386 545.736C89.706 545.416 90.1007 545.256 90.57 545.256C91.0393 545.256 91.434 545.405 91.754 545.704C92.074 546.003 92.234 546.376 92.234 546.824C92.234 547.293 92.074 547.688 91.754 548.008C91.4553 548.328 91.0607 548.488 90.57 548.488ZM105.18 575.368C103.644 575.368 102.172 575.144 100.764 574.696C99.3558 574.248 98.2144 573.608 97.3398 572.776L98.4918 571.048C99.2811 571.752 100.252 572.307 101.404 572.712C102.577 573.139 103.814 573.352 105.116 573.352C107.249 573.352 108.817 572.851 109.82 571.848C110.822 570.867 111.324 569.331 111.324 567.24V563.048L111.644 560.168L111.42 557.288V552.2H113.596V566.952C113.596 569.853 112.881 571.976 111.452 573.32C110.044 574.685 107.953 575.368 105.18 575.368ZM104.764 568.36C103.164 568.36 101.724 568.019 100.444 567.336C99.1638 566.632 98.1504 565.661 97.4038 564.424C96.6784 563.187 96.3158 561.768 96.3158 560.168C96.3158 558.568 96.6784 557.16 97.4038 555.944C98.1504 554.707 99.1638 553.747 100.444 553.064C101.724 552.381 103.164 552.04 104.764 552.04C106.257 552.04 107.601 552.349 108.796 552.968C109.99 553.587 110.94 554.504 111.644 555.72C112.348 556.936 112.7 558.419 112.7 560.168C112.7 561.917 112.348 563.4 111.644 564.616C110.94 565.832 109.99 566.76 108.796 567.4C107.601 568.04 106.257 568.36 104.764 568.36ZM104.988 566.344C106.225 566.344 107.324 566.088 108.284 565.576C109.244 565.043 110.001 564.317 110.556 563.4C111.11 562.461 111.388 561.384 111.388 560.168C111.388 558.952 111.11 557.885 110.556 556.968C110.001 556.051 109.244 555.336 108.284 554.824C107.324 554.291 106.225 554.024 104.988 554.024C103.772 554.024 102.673 554.291 101.692 554.824C100.732 555.336 99.9744 556.051 99.4198 556.968C98.8864 557.885 98.6198 558.952 98.6198 560.168C98.6198 561.384 98.8864 562.461 99.4198 563.4C99.9744 564.317 100.732 565.043 101.692 565.576C102.673 566.088 103.772 566.344 104.988 566.344ZM140.91 552.04C142.275 552.04 143.459 552.307 144.462 552.84C145.486 553.352 146.275 554.141 146.83 555.208C147.406 556.275 147.694 557.619 147.694 559.24V569H145.422V559.464C145.422 557.693 144.995 556.36 144.142 555.464C143.31 554.547 142.126 554.088 140.59 554.088C139.438 554.088 138.435 554.333 137.582 554.824C136.75 555.293 136.099 555.987 135.63 556.904C135.182 557.8 134.958 558.888 134.958 560.168V569H132.686V559.464C132.686 557.693 132.259 556.36 131.406 555.464C130.553 554.547 129.358 554.088 127.822 554.088C126.691 554.088 125.699 554.333 124.846 554.824C123.993 555.293 123.331 555.987 122.862 556.904C122.414 557.8 122.19 558.888 122.19 560.168V569H119.918V552.2H122.094V556.744L121.742 555.944C122.254 554.728 123.075 553.779 124.206 553.096C125.358 552.392 126.713 552.04 128.27 552.04C129.913 552.04 131.31 552.456 132.462 553.288C133.614 554.099 134.361 555.325 134.702 556.968L133.806 556.616C134.297 555.251 135.161 554.152 136.398 553.32C137.657 552.467 139.161 552.04 140.91 552.04ZM164.384 569V565.288L164.288 564.68V558.472C164.288 557.043 163.882 555.944 163.072 555.176C162.282 554.408 161.098 554.024 159.52 554.024C158.432 554.024 157.397 554.205 156.416 554.568C155.434 554.931 154.602 555.411 153.92 556.008L152.896 554.312C153.749 553.587 154.773 553.032 155.968 552.648C157.162 552.243 158.421 552.04 159.744 552.04C161.92 552.04 163.594 552.584 164.768 553.672C165.962 554.739 166.56 556.371 166.56 558.568V569H164.384ZM158.592 569.16C157.333 569.16 156.234 568.957 155.296 568.552C154.378 568.125 153.674 567.549 153.184 566.824C152.693 566.077 152.448 565.224 152.448 564.264C152.448 563.389 152.65 562.6 153.056 561.896C153.482 561.171 154.165 560.595 155.104 560.168C156.064 559.72 157.344 559.496 158.944 559.496H164.736V561.192H159.008C157.386 561.192 156.256 561.48 155.616 562.056C154.997 562.632 154.688 563.347 154.688 564.2C154.688 565.16 155.061 565.928 155.808 566.504C156.554 567.08 157.6 567.368 158.944 567.368C160.224 567.368 161.322 567.08 162.24 566.504C163.178 565.907 163.861 565.053 164.288 563.944L164.8 565.512C164.373 566.621 163.626 567.507 162.56 568.168C161.514 568.829 160.192 569.16 158.592 569.16Z" fill="white"/>
<path d="M14.5249 49.2366H46.3449V54.7406H14.5249V49.2366ZM15.2129 80.2826H8.84892V20.0826H50.1289V25.5866H15.2129V80.2826ZM61.141 80.2826V35.1326H66.989V47.4306L66.387 45.2806C67.6483 41.8406 69.7696 39.2319 72.751 37.4546C75.7323 35.6199 79.4303 34.7026 83.845 34.7026V40.6366C83.6156 40.6366 83.3863 40.6366 83.157 40.6366C82.9276 40.5792 82.6983 40.5506 82.469 40.5506C77.7103 40.5506 73.9836 42.0126 71.289 44.9366C68.5943 47.8032 67.247 51.9026 67.247 57.2346V80.2826H61.141ZM112.971 80.7126C108.613 80.7126 104.686 79.7379 101.189 77.7886C97.7487 75.7819 95.0254 73.0586 93.0187 69.6186C91.0121 66.1212 90.0087 62.1366 90.0087 57.6646C90.0087 53.1352 91.0121 49.1506 93.0187 45.7106C95.0254 42.2706 97.7487 39.5759 101.189 37.6266C104.629 35.6772 108.556 34.7026 112.971 34.7026C117.443 34.7026 121.399 35.6772 124.839 37.6266C128.336 39.5759 131.059 42.2706 133.009 45.7106C135.015 49.1506 136.019 53.1352 136.019 57.6646C136.019 62.1366 135.015 66.1212 133.009 69.6186C131.059 73.0586 128.336 75.7819 124.839 77.7886C121.341 79.7379 117.385 80.7126 112.971 80.7126ZM112.971 75.2946C116.239 75.2946 119.134 74.5779 121.657 73.1446C124.179 71.6539 126.157 69.5899 127.591 66.9526C129.081 64.2579 129.827 61.1619 129.827 57.6646C129.827 54.1099 129.081 51.0139 127.591 48.3766C126.157 45.7392 124.179 43.7039 121.657 42.2706C119.134 40.7799 116.267 40.0346 113.057 40.0346C109.846 40.0346 106.979 40.7799 104.457 42.2706C101.934 43.7039 99.9274 45.7392 98.4367 48.3766C96.9461 51.0139 96.2007 54.1099 96.2007 57.6646C96.2007 61.1619 96.9461 64.2579 98.4367 66.9526C99.9274 69.5899 101.934 71.6539 104.457 73.1446C106.979 74.5779 109.817 75.2946 112.971 75.2946ZM171.533 34.7026C175.202 34.7026 178.413 35.4192 181.165 36.8526C183.974 38.2286 186.153 40.3499 187.701 43.2166C189.306 46.0832 190.109 49.6952 190.109 54.0526V80.2826H184.003V54.6546C184.003 49.8959 182.799 46.3126 180.391 43.9046C178.04 41.4392 174.715 40.2066 170.415 40.2066C167.204 40.2066 164.395 40.8659 161.987 42.1846C159.636 43.4459 157.801 45.3092 156.483 47.7746C155.221 50.1826 154.591 53.1066 154.591 56.5466V80.2826H148.485V35.1326H154.333V47.5166L153.387 45.1946C154.82 41.9266 157.113 39.3752 160.267 37.5406C163.42 35.6486 167.175 34.7026 171.533 34.7026ZM220.878 80.7126C216.635 80.7126 213.367 79.5659 211.074 77.2726C208.781 74.9792 207.634 71.7399 207.634 67.5546V25.1566H213.74V67.2106C213.74 69.8479 214.399 71.8832 215.718 73.3166C217.094 74.7499 219.043 75.4666 221.566 75.4666C224.261 75.4666 226.497 74.6926 228.274 73.1446L230.424 77.5306C229.22 78.6199 227.758 79.4226 226.038 79.9386C224.375 80.4546 222.655 80.7126 220.878 80.7126ZM199.55 40.2066V35.1326H227.5V40.2066H199.55ZM237.346 59.6426V54.3106H259.878V59.6426H237.346ZM280.503 47.0006H312.323V52.4186H280.503V47.0006ZM281.191 74.7786H317.397V80.2826H274.827V20.0826H316.107V25.5866H281.191V74.7786ZM354.115 34.7026C357.784 34.7026 360.995 35.4192 363.747 36.8526C366.556 38.2286 368.735 40.3499 370.283 43.2166C371.888 46.0832 372.691 49.6952 372.691 54.0526V80.2826H366.585V54.6546C366.585 49.8959 365.381 46.3126 362.973 43.9046C360.622 41.4392 357.297 40.2066 352.997 40.2066C349.786 40.2066 346.977 40.8659 344.569 42.1846C342.218 43.4459 340.383 45.3092 339.065 47.7746C337.803 50.1826 337.173 53.1066 337.173 56.5466V80.2826H331.067V35.1326H336.915V47.5166L335.969 45.1946C337.402 41.9266 339.695 39.3752 342.849 37.5406C346.002 35.6486 349.757 34.7026 354.115 34.7026ZM407.158 80.7126C402.858 80.7126 398.988 79.7379 395.548 77.7886C392.165 75.8392 389.499 73.1446 387.55 69.7046C385.601 66.2072 384.626 62.1939 384.626 57.6646C384.626 53.0779 385.601 49.0646 387.55 45.6246C389.499 42.1846 392.165 39.5186 395.548 37.6266C398.988 35.6772 402.858 34.7026 407.158 34.7026C411.114 34.7026 414.64 35.5912 417.736 37.3686C420.889 39.1459 423.383 41.7546 425.218 45.1946C427.11 48.5772 428.056 52.7339 428.056 57.6646C428.056 62.5379 427.139 66.6946 425.304 70.1346C423.469 73.5746 420.975 76.2119 417.822 78.0466C414.726 79.8239 411.171 80.7126 407.158 80.7126ZM407.588 75.2946C410.799 75.2946 413.665 74.5779 416.188 73.1446C418.768 71.6539 420.775 69.5899 422.208 66.9526C423.699 64.2579 424.444 61.1619 424.444 57.6646C424.444 54.1099 423.699 51.0139 422.208 48.3766C420.775 45.7392 418.768 43.7039 416.188 42.2706C413.665 40.7799 410.799 40.0346 407.588 40.0346C404.435 40.0346 401.597 40.7799 399.074 42.2706C396.551 43.7039 394.545 45.7392 393.054 48.3766C391.563 51.0139 390.818 54.1099 390.818 57.6646C390.818 61.1619 391.563 64.2579 393.054 66.9526C394.545 69.5899 396.551 71.6539 399.074 73.1446C401.597 74.5779 404.435 75.2946 407.588 75.2946ZM424.616 80.2826V66.6946L425.218 57.5786L424.358 48.4626V16.4706H430.464V80.2826H424.616Z" fill="#0255FF"/>
</g>
<g clip-path="url(#clip1_0_1)">
<path d="M223.988 549.515C222.339 550.291 217.973 553.784 217.132 554.819C216.259 555.854 216 554.237 216.906 551.552C217.617 549.386 219.428 546.442 222.468 543.92C224.247 542.464 228.16 540.362 230.554 539.133C231.039 538.874 237.313 536.222 242.908 534.897C243.393 534.767 242.326 535.705 242.164 536.222C241.323 538.68 224.538 549.224 224.538 549.224L223.988 549.515ZM247.63 579.172C247.921 580.918 247.662 581.048 245.851 581.274C244.04 581.501 242.714 580.821 242.229 580.369C241.744 579.916 241.647 578.913 242.132 578.008C242.423 577.426 242.714 577.232 242.876 576.52C243.038 575.841 243.167 575.679 243.296 575.42C243.426 575.194 243.458 574.967 243.49 573.383C243.523 571.798 243.49 568.823 243.652 567.561C243.814 566.268 249.409 568.144 249.409 568.144C249.409 568.144 248.083 571.442 247.727 572.251C247.371 573.06 247.404 574.612 247.404 574.935C247.404 575.259 247.275 575.905 247.177 575.938C247.08 575.97 247.501 576.811 247.307 577.296C247.177 577.749 247.598 578.913 247.63 579.172ZM249.765 529.722C249.57 528.493 249.765 526.067 250.023 525.679C250.832 524.579 255.101 524.45 256.007 525.744C256.395 526.326 256.362 527.684 256.298 528.558C256.233 529.431 256.007 531.306 255.974 531.921C255.942 532.374 251.252 533.085 250.217 531.856C249.926 531.533 249.765 529.722 249.765 529.722ZM259.273 576.035C261.246 577.458 262.766 577.717 263.768 578.234C264.771 578.752 264.512 579.754 262.83 580.045C261.472 580.304 259.338 579.786 257.915 579.786C256.492 579.786 253.322 579.948 252.481 579.366C251.511 578.687 251.931 577.426 251.931 577.426C252.19 576.714 252.837 575.129 252.643 573.836C252.449 572.542 252.19 571.831 251.705 570.634C251.22 569.437 250.864 566.494 251.317 566.333C251.77 566.171 251.64 566.333 252.222 566.462C252.805 566.591 253.451 566.785 254.713 566.785C255.974 566.785 257.365 566.591 257.85 566.494C258.335 566.397 258.723 566.3 258.561 567.303C258.4 568.305 257.915 570.181 257.882 571.636C257.85 573.092 257.85 574.774 257.947 575.065C258.044 575.356 258.755 575.679 259.273 576.035Z" fill="#010101"/>
<path d="M252.352 532.956C248.794 536.029 241.906 536.869 231.686 540.815C229.066 541.818 222.08 544.825 220.399 547.963C226.058 544.696 228.161 549.192 228.613 553.816C229.034 558.15 231.201 560.414 236.763 560.285C242.488 560.155 244.234 563.486 245.819 567.4C248.891 552.426 253.807 549.515 256.977 546.96C263.704 541.494 255.424 531.856 252.352 532.956Z" fill="#8AC640"/>
<path d="M252.352 532.956C243.814 535.931 235.373 536.675 225.444 542.788C223.083 544.243 218.102 547.542 217.132 553.849C220.754 549.838 229.131 544.793 239.383 541.591C244.557 539.974 248.342 538.907 252.934 537.128C252.611 535.058 252.611 534.25 252.352 532.956Z" fill="#8AC640"/>
<path d="M263.251 550.679C263.251 550.679 262.636 552.781 261.407 553.461C261.407 553.461 260.502 553.784 258.691 552.782C258.173 552.491 257.785 551.488 257.818 551.164C257.85 550.388 258.335 550.032 258.335 550.032C258.335 550.032 258.853 549.159 259.467 549.192C260.082 549.224 261.117 549.321 261.44 549.03C261.731 548.706 263.316 549.612 263.251 550.679ZM250.056 530.336C250.056 530.336 249.926 531.986 249.7 533.021C249.668 533.215 248.697 533.312 247.986 533.603C249.344 537.484 257.527 537.451 258.594 535.543C258.076 535.188 257.041 534.638 256.556 534.444C256.071 534.25 256.104 534.282 256.071 533.377C256.039 532.471 255.974 530.789 255.909 530.336C255.845 529.883 250.832 529.883 250.056 530.336Z" fill="#010101"/>
<path d="M250.379 530.336C250.379 530.336 250.379 531.274 250.282 532.18C250.25 532.6 250.217 532.859 250.153 533.182C250.12 533.377 251.252 534.152 251.576 535.867C253.128 539.327 256.718 537.613 258.206 535.964C257.688 535.608 256.847 535.123 255.877 534.735C255.392 534.541 255.618 534.12 255.586 533.215C255.554 532.309 255.424 530.983 255.36 530.498C255.295 530.013 251.155 529.883 250.379 530.336Z" fill="#F0EFEF"/>
<path d="M250.056 530.336C250.056 530.336 250.023 530.919 249.926 531.598C250.347 532.018 250.896 532.6 251.317 532.956C251.608 533.215 252.319 533.182 252.966 533.182C253.549 533.182 254.066 533.247 254.292 533.118C254.81 532.859 255.554 532.212 255.974 531.727C255.942 531.145 255.91 530.595 255.877 530.336C255.845 529.884 250.832 529.884 250.056 530.336Z" fill="#010101"/>
<path d="M252.999 532.794C252.611 532.794 252.158 532.762 251.802 532.697C251.64 532.665 251.479 532.568 251.349 532.503C251.123 532.341 250.896 532.148 250.638 531.953C250.12 531.565 250.088 531.339 250.088 531.242C250.314 529.204 250.023 527.49 250.023 527.49C250.023 527.49 249.797 526.617 251.026 526.391C252.255 526.164 252.999 526.132 252.999 526.132C252.999 526.132 253.775 526.132 254.971 526.391C256.2 526.617 255.974 527.49 255.974 527.49C255.974 527.49 255.683 529.204 255.909 531.242C255.909 531.339 255.877 531.565 255.359 531.953C254.907 532.277 254.551 532.632 254.195 532.697C253.839 532.762 253.387 532.794 252.999 532.794Z" fill="#010101"/>
<path d="M252.999 525.291C250.864 525.291 250.444 525.873 249.829 526.52C249.7 526.682 249.797 527.652 250.023 529.722H250.314C250.314 529.722 250.12 529.14 250.153 528.461C250.185 527.781 250.314 527.814 250.217 527.652C250.088 527.458 249.829 527.134 250.411 526.811C250.993 526.488 251.899 527.07 252.999 527.102C254.098 527.07 255.036 526.488 255.618 526.811C256.2 527.134 255.942 527.458 255.812 527.652C255.683 527.846 255.845 527.781 255.877 528.461C255.909 529.14 255.715 529.722 255.715 529.722H256.006C256.2 527.652 256.33 526.746 256.233 526.585C255.683 525.873 255.133 525.323 252.999 525.291ZM263.251 550.776C263.251 550.776 262.636 552.749 261.44 553.428C261.181 553.299 261.213 553.105 260.987 552.814C260.922 552.717 260.696 552.652 260.599 552.555C260.502 552.458 260.534 552.296 260.372 552.167C260.243 552.038 260.146 552.135 260.017 552.038C259.887 551.908 259.855 551.746 259.758 551.65C259.693 551.585 259.435 551.553 259.37 551.488C259.208 551.326 257.785 551.035 257.85 550.712C257.979 550.226 258.238 549.871 258.238 549.871C258.238 549.871 258.852 548.965 259.467 548.997C260.081 549.03 260.664 549.159 260.987 548.868C261.343 548.545 263.348 549.741 263.251 550.776Z" fill="#010101"/>
<path d="M259.047 536.481C259.047 536.481 261.084 535.996 262.475 537.322C263.866 538.681 263.768 540.362 263.348 541.397C263.704 541.818 264.351 542.982 263.866 544.373C266 546.184 265.062 548.965 263.154 550.809C263.154 550.809 262.701 549.127 260.89 549.03C260.955 548.383 259.208 547.865 260.017 546.184C258.788 545.893 258.82 545.052 258.626 544.017C258.464 542.982 259.047 536.481 259.047 536.481Z" fill="#010101"/>
<path d="M258.303 537.387C258.303 537.387 260.664 536.19 262.054 537.549C263.445 538.907 263.057 540.395 262.636 541.43C262.992 541.85 263.833 543.047 263.315 544.47C263.218 544.793 262.507 544.793 261.989 545.634C263.283 544.89 264.092 545.084 264.383 546.022C264.835 547.477 263.833 549.224 262.96 550.194C262.96 550.162 262.927 550.129 262.927 550.097C262.798 550.582 262.636 551.52 261.666 552.555C261.181 553.072 260.793 553.008 260.243 552.878C259.596 552.716 259.37 552.425 258.464 551.94C257.947 551.649 258.238 551.293 258.238 551.002C258.238 550.938 258.302 550.841 258.4 550.711C258.464 550.55 258.658 550.291 258.949 550C258.949 550 259.37 549.418 259.984 549.45C260.599 549.482 261.246 549.353 261.407 549.191C261.407 548.059 260.114 548.027 260.567 546.087C260.599 545.99 260.761 545.828 261.278 545.763C260.502 545.601 260.146 545.569 259.596 545.052C259.208 544.696 258.917 544.243 258.82 543.661C258.626 542.659 258.303 537.387 258.303 537.387Z" fill="#F0EFEF"/>
<path d="M251.479 535.349C251.285 535.091 250.282 533.797 248.374 533.279C247.824 533.118 247.468 533.571 246.919 533.894C246.757 533.797 246.045 533.474 245.657 533.7C245.269 533.926 245.01 534.153 244.622 534.314C244.428 534.217 243.911 534.217 243.49 534.379C243.07 534.508 242.423 534.799 241.809 535.64C241.42 537.031 248.665 535.996 248.665 535.996L251.479 535.349Z" fill="#010101"/>
<path d="M251.543 535.349C250.508 534.994 250.67 533.797 248.374 533.603C247.921 533.571 247.63 533.926 247.306 534.153C247.468 534.314 247.63 534.573 247.727 534.832C247.436 534.508 246.918 534.088 246.401 533.991C245.916 533.894 245.592 534.25 245.075 534.508C245.172 534.605 245.269 534.767 245.398 534.961C244.945 534.67 244.622 534.573 244.007 534.799C243.587 534.929 242.779 535.285 242.164 536.158C241.776 537.549 248.697 535.996 248.697 535.996L251.543 535.349Z" fill="#8AC640"/>
<path d="M257.624 535.867C257.624 535.867 257.624 535.511 257.591 535.188C257.591 535.123 257.332 534.961 257.332 534.897L257.268 534.832C257.268 534.832 257.785 534.541 258.173 534.703C258.594 534.832 258.82 535.382 258.82 535.382C259.564 535.123 259.629 535.414 259.984 535.802C260.761 535.64 260.858 535.931 261.343 536.643C261.343 536.643 260.761 536.546 259.629 536.74C258.529 536.902 257.624 535.834 257.624 535.867Z" fill="#010101"/>
<path d="M257.494 535.705C257.494 535.705 257.688 535.543 257.623 535.511C257.979 535.317 258.464 535.091 258.691 535.705C259.435 535.446 259.532 535.802 259.887 536.19C260.793 535.77 260.857 536.287 260.922 536.514C260.631 536.514 260.211 536.546 259.629 536.611C258.529 536.772 257.462 535.673 257.494 535.705Z" fill="#8AC640"/>
<path d="M246.498 534.897C246.498 534.897 248.342 535.543 249.894 535.446C251.446 535.317 254.098 535.188 255.521 536.028C255.521 536.028 256.977 535.511 258.335 535.867C259.694 536.222 262.184 538.551 261.44 541.009C261.375 541.171 260.955 541.429 260.47 541.591C260.47 541.591 260.728 542.691 260.276 543.596C259.823 544.47 258.82 546.151 258.788 548.48C258.756 548.868 258.691 549.676 258.626 550.065C256.104 549.968 252.223 549.03 248.406 549.094C248.439 548.674 248.471 548.415 248.503 547.995H248.6C248.406 546.927 248.342 546.378 248.147 545.569C246.918 544.793 245.625 543.887 244.525 542.173C243.458 540.459 246.498 534.897 246.498 534.897ZM258.982 552.361C258.982 552.361 260.987 559.541 258.626 562.549C258.626 562.549 258.982 563.939 258.173 565.427C258.044 566.074 257.882 566.656 257.785 567.303C257.365 569.987 256.653 571.119 256.459 575.42L254.519 575.388C254.519 575.388 254.292 572.283 253.613 570.634C253.225 569.696 251.705 568.435 251.77 567.173C251.834 566.203 252.028 565.395 253.678 564.101C253.807 562.225 251.931 560.446 252.223 553.461L258.982 552.361Z" fill="#010101"/>
<path d="M258.4 552.07C258.917 555.369 260.114 560.252 257.947 562.645C258.075 563.252 258.086 563.878 257.979 564.489C257.915 564.877 257.785 565.297 257.624 565.75C257.3 566.526 257.171 567.658 257.074 568.337C256.653 571.022 256.653 571.151 256.459 575.453L254.519 575.42C254.519 575.42 254.292 572.315 253.613 570.666C253.225 569.728 252.416 568.92 252.352 567.658C252.287 566.688 252.966 564.748 254.584 564.812C254.487 560.899 252.675 561.675 252.19 553.525L258.4 552.07ZM246.498 534.897C246.498 534.897 247.21 535.123 247.986 535.188C248.762 535.252 249.603 535.188 250.347 535.155C251.899 535.026 254.098 534.864 255.554 535.705C255.554 535.705 256.362 535.446 257.235 535.511C257.624 535.543 258.012 535.867 258.464 535.996C259.887 536.352 261.246 538.713 260.631 540.847C260.567 541.009 260.114 540.847 259.596 541.009C259.693 541.462 259.758 542.497 259.24 543.596C258.691 544.696 257.979 546.119 258.108 548.836C254.713 548.674 253.193 548.448 249.829 548.286C249.538 547.089 249.344 545.893 249.312 545.278C249.764 545.052 250.023 544.858 250.379 544.47C249.409 544.632 249.02 544.567 248.438 544.243C247.856 543.92 246.821 542.885 246.304 542.206C246.239 542.141 245.883 543.208 245.075 543.241C244.784 542.82 246.013 541.624 245.786 541.171C244.978 539.521 246.498 534.897 246.498 534.897Z" fill="#F0EFEF"/>
<path d="M258.658 549.385C258.658 549.385 258.723 550.55 258.723 550.841C258.723 551.164 258.982 552.134 259.014 552.587C258.658 553.202 257.106 554.592 254.292 555.11C251.511 555.692 247.824 551.326 247.824 551.326C247.921 550.906 248.244 549.676 248.471 549.03C248.503 548.965 248.568 548.803 248.568 548.739C248.859 548.318 258.658 549.385 258.658 549.385Z" fill="#010101"/>
<path d="M257.947 549.483C257.947 550.291 258.076 550.873 258.173 551.391C258.335 552.329 258.594 552.943 258.594 553.558C258.594 555.433 256.136 555.11 254.066 555.175C251.284 555.757 248.923 551.391 248.923 551.391C249.118 550.647 249.247 549.806 249.538 549.095C249.57 548.706 249.635 548.221 249.667 547.995C253.613 547.995 256.394 548.221 258.011 548.383C258.076 548.739 258.012 549.353 257.947 549.483Z" fill="#F0EFEF"/>
<path d="M254.842 553.655C254.842 553.655 253.128 549.838 247.986 550.97C246.757 554.431 245.107 558.409 246.174 562.71C245.107 564.166 243.878 564.974 243.878 567.658C243.878 570.343 244.008 570.796 244.008 570.796L247.792 570.99C247.792 570.99 249.02 569.405 249.506 567.691C249.635 567.206 249.764 566.333 249.667 565.33C249.797 565.136 250.346 564.683 250.411 563.81C250.411 563.81 252.255 562.84 253.322 560.479C254.325 558.344 254.066 556.501 254.842 553.655Z" fill="#010101"/>
<path d="M254.842 553.655C254.745 553.299 253.451 549.806 248.665 550.841C245.851 558.344 246.886 561.449 247.306 562.807C245.398 565.233 244.525 565.75 244.913 570.666H247.436C248.6 568.823 248.859 568.143 248.924 565.718C248.924 565.621 248.568 565.912 248.309 566.235C248.503 565.233 249.053 565.039 249.473 564.424C249.668 564.165 249.829 563.777 249.829 563.26C252.093 561.74 252.934 559.832 253.419 557.859C253.807 556.501 254.26 554.269 254.842 553.655Z" fill="#F0EFEF"/>
<path d="M246.854 548.448C246.854 548.448 247.727 548.48 248.503 548.739C249.247 548.997 249.247 549.159 249.538 549.483C249.829 549.806 250.541 550.291 250.412 550.776C250.347 551.035 250.185 551.1 249.959 551.326C249.862 551.423 249.15 552.199 248.988 552.296C248.891 552.361 248.762 552.458 248.665 552.523L248.18 552.846C247.856 553.008 247.63 553.105 247.274 553.072C247.274 553.072 246.466 553.04 245.948 552.49C245.948 552.49 245.884 552.232 246.013 552.102C246.013 552.102 245.334 551.52 245.14 551.132C244.946 550.744 244.946 550.194 245.075 549.903C245.14 549.612 246.401 548.803 246.854 548.448ZM247.662 579.916L247.565 580.725C247.565 580.725 247.274 581.08 245.107 581.048C242.908 581.016 242.326 580.337 242.132 579.981L242.003 579.14C242.003 579.14 242.423 578.525 242.52 578.525C243.232 578.59 245.658 579.56 247.339 579.819C247.501 579.819 247.533 579.884 247.662 579.916ZM252.352 578.266C252.352 578.622 252.319 578.622 252.319 578.978C252.708 579.269 253.678 579.431 255.521 579.398C258.206 579.334 260.696 580.207 263.736 579.689L263.768 579.107L263.477 579.075L252.708 578.202L252.352 578.266Z" fill="#010101"/>
<path d="M254.713 579.398H255.521C257.268 579.334 258.917 579.722 260.696 579.819C261.634 579.786 262.798 579.56 262.701 578.881L253.516 578.105C252.966 578.719 253.387 579.237 254.713 579.398ZM244.169 565.783C244.46 565.977 246.433 567.141 249.635 566.979C249.57 567.594 249.603 568.79 248.18 570.893C247.468 571.927 246.854 573.739 246.724 576.035C246.757 576.552 247.048 577.005 246.66 577.684C246.789 578.105 247.306 578.946 247.565 579.463C247.824 579.981 247.953 580.563 246.239 580.595C244.493 580.627 241.679 580.433 242.067 579.075C242.261 578.364 242.811 577.62 242.876 577.329C242.94 577.038 242.94 576.164 243.49 575.582C243.975 573.965 243.814 572.413 243.717 570.957C243.555 569.437 243.523 567.012 244.169 565.783ZM247.177 539.424C249.473 536.352 247.533 533.894 243.846 534.638C242.358 534.929 240.871 535.964 240.774 537.84C240.289 537.904 239.189 537.969 238.639 539.974C238.219 541.526 237.992 541.817 237.248 542.594C236.763 543.143 237.281 544.275 237.636 545.084C238.833 547.865 242.52 548.124 245.01 550.226C245.851 550 246.724 549.062 246.983 548.448C244.881 545.957 245.334 544.987 244.493 543.693C245.398 543.37 247.468 542.109 247.177 539.424Z" fill="#010101"/>
<path d="M246.724 539.23C246.854 539.036 247.08 538.616 247.177 538.454C247.21 538.422 247.565 539.036 247.598 539.004C248.471 537.581 248.697 535.511 247.695 535.317C247.468 535.284 247.048 535.188 246.692 535.058C246.045 534.832 245.463 534.832 244.428 535.026C243.005 535.284 241.582 536.319 241.582 537.807C241.582 537.904 242.584 538.195 242.876 539.392C242.39 538.713 241.55 537.969 240.547 538.616C239.48 539.295 240.03 540.847 238.607 542.464C238.121 543.014 238.186 543.661 238.703 544.954C239.544 546.992 243.522 548.092 245.689 550.032C246.207 549.806 246.562 549.288 246.821 548.9C245.366 547.38 244.784 545.957 244.363 544.922C243.846 543.726 243.264 543.046 242.132 542.141C242.714 542.367 243.167 542.593 243.425 542.787C243.716 542.981 244.137 543.014 244.525 542.884C245.916 542.4 246.66 540.459 246.724 539.23Z" fill="#F0EFEF"/>
<path d="M260.793 539.748C260.696 540.977 259.79 540.362 259.305 540.136C258.335 539.715 257.365 539.424 256.233 539.424C255.101 539.424 253.645 539.521 252.384 539.845C250.638 540.33 250.12 540.298 249.344 539.909C248.568 539.489 247.21 538.454 247.21 538.454C247.21 538.454 247.177 538.777 247.501 539.198C247.921 539.715 248.859 540.362 250.12 540.783C250.735 540.977 251.22 540.847 251.77 540.718C254.648 540.006 257.688 539.877 260.243 541.429C260.373 541.494 260.826 541.3 261.02 541.009C261.278 540.589 260.793 539.748 260.793 539.748Z" fill="#010101"/>
<path d="M246.078 552.07C246.336 552.232 246.66 552.329 247.015 552.62C247.015 552.62 246.724 552.62 246.595 552.49C246.433 552.393 246.11 552.102 246.078 552.07Z" fill="#0A1825"/>
<path d="M255.424 526.423C255.327 526.132 254.616 525.614 252.966 525.614C251.188 525.614 250.67 526.164 250.638 526.455C250.638 526.552 250.508 527.587 250.476 528.008C250.476 528.008 250.476 528.525 250.508 529.301C250.541 529.819 250.67 530.11 250.735 530.789C250.799 531.5 250.993 531.953 251.349 532.535C251.511 532.632 251.64 532.729 251.802 532.762C252.449 532.891 253.581 532.924 254.195 532.762C254.551 532.665 255.004 532.05 255.101 531.501C255.23 530.821 255.359 530.336 255.392 529.916C255.456 529.496 255.489 528.558 255.521 528.299C255.618 527.587 255.456 526.488 255.424 526.423Z" fill="#F0EFEF"/>
<path d="M252.028 566.397C252.028 566.397 253.743 567.141 257.979 566.494C257.979 566.494 256.783 572.51 257.333 575.517C257.333 575.517 257.882 576.294 261.957 577.781C261.957 577.781 263.769 578.234 263.704 579.14C263.704 579.14 263.769 579.334 261.569 579.269C259.37 579.204 257.3 578.816 255.845 578.816C254.389 578.816 252.837 578.881 252.578 578.461C252.287 578.072 252.643 577.07 253.064 576.488C253.517 575.873 253.387 575.42 253.355 574.321C253.257 571.442 251.058 568.467 252.028 566.397Z" fill="#010101"/>
<path d="M251.673 566.947C251.446 567.27 251.705 568.499 252.028 569.696C252.352 570.893 253.063 571.604 253.225 573.577C253.387 575.517 253.419 575.776 252.869 576.908C252.319 578.04 252.158 579.075 254.066 579.107C255.974 579.14 257.009 579.075 258.949 579.366C260.89 579.657 261.569 579.754 262.636 579.592C263.704 579.431 263.93 579.075 263.477 578.752C263.024 578.428 261.149 578.072 260.34 577.425C259.564 576.843 257.365 575.873 257.332 575.614C257.235 574.741 257.203 571.572 257.365 570.537C257.527 569.502 257.753 568.014 257.818 567.626C257.882 567.238 258.206 566.85 257.656 566.979C257.106 567.108 255.036 567.4 253.484 567.303C251.931 567.206 251.77 566.85 251.673 566.947Z" fill="#8AC640"/>
<path opacity="0.3" d="M252.772 576.941C253.322 577.199 254.131 577.393 254.745 577.393C254.745 577.393 254.519 578.461 254.874 579.107C255.23 579.754 252.287 579.366 252.287 579.366L252.158 577.07L252.772 576.941ZM261.343 579.722C261.86 579.56 262.216 578.978 261.796 578.428C261.343 577.878 260.955 577.781 261.537 577.749C262.119 577.717 264.254 579.01 264.254 579.01L263.154 580.013L261.343 579.722ZM251.576 568.208C252.319 568.467 253.451 568.532 254.422 568.499C255.392 568.467 256.847 568.337 257.785 568.014C258.723 567.691 258.335 568.37 258.335 568.37L257.818 568.855C257.818 568.855 256.589 569.34 254.584 569.308C252.223 569.276 251.511 569.017 251.511 569.017L251.576 568.208ZM251.64 569.825C252.384 570.084 253.516 570.149 254.486 570.116C255.456 570.084 256.75 570.084 257.688 569.728C258.076 569.599 257.85 570.149 257.85 570.149L257.688 570.44C257.688 570.44 256.427 570.893 254.454 570.86C252.093 570.828 251.673 570.634 251.673 570.634L251.64 569.825Z" fill="#010101"/>
<path d="M249.506 547.154C249.506 547.38 252.028 548.642 253.419 548.9C254.81 549.159 257.721 548.9 258.173 548.803L258.108 549.256C258.108 549.256 254.648 549.774 251.996 549.062C249.344 548.351 249.635 548.189 249.635 548.189L249.506 547.154Z" fill="#010101"/>
<path d="M244.105 574.741C244.493 574.935 245.883 575.291 246.789 575.097C246.918 575.065 246.789 572.865 247.145 571.863C247.662 570.472 248.503 569.34 248.891 566.882C247.533 566.753 245.98 566.397 245.172 566.138C244.137 569.308 244.493 572.024 244.105 574.741ZM246.272 576.779C246.498 576.843 246.66 577.102 246.725 576.941C246.854 576.649 246.498 576.1 246.466 575.712V575.679C246.175 575.421 244.202 575.388 244.331 575.518C244.105 575.938 243.749 575.873 243.62 576.714C243.555 577.135 244.073 576.779 244.558 576.746C243.685 577.329 242.682 578.073 242.52 578.719C242.326 579.625 242.65 579.884 243.62 580.369C244.461 580.563 245.463 580.595 246.239 580.563C247.113 580.401 247.275 579.981 247.016 579.399C246.627 578.525 246.369 577.393 246.272 576.779Z" fill="#F0EFEF"/>
<path d="M246.627 534.767C247.695 535.382 249.182 535.22 249.732 535.188C249.862 535.188 251.155 534.961 251.22 534.993C251.349 535.026 251.349 535.123 251.349 535.123C251.349 535.123 250.864 535.381 249.765 535.446C248.73 535.511 247.501 535.446 246.822 535.123C246.013 534.767 246.627 534.767 246.627 534.767ZM257.624 535.382C257.818 535.511 259.079 535.996 259.629 536.578C260.114 537.096 259.855 537.063 259.758 536.934C259.629 536.772 258.626 536.093 258.238 535.931C257.85 535.77 257.365 535.479 257.365 535.414C257.365 535.349 257.624 535.382 257.624 535.382Z" fill="#010101"/>
<path d="M246.466 548.803C247.403 548.739 248.374 548.965 248.988 549.612C249.312 549.935 249.829 550.291 249.765 550.614C249.765 550.711 249.57 550.97 249.409 551.164C249.312 551.293 249.021 551.585 248.924 551.682C248.794 551.779 248.342 552.135 248.245 552.199C248.148 552.264 248.018 552.426 247.921 552.458C247.598 552.62 247.242 552.49 246.919 552.329C246.595 552.167 246.983 552.135 246.627 551.876C245.754 551.261 245.269 550.841 245.625 549.644C245.657 549.418 246.013 549.159 246.466 548.803Z" fill="#F0EFEF"/>
<path opacity="0.4" d="M238.219 541.397C235.308 542.561 227.902 546.249 225.799 547.38C227.546 548.48 228.354 551.132 228.613 553.816C228.645 554.075 228.678 554.302 228.71 554.56C228.742 554.787 228.775 554.948 228.807 555.045C228.807 555.078 228.807 555.142 228.839 555.175C230.748 549.968 237.572 544.47 237.83 544.049C237.96 543.855 237.669 543.014 238.121 542.206C238.704 541.171 239.836 540.718 238.219 541.397ZM245.14 565.815C246.627 562.84 246.66 559.994 246.627 556.662C246.627 555.272 247.63 553.299 247.113 553.849C245.172 556.015 240.289 560.091 236.763 560.317C241.711 560.155 243.652 562.645 245.14 565.815Z" fill="#010101"/>
<path d="M222.953 550.129C224.797 548.803 234.338 543.726 236.634 543.014C238.93 542.27 238.218 541.397 238.218 541.397C238.218 541.397 228.904 545.407 223.341 548.868" fill="#010101"/>
<path opacity="0.4" d="M250.12 540.783C249.376 540.492 248.794 541.365 248.988 542.206C249.182 543.047 250.929 543.984 250.832 547.057C250.767 549.58 250.217 550.615 250.217 550.615L248.988 549.062C248.988 549.062 248.794 545.569 248.374 545.052C247.953 544.534 246.627 543.596 246.11 543.111C245.592 542.626 246.692 541.979 246.627 541.074C246.563 540.201 247.177 538.454 247.177 538.454L250.12 540.783ZM254.616 554.56C254.551 556.986 255.101 560.576 255.327 562.29C255.554 564.004 255.845 564.133 255.327 564.91C254.81 565.653 254.131 566.882 254.131 566.882L251.899 566.688C251.899 566.688 253.678 564.424 253.775 564.004C253.872 563.584 252.869 560.382 252.869 560.382L254.616 554.56ZM250.314 531.921C250.767 532.924 251.317 533.376 252.19 533.668C252.708 533.862 254.745 534.12 255.554 533.215C255.909 532.794 255.683 531.662 255.683 531.662L253.839 533.15L251.349 532.697L251.058 531.953L250.314 531.921Z" fill="#010101"/>
<path d="M250.217 534.25C251.285 534.702 253.354 535.188 253.936 535.317C254.519 535.446 255.456 534.864 255.909 534.573C256.718 534.056 257.753 534.476 258.238 535.026C258.561 535.382 258.691 535.608 258.691 535.705C258.691 535.834 258.303 535.705 258.303 535.705C258.076 535.608 257.818 535.576 257.624 535.446C257.365 535.317 257.106 535.123 256.718 535.155C255.101 535.349 254.778 535.899 253.387 535.576C251.996 535.252 251.641 534.961 250.153 535.058" fill="#8AC640"/>
<path d="M245.204 564.457C245.14 564.392 245.269 564.327 245.204 564.327C244.784 564.327 244.202 564.004 243.878 563.551C242.488 561.546 240.45 560.22 236.763 560.317C231.233 560.446 229.033 558.182 228.613 553.849C228.387 551.488 227.74 549.192 226.414 547.898L225.638 548.383C227.125 549.677 227.61 551.779 227.934 554.657C228.451 558.991 231.944 560.996 236.019 561.061C240.256 561.125 241.776 561.999 243.361 564.133C243.878 564.813 244.46 565.039 244.913 565.136L245.204 564.457Z" fill="#010101"/>
<path opacity="0.4" d="M260.211 543.661C260.308 544.146 260.567 545.084 261.084 545.537C261.311 545.763 261.343 545.828 261.149 545.828C260.955 545.828 259.532 545.763 259.532 545.763L259.144 545.084L260.211 543.661Z" fill="#010101"/>
</g>
<path d="M37 185.417C23.5625 185.417 13.0417 180.833 13.0417 175C13.0417 169.167 23.5625 164.583 37 164.583C50.4375 164.583 60.9583 169.167 60.9583 175C60.9583 180.833 50.4375 185.417 37 185.417ZM37 166.667C23.875 166.667 15.125 170.937 15.125 175C15.125 179.062 23.875 183.333 37 183.333C50.125 183.333 58.875 179.062 58.875 175C58.875 170.937 50.125 166.667 37 166.667Z" fill="#80DEEA"/>
<path d="M27.7292 196.458C26.6875 196.458 25.8542 196.25 25.0208 195.729C19.9167 192.812 21.2708 181.458 27.9375 169.792C31.0625 164.375 34.9167 159.792 38.6667 156.875C42.7292 153.75 46.375 152.812 48.875 154.271C51.4792 155.729 52.4167 159.375 51.7917 164.479C51.1667 169.271 49.0833 174.896 45.9583 180.312C42.8333 185.729 38.9792 190.312 35.2292 193.229C32.5208 195.312 29.9167 196.458 27.7292 196.458ZM46.2708 155.625C44.6042 155.625 42.4167 156.562 40.0208 158.437C36.4792 161.25 32.8333 165.625 29.8125 170.833C23.25 182.187 22.625 191.979 26.0625 193.958C27.8333 195 30.75 194.062 33.9792 191.562C37.5208 188.75 41.1667 184.375 44.1875 179.167C47.2083 173.958 49.1875 168.646 49.8125 164.167C50.3333 160 49.7083 157.083 47.9375 156.042C47.4167 155.833 46.8958 155.625 46.2708 155.625Z" fill="#80DEEA"/>
<path d="M46.375 196.458C41.1667 196.458 33.6667 190.104 28.0417 180.208C21.2708 168.542 19.9167 157.187 25.0208 154.271C30.125 151.354 39.2917 158.125 46.0625 169.792C49.1875 175.208 51.2708 180.833 51.8958 185.625C52.625 190.729 51.5833 194.271 48.9792 195.833C48.1458 196.25 47.3125 196.458 46.375 196.458ZM26.0625 156.042C22.625 158.021 23.25 167.812 29.8125 179.167C36.375 190.521 44.5 195.937 47.9375 193.958C49.7083 192.917 50.3333 190 49.8125 185.833C49.1875 181.354 47.2083 176.042 44.1875 170.833C37.625 159.479 29.5 154.062 26.0625 156.042Z" fill="#80DEEA"/>
<path d="M37 179.167C39.3012 179.167 41.1667 177.301 41.1667 175C41.1667 172.699 39.3012 170.833 37 170.833C34.6988 170.833 32.8333 172.699 32.8333 175C32.8333 177.301 34.6988 179.167 37 179.167Z" fill="#80DEEA"/>
<path d="M261.672 161.094L243.156 154.766C243 154.688 242.844 154.688 242.688 154.766L224.328 161.172C224.016 161.328 223.781 161.641 223.781 162.031L226.672 186.094C226.672 186.328 226.828 186.562 227.063 186.719L242.531 195.234C242.609 195.313 242.766 195.312 242.922 195.312C243.078 195.312 243.156 195.313 243.313 195.234L258.859 186.641C259.094 186.484 259.25 186.328 259.25 186.016L262.141 161.953C262.219 161.563 262.062 161.172 261.672 161.094ZM257.844 185.391L243 193.594L228.156 185.547L225.422 162.5L242.922 156.328L260.578 162.422L257.844 185.391Z" fill="url(#paint0_linear_0_1)"/>
<path d="M227.687 163.281C227.375 163.438 227.141 163.75 227.141 164.141L229.563 184.141C229.563 184.375 229.719 184.609 229.953 184.766L242.531 191.641C242.609 191.719 242.766 191.719 242.922 191.719C243.078 191.719 243.156 191.719 243.313 191.641L255.969 184.609C256.203 184.453 256.359 184.297 256.359 183.984L258.781 164.063C258.859 163.672 258.625 163.359 258.234 163.203L243.156 158.047C243 157.969 242.844 157.969 242.609 158.047L227.687 163.281ZM242.922 159.609L257.141 164.531L254.875 183.516L242.922 190.156L231.125 183.594L228.859 164.609L242.922 159.609Z" fill="url(#paint1_linear_0_1)"/>
<path d="M242.922 161.094L233.625 182.031H237.062L238.937 177.344H247.453L249.484 182.031H252.922L242.922 161.094ZM243 167.5L246.203 174.219H240.187L243 167.5Z" fill="url(#paint2_linear_0_1)"/>
<path d="M54.7083 284.208H19.2917L22.4167 319.625L37 323.792L51.5833 319.625L54.7083 284.208Z" fill="#E65100"/>
<path d="M37 287.333V320.563L48.6667 317.229L51.2708 287.333H37Z" fill="#FF6D00"/>
<path d="M37 305.042V300.875H45.9583L45.2292 312.854L37 315.562V311.188L41.2708 309.729L41.5833 305.042H37ZM46.2708 296.708L46.5833 292.542H37V296.708H46.2708Z" fill="white"/>
<path d="M37 311.188V315.562L28.7708 312.854L28.3542 307.125H32.5208L32.7292 309.729L37 311.188ZM31.8958 296.708H37V292.542H27.5208L28.25 305.042H37V300.875H32.2083L31.8958 296.708Z" fill="#EEEEEE"/>
<path d="M37 413.004C31.1781 413.004 27.2635 415.545 25.2542 420.627C25.0458 421.153 25.6885 421.585 26.1042 421.201C28.224 419.241 30.6063 418.592 33.25 419.252C35.1521 419.727 36.5115 421.107 38.0167 422.634C40.4667 425.121 43.3031 428 49.5 428C55.3219 428 59.2375 425.458 61.2458 420.376C61.4542 419.85 60.8115 419.418 60.3958 419.802C58.276 421.762 55.8937 422.412 53.25 421.752C51.349 421.277 49.9896 419.897 48.4844 418.37C46.0333 415.882 43.1958 413.004 37 413.004ZM24.5 428C18.6781 428 14.7625 430.542 12.7542 435.624C12.5458 436.15 13.1885 436.582 13.6042 436.198C15.724 434.237 18.1063 433.587 20.75 434.249C22.651 434.725 24.0104 436.104 25.5156 437.63C27.9667 440.118 30.8042 442.997 37 442.997C42.8219 442.997 46.7375 440.455 48.7458 435.373C48.9542 434.847 48.3115 434.415 47.8958 434.799C45.776 436.759 43.3938 437.409 40.75 436.748C38.8479 436.273 37.4885 434.893 35.9833 433.367C33.5333 430.879 30.6969 428 24.5 428Z" fill="url(#paint3_linear_0_1)"/>
<path d="M225.68 414.92C225.597 412.512 227.473 410.292 230.009 410.292H255.995C258.531 410.292 260.407 412.512 260.323 414.92C260.243 417.233 260.347 420.229 261.101 422.673C261.857 425.124 263.133 426.673 265.223 426.872V429.129C263.133 429.328 261.858 430.877 261.101 433.328C260.347 435.771 260.243 438.768 260.323 441.081C260.406 443.487 258.53 445.708 255.995 445.708H230.009C227.474 445.708 225.597 443.487 225.681 441.08C225.761 438.767 225.657 435.771 224.903 433.327C224.147 430.876 222.868 429.327 220.778 429.128V426.871C222.868 426.672 224.146 425.123 224.903 422.672C225.656 420.229 225.761 417.233 225.68 414.92Z" fill="#7C4DFF"/>
<path d="M246.201 427.442V427.413C248.131 427.079 249.637 425.27 249.637 423.277C249.637 421.869 249.096 420.675 248.071 419.827C247.049 418.981 245.616 418.534 243.924 418.534H236.177V437.458H243.964C245.986 437.458 247.667 436.965 248.821 436.029C249.976 435.093 250.587 433.73 250.587 432.089C250.586 429.608 248.826 427.746 246.201 427.442ZM242.573 426.55H239.259V421.01H243.201C245.364 421.01 246.554 421.959 246.554 423.682C246.555 425.531 245.141 426.55 242.573 426.55ZM239.259 428.869H243.175C246.004 428.869 247.437 429.891 247.437 431.906C247.437 433.919 246.024 434.982 243.349 434.982H239.259V428.869Z" fill="white"/>
<path d="M260.708 284.208H225.292L228.417 319.625L243 323.792L257.583 319.625L260.708 284.208Z" fill="#0277BD"/>
<path d="M243 287.333V320.563L254.667 317.229L257.271 287.333H243Z" fill="#039BE5"/>
<path d="M252.479 292.542H243V296.708H248.104L247.792 300.875H243V305.042H247.583L247.271 309.729L243 311.188V315.562L251.229 312.854L251.958 300.875L252.479 292.542Z" fill="white"/>
<path d="M243 292.542V296.708H233.729L233.417 292.542H243ZM238.208 300.875L238.417 305.042H243V300.875H238.208ZM238.625 307.125H234.458L234.771 312.854L243 315.562V311.188L238.729 309.729L238.625 307.125Z" fill="#EEEEEE"/>
<path d="M39.0833 554.708H30.75C26.7229 554.708 23.4583 551.444 23.4583 547.417C23.4583 543.39 26.7229 540.125 30.75 540.125H39.0833V554.708Z" fill="url(#paint4_linear_0_1)"/>
<path d="M38.0417 569.292H30.75C26.7229 569.292 23.4583 566.027 23.4583 562C23.4583 557.973 26.7229 554.708 30.75 554.708H38.0417V569.292Z" fill="url(#paint5_linear_0_1)"/>
<path d="M30.75 583.875C26.7229 583.875 23.4583 580.61 23.4583 576.583C23.4583 572.556 26.7229 569.292 30.75 569.292H38.0417V576.583C38.0417 580.61 34.7771 583.875 30.75 583.875Z" fill="url(#paint6_linear_0_1)"/>
<path d="M45.3333 554.708H38.0417V540.125H45.3333C49.3604 540.125 52.625 543.39 52.625 547.417C52.625 551.444 49.3604 554.708 45.3333 554.708Z" fill="url(#paint7_linear_0_1)"/>
<path d="M45.3333 569.292C49.3604 569.292 52.625 566.027 52.625 562C52.625 557.973 49.3604 554.708 45.3333 554.708C41.3063 554.708 38.0417 557.973 38.0417 562C38.0417 566.027 41.3063 569.292 45.3333 569.292Z" fill="url(#paint8_linear_0_1)"/>
<defs>
<linearGradient id="paint0_linear_0_1" x1="243" y1="155.369" x2="243" y2="189.479" gradientUnits="userSpaceOnUse">
<stop stop-color="#1A6DFF"/>
<stop offset="1" stop-color="#C822FF"/>
</linearGradient>
<linearGradient id="paint1_linear_0_1" x1="242.999" y1="155.369" x2="242.999" y2="189.479" gradientUnits="userSpaceOnUse">
<stop stop-color="#1A6DFF"/>
<stop offset="1" stop-color="#C822FF"/>
</linearGradient>
<linearGradient id="paint2_linear_0_1" x1="243.199" y1="161.652" x2="243.199" y2="181.301" gradientUnits="userSpaceOnUse">
<stop stop-color="#6DC7FF"/>
<stop offset="1" stop-color="#E6ABFF"/>
</linearGradient>
<linearGradient id="paint3_linear_0_1" x1="34.7719" y1="411.58" x2="38.774" y2="441.075" gradientUnits="userSpaceOnUse">
<stop stop-color="#00C1E0"/>
<stop offset="1" stop-color="#009BB8"/>
</linearGradient>
<linearGradient id="paint4_linear_0_1" x1="28.9885" y1="538.147" x2="35.9823" y2="557.36" gradientUnits="userSpaceOnUse">
<stop stop-color="#F44F5A"/>
<stop offset="0.443" stop-color="#EE3D4A"/>
<stop offset="1" stop-color="#E52030"/>
</linearGradient>
<linearGradient id="paint5_linear_0_1" x1="28.2917" y1="552.246" x2="35.2437" y2="571.345" gradientUnits="userSpaceOnUse">
<stop stop-color="#AE4CD5"/>
<stop offset="1" stop-color="#9331BF"/>
</linearGradient>
<linearGradient id="paint6_linear_0_1" x1="27.4271" y1="564.455" x2="34.7302" y2="584.518" gradientUnits="userSpaceOnUse">
<stop stop-color="#33C481"/>
<stop offset="1" stop-color="#21A366"/>
</linearGradient>
<linearGradient id="paint7_linear_0_1" x1="40.6438" y1="537.533" x2="47.5406" y2="556.481" gradientUnits="userSpaceOnUse">
<stop stop-color="#F09CA2"/>
<stop offset="1" stop-color="#EB6773"/>
</linearGradient>
<linearGradient id="paint8_linear_0_1" x1="41.9104" y1="552.596" x2="48.3094" y2="570.177" gradientUnits="userSpaceOnUse">
<stop stop-color="#32BDEF"/>
<stop offset="1" stop-color="#1EA2E4"/>
</linearGradient>
<clipPath id="clip0_0_1">
<rect width="438" height="622" fill="white"/>
</clipPath>
<clipPath id="clip1_0_1">
<rect width="50" height="57.9509" fill="white" transform="translate(216 524)"/>
</clipPath>
</defs>
</svg>
