<svg width="438" height="622" viewBox="0 0 438 622" fill="none" xmlns="http://www.w3.org/2000/svg">
<g clip-path="url(#clip0_1_3)">
<path d="M437.32 0H0V621.25H437.32V0Z" fill="#141414"/>
<g clip-path="url(#clip1_1_3)">
<path d="M355.069 491.292C352.801 491.299 351.229 491.499 349.329 491.827C343.717 492.804 342.695 494.856 342.695 498.637V504.417H355.82V507.333H342.196H335.852C332.008 507.333 328.644 509.145 327.577 513.486C326.373 518.469 326.319 521.59 327.577 526.793C328.533 530.674 330.637 533.583 334.483 533.583H339.779V526.14C339.779 521.815 343.696 517.542 348.185 517.542H358.738C362.417 517.542 366.029 514.826 366.029 511.159V498.637C366.029 495.08 363.464 492.42 359.878 491.824C359.967 491.815 357.317 491.283 355.069 491.292ZM347.8 497.125C348.997 497.125 349.988 498.112 349.988 499.315C349.988 500.53 348.997 501.5 347.8 501.5C346.58 501.5 345.613 500.532 345.613 499.315C345.613 498.117 346.58 497.125 347.8 497.125Z" fill="#0277BD"/>
<path d="M353.655 546.708C355.923 546.701 357.495 546.501 359.395 546.173C365.007 545.196 366.029 543.144 366.029 539.363V533.583H352.904V530.667H366.53H372.873C376.717 530.667 380.082 528.855 381.148 524.514C382.352 519.531 382.406 516.41 381.148 511.207C380.191 507.326 378.087 504.417 374.241 504.417H368.945V511.86C368.945 516.185 365.027 520.458 360.539 520.458H349.986C346.307 520.458 342.695 523.174 342.695 526.841V539.363C342.695 542.92 345.26 545.58 348.846 546.176C348.757 546.185 351.407 546.717 353.655 546.708ZM360.925 540.875C359.728 540.875 358.738 539.888 358.738 538.685C358.738 537.47 359.728 536.5 360.925 536.5C362.146 536.5 363.113 537.468 363.113 538.685C363.113 539.883 362.144 540.875 360.925 540.875Z" fill="#FFC107"/>
</g>
<path d="M354.558 449.775H356.279C357.504 449.775 358.657 449.203 359.398 448.228L370.314 433.867L381.23 448.228C381.97 449.202 383.124 449.775 384.349 449.775H386.07L372.144 431.458L385.446 413.958H383.725C382.5 413.958 381.346 414.53 380.605 415.506L370.312 429.048L360.018 415.504C359.277 414.53 358.124 413.958 356.899 413.958H355.178L368.479 431.458L354.558 449.775Z" fill="#EEEEEE"/>
<path d="M355 432.917V428.542C355 418.807 346.33 411.099 336.291 412.716C328.476 413.974 322.917 421.041 322.917 428.956V430V432.917V433.124C322.917 442.68 329.883 450.312 338.766 450.417C346.192 450.504 352.458 445.54 354.38 438.751H352.881C351.977 438.751 351.157 439.269 350.765 440.083C348.229 445.326 342.323 448.632 335.849 447.144C329.882 445.772 325.833 440.181 325.833 434.059V432.917H355ZM325.833 429.577C325.833 422.711 329.922 417.098 335.931 415.755C344.497 413.842 352.083 420.305 352.083 428.542V430H325.833V429.577Z" fill="#EEEEEE"/>
<path d="M193.75 545.25V492.75H246.25V545.25H193.75Z" fill="#FFD600"/>
<path d="M228.076 532.048C229.085 533.687 230.182 535.257 232.505 535.257C234.456 535.257 235.48 534.288 235.48 532.946C235.48 531.34 234.421 530.77 232.275 529.835L231.098 529.334C227.701 527.893 225.443 526.087 225.443 522.274C225.443 518.759 228.133 516.085 232.338 516.085C235.331 516.085 237.482 517.122 239.034 519.837L235.368 522.181C234.561 520.74 233.689 520.172 232.338 520.172C230.958 520.172 230.084 521.043 230.084 522.181C230.084 523.586 230.959 524.155 232.979 525.026L234.156 525.527C238.159 527.232 240.417 528.974 240.417 532.888C240.417 537.105 237.086 539.417 232.615 539.417C228.241 539.417 225.758 537.222 224.375 534.505L228.076 532.048ZM211.18 532.167C211.918 533.489 213.039 534.505 214.652 534.505C216.195 534.505 217.083 533.895 217.083 531.526V516.083H221.944V532.272C221.944 537.182 219.096 539.417 214.937 539.417C211.179 539.417 208.466 536.87 207.361 534.505L211.18 532.167Z" fill="#000001"/>
<path d="M43.9293 297V274.6H52.3133C54.2119 274.6 55.8439 274.909 57.2093 275.528C58.5746 276.125 59.6199 277 60.3453 278.152C61.0919 279.283 61.4653 280.659 61.4653 282.28C61.4653 283.859 61.0919 285.224 60.3453 286.376C59.6199 287.507 58.5746 288.381 57.2093 289C55.8439 289.619 54.2119 289.928 52.3133 289.928H45.2413L46.2973 288.808V297H43.9293ZM46.2973 289L45.2413 287.848H52.2493C54.4893 287.848 56.1853 287.368 57.3373 286.408C58.5106 285.427 59.0972 284.051 59.0972 282.28C59.0972 280.488 58.5106 279.101 57.3373 278.12C56.1853 277.139 54.4893 276.648 52.2493 276.648H45.2413L46.2973 275.528V289ZM66.418 297V273.256H68.69V297H66.418ZM85.5398 297V293.288L85.4438 292.68V286.472C85.4438 285.043 85.0384 283.944 84.2278 283.176C83.4384 282.408 82.2544 282.024 80.6758 282.024C79.5878 282.024 78.5531 282.205 77.5718 282.568C76.5904 282.931 75.7584 283.411 75.0758 284.008L74.0518 282.312C74.9051 281.587 75.9291 281.032 77.1238 280.648C78.3184 280.243 79.5771 280.04 80.8998 280.04C83.0758 280.04 84.7504 280.584 85.9238 281.672C87.1184 282.739 87.7158 284.371 87.7158 286.568V297H85.5398ZM79.7478 297.16C78.4891 297.16 77.3904 296.957 76.4518 296.552C75.5344 296.125 74.8304 295.549 74.3398 294.824C73.8491 294.077 73.6038 293.224 73.6038 292.264C73.6038 291.389 73.8064 290.6 74.2118 289.896C74.6384 289.171 75.3211 288.595 76.2598 288.168C77.2198 287.72 78.4998 287.496 80.0998 287.496H85.8918V289.192H80.1638C78.5424 289.192 77.4118 289.48 76.7718 290.056C76.1531 290.632 75.8438 291.347 75.8438 292.2C75.8438 293.16 76.2171 293.928 76.9638 294.504C77.7104 295.08 78.7558 295.368 80.0998 295.368C81.3798 295.368 82.4784 295.08 83.3958 294.504C84.3344 293.907 85.0171 293.053 85.4438 291.944L85.9558 293.512C85.5291 294.621 84.7824 295.507 83.7158 296.168C82.6704 296.829 81.3478 297.16 79.7478 297.16ZM93.7023 303.368C92.9129 303.368 92.1556 303.24 91.4303 302.984C90.7263 302.728 90.1182 302.344 89.6062 301.832L90.6623 300.136C91.0889 300.541 91.5476 300.851 92.0383 301.064C92.5503 301.299 93.1156 301.416 93.7343 301.416C94.4809 301.416 95.1209 301.203 95.6543 300.776C96.2089 300.371 96.7316 299.645 97.2223 298.6L98.3103 296.136L98.5663 295.784L105.478 280.2H107.718L99.3023 299.016C98.8329 300.104 98.3103 300.968 97.7343 301.608C97.1796 302.248 96.5716 302.696 95.9103 302.952C95.2489 303.229 94.5129 303.368 93.7023 303.368ZM98.1823 297.48L90.4383 280.2H92.8063L99.6543 295.624L98.1823 297.48ZM106.012 300.2L116.573 270.056H118.653L108.093 300.2H106.012ZM120.177 297V278.088C120.177 276.595 120.614 275.389 121.489 274.472C122.364 273.555 123.622 273.096 125.265 273.096C125.905 273.096 126.524 273.181 127.121 273.352C127.718 273.523 128.22 273.789 128.625 274.152L127.857 275.848C127.537 275.571 127.164 275.368 126.737 275.24C126.31 275.091 125.852 275.016 125.361 275.016C124.401 275.016 123.665 275.283 123.153 275.816C122.641 276.349 122.385 277.139 122.385 278.184V280.744L122.449 281.8V297H120.177ZM117.169 282.088V280.2H127.569V282.088H117.169ZM130.641 297V280.2H132.913V297H130.641ZM131.793 276.488C131.324 276.488 130.929 276.328 130.609 276.008C130.289 275.688 130.129 275.304 130.129 274.856C130.129 274.408 130.289 274.035 130.609 273.736C130.929 273.416 131.324 273.256 131.793 273.256C132.262 273.256 132.657 273.405 132.977 273.704C133.297 274.003 133.457 274.376 133.457 274.824C133.457 275.293 133.297 275.688 132.977 276.008C132.678 276.328 132.284 276.488 131.793 276.488ZM147.869 280.04C149.234 280.04 150.429 280.307 151.453 280.84C152.498 281.352 153.309 282.141 153.885 283.208C154.482 284.275 154.781 285.619 154.781 287.24V297H152.509V287.464C152.509 285.693 152.061 284.36 151.165 283.464C150.29 282.547 149.053 282.088 147.453 282.088C146.258 282.088 145.213 282.333 144.317 282.824C143.442 283.293 142.76 283.987 142.269 284.904C141.8 285.8 141.565 286.888 141.565 288.168V297H139.293V280.2H141.469V284.808L141.117 283.944C141.65 282.728 142.504 281.779 143.677 281.096C144.85 280.392 146.248 280.04 147.869 280.04ZM167.606 297.16C166.006 297.16 164.566 296.797 163.286 296.072C162.027 295.347 161.035 294.344 160.31 293.064C159.585 291.763 159.222 290.269 159.222 288.584C159.222 286.877 159.585 285.384 160.31 284.104C161.035 282.824 162.027 281.832 163.286 281.128C164.566 280.403 166.006 280.04 167.606 280.04C169.078 280.04 170.39 280.371 171.542 281.032C172.715 281.693 173.643 282.664 174.326 283.944C175.03 285.203 175.382 286.749 175.382 288.584C175.382 290.397 175.041 291.944 174.358 293.224C173.675 294.504 172.747 295.485 171.574 296.168C170.422 296.829 169.099 297.16 167.606 297.16ZM167.766 295.144C168.961 295.144 170.027 294.877 170.966 294.344C171.926 293.789 172.673 293.021 173.206 292.04C173.761 291.037 174.038 289.885 174.038 288.584C174.038 287.261 173.761 286.109 173.206 285.128C172.673 284.147 171.926 283.389 170.966 282.856C170.027 282.301 168.961 282.024 167.766 282.024C166.593 282.024 165.537 282.301 164.598 282.856C163.659 283.389 162.913 284.147 162.358 285.128C161.803 286.109 161.526 287.261 161.526 288.584C161.526 289.885 161.803 291.037 162.358 292.04C162.913 293.021 163.659 293.789 164.598 294.344C165.537 294.877 166.593 295.144 167.766 295.144ZM174.102 297V291.944L174.326 288.552L174.006 285.16V273.256H176.278V297H174.102ZM195.493 297.16C194.106 297.16 192.794 296.968 191.557 296.584C190.319 296.179 189.349 295.677 188.645 295.08L189.669 293.288C190.351 293.8 191.226 294.248 192.293 294.632C193.359 294.995 194.479 295.176 195.653 295.176C197.253 295.176 198.405 294.931 199.109 294.44C199.813 293.928 200.165 293.256 200.165 292.424C200.165 291.805 199.962 291.325 199.557 290.984C199.173 290.621 198.661 290.355 198.021 290.184C197.381 289.992 196.666 289.832 195.877 289.704C195.087 289.576 194.298 289.427 193.509 289.256C192.741 289.085 192.037 288.84 191.397 288.52C190.757 288.179 190.234 287.72 189.829 287.144C189.445 286.568 189.253 285.8 189.253 284.84C189.253 283.923 189.509 283.101 190.021 282.376C190.533 281.651 191.279 281.085 192.261 280.68C193.263 280.253 194.479 280.04 195.909 280.04C196.997 280.04 198.085 280.189 199.173 280.488C200.261 280.765 201.157 281.139 201.861 281.608L200.869 283.432C200.122 282.92 199.322 282.557 198.469 282.344C197.615 282.109 196.762 281.992 195.909 281.992C194.394 281.992 193.274 282.259 192.549 282.792C191.845 283.304 191.493 283.965 191.493 284.776C191.493 285.416 191.685 285.917 192.069 286.28C192.474 286.643 192.997 286.931 193.637 287.144C194.298 287.336 195.013 287.496 195.781 287.624C196.57 287.752 197.349 287.912 198.117 288.104C198.906 288.275 199.621 288.52 200.261 288.84C200.922 289.139 201.445 289.576 201.829 290.152C202.234 290.707 202.437 291.443 202.437 292.36C202.437 293.341 202.159 294.195 201.605 294.92C201.071 295.624 200.282 296.179 199.237 296.584C198.213 296.968 196.965 297.16 195.493 297.16ZM213.454 297.16C211.832 297.16 210.371 296.797 209.07 296.072C207.79 295.325 206.776 294.312 206.03 293.032C205.283 291.731 204.91 290.248 204.91 288.584C204.91 286.899 205.283 285.416 206.03 284.136C206.776 282.856 207.79 281.853 209.07 281.128C210.35 280.403 211.811 280.04 213.454 280.04C215.118 280.04 216.59 280.403 217.87 281.128C219.171 281.853 220.184 282.856 220.91 284.136C221.656 285.416 222.03 286.899 222.03 288.584C222.03 290.248 221.656 291.731 220.91 293.032C220.184 294.312 219.171 295.325 217.87 296.072C216.568 296.797 215.096 297.16 213.454 297.16ZM213.454 295.144C214.67 295.144 215.747 294.877 216.686 294.344C217.624 293.789 218.36 293.021 218.894 292.04C219.448 291.037 219.726 289.885 219.726 288.584C219.726 287.261 219.448 286.109 218.894 285.128C218.36 284.147 217.624 283.389 216.686 282.856C215.747 282.301 214.68 282.024 213.486 282.024C212.291 282.024 211.224 282.301 210.286 282.856C209.347 283.389 208.6 284.147 208.046 285.128C207.491 286.109 207.214 287.261 207.214 288.584C207.214 289.885 207.491 291.037 208.046 292.04C208.6 293.021 209.347 293.789 210.286 294.344C211.224 294.877 212.28 295.144 213.454 295.144ZM235.244 280.04C236.609 280.04 237.804 280.307 238.828 280.84C239.873 281.352 240.684 282.141 241.26 283.208C241.857 284.275 242.156 285.619 242.156 287.24V297H239.884V287.464C239.884 285.693 239.436 284.36 238.54 283.464C237.665 282.547 236.428 282.088 234.828 282.088C233.633 282.088 232.588 282.333 231.692 282.824C230.817 283.293 230.135 283.987 229.644 284.904C229.175 285.8 228.94 286.888 228.94 288.168V297H226.668V280.2H228.844V284.808L228.492 283.944C229.025 282.728 229.879 281.779 231.052 281.096C232.225 280.392 233.623 280.04 235.244 280.04ZM255.461 303.368C253.925 303.368 252.453 303.144 251.045 302.696C249.637 302.248 248.496 301.608 247.621 300.776L248.773 299.048C249.562 299.752 250.533 300.307 251.685 300.712C252.858 301.139 254.096 301.352 255.397 301.352C257.53 301.352 259.098 300.851 260.101 299.848C261.104 298.867 261.605 297.331 261.605 295.24V291.048L261.925 288.168L261.701 285.288V280.2H263.877V294.952C263.877 297.853 263.162 299.976 261.733 301.32C260.325 302.685 258.234 303.368 255.461 303.368ZM255.045 296.36C253.445 296.36 252.005 296.019 250.725 295.336C249.445 294.632 248.432 293.661 247.685 292.424C246.96 291.187 246.597 289.768 246.597 288.168C246.597 286.568 246.96 285.16 247.685 283.944C248.432 282.707 249.445 281.747 250.725 281.064C252.005 280.381 253.445 280.04 255.045 280.04C256.538 280.04 257.882 280.349 259.077 280.968C260.272 281.587 261.221 282.504 261.925 283.72C262.629 284.936 262.981 286.419 262.981 288.168C262.981 289.917 262.629 291.4 261.925 292.616C261.221 293.832 260.272 294.76 259.077 295.4C257.882 296.04 256.538 296.36 255.045 296.36ZM255.269 294.344C256.506 294.344 257.605 294.088 258.565 293.576C259.525 293.043 260.282 292.317 260.837 291.4C261.392 290.461 261.669 289.384 261.669 288.168C261.669 286.952 261.392 285.885 260.837 284.968C260.282 284.051 259.525 283.336 258.565 282.824C257.605 282.291 256.506 282.024 255.269 282.024C254.053 282.024 252.954 282.291 251.973 282.824C251.013 283.336 250.256 284.051 249.701 284.968C249.168 285.885 248.901 286.952 248.901 288.168C248.901 289.384 249.168 290.461 249.701 291.4C250.256 292.317 251.013 293.043 251.973 293.576C252.954 294.088 254.053 294.344 255.269 294.344ZM274.711 297.16C273.325 297.16 272.013 296.968 270.775 296.584C269.538 296.179 268.567 295.677 267.863 295.08L268.887 293.288C269.57 293.8 270.445 294.248 271.511 294.632C272.578 294.995 273.698 295.176 274.871 295.176C276.471 295.176 277.623 294.931 278.327 294.44C279.031 293.928 279.383 293.256 279.383 292.424C279.383 291.805 279.181 291.325 278.775 290.984C278.391 290.621 277.879 290.355 277.239 290.184C276.599 289.992 275.885 289.832 275.095 289.704C274.306 289.576 273.517 289.427 272.727 289.256C271.959 289.085 271.255 288.84 270.615 288.52C269.975 288.179 269.453 287.72 269.047 287.144C268.663 286.568 268.471 285.8 268.471 284.84C268.471 283.923 268.727 283.101 269.239 282.376C269.751 281.651 270.498 281.085 271.479 280.68C272.482 280.253 273.698 280.04 275.127 280.04C276.215 280.04 277.303 280.189 278.391 280.488C279.479 280.765 280.375 281.139 281.079 281.608L280.087 283.432C279.341 282.92 278.541 282.557 277.687 282.344C276.834 282.109 275.981 281.992 275.127 281.992C273.613 281.992 272.493 282.259 271.767 282.792C271.063 283.304 270.711 283.965 270.711 284.776C270.711 285.416 270.903 285.917 271.287 286.28C271.693 286.643 272.215 286.931 272.855 287.144C273.517 287.336 274.231 287.496 274.999 287.624C275.789 287.752 276.567 287.912 277.335 288.104C278.125 288.275 278.839 288.52 279.479 288.84C280.141 289.139 280.663 289.576 281.047 290.152C281.453 290.707 281.655 291.443 281.655 292.36C281.655 293.341 281.378 294.195 280.823 294.92C280.29 295.624 279.501 296.179 278.455 296.584C277.431 296.968 276.183 297.16 274.711 297.16ZM284.448 301.672L285.856 295.752L286.112 297.128C285.622 297.128 285.206 296.968 284.864 296.648C284.544 296.328 284.384 295.912 284.384 295.4C284.384 294.888 284.544 294.472 284.864 294.152C285.206 293.832 285.611 293.672 286.08 293.672C286.571 293.672 286.966 293.843 287.264 294.184C287.584 294.525 287.744 294.931 287.744 295.4C287.744 295.571 287.734 295.741 287.712 295.912C287.691 296.083 287.648 296.275 287.584 296.488C287.52 296.701 287.435 296.957 287.328 297.256L285.984 301.672H284.448ZM307.957 297.16C306.293 297.16 304.799 296.797 303.477 296.072C302.175 295.325 301.151 294.312 300.405 293.032C299.658 291.731 299.285 290.248 299.285 288.584C299.285 286.899 299.658 285.416 300.405 284.136C301.151 282.856 302.175 281.853 303.477 281.128C304.799 280.403 306.293 280.04 307.957 280.04C309.386 280.04 310.677 280.317 311.829 280.872C312.981 281.427 313.887 282.259 314.549 283.368L312.853 284.52C312.277 283.667 311.562 283.037 310.709 282.632C309.855 282.227 308.927 282.024 307.925 282.024C306.73 282.024 305.653 282.301 304.693 282.856C303.733 283.389 302.975 284.147 302.421 285.128C301.866 286.109 301.589 287.261 301.589 288.584C301.589 289.907 301.866 291.059 302.421 292.04C302.975 293.021 303.733 293.789 304.693 294.344C305.653 294.877 306.73 295.144 307.925 295.144C308.927 295.144 309.855 294.941 310.709 294.536C311.562 294.131 312.277 293.512 312.853 292.68L314.549 293.832C313.887 294.92 312.981 295.752 311.829 296.328C310.677 296.883 309.386 297.16 307.957 297.16ZM319.012 297V280.2H321.188V284.776L320.964 283.976C321.433 282.696 322.222 281.725 323.332 281.064C324.441 280.381 325.817 280.04 327.46 280.04V282.248C327.374 282.248 327.289 282.248 327.204 282.248C327.118 282.227 327.033 282.216 326.948 282.216C325.177 282.216 323.79 282.76 322.788 283.848C321.785 284.915 321.284 286.44 321.284 288.424V297H319.012ZM338.585 297.16C336.836 297.16 335.3 296.797 333.977 296.072C332.655 295.325 331.62 294.312 330.873 293.032C330.127 291.731 329.753 290.248 329.753 288.584C329.753 286.92 330.105 285.448 330.809 284.168C331.535 282.888 332.516 281.885 333.753 281.16C335.012 280.413 336.42 280.04 337.977 280.04C339.556 280.04 340.953 280.403 342.169 281.128C343.407 281.832 344.377 282.835 345.081 284.136C345.785 285.416 346.137 286.899 346.137 288.584C346.137 288.691 346.127 288.808 346.105 288.936C346.105 289.043 346.105 289.16 346.105 289.288H331.481V287.592H344.889L343.993 288.264C343.993 287.048 343.727 285.971 343.193 285.032C342.681 284.072 341.977 283.325 341.081 282.792C340.185 282.259 339.151 281.992 337.977 281.992C336.825 281.992 335.791 282.259 334.873 282.792C333.956 283.325 333.241 284.072 332.729 285.032C332.217 285.992 331.961 287.091 331.961 288.328V288.68C331.961 289.96 332.239 291.091 332.793 292.072C333.369 293.032 334.159 293.789 335.161 294.344C336.185 294.877 337.348 295.144 338.649 295.144C339.673 295.144 340.623 294.963 341.497 294.6C342.393 294.237 343.161 293.683 343.801 292.936L345.081 294.408C344.335 295.304 343.396 295.987 342.265 296.456C341.156 296.925 339.929 297.16 338.585 297.16ZM360.821 297V293.288L360.725 292.68V286.472C360.725 285.043 360.32 283.944 359.509 283.176C358.72 282.408 357.536 282.024 355.957 282.024C354.869 282.024 353.834 282.205 352.853 282.568C351.872 282.931 351.04 283.411 350.357 284.008L349.333 282.312C350.186 281.587 351.21 281.032 352.405 280.648C353.6 280.243 354.858 280.04 356.181 280.04C358.357 280.04 360.032 280.584 361.205 281.672C362.4 282.739 362.997 284.371 362.997 286.568V297H360.821ZM355.029 297.16C353.77 297.16 352.672 296.957 351.733 296.552C350.816 296.125 350.112 295.549 349.621 294.824C349.13 294.077 348.885 293.224 348.885 292.264C348.885 291.389 349.088 290.6 349.493 289.896C349.92 289.171 350.602 288.595 351.541 288.168C352.501 287.72 353.781 287.496 355.381 287.496H361.173V289.192H355.445C353.824 289.192 352.693 289.48 352.053 290.056C351.434 290.632 351.125 291.347 351.125 292.2C351.125 293.16 351.498 293.928 352.245 294.504C352.992 295.08 354.037 295.368 355.381 295.368C356.661 295.368 357.76 295.08 358.677 294.504C359.616 293.907 360.298 293.053 360.725 291.944L361.237 293.512C360.81 294.621 360.064 295.507 358.997 296.168C357.952 296.829 356.629 297.16 355.029 297.16ZM374.48 297.16C372.901 297.16 371.685 296.733 370.832 295.88C369.979 295.027 369.552 293.821 369.552 292.264V276.488H371.824V292.136C371.824 293.117 372.069 293.875 372.56 294.408C373.072 294.941 373.797 295.208 374.736 295.208C375.739 295.208 376.571 294.92 377.232 294.344L378.032 295.976C377.584 296.381 377.04 296.68 376.4 296.872C375.781 297.064 375.141 297.16 374.48 297.16ZM366.544 282.088V280.2H376.944V282.088H366.544ZM388.71 297.16C386.961 297.16 385.425 296.797 384.102 296.072C382.78 295.325 381.745 294.312 380.998 293.032C380.252 291.731 379.878 290.248 379.878 288.584C379.878 286.92 380.23 285.448 380.934 284.168C381.66 282.888 382.641 281.885 383.878 281.16C385.137 280.413 386.545 280.04 388.102 280.04C389.681 280.04 391.078 280.403 392.294 281.128C393.532 281.832 394.502 282.835 395.206 284.136C395.91 285.416 396.262 286.899 396.262 288.584C396.262 288.691 396.252 288.808 396.23 288.936C396.23 289.043 396.23 289.16 396.23 289.288H381.606V287.592H395.014L394.118 288.264C394.118 287.048 393.852 285.971 393.318 285.032C392.806 284.072 392.102 283.325 391.206 282.792C390.31 282.259 389.276 281.992 388.102 281.992C386.95 281.992 385.916 282.259 384.998 282.792C384.081 283.325 383.366 284.072 382.854 285.032C382.342 285.992 382.086 287.091 382.086 288.328V288.68C382.086 289.96 382.364 291.091 382.918 292.072C383.494 293.032 384.284 293.789 385.286 294.344C386.31 294.877 387.473 295.144 388.774 295.144C389.798 295.144 390.748 294.963 391.622 294.6C392.518 294.237 393.286 293.683 393.926 292.936L395.206 294.408C394.46 295.304 393.521 295.987 392.39 296.456C391.281 296.925 390.054 297.16 388.71 297.16ZM108.574 336.16C107.124 336.16 105.812 335.829 104.638 335.168C103.465 334.485 102.526 333.515 101.822 332.256C101.14 330.976 100.798 329.419 100.798 327.584C100.798 325.749 101.14 324.203 101.822 322.944C102.505 321.664 103.433 320.693 104.606 320.032C105.78 319.371 107.102 319.04 108.574 319.04C110.174 319.04 111.604 319.403 112.862 320.128C114.142 320.832 115.145 321.835 115.87 323.136C116.596 324.416 116.958 325.899 116.958 327.584C116.958 329.291 116.596 330.784 115.87 332.064C115.145 333.344 114.142 334.347 112.862 335.072C111.604 335.797 110.174 336.16 108.574 336.16ZM99.9024 342.208V319.2H102.078V324.256L101.854 327.616L102.174 331.008V342.208H99.9024ZM108.414 334.144C109.609 334.144 110.676 333.877 111.614 333.344C112.553 332.789 113.3 332.021 113.854 331.04C114.409 330.037 114.686 328.885 114.686 327.584C114.686 326.283 114.409 325.141 113.854 324.16C113.3 323.179 112.553 322.411 111.614 321.856C110.676 321.301 109.609 321.024 108.414 321.024C107.22 321.024 106.142 321.301 105.182 321.856C104.244 322.411 103.497 323.179 102.942 324.16C102.409 325.141 102.142 326.283 102.142 327.584C102.142 328.885 102.409 330.037 102.942 331.04C103.497 332.021 104.244 332.789 105.182 333.344C106.142 333.877 107.22 334.144 108.414 334.144ZM121.59 336V312.256H123.862V336H121.59ZM140.712 336V332.288L140.616 331.68V325.472C140.616 324.043 140.21 322.944 139.4 322.176C138.61 321.408 137.426 321.024 135.848 321.024C134.76 321.024 133.725 321.205 132.744 321.568C131.762 321.931 130.93 322.411 130.248 323.008L129.224 321.312C130.077 320.587 131.101 320.032 132.296 319.648C133.49 319.243 134.749 319.04 136.072 319.04C138.248 319.04 139.922 319.584 141.096 320.672C142.29 321.739 142.888 323.371 142.888 325.568V336H140.712ZM134.92 336.16C133.661 336.16 132.562 335.957 131.624 335.552C130.706 335.125 130.002 334.549 129.512 333.824C129.021 333.077 128.776 332.224 128.776 331.264C128.776 330.389 128.978 329.6 129.384 328.896C129.81 328.171 130.493 327.595 131.432 327.168C132.392 326.72 133.672 326.496 135.272 326.496H141.064V328.192H135.336C133.714 328.192 132.584 328.48 131.944 329.056C131.325 329.632 131.016 330.347 131.016 331.2C131.016 332.16 131.389 332.928 132.136 333.504C132.882 334.08 133.928 334.368 135.272 334.368C136.552 334.368 137.65 334.08 138.568 333.504C139.506 332.907 140.189 332.053 140.616 330.944L141.128 332.512C140.701 333.621 139.954 334.507 138.888 335.168C137.842 335.829 136.52 336.16 134.92 336.16ZM148.874 342.368C148.085 342.368 147.327 342.24 146.602 341.984C145.898 341.728 145.29 341.344 144.778 340.832L145.834 339.136C146.261 339.541 146.719 339.851 147.21 340.064C147.722 340.299 148.287 340.416 148.906 340.416C149.653 340.416 150.293 340.203 150.826 339.776C151.381 339.371 151.903 338.645 152.394 337.6L153.482 335.136L153.738 334.784L160.65 319.2H162.89L154.474 338.016C154.005 339.104 153.482 339.968 152.906 340.608C152.351 341.248 151.743 341.696 151.082 341.952C150.421 342.229 149.685 342.368 148.874 342.368ZM153.354 336.48L145.61 319.2H147.978L154.826 334.624L153.354 336.48ZM166.09 336V312.256H168.362V336H166.09ZM174.684 336V319.2H176.956V336H174.684ZM175.836 315.488C175.366 315.488 174.972 315.328 174.652 315.008C174.332 314.688 174.172 314.304 174.172 313.856C174.172 313.408 174.332 313.035 174.652 312.736C174.972 312.416 175.366 312.256 175.836 312.256C176.305 312.256 176.7 312.405 177.02 312.704C177.34 313.003 177.5 313.376 177.5 313.824C177.5 314.293 177.34 314.688 177.02 315.008C176.721 315.328 176.326 315.488 175.836 315.488ZM187.789 336.16C186.403 336.16 185.091 335.968 183.853 335.584C182.616 335.179 181.645 334.677 180.941 334.08L181.965 332.288C182.648 332.8 183.523 333.248 184.589 333.632C185.656 333.995 186.776 334.176 187.949 334.176C189.549 334.176 190.701 333.931 191.405 333.44C192.109 332.928 192.461 332.256 192.461 331.424C192.461 330.805 192.259 330.325 191.853 329.984C191.469 329.621 190.957 329.355 190.317 329.184C189.677 328.992 188.963 328.832 188.173 328.704C187.384 328.576 186.595 328.427 185.805 328.256C185.037 328.085 184.333 327.84 183.693 327.52C183.053 327.179 182.531 326.72 182.125 326.144C181.741 325.568 181.549 324.8 181.549 323.84C181.549 322.923 181.805 322.101 182.317 321.376C182.829 320.651 183.576 320.085 184.557 319.68C185.56 319.253 186.776 319.04 188.205 319.04C189.293 319.04 190.381 319.189 191.469 319.488C192.557 319.765 193.453 320.139 194.157 320.608L193.165 322.432C192.419 321.92 191.619 321.557 190.765 321.344C189.912 321.109 189.059 320.992 188.205 320.992C186.691 320.992 185.571 321.259 184.845 321.792C184.141 322.304 183.789 322.965 183.789 323.776C183.789 324.416 183.981 324.917 184.365 325.28C184.771 325.643 185.293 325.931 185.933 326.144C186.595 326.336 187.309 326.496 188.077 326.624C188.867 326.752 189.645 326.912 190.413 327.104C191.203 327.275 191.917 327.52 192.557 327.84C193.219 328.139 193.741 328.576 194.125 329.152C194.531 329.707 194.733 330.443 194.733 331.36C194.733 332.341 194.456 333.195 193.901 333.92C193.368 334.624 192.579 335.179 191.533 335.584C190.509 335.968 189.261 336.16 187.789 336.16ZM204.214 336.16C202.636 336.16 201.42 335.733 200.566 334.88C199.713 334.027 199.286 332.821 199.286 331.264V315.488H201.558V331.136C201.558 332.117 201.804 332.875 202.294 333.408C202.806 333.941 203.532 334.208 204.47 334.208C205.473 334.208 206.305 333.92 206.966 333.344L207.766 334.976C207.318 335.381 206.774 335.68 206.134 335.872C205.516 336.064 204.876 336.16 204.214 336.16ZM196.278 321.088V319.2H206.678V321.088H196.278ZM216.414 336.16C215.028 336.16 213.716 335.968 212.478 335.584C211.241 335.179 210.27 334.677 209.566 334.08L210.59 332.288C211.273 332.8 212.148 333.248 213.214 333.632C214.281 333.995 215.401 334.176 216.574 334.176C218.174 334.176 219.326 333.931 220.03 333.44C220.734 332.928 221.086 332.256 221.086 331.424C221.086 330.805 220.884 330.325 220.478 329.984C220.094 329.621 219.582 329.355 218.942 329.184C218.302 328.992 217.588 328.832 216.798 328.704C216.009 328.576 215.22 328.427 214.43 328.256C213.662 328.085 212.958 327.84 212.318 327.52C211.678 327.179 211.156 326.72 210.75 326.144C210.366 325.568 210.174 324.8 210.174 323.84C210.174 322.923 210.43 322.101 210.942 321.376C211.454 320.651 212.201 320.085 213.182 319.68C214.185 319.253 215.401 319.04 216.83 319.04C217.918 319.04 219.006 319.189 220.094 319.488C221.182 319.765 222.078 320.139 222.782 320.608L221.79 322.432C221.044 321.92 220.244 321.557 219.39 321.344C218.537 321.109 217.684 320.992 216.83 320.992C215.316 320.992 214.196 321.259 213.47 321.792C212.766 322.304 212.414 322.965 212.414 323.776C212.414 324.416 212.606 324.917 212.99 325.28C213.396 325.643 213.918 325.931 214.558 326.144C215.22 326.336 215.934 326.496 216.702 326.624C217.492 326.752 218.27 326.912 219.038 327.104C219.828 327.275 220.542 327.52 221.182 327.84C221.844 328.139 222.366 328.576 222.75 329.152C223.156 329.707 223.358 330.443 223.358 331.36C223.358 332.341 223.081 333.195 222.526 333.92C221.993 334.624 221.204 335.179 220.158 335.584C219.134 335.968 217.886 336.16 216.414 336.16ZM223.559 339.2L234.119 309.056H236.199L225.639 339.2H223.559ZM244.731 336.16C243.28 336.16 241.968 335.829 240.795 335.168C239.621 334.485 238.683 333.515 237.979 332.256C237.296 330.976 236.955 329.419 236.955 327.584C236.955 325.749 237.296 324.203 237.979 322.944C238.661 321.664 239.589 320.693 240.763 320.032C241.936 319.371 243.259 319.04 244.731 319.04C246.331 319.04 247.76 319.403 249.019 320.128C250.299 320.832 251.301 321.835 252.027 323.136C252.752 324.416 253.115 325.899 253.115 327.584C253.115 329.291 252.752 330.784 252.027 332.064C251.301 333.344 250.299 334.347 249.019 335.072C247.76 335.797 246.331 336.16 244.731 336.16ZM236.059 342.208V319.2H238.235V324.256L238.011 327.616L238.331 331.008V342.208H236.059ZM244.571 334.144C245.765 334.144 246.832 333.877 247.771 333.344C248.709 332.789 249.456 332.021 250.011 331.04C250.565 330.037 250.843 328.885 250.843 327.584C250.843 326.283 250.565 325.141 250.011 324.16C249.456 323.179 248.709 322.411 247.771 321.856C246.832 321.301 245.765 321.024 244.571 321.024C243.376 321.024 242.299 321.301 241.339 321.856C240.4 322.411 239.653 323.179 239.099 324.16C238.565 325.141 238.299 326.283 238.299 327.584C238.299 328.885 238.565 330.037 239.099 331.04C239.653 332.021 240.4 332.789 241.339 333.344C242.299 333.877 243.376 334.144 244.571 334.144ZM257.746 336V319.2H259.922V323.776L259.698 322.976C260.167 321.696 260.957 320.725 262.066 320.064C263.175 319.381 264.551 319.04 266.194 319.04V321.248C266.109 321.248 266.023 321.248 265.938 321.248C265.853 321.227 265.767 321.216 265.682 321.216C263.911 321.216 262.525 321.76 261.522 322.848C260.519 323.915 260.018 325.44 260.018 327.424V336H257.746ZM277.032 336.16C275.41 336.16 273.949 335.797 272.648 335.072C271.368 334.325 270.354 333.312 269.608 332.032C268.861 330.731 268.488 329.248 268.488 327.584C268.488 325.899 268.861 324.416 269.608 323.136C270.354 321.856 271.368 320.853 272.648 320.128C273.928 319.403 275.389 319.04 277.032 319.04C278.696 319.04 280.168 319.403 281.448 320.128C282.749 320.853 283.762 321.856 284.488 323.136C285.234 324.416 285.608 325.899 285.608 327.584C285.608 329.248 285.234 330.731 284.488 332.032C283.762 333.312 282.749 334.325 281.448 335.072C280.146 335.797 278.674 336.16 277.032 336.16ZM277.032 334.144C278.248 334.144 279.325 333.877 280.264 333.344C281.202 332.789 281.938 332.021 282.472 331.04C283.026 330.037 283.304 328.885 283.304 327.584C283.304 326.261 283.026 325.109 282.472 324.128C281.938 323.147 281.202 322.389 280.264 321.856C279.325 321.301 278.258 321.024 277.064 321.024C275.869 321.024 274.802 321.301 273.864 321.856C272.925 322.389 272.178 323.147 271.624 324.128C271.069 325.109 270.792 326.261 270.792 327.584C270.792 328.885 271.069 330.037 271.624 331.04C272.178 332.021 272.925 332.789 273.864 333.344C274.802 333.877 275.858 334.144 277.032 334.144ZM290.63 336V317.088C290.63 315.595 291.067 314.389 291.942 313.472C292.817 312.555 294.075 312.096 295.718 312.096C296.358 312.096 296.977 312.181 297.574 312.352C298.171 312.523 298.673 312.789 299.078 313.152L298.31 314.848C297.99 314.571 297.617 314.368 297.19 314.24C296.763 314.091 296.305 314.016 295.814 314.016C294.854 314.016 294.118 314.283 293.606 314.816C293.094 315.349 292.838 316.139 292.838 317.184V319.744L292.902 320.8V336H290.63ZM287.622 321.088V319.2H298.022V321.088H287.622ZM301.094 336V319.2H303.366V336H301.094ZM302.246 315.488C301.777 315.488 301.382 315.328 301.062 315.008C300.742 314.688 300.582 314.304 300.582 313.856C300.582 313.408 300.742 313.035 301.062 312.736C301.382 312.416 301.777 312.256 302.246 312.256C302.715 312.256 303.11 312.405 303.43 312.704C303.75 313.003 303.91 313.376 303.91 313.824C303.91 314.293 303.75 314.688 303.43 315.008C303.131 315.328 302.737 315.488 302.246 315.488ZM309.746 336V312.256H312.018V336H309.746ZM325.476 336.16C323.727 336.16 322.191 335.797 320.868 335.072C319.545 334.325 318.511 333.312 317.764 332.032C317.017 330.731 316.644 329.248 316.644 327.584C316.644 325.92 316.996 324.448 317.7 323.168C318.425 321.888 319.407 320.885 320.644 320.16C321.903 319.413 323.311 319.04 324.868 319.04C326.447 319.04 327.844 319.403 329.06 320.128C330.297 320.832 331.268 321.835 331.972 323.136C332.676 324.416 333.028 325.899 333.028 327.584C333.028 327.691 333.017 327.808 332.996 327.936C332.996 328.043 332.996 328.16 332.996 328.288H318.372V326.592H331.78L330.884 327.264C330.884 326.048 330.617 324.971 330.084 324.032C329.572 323.072 328.868 322.325 327.972 321.792C327.076 321.259 326.041 320.992 324.868 320.992C323.716 320.992 322.681 321.259 321.764 321.792C320.847 322.325 320.132 323.072 319.62 324.032C319.108 324.992 318.852 326.091 318.852 327.328V327.68C318.852 328.96 319.129 330.091 319.684 331.072C320.26 332.032 321.049 332.789 322.052 333.344C323.076 333.877 324.239 334.144 325.54 334.144C326.564 334.144 327.513 333.963 328.388 333.6C329.284 333.237 330.052 332.683 330.692 331.936L331.972 333.408C331.225 334.304 330.287 334.987 329.156 335.456C328.047 335.925 326.82 336.16 325.476 336.16ZM336.276 340.672L337.684 334.752L337.94 336.128C337.45 336.128 337.034 335.968 336.692 335.648C336.372 335.328 336.212 334.912 336.212 334.4C336.212 333.888 336.372 333.472 336.692 333.152C337.034 332.832 337.439 332.672 337.908 332.672C338.399 332.672 338.794 332.843 339.092 333.184C339.412 333.525 339.572 333.931 339.572 334.4C339.572 334.571 339.562 334.741 339.54 334.912C339.519 335.083 339.476 335.275 339.412 335.488C339.348 335.701 339.263 335.957 339.156 336.256L337.812 340.672H336.276ZM71.3086 375V358.2H73.4846V362.776L73.2606 361.976C73.73 360.696 74.5193 359.725 75.6286 359.064C76.738 358.381 78.114 358.04 79.7566 358.04V360.248C79.6713 360.248 79.586 360.248 79.5006 360.248C79.4153 360.227 79.33 360.216 79.2446 360.216C77.474 360.216 76.0873 360.76 75.0846 361.848C74.082 362.915 73.5806 364.44 73.5806 366.424V375H71.3086ZM90.8821 375.16C89.1328 375.16 87.5968 374.797 86.2741 374.072C84.9515 373.325 83.9168 372.312 83.1701 371.032C82.4235 369.731 82.0501 368.248 82.0501 366.584C82.0501 364.92 82.4021 363.448 83.1061 362.168C83.8315 360.888 84.8128 359.885 86.0501 359.16C87.3088 358.413 88.7168 358.04 90.2741 358.04C91.8528 358.04 93.2501 358.403 94.4661 359.128C95.7035 359.832 96.6741 360.835 97.3781 362.136C98.0821 363.416 98.4341 364.899 98.4341 366.584C98.4341 366.691 98.4235 366.808 98.4021 366.936C98.4021 367.043 98.4021 367.16 98.4021 367.288H83.7781V365.592H97.1861L96.2901 366.264C96.2901 365.048 96.0235 363.971 95.4901 363.032C94.9781 362.072 94.2741 361.325 93.3781 360.792C92.4821 360.259 91.4475 359.992 90.2741 359.992C89.1221 359.992 88.0875 360.259 87.1701 360.792C86.2528 361.325 85.5381 362.072 85.0261 363.032C84.5141 363.992 84.2581 365.091 84.2581 366.328V366.68C84.2581 367.96 84.5355 369.091 85.0901 370.072C85.6661 371.032 86.4555 371.789 87.4581 372.344C88.4821 372.877 89.6448 373.144 90.9461 373.144C91.9701 373.144 92.9195 372.963 93.7941 372.6C94.6901 372.237 95.4581 371.683 96.0981 370.936L97.3781 372.408C96.6315 373.304 95.6928 373.987 94.5621 374.456C93.4528 374.925 92.2261 375.16 90.8821 375.16ZM110.227 381.368C108.691 381.368 107.219 381.144 105.811 380.696C104.403 380.248 103.261 379.608 102.387 378.776L103.539 377.048C104.328 377.752 105.299 378.307 106.451 378.712C107.624 379.139 108.861 379.352 110.163 379.352C112.296 379.352 113.864 378.851 114.867 377.848C115.869 376.867 116.371 375.331 116.371 373.24V369.048L116.691 366.168L116.467 363.288V358.2H118.643V372.952C118.643 375.853 117.928 377.976 116.499 379.32C115.091 380.685 113 381.368 110.227 381.368ZM109.811 374.36C108.211 374.36 106.771 374.019 105.491 373.336C104.211 372.632 103.197 371.661 102.451 370.424C101.725 369.187 101.363 367.768 101.363 366.168C101.363 364.568 101.725 363.16 102.451 361.944C103.197 360.707 104.211 359.747 105.491 359.064C106.771 358.381 108.211 358.04 109.811 358.04C111.304 358.04 112.648 358.349 113.843 358.968C115.037 359.587 115.987 360.504 116.691 361.72C117.395 362.936 117.747 364.419 117.747 366.168C117.747 367.917 117.395 369.4 116.691 370.616C115.987 371.832 115.037 372.76 113.843 373.4C112.648 374.04 111.304 374.36 109.811 374.36ZM110.035 372.344C111.272 372.344 112.371 372.088 113.331 371.576C114.291 371.043 115.048 370.317 115.603 369.4C116.157 368.461 116.435 367.384 116.435 366.168C116.435 364.952 116.157 363.885 115.603 362.968C115.048 362.051 114.291 361.336 113.331 360.824C112.371 360.291 111.272 360.024 110.035 360.024C108.819 360.024 107.72 360.291 106.739 360.824C105.779 361.336 105.021 362.051 104.467 362.968C103.933 363.885 103.667 364.952 103.667 366.168C103.667 367.384 103.933 368.461 104.467 369.4C105.021 370.317 105.779 371.043 106.739 371.576C107.72 372.088 108.819 372.344 110.035 372.344ZM124.965 375V358.2H127.237V375H124.965ZM126.117 354.488C125.648 354.488 125.253 354.328 124.933 354.008C124.613 353.688 124.453 353.304 124.453 352.856C124.453 352.408 124.613 352.035 124.933 351.736C125.253 351.416 125.648 351.256 126.117 351.256C126.586 351.256 126.981 351.405 127.301 351.704C127.621 352.003 127.781 352.376 127.781 352.824C127.781 353.293 127.621 353.688 127.301 354.008C127.002 354.328 126.608 354.488 126.117 354.488ZM138.071 375.16C136.684 375.16 135.372 374.968 134.135 374.584C132.897 374.179 131.927 373.677 131.223 373.08L132.247 371.288C132.929 371.8 133.804 372.248 134.871 372.632C135.937 372.995 137.057 373.176 138.231 373.176C139.831 373.176 140.983 372.931 141.687 372.44C142.391 371.928 142.743 371.256 142.743 370.424C142.743 369.805 142.54 369.325 142.135 368.984C141.751 368.621 141.239 368.355 140.599 368.184C139.959 367.992 139.244 367.832 138.455 367.704C137.665 367.576 136.876 367.427 136.087 367.256C135.319 367.085 134.615 366.84 133.975 366.52C133.335 366.179 132.812 365.72 132.407 365.144C132.023 364.568 131.831 363.8 131.831 362.84C131.831 361.923 132.087 361.101 132.599 360.376C133.111 359.651 133.857 359.085 134.839 358.68C135.841 358.253 137.057 358.04 138.487 358.04C139.575 358.04 140.663 358.189 141.751 358.488C142.839 358.765 143.735 359.139 144.439 359.608L143.447 361.432C142.7 360.92 141.9 360.557 141.047 360.344C140.193 360.109 139.34 359.992 138.487 359.992C136.972 359.992 135.852 360.259 135.127 360.792C134.423 361.304 134.071 361.965 134.071 362.776C134.071 363.416 134.263 363.917 134.647 364.28C135.052 364.643 135.575 364.931 136.215 365.144C136.876 365.336 137.591 365.496 138.359 365.624C139.148 365.752 139.927 365.912 140.695 366.104C141.484 366.275 142.199 366.52 142.839 366.84C143.5 367.139 144.023 367.576 144.407 368.152C144.812 368.707 145.015 369.443 145.015 370.36C145.015 371.341 144.737 372.195 144.183 372.92C143.649 373.624 142.86 374.179 141.815 374.584C140.791 374.968 139.543 375.16 138.071 375.16ZM154.496 375.16C152.917 375.16 151.701 374.733 150.848 373.88C149.994 373.027 149.568 371.821 149.568 370.264V354.488H151.84V370.136C151.84 371.117 152.085 371.875 152.576 372.408C153.088 372.941 153.813 373.208 154.752 373.208C155.754 373.208 156.586 372.92 157.248 372.344L158.048 373.976C157.6 374.381 157.056 374.68 156.416 374.872C155.797 375.064 155.157 375.16 154.496 375.16ZM146.56 360.088V358.2H156.96V360.088H146.56ZM168.726 375.16C166.977 375.16 165.441 374.797 164.118 374.072C162.795 373.325 161.761 372.312 161.014 371.032C160.267 369.731 159.894 368.248 159.894 366.584C159.894 364.92 160.246 363.448 160.95 362.168C161.675 360.888 162.657 359.885 163.894 359.16C165.153 358.413 166.561 358.04 168.118 358.04C169.697 358.04 171.094 358.403 172.31 359.128C173.547 359.832 174.518 360.835 175.222 362.136C175.926 363.416 176.278 364.899 176.278 366.584C176.278 366.691 176.267 366.808 176.246 366.936C176.246 367.043 176.246 367.16 176.246 367.288H161.622V365.592H175.03L174.134 366.264C174.134 365.048 173.867 363.971 173.334 363.032C172.822 362.072 172.118 361.325 171.222 360.792C170.326 360.259 169.291 359.992 168.118 359.992C166.966 359.992 165.931 360.259 165.014 360.792C164.097 361.325 163.382 362.072 162.87 363.032C162.358 363.992 162.102 365.091 162.102 366.328V366.68C162.102 367.96 162.379 369.091 162.934 370.072C163.51 371.032 164.299 371.789 165.302 372.344C166.326 372.877 167.489 373.144 168.79 373.144C169.814 373.144 170.763 372.963 171.638 372.6C172.534 372.237 173.302 371.683 173.942 370.936L175.222 372.408C174.475 373.304 173.537 373.987 172.406 374.456C171.297 374.925 170.07 375.16 168.726 375.16ZM180.902 375V358.2H183.078V362.776L182.854 361.976C183.324 360.696 184.113 359.725 185.222 359.064C186.332 358.381 187.708 358.04 189.35 358.04V360.248C189.265 360.248 189.18 360.248 189.094 360.248C189.009 360.227 188.924 360.216 188.838 360.216C187.068 360.216 185.681 360.76 184.678 361.848C183.676 362.915 183.174 364.44 183.174 366.424V375H180.902ZM188.497 378.2L199.057 348.056H201.137L190.577 378.2H188.497ZM203.184 375V351.256H205.456V375H203.184ZM218.625 375.16C217.004 375.16 215.543 374.797 214.241 374.072C212.961 373.325 211.948 372.312 211.201 371.032C210.455 369.731 210.081 368.248 210.081 366.584C210.081 364.899 210.455 363.416 211.201 362.136C211.948 360.856 212.961 359.853 214.241 359.128C215.521 358.403 216.983 358.04 218.625 358.04C220.289 358.04 221.761 358.403 223.041 359.128C224.343 359.853 225.356 360.856 226.081 362.136C226.828 363.416 227.201 364.899 227.201 366.584C227.201 368.248 226.828 369.731 226.081 371.032C225.356 372.312 224.343 373.325 223.041 374.072C221.74 374.797 220.268 375.16 218.625 375.16ZM218.625 373.144C219.841 373.144 220.919 372.877 221.857 372.344C222.796 371.789 223.532 371.021 224.065 370.04C224.62 369.037 224.897 367.885 224.897 366.584C224.897 365.261 224.62 364.109 224.065 363.128C223.532 362.147 222.796 361.389 221.857 360.856C220.919 360.301 219.852 360.024 218.657 360.024C217.463 360.024 216.396 360.301 215.457 360.856C214.519 361.389 213.772 362.147 213.217 363.128C212.663 364.109 212.385 365.261 212.385 366.584C212.385 367.885 212.663 369.037 213.217 370.04C213.772 371.021 214.519 371.789 215.457 372.344C216.396 372.877 217.452 373.144 218.625 373.144ZM239.008 381.368C237.472 381.368 236 381.144 234.592 380.696C233.184 380.248 232.043 379.608 231.168 378.776L232.32 377.048C233.109 377.752 234.08 378.307 235.232 378.712C236.405 379.139 237.643 379.352 238.944 379.352C241.077 379.352 242.645 378.851 243.648 377.848C244.651 376.867 245.152 375.331 245.152 373.24V369.048L245.472 366.168L245.248 363.288V358.2H247.424V372.952C247.424 375.853 246.709 377.976 245.28 379.32C243.872 380.685 241.781 381.368 239.008 381.368ZM238.592 374.36C236.992 374.36 235.552 374.019 234.272 373.336C232.992 372.632 231.979 371.661 231.232 370.424C230.507 369.187 230.144 367.768 230.144 366.168C230.144 364.568 230.507 363.16 231.232 361.944C231.979 360.707 232.992 359.747 234.272 359.064C235.552 358.381 236.992 358.04 238.592 358.04C240.085 358.04 241.429 358.349 242.624 358.968C243.819 359.587 244.768 360.504 245.472 361.72C246.176 362.936 246.528 364.419 246.528 366.168C246.528 367.917 246.176 369.4 245.472 370.616C244.768 371.832 243.819 372.76 242.624 373.4C241.429 374.04 240.085 374.36 238.592 374.36ZM238.816 372.344C240.053 372.344 241.152 372.088 242.112 371.576C243.072 371.043 243.829 370.317 244.384 369.4C244.939 368.461 245.216 367.384 245.216 366.168C245.216 364.952 244.939 363.885 244.384 362.968C243.829 362.051 243.072 361.336 242.112 360.824C241.152 360.291 240.053 360.024 238.816 360.024C237.6 360.024 236.501 360.291 235.52 360.824C234.56 361.336 233.803 362.051 233.248 362.968C232.715 363.885 232.448 364.952 232.448 366.168C232.448 367.384 232.715 368.461 233.248 369.4C233.803 370.317 234.56 371.043 235.52 371.576C236.501 372.088 237.6 372.344 238.816 372.344ZM253.746 375V358.2H256.018V375H253.746ZM254.898 354.488C254.429 354.488 254.034 354.328 253.714 354.008C253.394 353.688 253.234 353.304 253.234 352.856C253.234 352.408 253.394 352.035 253.714 351.736C254.034 351.416 254.429 351.256 254.898 351.256C255.367 351.256 255.762 351.405 256.082 351.704C256.402 352.003 256.562 352.376 256.562 352.824C256.562 353.293 256.402 353.688 256.082 354.008C255.783 354.328 255.389 354.488 254.898 354.488ZM270.916 358.04C272.281 358.04 273.476 358.307 274.5 358.84C275.545 359.352 276.356 360.141 276.932 361.208C277.529 362.275 277.828 363.619 277.828 365.24V375H275.556V365.464C275.556 363.693 275.108 362.36 274.212 361.464C273.337 360.547 272.1 360.088 270.5 360.088C269.305 360.088 268.26 360.333 267.364 360.824C266.489 361.293 265.807 361.987 265.316 362.904C264.847 363.8 264.612 364.888 264.612 366.168V375H262.34V358.2H264.516V362.808L264.164 361.944C264.697 360.728 265.551 359.779 266.724 359.096C267.897 358.392 269.295 358.04 270.916 358.04ZM282.589 379.672L283.997 373.752L284.253 375.128C283.762 375.128 283.346 374.968 283.005 374.648C282.685 374.328 282.525 373.912 282.525 373.4C282.525 372.888 282.685 372.472 283.005 372.152C283.346 371.832 283.752 371.672 284.221 371.672C284.712 371.672 285.106 371.843 285.405 372.184C285.725 372.525 285.885 372.931 285.885 373.4C285.885 373.571 285.874 373.741 285.853 373.912C285.832 374.083 285.789 374.275 285.725 374.488C285.661 374.701 285.576 374.957 285.469 375.256L284.125 379.672H282.589ZM306.257 375.16C304.508 375.16 302.972 374.797 301.649 374.072C300.326 373.325 299.292 372.312 298.545 371.032C297.798 369.731 297.425 368.248 297.425 366.584C297.425 364.92 297.777 363.448 298.481 362.168C299.206 360.888 300.188 359.885 301.425 359.16C302.684 358.413 304.092 358.04 305.649 358.04C307.228 358.04 308.625 358.403 309.841 359.128C311.078 359.832 312.049 360.835 312.753 362.136C313.457 363.416 313.809 364.899 313.809 366.584C313.809 366.691 313.798 366.808 313.777 366.936C313.777 367.043 313.777 367.16 313.777 367.288H299.153V365.592H312.561L311.665 366.264C311.665 365.048 311.398 363.971 310.865 363.032C310.353 362.072 309.649 361.325 308.753 360.792C307.857 360.259 306.822 359.992 305.649 359.992C304.497 359.992 303.462 360.259 302.545 360.792C301.628 361.325 300.913 362.072 300.401 363.032C299.889 363.992 299.633 365.091 299.633 366.328V366.68C299.633 367.96 299.91 369.091 300.465 370.072C301.041 371.032 301.83 371.789 302.833 372.344C303.857 372.877 305.02 373.144 306.321 373.144C307.345 373.144 308.294 372.963 309.169 372.6C310.065 372.237 310.833 371.683 311.473 370.936L312.753 372.408C312.006 373.304 311.068 373.987 309.937 374.456C308.828 374.925 307.601 375.16 306.257 375.16ZM323.746 375.16C322.167 375.16 320.951 374.733 320.098 373.88C319.244 373.027 318.818 371.821 318.818 370.264V354.488H321.09V370.136C321.09 371.117 321.335 371.875 321.826 372.408C322.338 372.941 323.063 373.208 324.002 373.208C325.004 373.208 325.836 372.92 326.498 372.344L327.298 373.976C326.85 374.381 326.306 374.68 325.666 374.872C325.047 375.064 324.407 375.16 323.746 375.16ZM315.81 360.088V358.2H326.21V360.088H315.81ZM337.816 375.16C336.152 375.16 334.659 374.797 333.336 374.072C332.035 373.325 331.011 372.312 330.264 371.032C329.517 369.731 329.144 368.248 329.144 366.584C329.144 364.899 329.517 363.416 330.264 362.136C331.011 360.856 332.035 359.853 333.336 359.128C334.659 358.403 336.152 358.04 337.816 358.04C339.245 358.04 340.536 358.317 341.688 358.872C342.84 359.427 343.747 360.259 344.408 361.368L342.712 362.52C342.136 361.667 341.421 361.037 340.568 360.632C339.715 360.227 338.787 360.024 337.784 360.024C336.589 360.024 335.512 360.301 334.552 360.856C333.592 361.389 332.835 362.147 332.28 363.128C331.725 364.109 331.448 365.261 331.448 366.584C331.448 367.907 331.725 369.059 332.28 370.04C332.835 371.021 333.592 371.789 334.552 372.344C335.512 372.877 336.589 373.144 337.784 373.144C338.787 373.144 339.715 372.941 340.568 372.536C341.421 372.131 342.136 371.512 342.712 370.68L344.408 371.832C343.747 372.92 342.84 373.752 341.688 374.328C340.536 374.883 339.245 375.16 337.816 375.16ZM349.72 375.16C349.251 375.16 348.845 374.989 348.504 374.648C348.184 374.307 348.024 373.891 348.024 373.4C348.024 372.888 348.184 372.472 348.504 372.152C348.845 371.832 349.251 371.672 349.72 371.672C350.189 371.672 350.584 371.832 350.904 372.152C351.245 372.472 351.416 372.888 351.416 373.4C351.416 373.891 351.245 374.307 350.904 374.648C350.584 374.989 350.189 375.16 349.72 375.16Z" fill="white"/>
<g clip-path="url(#clip2_1_3)">
<g clip-path="url(#clip3_1_3)">
<path d="M204.727 426.396C204.727 427.267 204.82 427.971 204.984 428.489C205.17 429.007 205.402 429.571 205.729 430.182C205.845 430.37 205.892 430.559 205.892 430.723C205.892 430.958 205.752 431.193 205.45 431.429L203.983 432.416C203.773 432.558 203.565 432.628 203.378 432.628C203.145 432.628 202.913 432.51 202.679 432.298C202.353 431.945 202.074 431.569 201.841 431.193C201.608 430.793 201.376 430.347 201.119 429.806C199.303 431.969 197.021 433.051 194.274 433.051C192.318 433.051 190.758 432.486 189.617 431.358C188.477 430.229 187.895 428.724 187.895 426.843C187.895 424.845 188.593 423.222 190.014 422C191.434 420.778 193.32 420.165 195.717 420.165C196.509 420.165 197.324 420.235 198.185 420.353C199.045 420.471 199.93 420.659 200.862 420.871V419.154C200.862 417.368 200.49 416.121 199.769 415.392C199.023 414.663 197.766 414.31 195.974 414.31C195.159 414.31 194.322 414.403 193.46 414.616C192.598 414.828 191.761 415.086 190.946 415.415C190.574 415.58 190.294 415.673 190.13 415.721C189.967 415.768 189.85 415.791 189.759 415.791C189.432 415.791 189.27 415.557 189.27 415.062V413.91C189.27 413.534 189.317 413.253 189.433 413.088C189.55 412.923 189.76 412.758 190.085 412.593C190.9 412.17 191.878 411.818 193.019 411.535C194.16 411.228 195.37 411.088 196.651 411.088C199.421 411.088 201.447 411.723 202.751 412.993C204.031 414.263 204.683 416.191 204.683 418.777V426.395L204.727 426.396ZM195.274 429.969C196.043 429.969 196.834 429.828 197.671 429.546C198.51 429.265 199.255 428.747 199.884 428.041C200.256 427.595 200.536 427.101 200.676 426.536C200.816 425.972 200.909 425.29 200.909 424.49V423.503C200.234 423.338 199.512 423.197 198.767 423.104C198.021 423.01 197.3 422.962 196.578 422.962C195.017 422.962 193.877 423.268 193.108 423.903C192.34 424.537 191.968 425.431 191.968 426.606C191.968 427.712 192.248 428.534 192.83 429.099C193.388 429.688 194.204 429.969 195.274 429.969ZM213.97 432.51C213.551 432.51 213.271 432.44 213.085 432.275C212.898 432.134 212.736 431.805 212.596 431.358L207.124 413.183C206.984 412.713 206.914 412.407 206.914 412.242C206.914 411.866 207.101 411.654 207.473 411.654H209.755C210.197 411.654 210.5 411.724 210.664 411.889C210.85 412.03 210.989 412.359 211.129 412.806L215.04 428.373L218.671 412.806C218.788 412.337 218.928 412.03 219.113 411.889C219.3 411.748 219.625 411.654 220.045 411.654H221.907C222.349 411.654 222.653 411.724 222.839 411.889C223.026 412.03 223.188 412.359 223.281 412.806L226.959 428.561L230.987 412.806C231.127 412.337 231.29 412.03 231.452 411.889C231.639 411.748 231.941 411.654 232.361 411.654H234.526C234.898 411.654 235.108 411.842 235.108 412.242C235.108 412.36 235.085 412.477 235.062 412.618C235.038 412.76 234.992 412.948 234.898 413.206L229.288 431.381C229.148 431.851 228.985 432.157 228.8 432.298C228.614 432.44 228.311 432.533 227.914 432.533H225.912C225.47 432.533 225.167 432.463 224.98 432.298C224.794 432.134 224.632 431.829 224.538 431.358L220.93 416.191L217.346 431.334C217.229 431.804 217.089 432.11 216.904 432.275C216.717 432.44 216.392 432.51 215.972 432.51H213.97ZM243.886 433.144C242.676 433.144 241.465 433.003 240.301 432.721C239.138 432.44 238.229 432.134 237.624 431.781C237.252 431.569 236.995 431.334 236.902 431.123C236.809 430.911 236.762 430.677 236.762 430.465V429.266C236.762 428.772 236.949 428.537 237.297 428.537C237.437 428.537 237.577 428.561 237.716 428.607C237.856 428.654 238.064 428.749 238.298 428.842C239.09 429.195 239.95 429.476 240.859 429.665C241.79 429.853 242.697 429.946 243.629 429.946C245.096 429.946 246.237 429.688 247.029 429.17C247.821 428.653 248.239 427.9 248.239 426.936C248.239 426.278 248.029 425.737 247.611 425.29C247.192 424.843 246.4 424.444 245.26 424.068L241.884 423.009C240.185 422.468 238.928 421.669 238.159 420.61C237.391 419.576 236.995 418.424 236.995 417.2C236.995 416.213 237.205 415.342 237.624 414.59C238.042 413.837 238.602 413.18 239.3 412.662C239.998 412.121 240.79 411.721 241.72 411.44C242.652 411.16 243.629 411.042 244.655 411.042C245.166 411.042 245.702 411.065 246.215 411.135C246.75 411.205 247.239 411.3 247.729 411.393C248.194 411.511 248.637 411.628 249.056 411.769C249.474 411.911 249.801 412.051 250.034 412.192C250.361 412.38 250.593 412.569 250.733 412.78C250.873 412.968 250.943 413.226 250.943 413.556V414.661C250.943 415.156 250.756 415.414 250.408 415.414C250.221 415.414 249.919 415.32 249.522 415.132C248.195 414.521 246.705 414.215 245.053 414.215C243.726 414.215 242.679 414.426 241.957 414.873C241.235 415.319 240.863 416.001 240.863 416.965C240.863 417.623 241.096 418.188 241.561 418.635C242.027 419.081 242.889 419.529 244.122 419.929L247.428 420.988C249.104 421.529 250.316 422.281 251.036 423.245C251.757 424.209 252.107 425.314 252.107 426.536C252.107 427.547 251.897 428.464 251.501 429.264C251.083 430.063 250.523 430.769 249.802 431.333C249.081 431.921 248.219 432.344 247.218 432.65C246.167 432.979 245.073 433.144 243.886 433.144Z" fill="#252F3E"/>
<path d="M248.286 444.572C240.627 450.285 229.498 453.319 219.929 453.319C206.519 453.319 194.435 448.311 185.309 439.987C184.587 439.329 185.239 438.435 186.101 438.953C195.972 444.736 208.148 448.241 220.744 448.241C229.241 448.241 238.578 446.454 247.167 442.785C248.449 442.197 249.543 443.631 248.286 444.572ZM251.475 440.904C250.497 439.634 245.003 440.293 242.512 440.598C241.767 440.691 241.65 440.033 242.326 439.539C246.702 436.436 253.896 437.328 254.735 438.364C255.573 439.422 254.501 446.688 250.405 450.167C249.776 450.708 249.171 450.425 249.45 449.721C250.381 447.394 252.454 442.149 251.475 440.904Z" fill="#FF9900"/>
</g>
</g>
<path d="M91.1529 162.933V100.591H114.487C119.771 100.591 124.313 101.452 128.113 103.173C131.913 104.836 134.822 107.27 136.841 110.476C138.919 113.623 139.958 117.453 139.958 121.965C139.958 126.359 138.919 130.159 136.841 133.365C134.822 136.512 131.913 138.946 128.113 140.668C124.313 142.39 119.771 143.251 114.487 143.251H94.8044L97.7434 140.134V162.933H91.1529ZM97.7434 140.668L94.8044 137.462H114.309C120.543 137.462 125.263 136.126 128.469 133.454C131.735 130.723 133.368 126.893 133.368 121.965C133.368 116.978 131.735 113.118 128.469 110.387C125.263 107.656 120.543 106.29 114.309 106.29H94.8044L97.7434 103.173V140.668ZM153.742 162.933V96.8501H160.066V162.933H153.742ZM206.961 162.933V152.602L206.694 150.91V133.632C206.694 129.654 205.566 126.596 203.309 124.459C201.113 122.321 197.817 121.253 193.424 121.253C190.396 121.253 187.516 121.757 184.785 122.767C182.054 123.776 179.738 125.112 177.838 126.774L174.988 122.054C177.363 120.036 180.213 118.492 183.538 117.423C186.863 116.295 190.366 115.731 194.047 115.731C200.103 115.731 204.764 117.245 208.03 120.273C211.354 123.242 213.017 127.784 213.017 133.899V162.933H206.961ZM190.841 163.378C187.338 163.378 184.28 162.814 181.668 161.686C179.115 160.499 177.155 158.896 175.79 156.877C174.424 154.799 173.741 152.424 173.741 149.752C173.741 147.318 174.305 145.121 175.433 143.162C176.621 141.143 178.521 139.54 181.133 138.352C183.805 137.105 187.368 136.482 191.821 136.482H207.941V141.202H191.999C187.486 141.202 184.339 142.004 182.558 143.607C180.836 145.21 179.975 147.199 179.975 149.574C179.975 152.246 181.015 154.383 183.093 155.986C185.171 157.589 188.08 158.391 191.821 158.391C195.383 158.391 198.441 157.589 200.994 155.986C203.606 154.324 205.506 151.949 206.694 148.861L208.119 153.225C206.931 156.313 204.853 158.777 201.884 160.617C198.975 162.458 195.294 163.378 190.841 163.378ZM229.678 180.656C227.481 180.656 225.374 180.3 223.355 179.587C221.396 178.875 219.703 177.806 218.278 176.381L221.217 171.661C222.405 172.789 223.681 173.65 225.047 174.244C226.472 174.897 228.045 175.223 229.767 175.223C231.845 175.223 233.627 174.63 235.111 173.442C236.655 172.314 238.109 170.295 239.475 167.386L242.503 160.528L243.215 159.549L262.453 116.176H268.687L245.264 168.544C243.958 171.572 242.503 173.977 240.9 175.758C239.356 177.539 237.664 178.786 235.823 179.498C233.983 180.27 231.934 180.656 229.678 180.656ZM242.147 164.269L220.594 116.176H227.185L246.244 159.103L242.147 164.269ZM296.148 163.378C291.279 163.378 287.004 162.369 283.323 160.35C279.642 158.272 276.763 155.452 274.684 151.89C272.606 148.268 271.567 144.141 271.567 139.51C271.567 134.879 272.547 130.782 274.506 127.22C276.525 123.657 279.256 120.867 282.7 118.848C286.203 116.77 290.122 115.731 294.456 115.731C298.85 115.731 302.739 116.74 306.123 118.759C309.566 120.718 312.268 123.509 314.227 127.131C316.187 130.693 317.166 134.82 317.166 139.51C317.166 139.807 317.137 140.134 317.077 140.49C317.077 140.787 317.077 141.113 317.077 141.469H276.377V136.749H313.693L311.199 138.619C311.199 135.235 310.457 132.237 308.973 129.624C307.548 126.953 305.588 124.874 303.095 123.39C300.601 121.906 297.721 121.164 294.456 121.164C291.25 121.164 288.37 121.906 285.817 123.39C283.264 124.874 281.275 126.953 279.85 129.624C278.425 132.296 277.712 135.354 277.712 138.798V139.777C277.712 143.34 278.484 146.486 280.028 149.218C281.631 151.89 283.828 153.997 286.619 155.541C289.468 157.025 292.704 157.768 296.326 157.768C299.176 157.768 301.818 157.263 304.253 156.253C306.746 155.244 308.884 153.7 310.665 151.622L314.227 155.719C312.149 158.213 309.537 160.113 306.39 161.419C303.303 162.725 299.889 163.378 296.148 163.378ZM330.037 162.933V116.176H336.093V128.912L335.47 126.685C336.776 123.123 338.973 120.421 342.06 118.581C345.148 116.681 348.977 115.731 353.549 115.731V121.876C353.311 121.876 353.074 121.876 352.836 121.876C352.599 121.817 352.361 121.787 352.124 121.787C347.196 121.787 343.337 123.301 340.546 126.329C337.756 129.298 336.36 133.543 336.36 139.065V162.933H330.037Z" fill="#0255FF"/>
<path d="M34.3135 242.717L13.2952 180.375H20.0638L39.7462 239.066H36.3619L56.6677 180.375H62.7238L82.7625 239.066H79.5563L99.4168 180.375H105.74L84.7218 242.717H77.7751L58.6271 187.055H60.4083L41.1712 242.717H34.3135ZM132.783 243.163C127.914 243.163 123.639 242.153 119.958 240.135C116.277 238.057 113.397 235.236 111.319 231.674C109.241 228.052 108.202 223.926 108.202 219.294C108.202 214.663 109.181 210.567 111.141 207.004C113.159 203.442 115.891 200.651 119.334 198.632C122.837 196.554 126.756 195.515 131.09 195.515C135.484 195.515 139.373 196.525 142.757 198.543C146.201 200.503 148.902 203.293 150.862 206.915C152.821 210.477 153.801 214.604 153.801 219.294C153.801 219.591 153.771 219.918 153.712 220.274C153.712 220.571 153.712 220.898 153.712 221.254H113.011V216.534H150.327L147.834 218.404C147.834 215.02 147.092 212.021 145.607 209.409C144.182 206.737 142.223 204.659 139.729 203.174C137.236 201.69 134.356 200.948 131.09 200.948C127.884 200.948 125.005 201.69 122.451 203.174C119.898 204.659 117.909 206.737 116.484 209.409C115.059 212.081 114.347 215.138 114.347 218.582V219.562C114.347 223.124 115.119 226.271 116.663 229.002C118.266 231.674 120.462 233.782 123.253 235.325C126.103 236.81 129.339 237.552 132.961 237.552C135.811 237.552 138.453 237.047 140.887 236.038C143.381 235.028 145.518 233.485 147.299 231.407L150.862 235.503C148.784 237.997 146.171 239.897 143.024 241.203C139.937 242.51 136.523 243.163 132.783 243.163ZM190.807 243.163C186.71 243.163 183.029 242.242 179.763 240.402C176.498 238.502 173.915 235.771 172.015 232.208C170.115 228.646 169.165 224.341 169.165 219.294C169.165 214.188 170.115 209.884 172.015 206.381C173.974 202.818 176.587 200.117 179.852 198.276C183.118 196.436 186.769 195.515 190.807 195.515C195.26 195.515 199.238 196.525 202.741 198.543C206.303 200.503 209.094 203.264 211.113 206.826C213.131 210.388 214.141 214.545 214.141 219.294C214.141 223.985 213.131 228.141 211.113 231.763C209.094 235.325 206.303 238.116 202.741 240.135C199.238 242.153 195.26 243.163 190.807 243.163ZM166.671 242.717V176.634H172.995V209.765L172.104 219.205L172.728 228.646V242.717H166.671ZM190.362 237.552C193.686 237.552 196.655 236.81 199.268 235.325C201.88 233.782 203.958 231.644 205.502 228.913C207.046 226.122 207.817 222.916 207.817 219.294C207.817 215.613 207.046 212.407 205.502 209.676C203.958 206.945 201.88 204.837 199.268 203.353C196.655 201.809 193.686 201.037 190.362 201.037C187.037 201.037 184.038 201.809 181.366 203.353C178.754 204.837 176.676 206.945 175.132 209.676C173.648 212.407 172.906 215.613 172.906 219.294C172.906 222.916 173.648 226.122 175.132 228.913C176.676 231.644 178.754 233.782 181.366 235.325C184.038 236.81 187.037 237.552 190.362 237.552ZM241.701 242.717L270.2 180.375H276.702L305.201 242.717H298.254L272.07 184.205H274.742L248.558 242.717H241.701ZM252.922 226.063L254.882 220.719H291.129L293.089 226.063H252.922ZM338.313 243.163C334.276 243.163 330.625 242.242 327.359 240.402C324.093 238.502 321.481 235.8 319.522 232.297C317.622 228.735 316.672 224.401 316.672 219.294C316.672 214.188 317.622 209.884 319.522 206.381C321.422 202.818 324.004 200.117 327.27 198.276C330.535 196.436 334.217 195.515 338.313 195.515C342.766 195.515 346.744 196.525 350.248 198.543C353.81 200.503 356.601 203.293 358.619 206.915C360.638 210.477 361.647 214.604 361.647 219.294C361.647 224.044 360.638 228.201 358.619 231.763C356.601 235.325 353.81 238.116 350.248 240.135C346.744 242.153 342.766 243.163 338.313 243.163ZM314.178 259.995V195.961H320.234V210.032L319.611 219.384L320.501 228.824V259.995H314.178ZM337.868 237.552C341.193 237.552 344.162 236.81 346.774 235.325C349.387 233.782 351.465 231.644 353.008 228.913C354.552 226.122 355.324 222.916 355.324 219.294C355.324 215.673 354.552 212.496 353.008 209.765C351.465 207.034 349.387 204.896 346.774 203.353C344.162 201.809 341.193 201.037 337.868 201.037C334.543 201.037 331.545 201.809 328.873 203.353C326.261 204.896 324.182 207.034 322.639 209.765C321.154 212.496 320.412 215.673 320.412 219.294C320.412 222.916 321.154 226.122 322.639 228.913C324.182 231.644 326.261 233.782 328.873 235.325C331.545 236.81 334.543 237.552 337.868 237.552ZM398.673 243.163C394.635 243.163 390.984 242.242 387.718 240.402C384.453 238.502 381.84 235.8 379.881 232.297C377.981 228.735 377.031 224.401 377.031 219.294C377.031 214.188 377.981 209.884 379.881 206.381C381.781 202.818 384.364 200.117 387.629 198.276C390.895 196.436 394.576 195.515 398.673 195.515C403.126 195.515 407.104 196.525 410.607 198.543C414.169 200.503 416.96 203.293 418.979 206.915C420.997 210.477 422.007 214.604 422.007 219.294C422.007 224.044 420.997 228.201 418.979 231.763C416.96 235.325 414.169 238.116 410.607 240.135C407.104 242.153 403.126 243.163 398.673 243.163ZM374.537 259.995V195.961H380.593V210.032L379.97 219.384L380.861 228.824V259.995H374.537ZM398.227 237.552C401.552 237.552 404.521 236.81 407.134 235.325C409.746 233.782 411.824 231.644 413.368 228.913C414.911 226.122 415.683 222.916 415.683 219.294C415.683 215.673 414.911 212.496 413.368 209.765C411.824 207.034 409.746 204.896 407.134 203.353C404.521 201.809 401.552 201.037 398.227 201.037C394.903 201.037 391.904 201.809 389.232 203.353C386.62 204.896 384.542 207.034 382.998 209.765C381.514 212.496 380.772 215.673 380.772 219.294C380.772 222.916 381.514 226.122 382.998 228.913C384.542 231.644 386.62 233.782 389.232 235.325C391.904 236.81 394.903 237.552 398.227 237.552Z" fill="#0255FF"/>
<path d="M97.4104 81.2826V18.9402H102.843L131.342 67.5672H128.492L156.725 18.9402H162.157V81.2826H155.834V28.8259H157.348L131.342 73.3562H128.225L102.041 28.8259H103.734V81.2826H97.4104ZM200.46 81.7279C196.482 81.7279 193.009 80.9857 190.04 79.5014C187.072 78.017 184.756 75.7905 183.094 72.8218C181.49 69.8531 180.689 66.1423 180.689 61.6892V34.5258H187.012V60.9768C187.012 65.9641 188.229 69.7344 190.664 72.2874C193.157 74.7811 196.631 76.028 201.084 76.028C204.349 76.028 207.17 75.3749 209.545 74.0687C211.979 72.7031 213.819 70.7437 215.066 68.1907C216.373 65.6376 217.026 62.5798 217.026 59.0174V34.5258H223.349V81.2826H217.293V68.4578L218.272 70.7734C216.788 74.2171 214.473 76.9186 211.326 78.8779C208.238 80.7779 204.617 81.7279 200.46 81.7279ZM253.529 81.7279C249.67 81.7279 246.019 81.1935 242.575 80.1248C239.131 78.9967 236.43 77.6014 234.47 75.9389L237.32 70.9515C239.22 72.3765 241.655 73.6234 244.623 74.6921C247.592 75.7014 250.709 76.2061 253.975 76.2061C258.428 76.2061 261.634 75.5233 263.593 74.1577C265.552 72.7327 266.532 70.8625 266.532 68.5469C266.532 66.8251 265.968 65.4892 264.84 64.5392C263.771 63.5298 262.346 62.7877 260.565 62.3127C258.784 61.7783 256.795 61.333 254.598 60.9768C252.401 60.6205 250.204 60.2049 248.008 59.7299C245.87 59.2549 243.911 58.5721 242.13 57.6815C240.348 56.7315 238.894 55.455 237.766 53.8519C236.697 52.2488 236.163 50.1114 236.163 47.4395C236.163 44.8865 236.875 42.6006 238.3 40.5819C239.725 38.5632 241.803 36.9898 244.534 35.8617C247.325 34.6742 250.709 34.0805 254.687 34.0805C257.715 34.0805 260.743 34.4961 263.771 35.3273C266.799 36.0992 269.293 37.1382 271.252 38.4444L268.491 43.5209C266.413 42.0959 264.187 41.0866 261.812 40.4928C259.437 39.8397 257.062 39.5132 254.687 39.5132C250.472 39.5132 247.354 40.2553 245.336 41.7397C243.376 43.1646 242.397 45.0052 242.397 47.2614C242.397 49.0426 242.931 50.4379 244 51.4473C245.128 52.4566 246.583 53.2582 248.364 53.8519C250.204 54.3863 252.193 54.8316 254.331 55.1878C256.528 55.5441 258.695 55.9894 260.832 56.5237C263.029 56.9987 265.018 57.6815 266.799 58.5721C268.64 59.4034 270.095 60.6205 271.163 62.2236C272.291 63.7673 272.855 65.8157 272.855 68.3688C272.855 71.1 272.084 73.4749 270.54 75.4936C269.056 77.453 266.859 78.9967 263.949 80.1248C261.099 81.1935 257.626 81.7279 253.529 81.7279ZM284.458 81.2826V34.5258H290.782V81.2826H284.458ZM287.665 24.1947C286.358 24.1947 285.26 23.7494 284.369 22.8588C283.479 21.9682 283.033 20.8995 283.033 19.6527C283.033 18.4058 283.479 17.3668 284.369 16.5355C285.26 15.6449 286.358 15.1996 287.665 15.1996C288.971 15.1996 290.069 15.6152 290.96 16.4465C291.85 17.2777 292.296 18.3167 292.296 19.5636C292.296 20.8698 291.85 21.9682 290.96 22.8588C290.129 23.7494 289.03 24.1947 287.665 24.1947ZM327.791 81.7279C323.16 81.7279 319.004 80.7185 315.323 78.6998C311.701 76.6217 308.851 73.8015 306.773 70.2391C304.695 66.6173 303.656 62.4908 303.656 57.8596C303.656 53.1691 304.695 49.0426 306.773 45.4802C308.851 41.9178 311.701 39.1272 315.323 37.1085C319.004 35.0898 323.16 34.0805 327.791 34.0805C331.769 34.0805 335.361 34.8523 338.568 36.396C341.774 37.9398 344.297 40.2553 346.138 43.3428L341.417 46.5489C339.814 44.174 337.825 42.4225 335.45 41.2944C333.075 40.1663 330.493 39.6022 327.702 39.6022C324.377 39.6022 321.379 40.3741 318.707 41.9178C316.035 43.4021 313.927 45.5099 312.384 48.2411C310.84 50.9723 310.068 54.1785 310.068 57.8596C310.068 61.5408 310.84 64.747 312.384 67.4782C313.927 70.2094 316.035 72.3468 318.707 73.8905C321.379 75.3749 324.377 76.117 327.702 76.117C330.493 76.117 333.075 75.553 335.45 74.4249C337.825 73.2968 339.814 71.575 341.417 69.2594L346.138 72.4656C344.297 75.4936 341.774 77.8092 338.568 79.4123C335.361 80.956 331.769 81.7279 327.791 81.7279Z" fill="#0255FF"/>
<g clip-path="url(#clip4_1_3)">
<path d="M79.6875 430C79.6875 433.144 77.1439 435.688 74 435.688C70.8561 435.688 68.3125 433.144 68.3125 430C68.3125 426.856 70.8561 424.312 74 424.312C77.1439 424.312 79.6875 426.856 79.6875 430Z" fill="#149ECA"/>
<path d="M74 436.125C70.6234 436.125 67.875 433.377 67.875 430C67.875 426.623 70.6234 423.875 74 423.875C77.3766 423.875 80.125 426.623 80.125 430C80.125 433.377 77.3766 436.125 74 436.125ZM74 424.75C71.1046 424.75 68.75 427.105 68.75 430C68.75 432.895 71.1046 435.25 74 435.25C76.8954 435.25 79.25 432.895 79.25 430C79.25 427.105 76.8954 424.75 74 424.75Z" fill="#4E7AB5"/>
<path d="M60.4148 461.065C58.9176 461.065 57.5544 460.722 56.3617 460.047C54.3667 458.915 52.9878 456.966 52.2615 454.254C51.4171 451.098 51.5177 446.906 52.552 442.111C44.2115 439.242 39.4375 434.84 39.4375 430C39.4375 425.159 44.2106 420.758 52.5511 417.89C51.5169 413.094 51.4154 408.902 52.2598 405.746C52.986 403.033 54.365 401.084 56.3591 399.953C57.5509 399.278 58.915 398.935 60.4121 398.935C64.2516 398.935 69.0667 401.324 74.0017 405.671C78.9367 401.328 83.7501 398.941 87.5853 398.941C89.0824 398.941 90.4456 399.284 91.6383 399.96C93.6306 401.089 95.0105 403.035 95.7368 405.744C96.582 408.899 96.4805 413.092 95.4454 417.889C103.788 420.757 108.562 425.159 108.562 430C108.562 434.84 103.788 439.243 95.4454 442.112C96.4796 446.908 96.5811 451.1 95.7359 454.255C95.0096 456.965 93.6315 458.911 91.6409 460.04C90.4474 460.716 89.0832 461.059 87.587 461.059C83.7492 461.059 78.9341 458.672 74.0009 454.331C69.0659 458.677 64.2516 461.065 60.4148 461.065ZM55.9199 443.13C55.0527 447.258 54.9556 450.784 55.6434 453.349C56.1176 455.122 56.9393 456.351 58.0881 457.002C58.747 457.376 59.5301 457.566 60.4148 457.566C63.3845 457.566 67.294 455.569 71.4581 451.934C69.3713 449.832 67.3342 447.453 65.3961 444.854C62.044 444.49 58.859 443.911 55.9199 443.13ZM76.5427 451.932C80.706 455.564 84.6164 457.559 87.5861 457.56C88.4708 457.56 89.2539 457.37 89.9145 456.996C91.0599 456.347 91.8797 455.12 92.3531 453.35C93.0409 450.783 92.9446 447.258 92.0775 443.131C89.1357 443.912 85.9499 444.491 82.5986 444.855C80.6614 447.454 78.627 449.832 76.5427 451.932ZM70.1203 445.219C71.3908 446.773 72.691 448.223 74 449.541C75.3055 448.224 76.6066 446.774 77.8763 445.219C76.5716 445.281 75.2722 445.312 74 445.312C72.7269 445.312 71.4266 445.281 70.1203 445.219ZM67.3054 441.532C69.4885 441.718 71.7399 441.812 74 441.812C76.2619 441.812 78.5106 441.718 80.6902 441.532C81.9905 439.709 83.2304 437.798 84.3775 435.849C85.487 433.964 86.5309 431.996 87.4811 429.999C86.5335 428.008 85.4905 426.041 84.3784 424.151C83.2339 422.206 81.994 420.295 80.6902 418.468C78.5124 418.282 76.2636 418.188 74 418.188C71.7355 418.188 69.4859 418.282 67.3089 418.468C66.0051 420.294 64.7635 422.205 63.6173 424.152C62.506 426.041 61.463 428.008 60.5145 430.002C61.4612 431.991 62.5042 433.958 63.6164 435.85C64.7574 437.788 65.9972 439.698 67.3054 441.532ZM89.3046 434.182C88.6869 435.359 88.0464 436.514 87.3927 437.624C86.7339 438.746 86.033 439.871 85.305 440.98C87.3822 440.66 89.3694 440.25 91.2296 439.755C90.7134 437.962 90.0668 436.093 89.3046 434.182ZM56.766 439.754C58.6271 440.248 60.6134 440.659 62.688 440.979C61.9556 439.863 61.2548 438.737 60.6003 437.624C59.9484 436.515 59.307 435.362 58.6901 434.184C57.9315 436.087 57.2858 437.955 56.766 439.754ZM91.339 430C92.676 432.967 93.7654 435.9 94.5835 438.73C101.06 436.451 105.062 433.127 105.062 430C105.062 426.873 101.06 423.549 94.5835 421.27C93.7671 424.1 92.6769 427.033 91.339 430ZM53.413 421.272C46.9389 423.55 42.9375 426.874 42.9375 430C42.9375 433.127 46.9389 436.451 53.4148 438.729C54.232 435.898 55.3214 432.965 56.6566 430.002C55.3205 427.037 54.2311 424.104 53.413 421.272ZM56.7651 420.246C57.2849 422.043 57.9306 423.912 58.6901 425.818C59.3061 424.643 59.9466 423.489 60.6011 422.377C61.2591 421.258 61.96 420.133 62.6906 419.021C60.6134 419.34 58.6271 419.751 56.7651 420.246ZM85.3068 419.02C86.0391 420.137 86.74 421.262 87.3945 422.377C88.0472 423.486 88.6886 424.64 89.3064 425.818C90.0668 423.913 90.7125 422.044 91.2323 420.245C89.3685 419.75 87.3823 419.339 85.3068 419.02ZM60.4121 402.435C59.5275 402.435 58.7452 402.624 58.0872 402.998C56.9392 403.649 56.1167 404.879 55.6416 406.652C54.9547 409.22 55.051 412.745 55.919 416.871C58.859 416.09 62.0458 415.51 65.3988 415.146C67.3386 412.546 69.3756 410.169 71.4599 408.069C67.2949 404.432 63.3828 402.435 60.4121 402.435ZM82.5995 415.145C85.9507 415.509 89.1366 416.088 92.0784 416.869C92.9464 412.742 93.0435 409.216 92.3549 406.649C91.8806 404.88 91.0599 403.653 89.9136 403.004C89.2539 402.63 88.4708 402.44 87.5853 402.44C84.6164 402.44 80.7078 404.436 76.5436 408.069C78.6261 410.168 80.6614 412.546 82.5995 415.145ZM74 414.688C75.2722 414.688 76.5716 414.719 77.8771 414.781C76.6084 413.229 75.3081 411.78 74.0017 410.46C72.6919 411.782 71.3925 413.231 70.1237 414.781C71.4284 414.719 72.7278 414.688 74 414.688Z" fill="#149ECA"/>
<path d="M60.4121 399.372C64.3444 399.372 69.1586 401.919 74.0026 406.256C78.8457 401.922 83.6574 399.378 87.5861 399.378C89.0063 399.378 90.2977 399.702 91.4239 400.34C93.3104 401.409 94.6194 403.265 95.3141 405.858C96.2565 409.285 96.0587 413.505 94.9344 418.178C103.004 420.874 108.125 425.127 108.125 430C108.125 434.873 103.004 439.126 94.9335 441.823C96.1069 446.874 96.3038 451.208 95.3133 454.142C94.6185 456.734 93.3104 458.591 91.4256 459.66C90.2978 460.299 89.2731 460.625 87.8539 460.625C87.853 460.625 87.4899 460.625 87.489 460.625C83.5585 460.625 78.8422 458.079 74 453.747C69.1569 458.083 64.3444 460.628 60.4139 460.628C58.9937 460.628 57.7022 460.304 56.5761 459.666C54.6879 458.594 53.378 456.736 52.6841 454.141C51.6429 450.889 51.8529 446.614 53.0639 441.822C44.9955 439.125 39.875 434.873 39.875 430C39.875 425.128 44.9955 420.875 53.063 418.178C52.4619 415.501 52.0777 413.016 52.0646 410.75C52.0541 408.96 52.2982 407.295 52.6832 405.859C53.378 403.263 54.687 401.405 56.5753 400.334C57.7005 399.695 58.992 399.372 60.4121 399.372ZM55.5883 417.412C58.6306 416.577 62.009 415.945 65.6359 415.56C67.7201 412.751 69.9015 410.226 72.0986 408.049C67.8356 404.246 63.6846 401.996 60.4121 401.996C59.4505 401.996 58.5965 402.205 57.8711 402.617C56.6172 403.328 55.7256 404.647 55.219 406.538C54.4682 409.339 54.6389 413.126 55.5883 417.412ZM92.4091 417.411C93.3585 413.126 93.5291 409.338 92.7784 406.536C92.2726 404.649 91.381 403.333 90.1297 402.623C89.4035 402.211 88.5469 402.003 87.5861 402.003C84.3163 402.003 80.1679 404.25 75.9058 408.049C78.102 410.226 80.2807 412.751 82.3632 415.559C85.9884 415.944 89.3668 416.576 92.4091 417.411ZM69.1674 415.27C70.7441 415.177 72.3253 415.095 73.9694 415.095C75.6135 415.095 77.255 415.177 78.8317 415.27C77.2497 413.276 75.6257 411.454 74.0009 409.842C72.376 411.454 70.7511 413.276 69.1674 415.27ZM74 442.25C76.4159 442.25 78.7285 442.144 80.9282 441.951C82.2574 440.098 83.5428 438.131 84.7538 436.072C85.9376 434.06 87.0086 432.024 87.965 430C87.0086 427.976 85.9376 425.941 84.7546 423.93C83.5428 421.869 82.2582 419.903 80.9282 418.051C78.7294 417.856 76.4168 417.75 74 417.75C71.5832 417.75 69.2698 417.856 67.07 418.05C65.7391 419.902 64.4529 421.869 63.241 423.929C62.058 425.941 60.987 427.977 60.0306 430.001C60.987 432.025 62.0571 434.06 63.2401 436.071C64.452 438.131 65.7374 440.098 67.0674 441.95C69.268 442.144 71.5824 442.25 74 442.25ZM89.3528 426.861C90.3371 424.491 91.1518 422.163 91.773 419.937C89.5391 419.323 87.0716 418.816 84.3985 418.444C85.298 419.78 86.1739 421.165 87.0165 422.598C87.8512 424.015 88.6274 425.439 89.3528 426.861ZM58.6429 426.862C59.3674 425.44 60.1444 424.016 60.9774 422.598C61.8209 421.165 62.6976 419.781 63.598 418.445C60.9249 418.816 58.4574 419.324 56.2235 419.938C56.8447 422.164 57.6594 424.491 58.6429 426.862ZM94.2895 439.294C101.356 436.9 105.5 433.383 105.5 430C105.5 426.617 101.356 423.1 94.2895 420.706C93.4556 423.685 92.3041 426.816 90.8595 429.999C92.3041 433.183 93.4556 436.314 94.2895 439.294ZM53.7087 439.293C54.5417 436.315 55.6924 433.184 57.137 430.002C55.6924 426.818 54.5409 423.687 53.7079 420.707C46.6423 423.101 42.5 426.618 42.5 430C42.5 433.383 46.6431 436.899 53.7087 439.293ZM84.3985 441.556C87.0716 441.185 89.5391 440.678 91.773 440.063C91.1509 437.837 90.3363 435.509 89.3528 433.138C88.6274 434.56 87.8504 435.984 87.0165 437.402C86.1739 438.835 85.298 440.22 84.3985 441.556ZM63.5954 441.555C62.6959 440.219 61.82 438.835 60.9765 437.403C60.1435 435.986 59.3674 434.562 58.6429 433.141C57.6594 435.511 56.8456 437.837 56.2244 440.063C58.4574 440.676 60.924 441.183 63.5954 441.555ZM60.4148 458.003C63.6864 458.003 67.8356 455.754 72.0978 451.953C69.8989 449.775 67.7184 447.249 65.6332 444.439C62.0081 444.055 58.6315 443.423 55.59 442.588C54.6415 446.874 54.4709 450.661 55.2208 453.462C55.7265 455.352 56.619 456.671 57.872 457.382C58.5965 457.794 59.4531 458.003 60.4148 458.003ZM87.5861 457.997C88.5478 457.997 89.4026 457.789 90.1297 457.377C91.381 456.667 92.2709 455.351 92.7758 453.463C93.5265 450.661 93.3559 446.874 92.4074 442.589C89.365 443.424 85.9875 444.056 82.3615 444.44C80.279 447.249 78.0994 449.774 75.9031 451.952C80.1652 455.749 84.3145 457.997 87.5861 457.997ZM74 450.16C75.6249 448.547 77.2489 446.724 78.8317 444.73C77.2559 444.823 75.7176 445.021 74.0726 445.021C72.4268 445.021 70.7415 444.823 69.1647 444.73C70.7485 446.725 72.3742 448.547 74 450.16ZM60.1015 398.563C58.5274 398.563 57.4021 398.859 56.1439 399.572C54.0448 400.763 52.5957 402.802 51.838 405.632C50.998 408.771 51.0706 412.896 52.0445 417.603C43.7416 420.54 39 425.034 39 430C39 434.967 43.7425 439.46 52.0454 442.397C51.0715 447.104 50.9989 451.229 51.8397 454.368C52.5966 457.197 54.0447 459.236 56.1456 460.428C57.4056 461.142 58.9194 461.446 60.4926 461.446C64.4187 461.446 69.0265 459.228 74.0009 454.913C78.9744 459.223 83.66 461.497 87.5853 461.497C89.1594 461.497 90.5961 461.136 91.8561 460.422C93.9535 459.233 95.4007 457.197 96.1576 454.37C96.9985 451.23 96.9259 447.104 95.952 442.399C104.257 439.46 109 434.967 109 430C109 425.034 104.257 420.539 95.9529 417.602C96.9276 412.895 96.9994 408.769 96.1585 405.63C95.4007 402.803 93.9526 400.767 91.8544 399.578C90.5952 398.865 89.1585 398.503 87.5853 398.503C83.6609 398.503 78.9761 400.777 74.0017 405.089C69.0265 400.773 64.319 398.56 60.392 398.56L60.1015 398.563ZM56.255 416.33C55.8507 414.296 55.5795 412.391 55.5646 410.719C55.5515 409.214 55.758 407.904 56.0634 406.763C56.507 405.108 57.2604 403.969 58.3025 403.377C58.894 403.041 59.615 402.814 60.4226 402.814C63.206 402.814 66.8688 404.719 70.8203 408.093C68.8769 410.082 66.9772 412.31 65.1625 414.73C62.0256 415.08 59.0349 415.617 56.255 416.33ZM77.1833 408.095C81.1339 404.724 84.8054 402.878 87.5853 402.878C88.3938 402.878 89.1051 403.048 89.6975 403.384C90.7379 403.974 91.4904 405.111 91.9331 406.763C92.6979 409.228 92.599 412.506 91.7424 416.329C88.9625 415.617 85.9726 415.079 82.8366 414.731C81.0227 412.312 79.1249 410.084 77.1833 408.095ZM71.0889 414.302C72.0479 413.165 73.0217 412.089 74.0009 411.084C74.98 412.089 75.953 413.165 76.9111 414.302C75.932 414.267 74.9581 414.25 74 414.25C73.0419 414.25 72.0689 414.267 71.0889 414.302ZM67.5469 418.887C69.6512 418.713 71.8195 418.589 74 418.589C76.1796 418.589 78.3479 418.713 80.4514 418.887C81.7044 420.654 82.8979 422.498 84.0004 424.373C85.0696 426.191 86.0768 428.082 86.9955 429.999C86.0759 431.917 85.0688 433.809 83.9995 435.627C82.8961 437.503 81.7035 439.346 80.4505 441.113C78.3479 441.287 76.1796 441.52 74 441.52C71.8186 441.52 69.6495 441.286 67.5443 441.112C66.2904 439.346 65.0969 437.502 63.9935 435.626C62.9242 433.809 61.918 431.918 60.9993 430C61.918 428.082 62.9251 426.19 63.9944 424.372C65.0986 422.497 66.293 420.653 67.5469 418.887ZM89.2443 424.771C88.7639 423.88 88.2712 423.005 87.7716 422.155C87.2729 421.307 86.7505 420.455 86.2097 419.609C87.762 419.874 89.2591 420.189 90.6845 420.554C90.2759 421.925 89.7938 423.335 89.2443 424.771ZM57.312 420.554C58.7374 420.189 60.2345 419.874 61.7867 419.609C61.2451 420.455 60.7228 421.307 60.224 422.154C59.7244 423.004 59.2317 423.879 58.7514 424.77C58.2019 423.336 57.7206 421.925 57.312 420.554ZM91.8194 429.999C93.0575 427.232 94.083 424.494 94.8731 421.839C100.913 424.043 104.625 427.131 104.625 430C104.625 432.869 100.913 435.957 94.8731 438.161C94.0821 435.506 93.0575 432.766 91.8194 429.999ZM53.1243 438.16C47.0859 435.956 43.375 432.868 43.375 430C43.375 427.132 47.0859 424.044 53.1234 421.84C53.9135 424.495 54.9381 427.234 56.1762 430.001C54.939 432.767 53.9144 435.506 53.1243 438.16ZM86.2089 440.392C86.7496 439.545 87.2729 438.693 87.7707 437.846C88.2712 436.996 88.7639 436.12 89.2443 435.229C89.7938 436.665 90.275 438.076 90.6845 439.447C89.2583 439.811 87.7611 440.127 86.2089 440.392ZM57.3129 439.446C57.7215 438.075 58.2027 436.666 58.7514 435.232C59.2309 436.122 59.7235 436.997 60.2231 437.846C60.721 438.693 61.2434 439.544 61.785 440.391C60.2336 440.126 58.7374 439.81 57.3129 439.446ZM60.4148 457.128C59.6063 457.128 58.8958 456.957 58.3034 456.621C57.2621 456.03 56.5087 454.891 56.066 453.236C55.3389 450.746 55.4211 447.468 56.2568 443.669C59.0358 444.382 62.0247 444.919 65.1599 445.267C66.9755 447.687 68.8751 449.916 70.8194 451.907C66.8688 455.281 63.1964 457.128 60.4148 457.128ZM82.8357 445.269C85.9717 444.92 88.9616 444.383 91.7415 443.671C92.7084 447.819 92.7845 451.124 91.9314 453.237C91.4895 454.889 90.7379 456.026 89.6984 456.615C89.1051 456.951 88.3946 457.122 87.587 457.122C84.8045 457.122 81.1313 455.275 77.1815 451.906C79.124 449.917 81.0219 447.689 82.8357 445.269ZM74 448.918C73.02 447.913 72.0452 446.836 71.0862 445.697C72.0662 445.732 73.041 445.75 74 445.75C74.9581 445.75 75.932 445.732 76.9111 445.697C75.953 446.836 74.9791 447.913 74 448.918Z" fill="#4E7AB5"/>
</g>
<path d="M74.0102 551.236C73.1731 551.236 72.3433 551.017 71.6098 550.594L63.9681 546.069C62.8263 545.43 63.3833 545.204 63.7596 545.075C65.2821 544.542 65.5898 544.421 67.2144 543.498C67.385 543.4 67.6081 543.435 67.7831 543.539L73.6544 547.023C73.8658 547.138 74.1677 547.138 74.3631 547.023L97.2546 533.809C97.466 533.688 97.6046 533.443 97.6046 533.191V506.776C97.6046 506.512 97.4675 506.277 97.2502 506.146L74.369 492.942C74.1575 492.817 73.876 492.817 73.6646 492.942L50.7863 506.144C50.5646 506.27 50.4231 506.516 50.4231 506.769V533.185C50.4231 533.437 50.5602 533.678 50.779 533.797L57.0483 537.418C60.4521 539.12 62.5317 537.115 62.5317 535.098V509.027C62.5317 508.656 62.8233 508.368 63.1967 508.368H66.0958C66.4575 508.368 66.755 508.654 66.755 509.027V535.111C66.755 539.65 64.2802 542.257 59.9767 542.257C58.6525 542.257 57.6098 542.257 54.699 540.825L48.6935 537.364C47.209 536.504 46.2917 534.898 46.2917 533.186V506.77C46.2917 505.051 47.209 503.446 48.6921 502.598L71.6083 489.378C73.0579 488.558 74.9829 488.558 76.4223 489.378L99.3094 502.604C100.785 503.457 101.708 505.056 101.708 506.776V533.192C101.708 534.906 100.785 536.504 99.3079 537.364L76.4208 550.583C75.6873 551.007 74.856 551.224 74.0088 551.224" fill="#21A366"/>
<path d="M81.0817 533.033C71.0658 533.033 68.9658 528.435 68.9658 524.579C68.9658 524.213 69.2619 523.92 69.6294 523.92H72.5869C72.9135 523.92 73.1892 524.158 73.2402 524.48C73.6865 527.493 75.0165 529.012 81.0729 529.012C85.8971 529.012 87.949 527.923 87.949 525.364C87.949 523.891 87.3642 522.797 79.8698 522.064C73.6004 521.445 69.7271 520.064 69.7271 515.05C69.7271 510.432 73.6238 507.681 80.1498 507.681C87.4794 507.681 91.1121 510.226 91.57 515.692C91.5875 515.882 91.519 516.064 91.3921 516.202C91.2667 516.334 91.0887 516.414 90.905 516.414H87.9315C87.6223 516.414 87.3525 516.197 87.2898 515.898C86.5737 512.729 84.8427 511.715 80.1381 511.715C74.8721 511.715 74.2596 513.548 74.2596 514.924C74.2596 516.59 74.9815 517.077 82.0865 518.018C89.1229 518.951 92.464 520.27 92.464 525.215C92.464 530.2 88.3033 533.059 81.0496 533.059" fill="#21A366"/>
</g>
<defs>
<clipPath id="clip0_1_3">
<rect width="438" height="622" fill="white"/>
</clipPath>
<clipPath id="clip1_1_3">
<rect width="70" height="70" fill="white" transform="translate(320 484)"/>
</clipPath>
<clipPath id="clip2_1_3">
<rect width="70" height="70" fill="white" transform="translate(185 395)"/>
</clipPath>
<clipPath id="clip3_1_3">
<rect width="70" height="70" fill="white" transform="translate(185 395)"/>
</clipPath>
<clipPath id="clip4_1_3">
<rect width="70" height="70" fill="white" transform="translate(39 395)"/>
</clipPath>
</defs>
</svg>
