<svg width="438" height="622" viewBox="0 0 438 622" fill="none" xmlns="http://www.w3.org/2000/svg">
<g clip-path="url(#clip0_1_91)">
<path d="M437.32 0H0V621.25H437.32V0Z" fill="#141414"/>
<path d="M135.153 424V361.658H160.535C167.185 361.658 173.003 362.994 177.991 365.666C183.037 368.278 186.956 371.93 189.747 376.62C192.537 381.311 193.932 386.714 193.932 392.829C193.932 398.944 192.537 404.347 189.747 409.038C186.956 413.728 183.037 417.41 177.991 420.081C173.003 422.694 167.185 424 160.535 424H135.153ZM141.743 418.3H160.179C165.7 418.3 170.48 417.231 174.517 415.094C178.614 412.897 181.791 409.899 184.047 406.099C186.303 402.24 187.431 397.816 187.431 392.829C187.431 387.782 186.303 383.359 184.047 379.559C181.791 375.759 178.614 372.79 174.517 370.653C170.48 368.456 165.7 367.358 160.179 367.358H141.743V418.3ZM226.722 424.445C222.744 424.445 219.27 423.703 216.302 422.219C213.333 420.734 211.018 418.508 209.355 415.539C207.752 412.571 206.951 408.86 206.951 404.407V377.243H213.274V403.694C213.274 408.682 214.491 412.452 216.925 415.005C219.419 417.499 222.892 418.745 227.345 418.745C230.611 418.745 233.431 418.092 235.806 416.786C238.24 415.421 240.081 413.461 241.328 410.908C242.634 408.355 243.287 405.297 243.287 401.735V377.243H249.61V424H243.554V411.175L244.534 413.491C243.049 416.935 240.734 419.636 237.587 421.595C234.5 423.495 230.878 424.445 226.722 424.445ZM287.093 424.445C282.225 424.445 277.95 423.436 274.269 421.417C270.588 419.339 267.708 416.519 265.63 412.957C263.552 409.335 262.513 405.208 262.513 400.577C262.513 395.946 263.492 391.849 265.452 388.287C267.47 384.725 270.202 381.934 273.645 379.915C277.148 377.837 281.067 376.798 285.401 376.798C289.795 376.798 293.684 377.808 297.068 379.826C300.512 381.786 303.213 384.576 305.173 388.198C307.132 391.76 308.112 395.887 308.112 400.577C308.112 400.874 308.082 401.201 308.022 401.557C308.022 401.854 308.022 402.18 308.022 402.537H267.322V397.816H304.638L302.145 399.687C302.145 396.302 301.402 393.304 299.918 390.692C298.493 388.02 296.534 385.942 294.04 384.457C291.546 382.973 288.667 382.231 285.401 382.231C282.195 382.231 279.315 382.973 276.762 384.457C274.209 385.942 272.22 388.02 270.795 390.692C269.37 393.363 268.658 396.421 268.658 399.865V400.844C268.658 404.407 269.43 407.554 270.974 410.285C272.577 412.957 274.773 415.064 277.564 416.608C280.414 418.092 283.65 418.835 287.271 418.835C290.121 418.835 292.764 418.33 295.198 417.32C297.692 416.311 299.829 414.767 301.61 412.689L305.173 416.786C303.094 419.28 300.482 421.18 297.335 422.486C294.248 423.792 290.834 424.445 287.093 424.445Z" fill="#0255FF"/>
<path d="M89.1781 86L117.677 23.658H124.179L152.678 86H145.731L119.548 27.4876H122.219L96.0357 86H89.1781ZM100.4 69.3458L102.359 64.0022H138.606L140.566 69.3458H100.4ZM162.991 86V23.658H169.581V86H162.991ZM177.486 94.906L206.876 11.0115H212.665L183.275 94.906H177.486ZM219.697 86V23.658H225.13L253.629 72.2848H250.779L279.011 23.658H284.444V86H278.12V33.5437H279.634L253.629 78.0737H250.512L224.328 33.5437H226.02V86H219.697ZM304.756 86V23.658H311.347V80.3002H346.258V86H304.756Z" fill="#0255FF"/>
<path d="M84.3395 560.849H117.292V566.549H84.3395V560.849ZM85.052 593H78.4615V530.658H121.21V536.358H85.052V593ZM150.977 593.445C146.465 593.445 142.398 592.436 138.776 590.417C135.214 588.339 132.393 585.519 130.315 581.957C128.237 578.335 127.198 574.208 127.198 569.577C127.198 564.887 128.237 560.76 130.315 557.198C132.393 553.635 135.214 550.845 138.776 548.826C142.338 546.808 146.405 545.798 150.977 545.798C155.608 545.798 159.705 546.808 163.268 548.826C166.889 550.845 169.71 553.635 171.728 557.198C173.806 560.76 174.845 564.887 174.845 569.577C174.845 574.208 173.806 578.335 171.728 581.957C169.71 585.519 166.889 588.339 163.268 590.417C159.646 592.436 155.549 593.445 150.977 593.445ZM150.977 587.835C154.362 587.835 157.36 587.092 159.972 585.608C162.585 584.064 164.633 581.927 166.117 579.196C167.661 576.405 168.433 573.199 168.433 569.577C168.433 565.896 167.661 562.69 166.117 559.959C164.633 557.228 162.585 555.12 159.972 553.635C157.36 552.092 154.391 551.32 151.066 551.32C147.741 551.32 144.773 552.092 142.16 553.635C139.548 555.12 137.47 557.228 135.926 559.959C134.382 562.69 133.611 565.896 133.611 569.577C133.611 573.199 134.382 576.405 135.926 579.196C137.47 581.927 139.548 584.064 142.16 585.608C144.773 587.092 147.712 587.835 150.977 587.835ZM187.755 593V546.243H193.811V558.979L193.187 556.753C194.494 553.19 196.691 550.489 199.778 548.648C202.865 546.748 206.695 545.798 211.267 545.798V551.943C211.029 551.943 210.792 551.943 210.554 551.943C210.317 551.884 210.079 551.854 209.842 551.854C204.914 551.854 201.054 553.368 198.264 556.396C195.473 559.365 194.078 563.61 194.078 569.132V593H187.755ZM254.023 560.849H286.975V566.549H254.023V560.849ZM254.736 593H248.145V530.658H290.894V536.358H254.736V593ZM330.555 593V582.669L330.288 580.977V563.699C330.288 559.721 329.16 556.664 326.903 554.526C324.707 552.389 321.411 551.32 317.018 551.32C313.99 551.32 311.11 551.825 308.379 552.834C305.648 553.843 303.332 555.179 301.432 556.842L298.582 552.121C300.957 550.103 303.807 548.559 307.132 547.49C310.457 546.362 313.96 545.798 317.641 545.798C323.697 545.798 328.358 547.312 331.624 550.34C334.949 553.309 336.611 557.851 336.611 563.966V593H330.555ZM314.435 593.445C310.932 593.445 307.874 592.881 305.262 591.753C302.709 590.566 300.749 588.963 299.384 586.944C298.018 584.866 297.335 582.491 297.335 579.819C297.335 577.385 297.9 575.188 299.028 573.229C300.215 571.21 302.115 569.607 304.727 568.419C307.399 567.173 310.962 566.549 315.415 566.549H331.535V571.269H315.593C311.08 571.269 307.934 572.071 306.152 573.674C304.431 575.277 303.57 577.266 303.57 579.641C303.57 582.313 304.609 584.45 306.687 586.053C308.765 587.656 311.674 588.458 315.415 588.458C318.977 588.458 322.035 587.656 324.588 586.053C327.2 584.391 329.1 582.016 330.288 578.929L331.713 583.292C330.525 586.38 328.447 588.844 325.478 590.684C322.569 592.525 318.888 593.445 314.435 593.445ZM353.786 593V526.917H360.109V593H353.786ZM377.703 593V526.917H384.026V593H377.703Z" fill="#0255FF"/>
<path d="M70.4277 258V195.658H93.7615C99.0457 195.658 103.588 196.519 107.388 198.241C111.188 199.903 114.097 202.337 116.116 205.544C118.194 208.69 119.233 212.52 119.233 217.032C119.233 221.426 118.194 225.226 116.116 228.432C114.097 231.579 111.188 234.013 107.388 235.735C103.588 237.457 99.0457 238.318 93.7615 238.318H74.0792L77.0182 235.201V258H70.4277ZM77.0182 235.735L74.0792 232.529H93.5833C99.8175 232.529 104.538 231.193 107.744 228.521C111.009 225.79 112.642 221.96 112.642 217.032C112.642 212.045 111.009 208.186 107.744 205.455C104.538 202.723 99.8175 201.358 93.5833 201.358H74.0792L77.0182 198.241V235.735ZM131.016 258V211.243H137.072V223.979L136.449 221.753C137.755 218.19 139.952 215.489 143.039 213.648C146.127 211.748 149.956 210.798 154.528 210.798V216.943C154.291 216.943 154.053 216.943 153.816 216.943C153.578 216.884 153.341 216.854 153.103 216.854C148.175 216.854 144.316 218.368 141.525 221.396C138.735 224.365 137.34 228.61 137.34 234.132V258H131.016ZM184.69 258.445C180.178 258.445 176.111 257.436 172.489 255.417C168.927 253.339 166.106 250.519 164.028 246.957C161.95 243.335 160.911 239.208 160.911 234.577C160.911 229.887 161.95 225.76 164.028 222.198C166.106 218.635 168.927 215.845 172.489 213.826C176.052 211.808 180.119 210.798 184.69 210.798C189.321 210.798 193.418 211.808 196.981 213.826C200.602 215.845 203.423 218.635 205.441 222.198C207.519 225.76 208.558 229.887 208.558 234.577C208.558 239.208 207.519 243.335 205.441 246.957C203.423 250.519 200.602 253.339 196.981 255.417C193.359 257.436 189.262 258.445 184.69 258.445ZM184.69 252.835C188.075 252.835 191.073 252.092 193.685 250.608C196.298 249.064 198.346 246.927 199.831 244.196C201.374 241.405 202.146 238.199 202.146 234.577C202.146 230.896 201.374 227.69 199.831 224.959C198.346 222.228 196.298 220.12 193.685 218.635C191.073 217.092 188.104 216.32 184.779 216.32C181.454 216.32 178.486 217.092 175.873 218.635C173.261 220.12 171.183 222.228 169.639 224.959C168.095 227.69 167.324 230.896 167.324 234.577C167.324 238.199 168.095 241.405 169.639 244.196C171.183 246.927 173.261 249.064 175.873 250.608C178.486 252.092 181.425 252.835 184.69 252.835ZM214.521 275.723C212.621 275.723 210.81 275.456 209.089 274.921C207.307 274.446 205.823 273.704 204.636 272.695L206.862 267.886C208.762 269.489 211.196 270.29 214.165 270.29C216.659 270.29 218.559 269.548 219.865 268.064C221.23 266.579 221.913 264.383 221.913 261.473V211.243H228.237V261.473C228.237 265.808 227.049 269.251 224.674 271.804C222.359 274.417 218.974 275.723 214.521 275.723ZM225.119 200.913C223.813 200.913 222.715 200.467 221.824 199.577C220.934 198.686 220.488 197.617 220.488 196.37C220.488 195.124 220.934 194.085 221.824 193.253C222.715 192.363 223.813 191.917 225.119 191.917C226.426 191.917 227.524 192.333 228.415 193.164C229.305 193.996 229.751 195.035 229.751 196.281C229.751 197.588 229.305 198.686 228.415 199.577C227.583 200.467 226.485 200.913 225.119 200.913ZM265.768 258.445C260.899 258.445 256.624 257.436 252.943 255.417C249.262 253.339 246.382 250.519 244.304 246.957C242.226 243.335 241.187 239.208 241.187 234.577C241.187 229.946 242.167 225.849 244.126 222.287C246.145 218.725 248.876 215.934 252.32 213.915C255.823 211.837 259.741 210.798 264.075 210.798C268.469 210.798 272.358 211.808 275.742 213.826C279.186 215.786 281.887 218.576 283.847 222.198C285.806 225.76 286.786 229.887 286.786 234.577C286.786 234.874 286.756 235.201 286.697 235.557C286.697 235.854 286.697 236.18 286.697 236.537H245.996V231.816H283.312L280.819 233.687C280.819 230.302 280.077 227.304 278.592 224.692C277.167 222.02 275.208 219.942 272.714 218.457C270.221 216.973 267.341 216.231 264.075 216.231C260.869 216.231 257.99 216.973 255.437 218.457C252.884 219.942 250.895 222.02 249.47 224.692C248.045 227.363 247.332 230.421 247.332 233.865V234.844C247.332 238.407 248.104 241.554 249.648 244.285C251.251 246.957 253.448 249.064 256.238 250.608C259.088 252.092 262.324 252.835 265.946 252.835C268.796 252.835 271.438 252.33 273.872 251.32C276.366 250.311 278.503 248.767 280.284 246.689L283.847 250.786C281.769 253.28 279.156 255.18 276.01 256.486C272.922 257.792 269.508 258.445 265.768 258.445ZM319.071 258.445C314.44 258.445 310.284 257.436 306.603 255.417C302.981 253.339 300.131 250.519 298.053 246.957C295.975 243.335 294.936 239.208 294.936 234.577C294.936 229.887 295.975 225.76 298.053 222.198C300.131 218.635 302.981 215.845 306.603 213.826C310.284 211.808 314.44 210.798 319.071 210.798C323.049 210.798 326.642 211.57 329.848 213.114C333.054 214.657 335.577 216.973 337.418 220.06L332.698 223.267C331.095 220.892 329.106 219.14 326.731 218.012C324.356 216.884 321.773 216.32 318.982 216.32C315.657 216.32 312.659 217.092 309.987 218.635C307.316 220.12 305.208 222.228 303.664 224.959C302.12 227.69 301.348 230.896 301.348 234.577C301.348 238.258 302.12 241.465 303.664 244.196C305.208 246.927 307.316 249.064 309.987 250.608C312.659 252.092 315.657 252.835 318.982 252.835C321.773 252.835 324.356 252.27 326.731 251.142C329.106 250.014 331.095 248.292 332.698 245.977L337.418 249.183C335.577 252.211 333.054 254.527 329.848 256.13C326.642 257.673 323.049 258.445 319.071 258.445ZM365.145 258.445C360.752 258.445 357.367 257.258 354.993 254.883C352.618 252.508 351.43 249.153 351.43 244.819V200.913H357.753V244.463C357.753 247.194 358.436 249.302 359.802 250.786C361.227 252.27 363.245 253.013 365.858 253.013C368.648 253.013 370.964 252.211 372.805 250.608L375.031 255.15C373.784 256.278 372.27 257.109 370.489 257.644C368.767 258.178 366.986 258.445 365.145 258.445ZM343.058 216.498V211.243H372.003V216.498H343.058Z" fill="#0255FF"/>
</g>
<defs>
<clipPath id="clip0_1_91">
<rect width="438" height="622" fill="white"/>
</clipPath>
</defs>
</svg>
