<svg width="438" height="622" viewBox="0 0 438 622" fill="none" xmlns="http://www.w3.org/2000/svg">
<g clip-path="url(#clip0_1_3)">
<path d="M437.32 0H0V621.25H437.32V0Z" fill="#141414"/>
<path d="M379.792 402.292H330.208L334.583 451.875L355 457.708L375.417 451.875L379.792 402.292Z" fill="#E65100"/>
<path d="M355 406.667V453.188L371.333 448.521L374.979 406.667H355Z" fill="#FF6D00"/>
<path d="M355 431.458V425.625H367.542L366.521 442.396L355 446.188V440.063L360.979 438.021L361.417 431.458H355ZM367.979 419.792L368.417 413.958H355V419.792H367.979Z" fill="white"/>
<path d="M355 440.063V446.188L343.479 442.396L342.896 434.375H348.729L349.021 438.021L355 440.063ZM347.854 419.792H355V413.958H341.729L342.75 431.458H355V425.625H348.292L347.854 419.792Z" fill="#EEEEEE"/>
<path d="M357.917 508.792H346.25C340.612 508.792 336.042 504.221 336.042 498.583C336.042 492.945 340.612 488.375 346.25 488.375H357.917V508.792Z" fill="url(#paint0_linear_1_3)"/>
<path d="M356.458 529.208H346.25C340.612 529.208 336.042 524.638 336.042 519C336.042 513.362 340.612 508.792 346.25 508.792H356.458V529.208Z" fill="url(#paint1_linear_1_3)"/>
<path d="M346.25 549.625C340.612 549.625 336.042 545.055 336.042 539.417C336.042 533.779 340.612 529.208 346.25 529.208H356.458V539.417C356.458 545.055 351.888 549.625 346.25 549.625Z" fill="url(#paint2_linear_1_3)"/>
<path d="M366.667 508.792H356.458V488.375H366.667C372.305 488.375 376.875 492.945 376.875 498.583C376.875 504.221 372.305 508.792 366.667 508.792Z" fill="url(#paint3_linear_1_3)"/>
<path d="M366.667 529.208C372.305 529.208 376.875 524.638 376.875 519C376.875 513.362 372.305 508.792 366.667 508.792C361.029 508.792 356.458 513.362 356.458 519C356.458 524.638 361.029 529.208 366.667 529.208Z" fill="url(#paint4_linear_1_3)"/>
<path d="M67.8923 297L60.3403 274.6H62.7723L69.8443 295.688H68.6283L75.9243 274.6H78.1003L85.3003 295.688H84.1483L91.2843 274.6H93.5563L86.0043 297H83.5083L76.6283 277H77.2683L70.3563 297H67.8923ZM103.273 297.16C101.523 297.16 99.9874 296.797 98.6648 296.072C97.3421 295.325 96.3074 294.312 95.5608 293.032C94.8141 291.731 94.4408 290.248 94.4408 288.584C94.4408 286.92 94.7928 285.448 95.4968 284.168C96.2221 282.888 97.2034 281.885 98.4408 281.16C99.6994 280.413 101.107 280.04 102.665 280.04C104.243 280.04 105.641 280.403 106.857 281.128C108.094 281.832 109.065 282.835 109.769 284.136C110.473 285.416 110.825 286.899 110.825 288.584C110.825 288.691 110.814 288.808 110.793 288.936C110.793 289.043 110.793 289.16 110.793 289.288H96.1688V287.592H109.577L108.681 288.264C108.681 287.048 108.414 285.971 107.881 285.032C107.369 284.072 106.665 283.325 105.769 282.792C104.873 282.259 103.838 281.992 102.665 281.992C101.513 281.992 100.478 282.259 99.5608 282.792C98.6434 283.325 97.9288 284.072 97.4168 285.032C96.9048 285.992 96.6488 287.091 96.6488 288.328V288.68C96.6488 289.96 96.9261 291.091 97.4808 292.072C98.0568 293.032 98.8461 293.789 99.8488 294.344C100.873 294.877 102.035 295.144 103.337 295.144C104.361 295.144 105.31 294.963 106.185 294.6C107.081 294.237 107.849 293.683 108.489 292.936L109.769 294.408C109.022 295.304 108.083 295.987 106.953 296.456C105.843 296.925 104.617 297.16 103.273 297.16ZM124.121 297.16C122.649 297.16 121.327 296.829 120.153 296.168C118.98 295.485 118.052 294.504 117.369 293.224C116.687 291.944 116.345 290.397 116.345 288.584C116.345 286.749 116.687 285.203 117.369 283.944C118.073 282.664 119.012 281.693 120.185 281.032C121.359 280.371 122.671 280.04 124.121 280.04C125.721 280.04 127.151 280.403 128.409 281.128C129.689 281.832 130.692 282.824 131.417 284.104C132.143 285.384 132.505 286.877 132.505 288.584C132.505 290.269 132.143 291.763 131.417 293.064C130.692 294.344 129.689 295.347 128.409 296.072C127.151 296.797 125.721 297.16 124.121 297.16ZM115.449 297V273.256H117.721V285.16L117.401 288.552L117.625 291.944V297H115.449ZM123.961 295.144C125.156 295.144 126.223 294.877 127.161 294.344C128.1 293.789 128.847 293.021 129.401 292.04C129.956 291.037 130.233 289.885 130.233 288.584C130.233 287.261 129.956 286.109 129.401 285.128C128.847 284.147 128.1 283.389 127.161 282.856C126.223 282.301 125.156 282.024 123.961 282.024C122.767 282.024 121.689 282.301 120.729 282.856C119.791 283.389 119.044 284.147 118.489 285.128C117.956 286.109 117.689 287.261 117.689 288.584C117.689 289.885 117.956 291.037 118.489 292.04C119.044 293.021 119.791 293.789 120.729 294.344C121.689 294.877 122.767 295.144 123.961 295.144ZM141.649 297.16C140.262 297.16 138.95 296.968 137.713 296.584C136.475 296.179 135.505 295.677 134.801 295.08L135.825 293.288C136.507 293.8 137.382 294.248 138.449 294.632C139.515 294.995 140.635 295.176 141.809 295.176C143.409 295.176 144.561 294.931 145.265 294.44C145.969 293.928 146.321 293.256 146.321 292.424C146.321 291.805 146.118 291.325 145.713 290.984C145.329 290.621 144.817 290.355 144.177 290.184C143.537 289.992 142.822 289.832 142.033 289.704C141.243 289.576 140.454 289.427 139.665 289.256C138.897 289.085 138.193 288.84 137.553 288.52C136.913 288.179 136.39 287.72 135.985 287.144C135.601 286.568 135.409 285.8 135.409 284.84C135.409 283.923 135.665 283.101 136.177 282.376C136.689 281.651 137.435 281.085 138.417 280.68C139.419 280.253 140.635 280.04 142.065 280.04C143.153 280.04 144.241 280.189 145.329 280.488C146.417 280.765 147.313 281.139 148.017 281.608L147.025 283.432C146.278 282.92 145.478 282.557 144.625 282.344C143.771 282.109 142.918 281.992 142.065 281.992C140.55 281.992 139.43 282.259 138.705 282.792C138.001 283.304 137.649 283.965 137.649 284.776C137.649 285.416 137.841 285.917 138.225 286.28C138.63 286.643 139.153 286.931 139.793 287.144C140.454 287.336 141.169 287.496 141.937 287.624C142.726 287.752 143.505 287.912 144.273 288.104C145.062 288.275 145.777 288.52 146.417 288.84C147.078 289.139 147.601 289.576 147.985 290.152C148.39 290.707 148.593 291.443 148.593 292.36C148.593 293.341 148.315 294.195 147.761 294.92C147.227 295.624 146.438 296.179 145.393 296.584C144.369 296.968 143.121 297.16 141.649 297.16ZM152.762 297V280.2H155.034V297H152.762ZM153.914 276.488C153.444 276.488 153.05 276.328 152.73 276.008C152.41 275.688 152.25 275.304 152.25 274.856C152.25 274.408 152.41 274.035 152.73 273.736C153.05 273.416 153.444 273.256 153.914 273.256C154.383 273.256 154.778 273.405 155.098 273.704C155.418 274.003 155.578 274.376 155.578 274.824C155.578 275.293 155.418 275.688 155.098 276.008C154.799 276.328 154.404 276.488 153.914 276.488ZM166.668 297.16C165.089 297.16 163.873 296.733 163.02 295.88C162.166 295.027 161.74 293.821 161.74 292.264V276.488H164.012V292.136C164.012 293.117 164.257 293.875 164.748 294.408C165.26 294.941 165.985 295.208 166.924 295.208C167.926 295.208 168.758 294.92 169.42 294.344L170.22 295.976C169.772 296.381 169.228 296.68 168.588 296.872C167.969 297.064 167.329 297.16 166.668 297.16ZM158.732 282.088V280.2H169.132V282.088H158.732ZM180.898 297.16C179.148 297.16 177.612 296.797 176.29 296.072C174.967 295.325 173.932 294.312 173.186 293.032C172.439 291.731 172.066 290.248 172.066 288.584C172.066 286.92 172.418 285.448 173.122 284.168C173.847 282.888 174.828 281.885 176.066 281.16C177.324 280.413 178.732 280.04 180.29 280.04C181.868 280.04 183.266 280.403 184.482 281.128C185.719 281.832 186.69 282.835 187.394 284.136C188.098 285.416 188.45 286.899 188.45 288.584C188.45 288.691 188.439 288.808 188.418 288.936C188.418 289.043 188.418 289.16 188.418 289.288H173.794V287.592H187.202L186.306 288.264C186.306 287.048 186.039 285.971 185.506 285.032C184.994 284.072 184.29 283.325 183.394 282.792C182.498 282.259 181.463 281.992 180.29 281.992C179.138 281.992 178.103 282.259 177.186 282.792C176.268 283.325 175.554 284.072 175.042 285.032C174.53 285.992 174.274 287.091 174.274 288.328V288.68C174.274 289.96 174.551 291.091 175.106 292.072C175.682 293.032 176.471 293.789 177.474 294.344C178.498 294.877 179.66 295.144 180.962 295.144C181.986 295.144 182.935 294.963 183.81 294.6C184.706 294.237 185.474 293.683 186.114 292.936L187.394 294.408C186.647 295.304 185.708 295.987 184.578 296.456C183.468 296.925 182.242 297.16 180.898 297.16ZM206.761 297.16C205.183 297.16 203.967 296.733 203.113 295.88C202.26 295.027 201.833 293.821 201.833 292.264V276.488H204.105V292.136C204.105 293.117 204.351 293.875 204.841 294.408C205.353 294.941 206.079 295.208 207.017 295.208C208.02 295.208 208.852 294.92 209.513 294.344L210.313 295.976C209.865 296.381 209.321 296.68 208.681 296.872C208.063 297.064 207.423 297.16 206.761 297.16ZM198.825 282.088V280.2H209.225V282.088H198.825ZM223.025 280.04C224.391 280.04 225.585 280.307 226.609 280.84C227.655 281.352 228.465 282.141 229.041 283.208C229.639 284.275 229.937 285.619 229.937 287.24V297H227.665V287.464C227.665 285.693 227.217 284.36 226.321 283.464C225.447 282.547 224.209 282.088 222.609 282.088C221.415 282.088 220.369 282.333 219.473 282.824C218.599 283.293 217.916 283.987 217.425 284.904C216.956 285.8 216.721 286.888 216.721 288.168V297H214.449V273.256H216.721V284.808L216.273 283.944C216.807 282.728 217.66 281.779 218.833 281.096C220.007 280.392 221.404 280.04 223.025 280.04ZM246.602 297V293.288L246.506 292.68V286.472C246.506 285.043 246.101 283.944 245.29 283.176C244.501 282.408 243.317 282.024 241.738 282.024C240.65 282.024 239.616 282.205 238.634 282.568C237.653 282.931 236.821 283.411 236.138 284.008L235.114 282.312C235.968 281.587 236.992 281.032 238.186 280.648C239.381 280.243 240.64 280.04 241.962 280.04C244.138 280.04 245.813 280.584 246.986 281.672C248.181 282.739 248.778 284.371 248.778 286.568V297H246.602ZM240.81 297.16C239.552 297.16 238.453 296.957 237.514 296.552C236.597 296.125 235.893 295.549 235.402 294.824C234.912 294.077 234.666 293.224 234.666 292.264C234.666 291.389 234.869 290.6 235.274 289.896C235.701 289.171 236.384 288.595 237.322 288.168C238.282 287.72 239.562 287.496 241.162 287.496H246.954V289.192H241.226C239.605 289.192 238.474 289.48 237.834 290.056C237.216 290.632 236.906 291.347 236.906 292.2C236.906 293.16 237.28 293.928 238.026 294.504C238.773 295.08 239.818 295.368 241.162 295.368C242.442 295.368 243.541 295.08 244.458 294.504C245.397 293.907 246.08 293.053 246.506 291.944L247.018 293.512C246.592 294.621 245.845 295.507 244.778 296.168C243.733 296.829 242.41 297.16 240.81 297.16ZM260.261 297.16C258.683 297.16 257.467 296.733 256.613 295.88C255.76 295.027 255.333 293.821 255.333 292.264V276.488H257.605V292.136C257.605 293.117 257.851 293.875 258.341 294.408C258.853 294.941 259.579 295.208 260.517 295.208C261.52 295.208 262.352 294.92 263.013 294.344L263.813 295.976C263.365 296.381 262.821 296.68 262.181 296.872C261.563 297.064 260.923 297.16 260.261 297.16ZM252.325 282.088V280.2H262.725V282.088H252.325ZM283.012 297.16C281.412 297.16 279.972 296.797 278.692 296.072C277.434 295.347 276.442 294.344 275.716 293.064C274.991 291.763 274.628 290.269 274.628 288.584C274.628 286.877 274.991 285.384 275.716 284.104C276.442 282.824 277.434 281.832 278.692 281.128C279.972 280.403 281.412 280.04 283.012 280.04C284.484 280.04 285.796 280.371 286.948 281.032C288.122 281.693 289.05 282.664 289.732 283.944C290.436 285.203 290.788 286.749 290.788 288.584C290.788 290.397 290.447 291.944 289.764 293.224C289.082 294.504 288.154 295.485 286.98 296.168C285.828 296.829 284.506 297.16 283.012 297.16ZM283.172 295.144C284.367 295.144 285.434 294.877 286.372 294.344C287.332 293.789 288.079 293.021 288.612 292.04C289.167 291.037 289.444 289.885 289.444 288.584C289.444 287.261 289.167 286.109 288.612 285.128C288.079 284.147 287.332 283.389 286.372 282.856C285.434 282.301 284.367 282.024 283.172 282.024C281.999 282.024 280.943 282.301 280.004 282.856C279.066 283.389 278.319 284.147 277.764 285.128C277.21 286.109 276.932 287.261 276.932 288.584C276.932 289.885 277.21 291.037 277.764 292.04C278.319 293.021 279.066 293.789 280.004 294.344C280.943 294.877 281.999 295.144 283.172 295.144ZM289.508 297V291.944L289.732 288.552L289.412 285.16V273.256H291.684V297H289.508ZM305.148 297.16C303.398 297.16 301.862 296.797 300.54 296.072C299.217 295.325 298.182 294.312 297.436 293.032C296.689 291.731 296.316 290.248 296.316 288.584C296.316 286.92 296.668 285.448 297.372 284.168C298.097 282.888 299.078 281.885 300.316 281.16C301.574 280.413 302.982 280.04 304.54 280.04C306.118 280.04 307.516 280.403 308.732 281.128C309.969 281.832 310.94 282.835 311.644 284.136C312.348 285.416 312.7 286.899 312.7 288.584C312.7 288.691 312.689 288.808 312.668 288.936C312.668 289.043 312.668 289.16 312.668 289.288H298.044V287.592H311.452L310.556 288.264C310.556 287.048 310.289 285.971 309.756 285.032C309.244 284.072 308.54 283.325 307.644 282.792C306.748 282.259 305.713 281.992 304.54 281.992C303.388 281.992 302.353 282.259 301.436 282.792C300.518 283.325 299.804 284.072 299.292 285.032C298.78 285.992 298.524 287.091 298.524 288.328V288.68C298.524 289.96 298.801 291.091 299.356 292.072C299.932 293.032 300.721 293.789 301.724 294.344C302.748 294.877 303.91 295.144 305.212 295.144C306.236 295.144 307.185 294.963 308.06 294.6C308.956 294.237 309.724 293.683 310.364 292.936L311.644 294.408C310.897 295.304 309.958 295.987 308.828 296.456C307.718 296.925 306.492 297.16 305.148 297.16ZM322.636 297.16C321.058 297.16 319.842 296.733 318.988 295.88C318.135 295.027 317.708 293.821 317.708 292.264V276.488H319.98V292.136C319.98 293.117 320.226 293.875 320.716 294.408C321.228 294.941 321.954 295.208 322.892 295.208C323.895 295.208 324.727 294.92 325.388 294.344L326.188 295.976C325.74 296.381 325.196 296.68 324.556 296.872C323.938 297.064 323.298 297.16 322.636 297.16ZM314.7 282.088V280.2H325.1V282.088H314.7ZM340.852 297V293.288L340.756 292.68V286.472C340.756 285.043 340.351 283.944 339.54 283.176C338.751 282.408 337.567 282.024 335.988 282.024C334.9 282.024 333.866 282.205 332.884 282.568C331.903 282.931 331.071 283.411 330.388 284.008L329.364 282.312C330.218 281.587 331.242 281.032 332.436 280.648C333.631 280.243 334.89 280.04 336.212 280.04C338.388 280.04 340.063 280.584 341.236 281.672C342.431 282.739 343.028 284.371 343.028 286.568V297H340.852ZM335.06 297.16C333.802 297.16 332.703 296.957 331.764 296.552C330.847 296.125 330.143 295.549 329.652 294.824C329.162 294.077 328.916 293.224 328.916 292.264C328.916 291.389 329.119 290.6 329.524 289.896C329.951 289.171 330.634 288.595 331.572 288.168C332.532 287.72 333.812 287.496 335.412 287.496H341.204V289.192H335.476C333.855 289.192 332.724 289.48 332.084 290.056C331.466 290.632 331.156 291.347 331.156 292.2C331.156 293.16 331.53 293.928 332.276 294.504C333.023 295.08 334.068 295.368 335.412 295.368C336.692 295.368 337.791 295.08 338.708 294.504C339.647 293.907 340.33 293.053 340.756 291.944L341.268 293.512C340.842 294.621 340.095 295.507 339.028 296.168C337.983 296.829 336.66 297.16 335.06 297.16ZM349.199 297V280.2H351.471V297H349.199ZM350.351 276.488C349.882 276.488 349.487 276.328 349.167 276.008C348.847 275.688 348.687 275.304 348.687 274.856C348.687 274.408 348.847 274.035 349.167 273.736C349.487 273.416 349.882 273.256 350.351 273.256C350.821 273.256 351.215 273.405 351.535 273.704C351.855 274.003 352.015 274.376 352.015 274.824C352.015 275.293 351.855 275.688 351.535 276.008C351.237 276.328 350.842 276.488 350.351 276.488ZM357.793 297V273.256H360.065V297H357.793ZM370.899 297.16C369.512 297.16 368.2 296.968 366.963 296.584C365.725 296.179 364.755 295.677 364.051 295.08L365.075 293.288C365.757 293.8 366.632 294.248 367.699 294.632C368.765 294.995 369.885 295.176 371.059 295.176C372.659 295.176 373.811 294.931 374.515 294.44C375.219 293.928 375.571 293.256 375.571 292.424C375.571 291.805 375.368 291.325 374.963 290.984C374.579 290.621 374.067 290.355 373.427 290.184C372.787 289.992 372.072 289.832 371.283 289.704C370.493 289.576 369.704 289.427 368.915 289.256C368.147 289.085 367.443 288.84 366.803 288.52C366.163 288.179 365.64 287.72 365.235 287.144C364.851 286.568 364.659 285.8 364.659 284.84C364.659 283.923 364.915 283.101 365.427 282.376C365.939 281.651 366.685 281.085 367.667 280.68C368.669 280.253 369.885 280.04 371.315 280.04C372.403 280.04 373.491 280.189 374.579 280.488C375.667 280.765 376.563 281.139 377.267 281.608L376.275 283.432C375.528 282.92 374.728 282.557 373.875 282.344C373.021 282.109 372.168 281.992 371.315 281.992C369.8 281.992 368.68 282.259 367.955 282.792C367.251 283.304 366.899 283.965 366.899 284.776C366.899 285.416 367.091 285.917 367.475 286.28C367.88 286.643 368.403 286.931 369.043 287.144C369.704 287.336 370.419 287.496 371.187 287.624C371.976 287.752 372.755 287.912 373.523 288.104C374.312 288.275 375.027 288.52 375.667 288.84C376.328 289.139 376.851 289.576 377.235 290.152C377.64 290.707 377.843 291.443 377.843 292.36C377.843 293.341 377.565 294.195 377.011 294.92C376.477 295.624 375.688 296.179 374.643 296.584C373.619 296.968 372.371 297.16 370.899 297.16ZM62.0194 319.04C63.3847 319.04 64.5687 319.307 65.5714 319.84C66.5954 320.352 67.3847 321.141 67.9394 322.208C68.5154 323.275 68.8034 324.619 68.8034 326.24V336H66.5314V326.464C66.5314 324.693 66.1047 323.36 65.2514 322.464C64.4194 321.547 63.2354 321.088 61.6994 321.088C60.5474 321.088 59.5447 321.333 58.6914 321.824C57.8594 322.293 57.2087 322.987 56.7394 323.904C56.2914 324.8 56.0674 325.888 56.0674 327.168V336H53.7954V326.464C53.7954 324.693 53.3687 323.36 52.5154 322.464C51.662 321.547 50.4674 321.088 48.9314 321.088C47.8007 321.088 46.8087 321.333 45.9554 321.824C45.102 322.293 44.4407 322.987 43.9714 323.904C43.5234 324.8 43.2994 325.888 43.2994 327.168V336H41.0274V319.2H43.2034V323.744L42.8514 322.944C43.3634 321.728 44.1847 320.779 45.3154 320.096C46.4674 319.392 47.822 319.04 49.3794 319.04C51.022 319.04 52.4194 319.456 53.5714 320.288C54.7234 321.099 55.47 322.325 55.8114 323.968L54.9154 323.616C55.406 322.251 56.27 321.152 57.5074 320.32C58.766 319.467 60.27 319.04 62.0194 319.04ZM74.7804 342.368C73.991 342.368 73.2337 342.24 72.5084 341.984C71.8044 341.728 71.1964 341.344 70.6844 340.832L71.7404 339.136C72.167 339.541 72.6257 339.851 73.1164 340.064C73.6284 340.299 74.1937 340.416 74.8124 340.416C75.559 340.416 76.199 340.203 76.7324 339.776C77.287 339.371 77.8097 338.645 78.3004 337.6L79.3884 335.136L79.6444 334.784L86.5564 319.2H88.7964L80.3804 338.016C79.911 339.104 79.3884 339.968 78.8124 340.608C78.2577 341.248 77.6497 341.696 76.9884 341.952C76.327 342.229 75.591 342.368 74.7804 342.368ZM79.2604 336.48L71.5164 319.2H73.8844L80.7324 334.624L79.2604 336.48ZM107.539 342.368C106.003 342.368 104.531 342.144 103.123 341.696C101.715 341.248 100.574 340.608 99.6991 339.776L100.851 338.048C101.64 338.752 102.611 339.307 103.763 339.712C104.936 340.139 106.174 340.352 107.475 340.352C109.608 340.352 111.176 339.851 112.179 338.848C113.182 337.867 113.683 336.331 113.683 334.24V330.048L114.003 327.168L113.779 324.288V319.2H115.955V333.952C115.955 336.853 115.24 338.976 113.811 340.32C112.403 341.685 110.312 342.368 107.539 342.368ZM107.123 335.36C105.523 335.36 104.083 335.019 102.803 334.336C101.523 333.632 100.51 332.661 99.7631 331.424C99.0378 330.187 98.6751 328.768 98.6751 327.168C98.6751 325.568 99.0378 324.16 99.7631 322.944C100.51 321.707 101.523 320.747 102.803 320.064C104.083 319.381 105.523 319.04 107.123 319.04C108.616 319.04 109.96 319.349 111.155 319.968C112.35 320.587 113.299 321.504 114.003 322.72C114.707 323.936 115.059 325.419 115.059 327.168C115.059 328.917 114.707 330.4 114.003 331.616C113.299 332.832 112.35 333.76 111.155 334.4C109.96 335.04 108.616 335.36 107.123 335.36ZM107.347 333.344C108.584 333.344 109.683 333.088 110.643 332.576C111.603 332.043 112.36 331.317 112.915 330.4C113.47 329.461 113.747 328.384 113.747 327.168C113.747 325.952 113.47 324.885 112.915 323.968C112.36 323.051 111.603 322.336 110.643 321.824C109.683 321.291 108.584 321.024 107.347 321.024C106.131 321.024 105.032 321.291 104.051 321.824C103.091 322.336 102.334 323.051 101.779 323.968C101.246 324.885 100.979 325.952 100.979 327.168C100.979 328.384 101.246 329.461 101.779 330.4C102.334 331.317 103.091 332.043 104.051 332.576C105.032 333.088 106.131 333.344 107.347 333.344ZM129.125 336.16C127.504 336.16 126.043 335.797 124.741 335.072C123.461 334.325 122.448 333.312 121.701 332.032C120.955 330.731 120.581 329.248 120.581 327.584C120.581 325.899 120.955 324.416 121.701 323.136C122.448 321.856 123.461 320.853 124.741 320.128C126.021 319.403 127.483 319.04 129.125 319.04C130.789 319.04 132.261 319.403 133.541 320.128C134.843 320.853 135.856 321.856 136.581 323.136C137.328 324.416 137.701 325.899 137.701 327.584C137.701 329.248 137.328 330.731 136.581 332.032C135.856 333.312 134.843 334.325 133.541 335.072C132.24 335.797 130.768 336.16 129.125 336.16ZM129.125 334.144C130.341 334.144 131.419 333.877 132.357 333.344C133.296 332.789 134.032 332.021 134.565 331.04C135.12 330.037 135.397 328.885 135.397 327.584C135.397 326.261 135.12 325.109 134.565 324.128C134.032 323.147 133.296 322.389 132.357 321.856C131.419 321.301 130.352 321.024 129.157 321.024C127.963 321.024 126.896 321.301 125.957 321.856C125.019 322.389 124.272 323.147 123.717 324.128C123.163 325.109 122.885 326.261 122.885 327.584C122.885 328.885 123.163 330.037 123.717 331.04C124.272 332.021 125.019 332.789 125.957 333.344C126.896 333.877 127.952 334.144 129.125 334.144ZM152.774 336V332.288L152.678 331.68V325.472C152.678 324.043 152.273 322.944 151.462 322.176C150.673 321.408 149.489 321.024 147.91 321.024C146.822 321.024 145.787 321.205 144.806 321.568C143.825 321.931 142.993 322.411 142.31 323.008L141.286 321.312C142.139 320.587 143.163 320.032 144.358 319.648C145.553 319.243 146.811 319.04 148.134 319.04C150.31 319.04 151.985 319.584 153.158 320.672C154.353 321.739 154.95 323.371 154.95 325.568V336H152.774ZM146.982 336.16C145.723 336.16 144.625 335.957 143.686 335.552C142.769 335.125 142.065 334.549 141.574 333.824C141.083 333.077 140.838 332.224 140.838 331.264C140.838 330.389 141.041 329.6 141.446 328.896C141.873 328.171 142.555 327.595 143.494 327.168C144.454 326.72 145.734 326.496 147.334 326.496H153.126V328.192H147.398C145.777 328.192 144.646 328.48 144.006 329.056C143.387 329.632 143.078 330.347 143.078 331.2C143.078 332.16 143.451 332.928 144.198 333.504C144.945 334.08 145.99 334.368 147.334 334.368C148.614 334.368 149.713 334.08 150.63 333.504C151.569 332.907 152.251 332.053 152.678 330.944L153.19 332.512C152.763 333.621 152.017 334.507 150.95 335.168C149.905 335.829 148.582 336.16 146.982 336.16ZM161.121 336V312.256H163.393V336H161.121ZM174.227 336.16C172.84 336.16 171.528 335.968 170.291 335.584C169.054 335.179 168.083 334.677 167.379 334.08L168.403 332.288C169.086 332.8 169.96 333.248 171.027 333.632C172.094 333.995 173.214 334.176 174.387 334.176C175.987 334.176 177.139 333.931 177.843 333.44C178.547 332.928 178.899 332.256 178.899 331.424C178.899 330.805 178.696 330.325 178.291 329.984C177.907 329.621 177.395 329.355 176.755 329.184C176.115 328.992 175.4 328.832 174.611 328.704C173.822 328.576 173.032 328.427 172.243 328.256C171.475 328.085 170.771 327.84 170.131 327.52C169.491 327.179 168.968 326.72 168.563 326.144C168.179 325.568 167.987 324.8 167.987 323.84C167.987 322.923 168.243 322.101 168.755 321.376C169.267 320.651 170.014 320.085 170.995 319.68C171.998 319.253 173.214 319.04 174.643 319.04C175.731 319.04 176.819 319.189 177.907 319.488C178.995 319.765 179.891 320.139 180.595 320.608L179.603 322.432C178.856 321.92 178.056 321.557 177.203 321.344C176.35 321.109 175.496 320.992 174.643 320.992C173.128 320.992 172.008 321.259 171.283 321.792C170.579 322.304 170.227 322.965 170.227 323.776C170.227 324.416 170.419 324.917 170.803 325.28C171.208 325.643 171.731 325.931 172.371 326.144C173.032 326.336 173.747 326.496 174.515 326.624C175.304 326.752 176.083 326.912 176.851 327.104C177.64 327.275 178.355 327.52 178.995 327.84C179.656 328.139 180.179 328.576 180.563 329.152C180.968 329.707 181.171 330.443 181.171 331.36C181.171 332.341 180.894 333.195 180.339 333.92C179.806 334.624 179.016 335.179 177.971 335.584C176.947 335.968 175.699 336.16 174.227 336.16ZM183.964 340.672L185.372 334.752L185.628 336.128C185.137 336.128 184.721 335.968 184.38 335.648C184.06 335.328 183.9 334.912 183.9 334.4C183.9 333.888 184.06 333.472 184.38 333.152C184.721 332.832 185.127 332.672 185.596 332.672C186.087 332.672 186.481 332.843 186.78 333.184C187.1 333.525 187.26 333.931 187.26 334.4C187.26 334.571 187.249 334.741 187.228 334.912C187.207 335.083 187.164 335.275 187.1 335.488C187.036 335.701 186.951 335.957 186.844 336.256L185.5 340.672H183.964ZM209.168 336.16C207.696 336.16 206.373 335.829 205.2 335.168C204.027 334.485 203.099 333.504 202.416 332.224C201.733 330.944 201.392 329.397 201.392 327.584C201.392 325.749 201.733 324.203 202.416 322.944C203.12 321.664 204.059 320.693 205.232 320.032C206.405 319.371 207.717 319.04 209.168 319.04C210.768 319.04 212.197 319.403 213.456 320.128C214.736 320.832 215.739 321.824 216.464 323.104C217.189 324.384 217.552 325.877 217.552 327.584C217.552 329.269 217.189 330.763 216.464 332.064C215.739 333.344 214.736 334.347 213.456 335.072C212.197 335.797 210.768 336.16 209.168 336.16ZM200.496 336V312.256H202.768V324.16L202.448 327.552L202.672 330.944V336H200.496ZM209.008 334.144C210.203 334.144 211.269 333.877 212.208 333.344C213.147 332.789 213.893 332.021 214.448 331.04C215.003 330.037 215.28 328.885 215.28 327.584C215.28 326.261 215.003 325.109 214.448 324.128C213.893 323.147 213.147 322.389 212.208 321.856C211.269 321.301 210.203 321.024 209.008 321.024C207.813 321.024 206.736 321.301 205.776 321.856C204.837 322.389 204.091 323.147 203.536 324.128C203.003 325.109 202.736 326.261 202.736 327.584C202.736 328.885 203.003 330.037 203.536 331.04C204.091 332.021 204.837 332.789 205.776 333.344C206.736 333.877 207.813 334.144 209.008 334.144ZM232.618 336V332.288L232.522 331.68V325.472C232.522 324.043 232.117 322.944 231.306 322.176C230.517 321.408 229.333 321.024 227.754 321.024C226.666 321.024 225.631 321.205 224.65 321.568C223.669 321.931 222.837 322.411 222.154 323.008L221.13 321.312C221.983 320.587 223.007 320.032 224.202 319.648C225.397 319.243 226.655 319.04 227.978 319.04C230.154 319.04 231.829 319.584 233.002 320.672C234.197 321.739 234.794 323.371 234.794 325.568V336H232.618ZM226.826 336.16C225.567 336.16 224.469 335.957 223.53 335.552C222.613 335.125 221.909 334.549 221.418 333.824C220.927 333.077 220.682 332.224 220.682 331.264C220.682 330.389 220.885 329.6 221.29 328.896C221.717 328.171 222.399 327.595 223.338 327.168C224.298 326.72 225.578 326.496 227.178 326.496H232.97V328.192H227.242C225.621 328.192 224.49 328.48 223.85 329.056C223.231 329.632 222.922 330.347 222.922 331.2C222.922 332.16 223.295 332.928 224.042 333.504C224.789 334.08 225.834 334.368 227.178 334.368C228.458 334.368 229.557 334.08 230.474 333.504C231.413 332.907 232.095 332.053 232.522 330.944L233.034 332.512C232.607 333.621 231.861 334.507 230.794 335.168C229.749 335.829 228.426 336.16 226.826 336.16ZM247.941 336.16C246.277 336.16 244.784 335.797 243.461 335.072C242.16 334.325 241.136 333.312 240.389 332.032C239.642 330.731 239.269 329.248 239.269 327.584C239.269 325.899 239.642 324.416 240.389 323.136C241.136 321.856 242.16 320.853 243.461 320.128C244.784 319.403 246.277 319.04 247.941 319.04C249.37 319.04 250.661 319.317 251.813 319.872C252.965 320.427 253.872 321.259 254.533 322.368L252.837 323.52C252.261 322.667 251.546 322.037 250.693 321.632C249.84 321.227 248.912 321.024 247.909 321.024C246.714 321.024 245.637 321.301 244.677 321.856C243.717 322.389 242.96 323.147 242.405 324.128C241.85 325.109 241.573 326.261 241.573 327.584C241.573 328.907 241.85 330.059 242.405 331.04C242.96 332.021 243.717 332.789 244.677 333.344C245.637 333.877 246.714 334.144 247.909 334.144C248.912 334.144 249.84 333.941 250.693 333.536C251.546 333.131 252.261 332.512 252.837 331.68L254.533 332.832C253.872 333.92 252.965 334.752 251.813 335.328C250.661 335.883 249.37 336.16 247.941 336.16ZM260.538 331.648L260.602 328.736L271.066 319.2H273.85L266.458 326.272L265.178 327.36L260.538 331.648ZM258.746 336V312.256H261.018V336H258.746ZM271.77 336L264.762 327.264L266.234 325.504L274.554 336H271.77ZM284.477 342.368C282.941 342.368 281.469 342.144 280.061 341.696C278.653 341.248 277.511 340.608 276.637 339.776L277.789 338.048C278.578 338.752 279.549 339.307 280.701 339.712C281.874 340.139 283.111 340.352 284.413 340.352C286.546 340.352 288.114 339.851 289.117 338.848C290.119 337.867 290.621 336.331 290.621 334.24V330.048L290.941 327.168L290.717 324.288V319.2H292.893V333.952C292.893 336.853 292.178 338.976 290.749 340.32C289.341 341.685 287.25 342.368 284.477 342.368ZM284.061 335.36C282.461 335.36 281.021 335.019 279.741 334.336C278.461 333.632 277.447 332.661 276.701 331.424C275.975 330.187 275.613 328.768 275.613 327.168C275.613 325.568 275.975 324.16 276.701 322.944C277.447 321.707 278.461 320.747 279.741 320.064C281.021 319.381 282.461 319.04 284.061 319.04C285.554 319.04 286.898 319.349 288.093 319.968C289.287 320.587 290.237 321.504 290.941 322.72C291.645 323.936 291.997 325.419 291.997 327.168C291.997 328.917 291.645 330.4 290.941 331.616C290.237 332.832 289.287 333.76 288.093 334.4C286.898 335.04 285.554 335.36 284.061 335.36ZM284.285 333.344C285.522 333.344 286.621 333.088 287.581 332.576C288.541 332.043 289.298 331.317 289.853 330.4C290.407 329.461 290.685 328.384 290.685 327.168C290.685 325.952 290.407 324.885 289.853 323.968C289.298 323.051 288.541 322.336 287.581 321.824C286.621 321.291 285.522 321.024 284.285 321.024C283.069 321.024 281.97 321.291 280.989 321.824C280.029 322.336 279.271 323.051 278.717 323.968C278.183 324.885 277.917 325.952 277.917 327.168C277.917 328.384 278.183 329.461 278.717 330.4C279.271 331.317 280.029 332.043 280.989 332.576C281.97 333.088 283.069 333.344 284.285 333.344ZM299.215 336V319.2H301.391V323.776L301.167 322.976C301.636 321.696 302.426 320.725 303.535 320.064C304.644 319.381 306.02 319.04 307.663 319.04V321.248C307.578 321.248 307.492 321.248 307.407 321.248C307.322 321.227 307.236 321.216 307.151 321.216C305.38 321.216 303.994 321.76 302.991 322.848C301.988 323.915 301.487 325.44 301.487 327.424V336H299.215ZM318.5 336.16C316.879 336.16 315.418 335.797 314.116 335.072C312.836 334.325 311.823 333.312 311.076 332.032C310.33 330.731 309.956 329.248 309.956 327.584C309.956 325.899 310.33 324.416 311.076 323.136C311.823 321.856 312.836 320.853 314.116 320.128C315.396 319.403 316.858 319.04 318.5 319.04C320.164 319.04 321.636 319.403 322.916 320.128C324.218 320.853 325.231 321.856 325.956 323.136C326.703 324.416 327.076 325.899 327.076 327.584C327.076 329.248 326.703 330.731 325.956 332.032C325.231 333.312 324.218 334.325 322.916 335.072C321.615 335.797 320.143 336.16 318.5 336.16ZM318.5 334.144C319.716 334.144 320.794 333.877 321.732 333.344C322.671 332.789 323.407 332.021 323.94 331.04C324.495 330.037 324.772 328.885 324.772 327.584C324.772 326.261 324.495 325.109 323.94 324.128C323.407 323.147 322.671 322.389 321.732 321.856C320.794 321.301 319.727 321.024 318.532 321.024C317.338 321.024 316.271 321.301 315.332 321.856C314.394 322.389 313.647 323.147 313.092 324.128C312.538 325.109 312.26 326.261 312.26 327.584C312.26 328.885 312.538 330.037 313.092 331.04C313.647 332.021 314.394 332.789 315.332 333.344C316.271 333.877 317.327 334.144 318.5 334.144ZM338.659 336.16C337.23 336.16 335.982 335.893 334.915 335.36C333.848 334.827 333.016 334.027 332.419 332.96C331.843 331.893 331.555 330.56 331.555 328.96V319.2H333.827V328.704C333.827 330.496 334.264 331.851 335.139 332.768C336.035 333.664 337.283 334.112 338.883 334.112C340.056 334.112 341.07 333.877 341.923 333.408C342.798 332.917 343.459 332.213 343.907 331.296C344.376 330.379 344.611 329.28 344.611 328V319.2H346.883V336H344.707V331.392L345.059 332.224C344.526 333.461 343.694 334.432 342.563 335.136C341.454 335.819 340.152 336.16 338.659 336.16ZM361.791 319.04C363.156 319.04 364.351 319.307 365.375 319.84C366.42 320.352 367.231 321.141 367.807 322.208C368.404 323.275 368.703 324.619 368.703 326.24V336H366.431V326.464C366.431 324.693 365.983 323.36 365.087 322.464C364.212 321.547 362.975 321.088 361.375 321.088C360.18 321.088 359.135 321.333 358.239 321.824C357.364 322.293 356.682 322.987 356.191 323.904C355.722 324.8 355.487 325.888 355.487 327.168V336H353.215V319.2H355.391V323.808L355.039 322.944C355.572 321.728 356.426 320.779 357.599 320.096C358.772 319.392 360.17 319.04 361.791 319.04ZM381.528 336.16C379.928 336.16 378.488 335.797 377.208 335.072C375.949 334.347 374.957 333.344 374.232 332.064C373.507 330.763 373.144 329.269 373.144 327.584C373.144 325.877 373.507 324.384 374.232 323.104C374.957 321.824 375.949 320.832 377.208 320.128C378.488 319.403 379.928 319.04 381.528 319.04C383 319.04 384.312 319.371 385.464 320.032C386.637 320.693 387.565 321.664 388.248 322.944C388.952 324.203 389.304 325.749 389.304 327.584C389.304 329.397 388.963 330.944 388.28 332.224C387.597 333.504 386.669 334.485 385.496 335.168C384.344 335.829 383.021 336.16 381.528 336.16ZM381.688 334.144C382.883 334.144 383.949 333.877 384.888 333.344C385.848 332.789 386.595 332.021 387.128 331.04C387.683 330.037 387.96 328.885 387.96 327.584C387.96 326.261 387.683 325.109 387.128 324.128C386.595 323.147 385.848 322.389 384.888 321.856C383.949 321.301 382.883 321.024 381.688 321.024C380.515 321.024 379.459 321.301 378.52 321.856C377.581 322.389 376.835 323.147 376.28 324.128C375.725 325.109 375.448 326.261 375.448 327.584C375.448 328.885 375.725 330.037 376.28 331.04C376.835 332.021 377.581 332.789 378.52 333.344C379.459 333.877 380.515 334.144 381.688 334.144ZM388.024 336V330.944L388.248 327.552L387.928 324.16V312.256H390.2V336H388.024ZM395.151 340.672L396.559 334.752L396.815 336.128C396.325 336.128 395.909 335.968 395.567 335.648C395.247 335.328 395.087 334.912 395.087 334.4C395.087 333.888 395.247 333.472 395.567 333.152C395.909 332.832 396.314 332.672 396.783 332.672C397.274 332.672 397.669 332.843 397.967 333.184C398.287 333.525 398.447 333.931 398.447 334.4C398.447 334.571 398.437 334.741 398.415 334.912C398.394 335.083 398.351 335.275 398.287 335.488C398.223 335.701 398.138 335.957 398.031 336.256L396.687 340.672H395.151ZM77.7425 375.16C76.3558 375.16 75.0438 374.968 73.8065 374.584C72.5692 374.179 71.5985 373.677 70.8945 373.08L71.9185 371.288C72.6012 371.8 73.4758 372.248 74.5425 372.632C75.6092 372.995 76.7292 373.176 77.9025 373.176C79.5025 373.176 80.6545 372.931 81.3585 372.44C82.0625 371.928 82.4145 371.256 82.4145 370.424C82.4145 369.805 82.2118 369.325 81.8065 368.984C81.4225 368.621 80.9105 368.355 80.2705 368.184C79.6305 367.992 78.9158 367.832 78.1265 367.704C77.3372 367.576 76.5478 367.427 75.7585 367.256C74.9905 367.085 74.2865 366.84 73.6465 366.52C73.0065 366.179 72.4838 365.72 72.0785 365.144C71.6945 364.568 71.5025 363.8 71.5025 362.84C71.5025 361.923 71.7585 361.101 72.2705 360.376C72.7825 359.651 73.5292 359.085 74.5105 358.68C75.5132 358.253 76.7292 358.04 78.1585 358.04C79.2465 358.04 80.3345 358.189 81.4225 358.488C82.5105 358.765 83.4065 359.139 84.1105 359.608L83.1185 361.432C82.3718 360.92 81.5718 360.557 80.7185 360.344C79.8652 360.109 79.0118 359.992 78.1585 359.992C76.6438 359.992 75.5238 360.259 74.7985 360.792C74.0945 361.304 73.7425 361.965 73.7425 362.776C73.7425 363.416 73.9345 363.917 74.3185 364.28C74.7238 364.643 75.2465 364.931 75.8865 365.144C76.5478 365.336 77.2625 365.496 78.0305 365.624C78.8198 365.752 79.5985 365.912 80.3665 366.104C81.1558 366.275 81.8705 366.52 82.5105 366.84C83.1718 367.139 83.6945 367.576 84.0785 368.152C84.4838 368.707 84.6865 369.443 84.6865 370.36C84.6865 371.341 84.4092 372.195 83.8545 372.92C83.3212 373.624 82.5318 374.179 81.4865 374.584C80.4625 374.968 79.2145 375.16 77.7425 375.16ZM90.6475 370.648L90.7115 367.736L101.176 358.2H103.96L96.5675 365.272L95.2875 366.36L90.6475 370.648ZM88.8555 375V351.256H91.1275V375H88.8555ZM101.88 375L94.8715 366.264L96.3435 364.504L104.664 375H101.88ZM108.074 375V358.2H110.346V375H108.074ZM109.226 354.488C108.757 354.488 108.362 354.328 108.042 354.008C107.722 353.688 107.562 353.304 107.562 352.856C107.562 352.408 107.722 352.035 108.042 351.736C108.362 351.416 108.757 351.256 109.226 351.256C109.696 351.256 110.09 351.405 110.41 351.704C110.73 352.003 110.89 352.376 110.89 352.824C110.89 353.293 110.73 353.688 110.41 354.008C110.112 354.328 109.717 354.488 109.226 354.488ZM116.668 375V351.256H118.94V375H116.668ZM125.262 375V351.256H127.534V375H125.262ZM138.368 375.16C136.981 375.16 135.669 374.968 134.432 374.584C133.194 374.179 132.224 373.677 131.52 373.08L132.544 371.288C133.226 371.8 134.101 372.248 135.168 372.632C136.234 372.995 137.354 373.176 138.528 373.176C140.128 373.176 141.28 372.931 141.984 372.44C142.688 371.928 143.04 371.256 143.04 370.424C143.04 369.805 142.837 369.325 142.432 368.984C142.048 368.621 141.536 368.355 140.896 368.184C140.256 367.992 139.541 367.832 138.752 367.704C137.962 367.576 137.173 367.427 136.384 367.256C135.616 367.085 134.912 366.84 134.272 366.52C133.632 366.179 133.109 365.72 132.704 365.144C132.32 364.568 132.128 363.8 132.128 362.84C132.128 361.923 132.384 361.101 132.896 360.376C133.408 359.651 134.154 359.085 135.136 358.68C136.138 358.253 137.354 358.04 138.784 358.04C139.872 358.04 140.96 358.189 142.048 358.488C143.136 358.765 144.032 359.139 144.736 359.608L143.744 361.432C142.997 360.92 142.197 360.557 141.344 360.344C140.49 360.109 139.637 359.992 138.784 359.992C137.269 359.992 136.149 360.259 135.424 360.792C134.72 361.304 134.368 361.965 134.368 362.776C134.368 363.416 134.56 363.917 134.944 364.28C135.349 364.643 135.872 364.931 136.512 365.144C137.173 365.336 137.888 365.496 138.656 365.624C139.445 365.752 140.224 365.912 140.992 366.104C141.781 366.275 142.496 366.52 143.136 366.84C143.797 367.139 144.32 367.576 144.704 368.152C145.109 368.707 145.312 369.443 145.312 370.36C145.312 371.341 145.034 372.195 144.48 372.92C143.946 373.624 143.157 374.179 142.112 374.584C141.088 374.968 139.84 375.16 138.368 375.16ZM148.105 379.672L149.513 373.752L149.769 375.128C149.278 375.128 148.862 374.968 148.521 374.648C148.201 374.328 148.041 373.912 148.041 373.4C148.041 372.888 148.201 372.472 148.521 372.152C148.862 371.832 149.267 371.672 149.737 371.672C150.227 371.672 150.622 371.843 150.921 372.184C151.241 372.525 151.401 372.931 151.401 373.4C151.401 373.571 151.39 373.741 151.369 373.912C151.347 374.083 151.305 374.275 151.241 374.488C151.177 374.701 151.091 374.957 150.985 375.256L149.641 379.672H148.105ZM175.165 375V371.288L175.069 370.68V364.472C175.069 363.043 174.663 361.944 173.853 361.176C173.063 360.408 171.879 360.024 170.301 360.024C169.213 360.024 168.178 360.205 167.197 360.568C166.215 360.931 165.383 361.411 164.701 362.008L163.677 360.312C164.53 359.587 165.554 359.032 166.749 358.648C167.943 358.243 169.202 358.04 170.525 358.04C172.701 358.04 174.375 358.584 175.549 359.672C176.743 360.739 177.341 362.371 177.341 364.568V375H175.165ZM169.373 375.16C168.114 375.16 167.015 374.957 166.077 374.552C165.159 374.125 164.455 373.549 163.965 372.824C163.474 372.077 163.229 371.224 163.229 370.264C163.229 369.389 163.431 368.6 163.837 367.896C164.263 367.171 164.946 366.595 165.885 366.168C166.845 365.72 168.125 365.496 169.725 365.496H175.517V367.192H169.789C168.167 367.192 167.037 367.48 166.397 368.056C165.778 368.632 165.469 369.347 165.469 370.2C165.469 371.16 165.842 371.928 166.589 372.504C167.335 373.08 168.381 373.368 169.725 373.368C171.005 373.368 172.103 373.08 173.021 372.504C173.959 371.907 174.642 371.053 175.069 369.944L175.581 371.512C175.154 372.621 174.407 373.507 173.341 374.168C172.295 374.829 170.973 375.16 169.373 375.16ZM192.088 358.04C193.453 358.04 194.648 358.307 195.672 358.84C196.717 359.352 197.528 360.141 198.104 361.208C198.701 362.275 199 363.619 199 365.24V375H196.728V365.464C196.728 363.693 196.28 362.36 195.384 361.464C194.509 360.547 193.272 360.088 191.672 360.088C190.477 360.088 189.432 360.333 188.536 360.824C187.661 361.293 186.978 361.987 186.488 362.904C186.018 363.8 185.784 364.888 185.784 366.168V375H183.512V358.2H185.688V362.808L185.336 361.944C185.869 360.728 186.722 359.779 187.896 359.096C189.069 358.392 190.466 358.04 192.088 358.04ZM211.825 375.16C210.225 375.16 208.785 374.797 207.505 374.072C206.246 373.347 205.254 372.344 204.529 371.064C203.803 369.763 203.441 368.269 203.441 366.584C203.441 364.877 203.803 363.384 204.529 362.104C205.254 360.824 206.246 359.832 207.505 359.128C208.785 358.403 210.225 358.04 211.825 358.04C213.297 358.04 214.609 358.371 215.761 359.032C216.934 359.693 217.862 360.664 218.545 361.944C219.249 363.203 219.601 364.749 219.601 366.584C219.601 368.397 219.259 369.944 218.577 371.224C217.894 372.504 216.966 373.485 215.793 374.168C214.641 374.829 213.318 375.16 211.825 375.16ZM211.985 373.144C213.179 373.144 214.246 372.877 215.185 372.344C216.145 371.789 216.891 371.021 217.425 370.04C217.979 369.037 218.257 367.885 218.257 366.584C218.257 365.261 217.979 364.109 217.425 363.128C216.891 362.147 216.145 361.389 215.185 360.856C214.246 360.301 213.179 360.024 211.985 360.024C210.811 360.024 209.755 360.301 208.817 360.856C207.878 361.389 207.131 362.147 206.577 363.128C206.022 364.109 205.745 365.261 205.745 366.584C205.745 367.885 206.022 369.037 206.577 370.04C207.131 371.021 207.878 371.789 208.817 372.344C209.755 372.877 210.811 373.144 211.985 373.144ZM218.321 375V369.944L218.545 366.552L218.225 363.16V351.256H220.497V375H218.321ZM243.871 375.16C242.421 375.16 241.109 374.829 239.935 374.168C238.762 373.485 237.823 372.515 237.119 371.256C236.437 369.976 236.095 368.419 236.095 366.584C236.095 364.749 236.437 363.203 237.119 361.944C237.802 360.664 238.73 359.693 239.903 359.032C241.077 358.371 242.399 358.04 243.871 358.04C245.471 358.04 246.901 358.403 248.159 359.128C249.439 359.832 250.442 360.835 251.167 362.136C251.893 363.416 252.255 364.899 252.255 366.584C252.255 368.291 251.893 369.784 251.167 371.064C250.442 372.344 249.439 373.347 248.159 374.072C246.901 374.797 245.471 375.16 243.871 375.16ZM235.199 381.208V358.2H237.375V363.256L237.151 366.616L237.471 370.008V381.208H235.199ZM243.711 373.144C244.906 373.144 245.973 372.877 246.911 372.344C247.85 371.789 248.597 371.021 249.151 370.04C249.706 369.037 249.983 367.885 249.983 366.584C249.983 365.283 249.706 364.141 249.151 363.16C248.597 362.179 247.85 361.411 246.911 360.856C245.973 360.301 244.906 360.024 243.711 360.024C242.517 360.024 241.439 360.301 240.479 360.856C239.541 361.411 238.794 362.179 238.239 363.16C237.706 364.141 237.439 365.283 237.439 366.584C237.439 367.885 237.706 369.037 238.239 370.04C238.794 371.021 239.541 371.789 240.479 372.344C241.439 372.877 242.517 373.144 243.711 373.144ZM256.887 375V358.2H259.063V362.776L258.839 361.976C259.308 360.696 260.097 359.725 261.207 359.064C262.316 358.381 263.692 358.04 265.335 358.04V360.248C265.249 360.248 265.164 360.248 265.079 360.248C264.993 360.227 264.908 360.216 264.823 360.216C263.052 360.216 261.665 360.76 260.663 361.848C259.66 362.915 259.159 364.44 259.159 366.424V375H256.887ZM276.172 375.16C274.551 375.16 273.09 374.797 271.788 374.072C270.508 373.325 269.495 372.312 268.748 371.032C268.002 369.731 267.628 368.248 267.628 366.584C267.628 364.899 268.002 363.416 268.748 362.136C269.495 360.856 270.508 359.853 271.788 359.128C273.068 358.403 274.53 358.04 276.172 358.04C277.836 358.04 279.308 358.403 280.588 359.128C281.89 359.853 282.903 360.856 283.628 362.136C284.375 363.416 284.748 364.899 284.748 366.584C284.748 368.248 284.375 369.731 283.628 371.032C282.903 372.312 281.89 373.325 280.588 374.072C279.287 374.797 277.815 375.16 276.172 375.16ZM276.172 373.144C277.388 373.144 278.466 372.877 279.404 372.344C280.343 371.789 281.079 371.021 281.612 370.04C282.167 369.037 282.444 367.885 282.444 366.584C282.444 365.261 282.167 364.109 281.612 363.128C281.079 362.147 280.343 361.389 279.404 360.856C278.466 360.301 277.399 360.024 276.204 360.024C275.01 360.024 273.943 360.301 273.004 360.856C272.066 361.389 271.319 362.147 270.764 363.128C270.21 364.109 269.932 365.261 269.932 366.584C269.932 367.885 270.21 369.037 270.764 370.04C271.319 371.021 272.066 371.789 273.004 372.344C273.943 372.877 274.999 373.144 276.172 373.144ZM286.891 381.368C286.208 381.368 285.557 381.272 284.939 381.08C284.299 380.909 283.765 380.643 283.339 380.28L284.139 378.552C284.821 379.128 285.696 379.416 286.763 379.416C287.659 379.416 288.341 379.149 288.811 378.616C289.301 378.083 289.547 377.293 289.547 376.248V358.2H291.819V376.248C291.819 377.805 291.392 379.043 290.539 379.96C289.707 380.899 288.491 381.368 286.891 381.368ZM290.699 354.488C290.229 354.488 289.835 354.328 289.515 354.008C289.195 353.688 289.035 353.304 289.035 352.856C289.035 352.408 289.195 352.035 289.515 351.736C289.835 351.416 290.229 351.256 290.699 351.256C291.168 351.256 291.563 351.405 291.883 351.704C292.203 352.003 292.363 352.376 292.363 352.824C292.363 353.293 292.203 353.688 291.883 354.008C291.584 354.328 291.189 354.488 290.699 354.488ZM305.304 375.16C303.555 375.16 302.019 374.797 300.696 374.072C299.373 373.325 298.339 372.312 297.592 371.032C296.845 369.731 296.472 368.248 296.472 366.584C296.472 364.92 296.824 363.448 297.528 362.168C298.253 360.888 299.235 359.885 300.472 359.16C301.731 358.413 303.139 358.04 304.696 358.04C306.275 358.04 307.672 358.403 308.888 359.128C310.125 359.832 311.096 360.835 311.8 362.136C312.504 363.416 312.856 364.899 312.856 366.584C312.856 366.691 312.845 366.808 312.824 366.936C312.824 367.043 312.824 367.16 312.824 367.288H298.2V365.592H311.608L310.712 366.264C310.712 365.048 310.445 363.971 309.912 363.032C309.4 362.072 308.696 361.325 307.8 360.792C306.904 360.259 305.869 359.992 304.696 359.992C303.544 359.992 302.509 360.259 301.592 360.792C300.675 361.325 299.96 362.072 299.448 363.032C298.936 363.992 298.68 365.091 298.68 366.328V366.68C298.68 367.96 298.957 369.091 299.512 370.072C300.088 371.032 300.877 371.789 301.88 372.344C302.904 372.877 304.067 373.144 305.368 373.144C306.392 373.144 307.341 372.963 308.216 372.6C309.112 372.237 309.88 371.683 310.52 370.936L311.8 372.408C311.053 373.304 310.115 373.987 308.984 374.456C307.875 374.925 306.648 375.16 305.304 375.16ZM324.457 375.16C322.793 375.16 321.299 374.797 319.977 374.072C318.675 373.325 317.651 372.312 316.905 371.032C316.158 369.731 315.785 368.248 315.785 366.584C315.785 364.899 316.158 363.416 316.905 362.136C317.651 360.856 318.675 359.853 319.977 359.128C321.299 358.403 322.793 358.04 324.457 358.04C325.886 358.04 327.177 358.317 328.329 358.872C329.481 359.427 330.387 360.259 331.049 361.368L329.353 362.52C328.777 361.667 328.062 361.037 327.209 360.632C326.355 360.227 325.427 360.024 324.425 360.024C323.23 360.024 322.153 360.301 321.193 360.856C320.233 361.389 319.475 362.147 318.921 363.128C318.366 364.109 318.089 365.261 318.089 366.584C318.089 367.907 318.366 369.059 318.921 370.04C319.475 371.021 320.233 371.789 321.193 372.344C322.153 372.877 323.23 373.144 324.425 373.144C325.427 373.144 326.355 372.941 327.209 372.536C328.062 372.131 328.777 371.512 329.353 370.68L331.049 371.832C330.387 372.92 329.481 373.752 328.329 374.328C327.177 374.883 325.886 375.16 324.457 375.16ZM341.011 375.16C339.433 375.16 338.217 374.733 337.363 373.88C336.51 373.027 336.083 371.821 336.083 370.264V354.488H338.355V370.136C338.355 371.117 338.601 371.875 339.091 372.408C339.603 372.941 340.329 373.208 341.267 373.208C342.27 373.208 343.102 372.92 343.763 372.344L344.563 373.976C344.115 374.381 343.571 374.68 342.931 374.872C342.313 375.064 341.673 375.16 341.011 375.16ZM333.075 360.088V358.2H343.475V360.088H333.075ZM353.211 375.16C351.825 375.16 350.513 374.968 349.275 374.584C348.038 374.179 347.067 373.677 346.363 373.08L347.387 371.288C348.07 371.8 348.945 372.248 350.011 372.632C351.078 372.995 352.198 373.176 353.371 373.176C354.971 373.176 356.123 372.931 356.827 372.44C357.531 371.928 357.883 371.256 357.883 370.424C357.883 369.805 357.681 369.325 357.275 368.984C356.891 368.621 356.379 368.355 355.739 368.184C355.099 367.992 354.385 367.832 353.595 367.704C352.806 367.576 352.017 367.427 351.227 367.256C350.459 367.085 349.755 366.84 349.115 366.52C348.475 366.179 347.953 365.72 347.547 365.144C347.163 364.568 346.971 363.8 346.971 362.84C346.971 361.923 347.227 361.101 347.739 360.376C348.251 359.651 348.998 359.085 349.979 358.68C350.982 358.253 352.198 358.04 353.627 358.04C354.715 358.04 355.803 358.189 356.891 358.488C357.979 358.765 358.875 359.139 359.579 359.608L358.587 361.432C357.841 360.92 357.041 360.557 356.187 360.344C355.334 360.109 354.481 359.992 353.627 359.992C352.113 359.992 350.993 360.259 350.267 360.792C349.563 361.304 349.211 361.965 349.211 362.776C349.211 363.416 349.403 363.917 349.787 364.28C350.193 364.643 350.715 364.931 351.355 365.144C352.017 365.336 352.731 365.496 353.499 365.624C354.289 365.752 355.067 365.912 355.835 366.104C356.625 366.275 357.339 366.52 357.979 366.84C358.641 367.139 359.163 367.576 359.547 368.152C359.953 368.707 360.155 369.443 360.155 370.36C360.155 371.341 359.878 372.195 359.323 372.92C358.79 373.624 358.001 374.179 356.955 374.584C355.931 374.968 354.683 375.16 353.211 375.16ZM364.548 375.16C364.079 375.16 363.674 374.989 363.332 374.648C363.012 374.307 362.852 373.891 362.852 373.4C362.852 372.888 363.012 372.472 363.332 372.152C363.674 371.832 364.079 371.672 364.548 371.672C365.018 371.672 365.412 371.832 365.732 372.152C366.074 372.472 366.244 372.888 366.244 373.4C366.244 373.891 366.074 374.307 365.732 374.648C365.412 374.989 365.018 375.16 364.548 375.16Z" fill="white"/>
<path d="M244.792 402.292H195.208L199.583 451.875L220 457.708L240.417 451.875L244.792 402.292Z" fill="#0277BD"/>
<path d="M220 406.667V453.188L236.333 448.521L239.979 406.667H220Z" fill="#039BE5"/>
<path d="M233.271 413.958H220V419.792H227.146L226.708 425.625H220V431.458H226.417L225.979 438.021L220 440.063V446.188L231.521 442.396L232.542 425.625L233.271 413.958Z" fill="white"/>
<path d="M220 413.958V419.792H207.021L206.583 413.958H220ZM213.292 425.625L213.583 431.458H220V425.625H213.292ZM213.875 434.375H208.042L208.479 442.396L220 446.188V440.063L214.021 438.021L213.875 434.375Z" fill="#EEEEEE"/>
<path d="M38.8635 162.933V100.591H62.1973C67.4816 100.591 72.0237 101.452 75.8236 103.173C79.6235 104.836 82.5328 107.27 84.5515 110.476C86.6296 113.623 87.6687 117.453 87.6687 121.965C87.6687 126.359 86.6296 130.159 84.5515 133.365C82.5328 136.512 79.6235 138.946 75.8236 140.668C72.0237 142.39 67.4816 143.251 62.1973 143.251H42.515L45.454 140.134V162.933H38.8635ZM45.454 140.668L42.515 137.462H62.0192C68.2535 137.462 72.9737 136.126 76.1799 133.454C79.4454 130.723 81.0782 126.893 81.0782 121.965C81.0782 116.978 79.4454 113.118 76.1799 110.387C72.9737 107.656 68.2535 106.29 62.0192 106.29H42.515L45.454 103.173V140.668ZM119.381 163.378C114.869 163.378 110.802 162.369 107.18 160.35C103.617 158.272 100.797 155.452 98.7191 151.89C96.641 148.268 95.602 144.141 95.602 139.51C95.602 134.82 96.641 130.693 98.7191 127.131C100.797 123.568 103.617 120.778 107.18 118.759C110.742 116.74 114.809 115.731 119.381 115.731C124.012 115.731 128.109 116.74 131.672 118.759C135.293 120.778 138.114 123.568 140.132 127.131C142.21 130.693 143.249 134.82 143.249 139.51C143.249 144.141 142.21 148.268 140.132 151.89C138.114 155.452 135.293 158.272 131.672 160.35C128.05 162.369 123.953 163.378 119.381 163.378ZM119.381 157.768C122.765 157.768 125.764 157.025 128.376 155.541C130.989 153.997 133.037 151.86 134.521 149.129C136.065 146.338 136.837 143.132 136.837 139.51C136.837 135.829 136.065 132.623 134.521 129.892C133.037 127.16 130.989 125.053 128.376 123.568C125.764 122.025 122.795 121.253 119.47 121.253C116.145 121.253 113.177 122.025 110.564 123.568C107.952 125.053 105.874 127.16 104.33 129.892C102.786 132.623 102.014 135.829 102.014 139.51C102.014 143.132 102.786 146.338 104.33 149.129C105.874 151.86 107.952 153.997 110.564 155.541C113.177 157.025 116.116 157.768 119.381 157.768ZM156.159 162.933V116.176H162.215V128.912L161.592 126.685C162.898 123.123 165.095 120.421 168.182 118.581C171.27 116.681 175.099 115.731 179.671 115.731V121.876C179.433 121.876 179.196 121.876 178.959 121.876C178.721 121.817 178.484 121.787 178.246 121.787C173.318 121.787 169.459 123.301 166.668 126.329C163.878 129.298 162.482 133.543 162.482 139.065V162.933H156.159ZM207.994 163.378C203.6 163.378 200.216 162.191 197.841 159.816C195.466 157.441 194.278 154.086 194.278 149.752V105.845H200.602V149.396C200.602 152.127 201.284 154.235 202.65 155.719C204.075 157.203 206.094 157.946 208.706 157.946C211.497 157.946 213.812 157.144 215.653 155.541L217.879 160.083C216.633 161.211 215.118 162.042 213.337 162.577C211.615 163.111 209.834 163.378 207.994 163.378ZM185.907 121.431V116.176H214.851V121.431H185.907ZM230.459 162.933V110.298C230.459 106.142 231.676 102.787 234.111 100.234C236.545 97.6813 240.048 96.4048 244.62 96.4048C246.401 96.4048 248.123 96.6423 249.785 97.1173C251.448 97.5923 252.843 98.3344 253.971 99.3438L251.834 104.064C250.943 103.292 249.904 102.728 248.717 102.372C247.529 101.956 246.253 101.748 244.887 101.748C242.215 101.748 240.167 102.491 238.742 103.975C237.317 105.459 236.604 107.656 236.604 110.565V117.69L236.782 120.629V162.933H230.459ZM222.087 121.431V116.176H251.032V121.431H222.087ZM277.846 163.378C273.334 163.378 269.267 162.369 265.645 160.35C262.083 158.272 259.262 155.452 257.184 151.89C255.106 148.268 254.067 144.141 254.067 139.51C254.067 134.82 255.106 130.693 257.184 127.131C259.262 123.568 262.083 120.778 265.645 118.759C269.207 116.74 273.275 115.731 277.846 115.731C282.477 115.731 286.574 116.74 290.137 118.759C293.758 120.778 296.579 123.568 298.597 127.131C300.676 130.693 301.715 134.82 301.715 139.51C301.715 144.141 300.676 148.268 298.597 151.89C296.579 155.452 293.758 158.272 290.137 160.35C286.515 162.369 282.418 163.378 277.846 163.378ZM277.846 157.768C281.231 157.768 284.229 157.025 286.841 155.541C289.454 153.997 291.502 151.86 292.987 149.129C294.53 146.338 295.302 143.132 295.302 139.51C295.302 135.829 294.53 132.623 292.987 129.892C291.502 127.16 289.454 125.053 286.841 123.568C284.229 122.025 281.26 121.253 277.935 121.253C274.61 121.253 271.642 122.025 269.029 123.568C266.417 125.053 264.339 127.16 262.795 129.892C261.251 132.623 260.48 135.829 260.48 139.51C260.48 143.132 261.251 146.338 262.795 149.129C264.339 151.86 266.417 153.997 269.029 155.541C271.642 157.025 274.581 157.768 277.846 157.768ZM314.624 162.933V96.8501H320.947V162.933H314.624ZM338.542 162.933V116.176H344.865V162.933H338.542ZM341.748 105.845C340.442 105.845 339.343 105.4 338.453 104.509C337.562 103.619 337.117 102.55 337.117 101.303C337.117 100.056 337.562 99.0172 338.453 98.186C339.343 97.2954 340.442 96.8501 341.748 96.8501C343.054 96.8501 344.153 97.2657 345.043 98.0969C345.934 98.9282 346.379 99.9672 346.379 101.214C346.379 102.52 345.934 103.619 345.043 104.509C344.212 105.4 343.114 105.845 341.748 105.845ZM381.518 163.378C377.006 163.378 372.939 162.369 369.317 160.35C365.755 158.272 362.934 155.452 360.856 151.89C358.778 148.268 357.739 144.141 357.739 139.51C357.739 134.82 358.778 130.693 360.856 127.131C362.934 123.568 365.755 120.778 369.317 118.759C372.88 116.74 376.947 115.731 381.518 115.731C386.15 115.731 390.246 116.74 393.809 118.759C397.431 120.778 400.251 123.568 402.269 127.131C404.348 130.693 405.387 134.82 405.387 139.51C405.387 144.141 404.348 148.268 402.269 151.89C400.251 155.452 397.431 158.272 393.809 160.35C390.187 162.369 386.09 163.378 381.518 163.378ZM381.518 157.768C384.903 157.768 387.901 157.025 390.513 155.541C393.126 153.997 395.174 151.86 396.659 149.129C398.202 146.338 398.974 143.132 398.974 139.51C398.974 135.829 398.202 132.623 396.659 129.892C395.174 127.16 393.126 125.053 390.513 123.568C387.901 122.025 384.932 121.253 381.607 121.253C378.283 121.253 375.314 122.025 372.701 123.568C370.089 125.053 368.011 127.16 366.467 129.892C364.923 132.623 364.152 135.829 364.152 139.51C364.152 143.132 364.923 146.338 366.467 149.129C368.011 151.86 370.089 153.997 372.701 155.541C375.314 157.025 378.253 157.768 381.518 157.768Z" fill="#0255FF"/>
<path d="M61.3708 242.717L40.3525 180.375H47.1211L66.8035 239.066H63.4192L83.725 180.375H89.7811L109.82 239.066H106.614L126.474 180.375H132.797L111.779 242.717H104.832L85.6843 187.055H87.4655L68.2284 242.717H61.3708ZM159.84 243.163C154.971 243.163 150.696 242.153 147.015 240.135C143.334 238.057 140.454 235.236 138.376 231.674C136.298 228.052 135.259 223.926 135.259 219.294C135.259 214.663 136.239 210.567 138.198 207.004C140.217 203.442 142.948 200.651 146.392 198.632C149.895 196.554 153.813 195.515 158.148 195.515C162.541 195.515 166.43 196.525 169.815 198.543C173.258 200.503 175.96 203.293 177.919 206.915C179.878 210.477 180.858 214.604 180.858 219.294C180.858 219.591 180.828 219.918 180.769 220.274C180.769 220.571 180.769 220.898 180.769 221.254H140.068V216.534H177.385L174.891 218.404C174.891 215.02 174.149 212.021 172.664 209.409C171.239 206.737 169.28 204.659 166.786 203.174C164.293 201.69 161.413 200.948 158.148 200.948C154.941 200.948 152.062 201.69 149.509 203.174C146.956 204.659 144.967 206.737 143.542 209.409C142.117 212.081 141.404 215.138 141.404 218.582V219.562C141.404 223.124 142.176 226.271 143.72 229.002C145.323 231.674 147.52 233.782 150.31 235.325C153.16 236.81 156.396 237.552 160.018 237.552C162.868 237.552 165.51 237.047 167.944 236.038C170.438 235.028 172.575 233.485 174.357 231.407L177.919 235.503C175.841 237.997 173.229 239.897 170.082 241.203C166.994 242.51 163.58 243.163 159.84 243.163ZM217.864 243.163C213.767 243.163 210.086 242.242 206.821 240.402C203.555 238.502 200.972 235.771 199.072 232.208C197.172 228.646 196.222 224.341 196.222 219.294C196.222 214.188 197.172 209.884 199.072 206.381C201.032 202.818 203.644 200.117 206.91 198.276C210.175 196.436 213.827 195.515 217.864 195.515C222.317 195.515 226.295 196.525 229.798 198.543C233.361 200.503 236.151 203.264 238.17 206.826C240.189 210.388 241.198 214.545 241.198 219.294C241.198 223.985 240.189 228.141 238.17 231.763C236.151 235.325 233.361 238.116 229.798 240.135C226.295 242.153 222.317 243.163 217.864 243.163ZM193.729 242.717V176.634H200.052V209.765L199.161 219.205L199.785 228.646V242.717H193.729ZM217.419 237.552C220.744 237.552 223.712 236.81 226.325 235.325C228.937 233.782 231.015 231.644 232.559 228.913C234.103 226.122 234.875 222.916 234.875 219.294C234.875 215.613 234.103 212.407 232.559 209.676C231.015 206.945 228.937 204.837 226.325 203.353C223.712 201.809 220.744 201.037 217.419 201.037C214.094 201.037 211.095 201.809 208.424 203.353C205.811 204.837 203.733 206.945 202.189 209.676C200.705 212.407 199.963 215.613 199.963 219.294C199.963 222.916 200.705 226.122 202.189 228.913C203.733 231.644 205.811 233.782 208.424 235.325C211.095 236.81 214.094 237.552 217.419 237.552ZM266.646 243.163C262.786 243.163 259.135 242.628 255.691 241.56C252.247 240.431 249.546 239.036 247.587 237.374L250.437 232.386C252.337 233.811 254.771 235.058 257.74 236.127C260.708 237.136 263.825 237.641 267.091 237.641C271.544 237.641 274.75 236.958 276.709 235.593C278.669 234.168 279.648 232.297 279.648 229.982C279.648 228.26 279.084 226.924 277.956 225.974C276.888 224.965 275.463 224.222 273.681 223.747C271.9 223.213 269.911 222.768 267.714 222.412C265.518 222.055 263.321 221.64 261.124 221.165C258.986 220.69 257.027 220.007 255.246 219.116C253.465 218.166 252.01 216.89 250.882 215.287C249.813 213.684 249.279 211.546 249.279 208.874C249.279 206.321 249.991 204.035 251.416 202.017C252.841 199.998 254.919 198.425 257.65 197.296C260.441 196.109 263.825 195.515 267.803 195.515C270.831 195.515 273.86 195.931 276.888 196.762C279.916 197.534 282.409 198.573 284.369 199.879L281.608 204.956C279.53 203.531 277.303 202.521 274.928 201.928C272.553 201.275 270.178 200.948 267.803 200.948C263.588 200.948 260.471 201.69 258.452 203.174C256.493 204.599 255.513 206.44 255.513 208.696C255.513 210.477 256.047 211.873 257.116 212.882C258.244 213.891 259.699 214.693 261.48 215.287C263.321 215.821 265.31 216.266 267.447 216.623C269.644 216.979 271.811 217.424 273.949 217.959C276.145 218.434 278.134 219.116 279.916 220.007C281.756 220.838 283.211 222.055 284.28 223.658C285.408 225.202 285.972 227.251 285.972 229.804C285.972 232.535 285.2 234.91 283.656 236.928C282.172 238.888 279.975 240.431 277.066 241.56C274.216 242.628 270.742 243.163 266.646 243.163ZM297.575 242.717V195.961H303.898V242.717H297.575ZM300.781 185.63C299.475 185.63 298.376 185.184 297.486 184.294C296.595 183.403 296.15 182.334 296.15 181.087C296.15 179.841 296.595 178.802 297.486 177.97C298.376 177.08 299.475 176.634 300.781 176.634C302.087 176.634 303.185 177.05 304.076 177.881C304.967 178.713 305.412 179.752 305.412 180.998C305.412 182.305 304.967 183.403 304.076 184.294C303.245 185.184 302.146 185.63 300.781 185.63ZM336.276 243.163C331.883 243.163 328.498 241.975 326.123 239.6C323.749 237.225 322.561 233.871 322.561 229.536V185.63H328.884V229.18C328.884 231.911 329.567 234.019 330.933 235.503C332.358 236.988 334.376 237.73 336.989 237.73C339.779 237.73 342.095 236.928 343.936 235.325L346.162 239.867C344.915 240.996 343.401 241.827 341.62 242.361C339.898 242.895 338.117 243.163 336.276 243.163ZM314.189 201.215V195.961H343.134V201.215H314.189ZM375.881 243.163C371.013 243.163 366.738 242.153 363.056 240.135C359.375 238.057 356.496 235.236 354.418 231.674C352.339 228.052 351.3 223.926 351.3 219.294C351.3 214.663 352.28 210.567 354.239 207.004C356.258 203.442 358.989 200.651 362.433 198.632C365.936 196.554 369.855 195.515 374.189 195.515C378.583 195.515 382.472 196.525 385.856 198.543C389.3 200.503 392.001 203.293 393.96 206.915C395.92 210.477 396.899 214.604 396.899 219.294C396.899 219.591 396.87 219.918 396.81 220.274C396.81 220.571 396.81 220.898 396.81 221.254H356.11V216.534H393.426L390.932 218.404C390.932 215.02 390.19 212.021 388.706 209.409C387.281 206.737 385.322 204.659 382.828 203.174C380.334 201.69 377.455 200.948 374.189 200.948C370.983 200.948 368.103 201.69 365.55 203.174C362.997 204.659 361.008 206.737 359.583 209.409C358.158 212.081 357.446 215.138 357.446 218.582V219.562C357.446 223.124 358.217 226.271 359.761 229.002C361.364 231.674 363.561 233.782 366.352 235.325C369.202 236.81 372.437 237.552 376.059 237.552C378.909 237.552 381.551 237.047 383.986 236.038C386.479 235.028 388.617 233.485 390.398 231.407L393.96 235.503C391.882 237.997 389.27 239.897 386.123 241.203C383.036 242.51 379.622 243.163 375.881 243.163Z" fill="#0255FF"/>
<path d="M35.6157 81.2826V18.9402H58.9496C64.2338 18.9402 68.7759 19.8011 72.5758 21.5229C76.3758 23.1854 79.2851 25.6197 81.3038 28.8259C83.3819 31.9727 84.4209 35.8023 84.4209 40.3147C84.4209 44.7084 83.3819 48.5083 81.3038 51.7145C79.2851 54.8613 76.3758 57.2956 72.5758 59.0174C68.7759 60.7393 64.2338 61.6002 58.9496 61.6002H39.2672L42.2062 58.4831V81.2826H35.6157ZM42.2062 59.0174L39.2672 55.8112H58.7714C65.0057 55.8112 69.7259 54.4753 72.9321 51.8035C76.1976 49.0723 77.8304 45.2427 77.8304 40.3147C77.8304 35.3273 76.1976 31.468 72.9321 28.7368C69.7259 26.0056 65.0057 24.64 58.7714 24.64H39.2672L42.2062 21.5229V59.0174ZM116.935 81.7279C112.066 81.7279 107.791 80.7185 104.11 78.6998C100.429 76.6217 97.5494 73.8015 95.4714 70.2391C93.3933 66.6173 92.3542 62.4908 92.3542 57.8596C92.3542 53.2285 93.3339 49.1317 95.2932 45.5693C97.3119 42.0069 100.043 39.2163 103.487 37.1976C106.99 35.1195 110.909 34.0805 115.243 34.0805C119.636 34.0805 123.525 35.0898 126.91 37.1085C130.353 39.0679 133.055 41.8584 135.014 45.4802C136.974 49.0426 137.953 53.1691 137.953 57.8596C137.953 58.1565 137.924 58.4831 137.864 58.8393C137.864 59.1362 137.864 59.4627 137.864 59.819H97.1635V55.0988H134.48L131.986 56.969C131.986 53.5847 131.244 50.5864 129.76 47.9739C128.335 45.3021 126.375 43.224 123.882 41.7397C121.388 40.2553 118.508 39.5132 115.243 39.5132C112.037 39.5132 109.157 40.2553 106.604 41.7397C104.051 43.224 102.062 45.3021 100.637 47.9739C99.2119 50.6457 98.4994 53.7035 98.4994 57.1471V58.1268C98.4994 61.6892 99.2713 64.836 100.815 67.5672C102.418 70.2391 104.615 72.3468 107.405 73.8905C110.255 75.3749 113.491 76.117 117.113 76.117C119.963 76.117 122.605 75.6124 125.039 74.603C127.533 73.5937 129.671 72.05 131.452 69.9719L135.014 74.0687C132.936 76.5624 130.324 78.4623 127.177 79.7685C124.089 81.0748 120.675 81.7279 116.935 81.7279ZM150.824 81.2826V34.5258H156.88V47.2614L156.257 45.0349C157.563 41.4725 159.76 38.771 162.847 36.9304C165.934 35.0304 169.764 34.0805 174.336 34.0805V40.2256C174.098 40.2256 173.861 40.2256 173.623 40.2256C173.386 40.1663 173.148 40.1366 172.911 40.1366C167.983 40.1366 164.124 41.6506 161.333 44.6787C158.542 47.6474 157.147 51.8926 157.147 57.4143V81.2826H150.824ZM198.953 81.7279C195.094 81.7279 191.443 81.1935 187.999 80.1248C184.555 78.9967 181.854 77.6014 179.894 75.9389L182.744 70.9515C184.644 72.3765 187.079 73.6234 190.047 74.6921C193.016 75.7014 196.133 76.2061 199.399 76.2061C203.852 76.2061 207.058 75.5233 209.017 74.1577C210.977 72.7327 211.956 70.8625 211.956 68.5469C211.956 66.8251 211.392 65.4892 210.264 64.5392C209.195 63.5298 207.77 62.7877 205.989 62.3127C204.208 61.7783 202.219 61.333 200.022 60.9768C197.825 60.6205 195.629 60.2049 193.432 59.7299C191.294 59.2549 189.335 58.5721 187.554 57.6815C185.772 56.7315 184.318 55.455 183.19 53.8519C182.121 52.2488 181.587 50.1114 181.587 47.4395C181.587 44.8865 182.299 42.6006 183.724 40.5819C185.149 38.5632 187.227 36.9898 189.958 35.8617C192.749 34.6742 196.133 34.0805 200.111 34.0805C203.139 34.0805 206.167 34.4961 209.195 35.3273C212.223 36.0992 214.717 37.1382 216.677 38.4444L213.916 43.5209C211.838 42.0959 209.611 41.0866 207.236 40.4928C204.861 39.8397 202.486 39.5132 200.111 39.5132C195.896 39.5132 192.779 40.2553 190.76 41.7397C188.801 43.1646 187.821 45.0052 187.821 47.2614C187.821 49.0426 188.355 50.4379 189.424 51.4473C190.552 52.4566 192.007 53.2582 193.788 53.8519C195.629 54.3863 197.618 54.8316 199.755 55.1878C201.952 55.5441 204.119 55.9894 206.256 56.5237C208.453 56.9987 210.442 57.6815 212.223 58.5721C214.064 59.4034 215.519 60.6205 216.587 62.2236C217.716 63.7673 218.28 65.8157 218.28 68.3688C218.28 71.1 217.508 73.4749 215.964 75.4936C214.48 77.453 212.283 78.9967 209.374 80.1248C206.524 81.1935 203.05 81.7279 198.953 81.7279ZM248.941 81.7279C244.429 81.7279 240.362 80.7185 236.74 78.6998C233.178 76.6217 230.358 73.8015 228.279 70.2391C226.201 66.6173 225.162 62.4908 225.162 57.8596C225.162 53.1691 226.201 49.0426 228.279 45.4802C230.358 41.9178 233.178 39.1272 236.74 37.1085C240.303 35.0898 244.37 34.0805 248.941 34.0805C253.573 34.0805 257.669 35.0898 261.232 37.1085C264.854 39.1272 267.674 41.9178 269.693 45.4802C271.771 49.0426 272.81 53.1691 272.81 57.8596C272.81 62.4908 271.771 66.6173 269.693 70.2391C267.674 73.8015 264.854 76.6217 261.232 78.6998C257.61 80.7185 253.513 81.7279 248.941 81.7279ZM248.941 76.117C252.326 76.117 255.324 75.3749 257.937 73.8905C260.549 72.3468 262.597 70.2094 264.082 67.4782C265.625 64.6876 266.397 61.4814 266.397 57.8596C266.397 54.1785 265.625 50.9723 264.082 48.2411C262.597 45.5099 260.549 43.4021 257.937 41.9178C255.324 40.3741 252.355 39.6022 249.031 39.6022C245.706 39.6022 242.737 40.3741 240.124 41.9178C237.512 43.4021 235.434 45.5099 233.89 48.2411C232.347 50.9723 231.575 54.1785 231.575 57.8596C231.575 61.4814 232.347 64.6876 233.89 67.4782C235.434 70.2094 237.512 72.3468 240.124 73.8905C242.737 75.3749 245.676 76.117 248.941 76.117ZM309.588 34.0805C313.387 34.0805 316.712 34.8226 319.562 36.307C322.472 37.7319 324.728 39.9288 326.331 42.8975C327.993 45.8661 328.825 49.6067 328.825 54.1191V81.2826H322.501V54.7425C322.501 49.8145 321.254 46.1036 318.761 43.6099C316.326 41.0569 312.883 39.7803 308.43 39.7803C305.105 39.7803 302.196 40.4631 299.702 41.8287C297.267 43.135 295.368 45.0646 294.002 47.6177C292.696 50.1114 292.043 53.1394 292.043 56.7018V81.2826H285.719V34.5258H291.775V47.3505L290.796 44.9459C292.28 41.5616 294.655 38.9194 297.921 37.0195C301.186 35.0601 305.075 34.0805 309.588 34.0805ZM375.206 81.2826V70.9515L374.939 69.2594V51.9816C374.939 48.0036 373.81 44.9459 371.554 42.8084C369.357 40.6709 366.062 39.6022 361.668 39.6022C358.64 39.6022 355.761 40.1069 353.03 41.1162C350.298 42.1256 347.983 43.4615 346.083 45.124L343.233 40.4038C345.608 38.3851 348.458 36.8413 351.783 35.7726C355.108 34.6445 358.611 34.0805 362.292 34.0805C368.348 34.0805 373.009 35.5945 376.274 38.6226C379.599 41.5912 381.262 46.1333 381.262 52.2488V81.2826H375.206ZM359.086 81.7279C355.583 81.7279 352.525 81.1638 349.912 80.0357C347.359 78.8482 345.4 77.2452 344.034 75.2264C342.669 73.1484 341.986 70.7734 341.986 68.1016C341.986 65.6673 342.55 63.4705 343.678 61.5111C344.866 59.4924 346.766 57.8893 349.378 56.7018C352.05 55.455 355.612 54.8316 360.065 54.8316H376.185V59.5518H360.244C355.731 59.5518 352.584 60.3533 350.803 61.9564C349.081 63.5595 348.22 65.5485 348.22 67.9235C348.22 70.5953 349.259 72.7327 351.337 74.3358C353.416 75.9389 356.325 76.7405 360.065 76.7405C363.628 76.7405 366.686 75.9389 369.239 74.3358C371.851 72.6734 373.751 70.2984 374.939 67.211L376.363 71.575C375.176 74.6624 373.098 77.1264 370.129 78.967C367.22 80.8076 363.539 81.7279 359.086 81.7279ZM398.437 81.2826V15.1996H404.76V81.2826H398.437Z" fill="#0255FF"/>
<path d="M47.75 456.25V403.75H100.25V456.25H47.75Z" fill="#F7DF1E"/>
<path d="M82.0763 443.048C83.0854 444.687 84.1821 446.257 86.5052 446.257C88.4565 446.257 89.4802 445.288 89.4802 443.946C89.4802 442.34 88.4215 441.77 86.2748 440.835L85.0979 440.334C81.7015 438.893 79.4425 437.087 79.4425 433.274C79.4425 429.759 82.1331 427.085 86.3375 427.085C89.3315 427.085 91.4825 428.122 93.0342 430.837L89.3679 433.181C88.5615 431.74 87.6894 431.172 86.3375 431.172C84.9579 431.172 84.0844 432.043 84.0844 433.181C84.0844 434.586 84.9594 435.155 86.9792 436.026L88.156 436.527C92.1592 438.232 94.4167 439.974 94.4167 443.888C94.4167 448.105 91.0858 450.417 86.6146 450.417C82.241 450.417 79.7575 448.222 78.375 445.505L82.0763 443.048ZM65.18 443.167C65.9179 444.489 67.0394 445.505 68.6523 445.505C70.1952 445.505 71.0833 444.895 71.0833 442.526V427.083H75.944V443.272C75.944 448.182 73.0958 450.417 68.9367 450.417C65.1785 450.417 62.466 447.87 61.3606 445.505L65.18 443.167Z" fill="#000001"/>
<path d="M74.0102 551.236C73.1731 551.236 72.3433 551.017 71.6098 550.594L63.9681 546.069C62.8263 545.43 63.3833 545.204 63.7596 545.075C65.2821 544.542 65.5898 544.421 67.2144 543.498C67.385 543.4 67.6081 543.435 67.7831 543.539L73.6544 547.023C73.8658 547.138 74.1677 547.138 74.3631 547.023L97.2546 533.809C97.466 533.688 97.6046 533.443 97.6046 533.191V506.776C97.6046 506.512 97.4675 506.277 97.2502 506.146L74.369 492.942C74.1575 492.817 73.876 492.817 73.6646 492.942L50.7863 506.144C50.5646 506.27 50.4231 506.516 50.4231 506.769V533.185C50.4231 533.437 50.5602 533.678 50.779 533.797L57.0483 537.418C60.4521 539.12 62.5317 537.115 62.5317 535.098V509.027C62.5317 508.656 62.8233 508.368 63.1967 508.368H66.0958C66.4575 508.368 66.755 508.654 66.755 509.027V535.111C66.755 539.65 64.2802 542.257 59.9767 542.257C58.6525 542.257 57.6098 542.257 54.699 540.825L48.6935 537.364C47.209 536.504 46.2917 534.898 46.2917 533.186V506.77C46.2917 505.051 47.209 503.446 48.6921 502.598L71.6083 489.378C73.0579 488.558 74.9829 488.558 76.4223 489.378L99.3094 502.604C100.785 503.457 101.708 505.056 101.708 506.776V533.192C101.708 534.906 100.785 536.504 99.3079 537.364L76.4208 550.583C75.6873 551.007 74.856 551.224 74.0088 551.224" fill="#21A366"/>
<path d="M81.0817 533.033C71.0658 533.033 68.9658 528.435 68.9658 524.579C68.9658 524.213 69.2619 523.92 69.6294 523.92H72.5869C72.9135 523.92 73.1892 524.158 73.2402 524.48C73.6865 527.493 75.0165 529.012 81.0729 529.012C85.8971 529.012 87.949 527.923 87.949 525.364C87.949 523.891 87.3642 522.797 79.8698 522.064C73.6004 521.445 69.7271 520.064 69.7271 515.05C69.7271 510.432 73.6238 507.681 80.1498 507.681C87.4794 507.681 91.1121 510.226 91.57 515.692C91.5875 515.882 91.519 516.064 91.3921 516.202C91.2667 516.334 91.0887 516.414 90.905 516.414H87.9315C87.6223 516.414 87.3525 516.197 87.2898 515.898C86.5737 512.729 84.8427 511.715 80.1381 511.715C74.8721 511.715 74.2596 513.548 74.2596 514.924C74.2596 516.59 74.9815 517.077 82.0865 518.018C89.1229 518.951 92.464 520.27 92.464 525.215C92.464 530.2 88.3033 533.059 81.0496 533.059" fill="#21A366"/>
<path d="M194.649 515.82C192.657 516.757 187.383 520.977 186.367 522.227C185.312 523.477 185 521.524 186.094 518.281C186.953 515.664 189.141 512.109 192.813 509.062C194.962 507.304 199.689 504.764 202.58 503.28C203.166 502.967 210.744 499.764 217.503 498.162C218.089 498.006 216.8 499.139 216.604 499.764C215.589 502.733 195.313 515.468 195.313 515.468L194.649 515.82ZM223.206 551.643C223.558 553.753 223.246 553.909 221.058 554.183C218.87 554.456 217.268 553.636 216.683 553.089C216.096 552.542 215.979 551.331 216.565 550.237C216.917 549.534 217.269 549.299 217.464 548.44C217.659 547.62 217.816 547.424 217.972 547.112C218.128 546.838 218.167 546.565 218.206 544.651C218.245 542.736 218.206 539.142 218.402 537.619C218.597 536.056 225.355 538.322 225.355 538.322C225.355 538.322 223.754 542.307 223.324 543.283C222.894 544.26 222.933 546.135 222.933 546.526C222.933 546.916 222.777 547.698 222.66 547.737C222.543 547.776 223.05 548.791 222.816 549.377C222.66 549.924 223.167 551.331 223.206 551.643ZM225.785 491.912C225.55 490.427 225.785 487.497 226.097 487.028C227.074 485.7 232.231 485.544 233.325 487.106C233.793 487.809 233.754 489.45 233.676 490.505C233.598 491.56 233.325 493.826 233.286 494.568C233.247 495.115 227.582 495.974 226.332 494.49C225.98 494.099 225.785 491.912 225.785 491.912ZM237.27 547.854C239.653 549.573 241.489 549.885 242.7 550.51C243.911 551.136 243.599 552.347 241.567 552.698C239.927 553.011 237.348 552.386 235.629 552.386C233.911 552.386 230.082 552.581 229.066 551.878C227.894 551.058 228.402 549.534 228.402 549.534C228.715 548.675 229.496 546.76 229.262 545.198C229.027 543.635 228.715 542.776 228.129 541.33C227.543 539.885 227.113 536.33 227.66 536.134C228.207 535.939 228.051 536.134 228.754 536.29C229.457 536.447 230.238 536.681 231.762 536.681C233.286 536.681 234.965 536.447 235.551 536.33C236.137 536.212 236.606 536.095 236.411 537.306C236.215 538.517 235.629 540.783 235.59 542.541C235.551 544.299 235.551 546.33 235.669 546.682C235.786 547.034 236.645 547.424 237.27 547.854Z" fill="#010101"/>
<path d="M228.91 495.818C224.613 499.53 216.292 500.545 203.947 505.311C200.783 506.522 192.345 510.155 190.313 513.945C197.15 509.999 199.689 515.429 200.236 521.016C200.743 526.251 203.361 528.985 210.08 528.829C216.995 528.673 219.105 532.696 221.019 537.424C224.73 519.336 230.668 515.82 234.496 512.734C242.622 506.132 232.621 494.49 228.91 495.818Z" fill="#8AC640"/>
<path d="M228.91 495.818C218.597 499.412 208.4 500.311 196.407 507.694C193.556 509.452 187.539 513.437 186.367 521.055C190.743 516.211 200.861 510.116 213.245 506.249C219.495 504.296 224.066 503.006 229.613 500.858C229.223 498.357 229.223 497.381 228.91 495.818Z" fill="#8AC640"/>
<path d="M242.075 517.226C242.075 517.226 241.333 519.766 239.849 520.586C239.849 520.586 238.755 520.977 236.567 519.766C235.942 519.414 235.473 518.203 235.512 517.812C235.551 516.875 236.137 516.445 236.137 516.445C236.137 516.445 236.763 515.39 237.505 515.429C238.247 515.468 239.497 515.585 239.888 515.234C240.239 514.843 242.154 515.937 242.075 517.226ZM226.136 492.654C226.136 492.654 225.98 494.646 225.707 495.896C225.668 496.131 224.496 496.248 223.636 496.6C225.277 501.287 235.161 501.248 236.45 498.943C235.825 498.514 234.575 497.85 233.989 497.615C233.403 497.381 233.442 497.42 233.403 496.326C233.364 495.232 233.286 493.201 233.207 492.654C233.129 492.107 227.074 492.107 226.136 492.654Z" fill="#010101"/>
<path d="M226.527 492.654C226.527 492.654 226.527 493.787 226.41 494.881C226.371 495.388 226.332 495.701 226.254 496.092C226.215 496.326 227.582 497.263 227.973 499.334C229.848 503.514 234.184 501.444 235.981 499.451C235.356 499.021 234.34 498.435 233.169 497.967C232.582 497.732 232.856 497.224 232.817 496.131C232.778 495.037 232.622 493.435 232.543 492.849C232.465 492.263 227.465 492.107 226.527 492.654Z" fill="#F0EFEF"/>
<path d="M226.136 492.654C226.136 492.654 226.097 493.357 225.98 494.177C226.488 494.685 227.152 495.388 227.66 495.818C228.012 496.131 228.871 496.092 229.653 496.092C230.356 496.092 230.981 496.17 231.254 496.014C231.879 495.701 232.778 494.92 233.286 494.334C233.247 493.631 233.208 492.966 233.169 492.654C233.129 492.107 227.074 492.107 226.136 492.654Z" fill="#010101"/>
<path d="M229.692 495.623C229.223 495.623 228.676 495.584 228.246 495.506C228.051 495.467 227.855 495.349 227.699 495.271C227.425 495.076 227.152 494.842 226.84 494.607C226.214 494.138 226.176 493.865 226.176 493.748C226.449 491.286 226.097 489.216 226.097 489.216C226.097 489.216 225.824 488.161 227.308 487.888C228.793 487.614 229.691 487.575 229.691 487.575C229.691 487.575 230.629 487.575 232.074 487.888C233.559 488.161 233.285 489.216 233.285 489.216C233.285 489.216 232.934 491.286 233.207 493.748C233.207 493.865 233.168 494.138 232.543 494.607C231.996 494.998 231.566 495.427 231.137 495.506C230.707 495.584 230.16 495.623 229.692 495.623Z" fill="#010101"/>
<path d="M229.692 486.56C227.113 486.56 226.605 487.263 225.863 488.044C225.707 488.239 225.824 489.411 226.097 491.912H226.449C226.449 491.912 226.214 491.208 226.254 490.388C226.293 489.568 226.449 489.607 226.332 489.411C226.176 489.177 225.863 488.786 226.566 488.396C227.269 488.005 228.363 488.708 229.692 488.747C231.02 488.708 232.153 488.005 232.856 488.396C233.559 488.786 233.246 489.177 233.09 489.411C232.934 489.646 233.129 489.567 233.168 490.388C233.207 491.208 232.973 491.912 232.973 491.912H233.324C233.559 489.411 233.715 488.318 233.598 488.122C232.934 487.263 232.27 486.598 229.692 486.56ZM242.075 517.343C242.075 517.343 241.333 519.726 239.888 520.547C239.575 520.391 239.614 520.156 239.341 519.805C239.262 519.688 238.989 519.609 238.872 519.492C238.755 519.375 238.794 519.18 238.598 519.023C238.442 518.867 238.325 518.984 238.169 518.867C238.012 518.711 237.973 518.516 237.856 518.399C237.778 518.32 237.465 518.281 237.387 518.203C237.192 518.008 235.473 517.656 235.551 517.265C235.708 516.679 236.02 516.25 236.02 516.25C236.02 516.25 236.762 515.156 237.504 515.195C238.247 515.234 238.95 515.39 239.341 515.039C239.77 514.648 242.193 516.093 242.075 517.343Z" fill="#010101"/>
<path d="M236.997 500.076C236.997 500.076 239.458 499.49 241.138 501.092C242.818 502.733 242.7 504.764 242.193 506.014C242.622 506.522 243.404 507.928 242.818 509.608C245.396 511.796 244.263 515.156 241.958 517.383C241.958 517.383 241.411 515.351 239.224 515.234C239.302 514.453 237.192 513.827 238.169 511.796C236.684 511.444 236.723 510.429 236.489 509.179C236.294 507.928 236.997 500.076 236.997 500.076Z" fill="#010101"/>
<path d="M236.098 501.17C236.098 501.17 238.95 499.725 240.63 501.366C242.31 503.006 241.841 504.803 241.333 506.053C241.763 506.561 242.778 508.007 242.153 509.726C242.036 510.116 241.177 510.116 240.551 511.132C242.114 510.233 243.091 510.468 243.442 511.601C243.989 513.359 242.778 515.468 241.724 516.64C241.724 516.601 241.684 516.562 241.684 516.523C241.528 517.109 241.333 518.242 240.161 519.492C239.575 520.117 239.106 520.039 238.442 519.883C237.661 519.687 237.387 519.335 236.293 518.75C235.668 518.398 236.02 517.968 236.02 517.617C236.02 517.539 236.098 517.421 236.215 517.265C236.293 517.07 236.528 516.758 236.879 516.406C236.879 516.406 237.387 515.703 238.13 515.742C238.872 515.781 239.653 515.625 239.849 515.429C239.849 514.062 238.286 514.023 238.833 511.679C238.872 511.562 239.067 511.366 239.692 511.288C238.755 511.093 238.325 511.054 237.661 510.429C237.192 509.999 236.84 509.452 236.723 508.749C236.489 507.538 236.098 501.17 236.098 501.17Z" fill="#F0EFEF"/>
<path d="M227.855 498.709C227.621 498.396 226.41 496.834 224.105 496.209C223.441 496.013 223.011 496.56 222.347 496.951C222.152 496.834 221.292 496.443 220.824 496.717C220.355 496.99 220.042 497.264 219.573 497.459C219.339 497.342 218.714 497.342 218.206 497.537C217.698 497.693 216.917 498.045 216.175 499.06C215.706 500.74 224.456 499.49 224.456 499.49L227.855 498.709Z" fill="#010101"/>
<path d="M227.934 498.709C226.683 498.279 226.879 496.834 224.105 496.6C223.558 496.56 223.206 496.99 222.816 497.264C223.011 497.459 223.206 497.771 223.324 498.084C222.972 497.693 222.347 497.185 221.722 497.068C221.136 496.951 220.745 497.381 220.12 497.693C220.237 497.81 220.354 498.006 220.511 498.24C219.964 497.889 219.573 497.772 218.831 498.045C218.323 498.201 217.346 498.631 216.604 499.686C216.135 501.366 224.495 499.49 224.495 499.49L227.934 498.709Z" fill="#8AC640"/>
<path d="M235.278 499.334C235.278 499.334 235.278 498.904 235.239 498.514C235.239 498.436 234.926 498.24 234.926 498.162L234.848 498.084C234.848 498.084 235.473 497.733 235.942 497.928C236.45 498.084 236.723 498.748 236.723 498.748C237.622 498.436 237.7 498.787 238.13 499.256C239.067 499.061 239.184 499.412 239.77 500.272C239.77 500.272 239.067 500.155 237.7 500.389C236.372 500.584 235.278 499.295 235.278 499.334Z" fill="#010101"/>
<path d="M235.122 499.139C235.122 499.139 235.356 498.943 235.278 498.904C235.707 498.67 236.293 498.396 236.567 499.139C237.465 498.826 237.583 499.256 238.012 499.725C239.106 499.217 239.184 499.842 239.262 500.115C238.911 500.115 238.403 500.154 237.7 500.233C236.372 500.428 235.082 499.1 235.122 499.139Z" fill="#8AC640"/>
<path d="M221.839 498.162C221.839 498.162 224.066 498.943 225.941 498.826C227.816 498.67 231.02 498.514 232.739 499.529C232.739 499.529 234.497 498.904 236.137 499.334C237.778 499.764 240.786 502.576 239.888 505.545C239.81 505.741 239.302 506.053 238.716 506.249C238.716 506.249 239.028 507.577 238.481 508.671C237.934 509.726 236.723 511.757 236.684 514.57C236.645 515.038 236.567 516.015 236.489 516.484C233.442 516.367 228.754 515.234 224.144 515.312C224.183 514.804 224.222 514.492 224.261 513.984H224.378C224.144 512.695 224.066 512.03 223.831 511.054C222.347 510.116 220.784 509.022 219.456 506.952C218.167 504.881 221.839 498.162 221.839 498.162ZM236.919 519.258C236.919 519.258 239.341 527.931 236.489 531.564C236.489 531.564 236.919 533.243 235.942 535.041C235.786 535.822 235.59 536.525 235.473 537.306C234.965 540.549 234.106 541.916 233.871 547.112L231.527 547.073C231.527 547.073 231.254 543.322 230.434 541.33C229.965 540.197 228.129 538.673 228.207 537.15C228.285 535.978 228.519 535.001 230.512 533.439C230.668 531.173 228.402 529.024 228.754 520.586L236.919 519.258Z" fill="#010101"/>
<path d="M236.216 518.906C236.841 522.891 238.286 528.79 235.669 531.68C235.823 532.413 235.836 533.169 235.708 533.907C235.629 534.376 235.473 534.884 235.278 535.431C234.887 536.368 234.731 537.736 234.614 538.556C234.106 541.798 234.106 541.955 233.871 547.151L231.527 547.111C231.527 547.111 231.254 543.361 230.434 541.369C229.965 540.236 228.988 539.259 228.91 537.736C228.832 536.564 229.652 534.22 231.606 534.298C231.489 529.571 229.301 530.509 228.715 520.664L236.216 518.906ZM221.839 498.162C221.839 498.162 222.699 498.436 223.636 498.514C224.574 498.592 225.59 498.514 226.488 498.475C228.363 498.318 231.02 498.123 232.778 499.139C232.778 499.139 233.754 498.826 234.809 498.904C235.278 498.943 235.747 499.334 236.294 499.49C238.012 499.92 239.653 502.772 238.911 505.35C238.833 505.546 238.286 505.35 237.661 505.546C237.778 506.093 237.856 507.343 237.231 508.671C236.567 509.999 235.708 511.718 235.864 515C231.762 514.804 229.926 514.531 225.863 514.336C225.511 512.89 225.277 511.445 225.238 510.702C225.785 510.429 226.097 510.195 226.527 509.726C225.355 509.921 224.886 509.843 224.183 509.452C223.48 509.062 222.23 507.811 221.604 506.991C221.526 506.913 221.097 508.202 220.12 508.241C219.768 507.733 221.253 506.288 220.979 505.741C220.003 503.749 221.839 498.162 221.839 498.162Z" fill="#F0EFEF"/>
<path d="M236.528 515.664C236.528 515.664 236.606 517.07 236.606 517.422C236.606 517.812 236.918 518.984 236.957 519.531C236.528 520.273 234.653 521.953 231.254 522.578C227.894 523.281 223.441 518.008 223.441 518.008C223.558 517.5 223.949 516.015 224.222 515.234C224.261 515.156 224.339 514.96 224.339 514.882C224.691 514.374 236.528 515.664 236.528 515.664Z" fill="#010101"/>
<path d="M235.669 515.781C235.669 516.758 235.825 517.461 235.942 518.086C236.137 519.219 236.45 519.961 236.45 520.703C236.45 522.969 233.481 522.578 230.98 522.657C227.621 523.36 224.769 518.086 224.769 518.086C225.003 517.187 225.16 516.172 225.511 515.312C225.55 514.843 225.628 514.257 225.667 513.984C230.433 513.984 233.793 514.257 235.746 514.453C235.825 514.882 235.747 515.625 235.669 515.781Z" fill="#F0EFEF"/>
<path d="M231.918 520.82C231.918 520.82 229.848 516.211 223.636 517.578C222.152 521.758 220.159 526.563 221.448 531.759C220.159 533.517 218.675 534.494 218.675 537.736C218.675 540.978 218.831 541.525 218.831 541.525L223.402 541.76C223.402 541.76 224.886 539.846 225.472 537.775C225.628 537.189 225.785 536.134 225.667 534.924C225.824 534.689 226.488 534.142 226.566 533.087C226.566 533.087 228.793 531.916 230.082 529.064C231.293 526.485 230.981 524.258 231.918 520.82Z" fill="#010101"/>
<path d="M231.918 520.82C231.801 520.391 230.238 516.172 224.456 517.422C221.058 526.485 222.308 530.235 222.816 531.876C220.511 534.806 219.456 535.431 219.925 541.369H222.972C224.378 539.142 224.691 538.322 224.769 535.392C224.769 535.275 224.339 535.626 224.027 536.017C224.261 534.806 224.925 534.572 225.433 533.829C225.668 533.517 225.863 533.048 225.863 532.423C228.598 530.587 229.613 528.282 230.199 525.899C230.668 524.258 231.215 521.563 231.918 520.82Z" fill="#F0EFEF"/>
<path d="M222.269 514.531C222.269 514.531 223.324 514.57 224.261 514.882C225.16 515.195 225.16 515.39 225.512 515.781C225.863 516.172 226.723 516.758 226.566 517.343C226.488 517.656 226.293 517.734 226.019 518.008C225.902 518.125 225.043 519.062 224.847 519.18C224.73 519.258 224.574 519.375 224.457 519.453L223.871 519.844C223.48 520.039 223.207 520.156 222.777 520.117C222.777 520.117 221.8 520.078 221.175 519.414C221.175 519.414 221.097 519.101 221.253 518.945C221.253 518.945 220.433 518.242 220.198 517.773C219.964 517.305 219.964 516.641 220.12 516.289C220.198 515.937 221.722 514.96 222.269 514.531ZM223.246 552.542L223.128 553.519C223.128 553.519 222.777 553.948 220.16 553.909C217.503 553.87 216.8 553.05 216.565 552.62L216.409 551.604C216.409 551.604 216.917 550.862 217.034 550.862C217.894 550.94 220.824 552.112 222.855 552.425C223.05 552.425 223.089 552.503 223.246 552.542ZM228.91 550.55C228.91 550.979 228.871 550.979 228.871 551.409C229.34 551.761 230.512 551.956 232.739 551.917C235.981 551.839 238.989 552.893 242.661 552.268L242.7 551.565L242.349 551.526L229.34 550.471L228.91 550.55Z" fill="#010101"/>
<path d="M231.762 551.917H232.739C234.848 551.839 236.841 552.308 238.989 552.425C240.122 552.386 241.528 552.112 241.411 551.292L230.317 550.354C229.652 551.096 230.16 551.721 231.762 551.917ZM219.026 535.47C219.378 535.705 221.761 537.111 225.629 536.915C225.55 537.658 225.589 539.103 223.871 541.642C223.011 542.893 222.269 545.08 222.113 547.854C222.152 548.479 222.503 549.026 222.035 549.846C222.191 550.354 222.816 551.37 223.128 551.995C223.441 552.62 223.597 553.323 221.526 553.362C219.417 553.401 216.018 553.167 216.487 551.526C216.722 550.667 217.386 549.768 217.464 549.417C217.542 549.065 217.542 548.01 218.206 547.307C218.792 545.354 218.597 543.479 218.48 541.721C218.284 539.884 218.245 536.955 219.026 535.47ZM222.66 503.631C225.433 499.92 223.089 496.951 218.636 497.849C216.839 498.201 215.042 499.451 214.925 501.717C214.339 501.795 213.01 501.873 212.346 504.295C211.839 506.17 211.565 506.522 210.666 507.46C210.08 508.124 210.705 509.491 211.135 510.468C212.581 513.827 217.034 514.14 220.042 516.679C221.058 516.406 222.113 515.273 222.425 514.531C219.886 511.523 220.433 510.351 219.417 508.788C220.511 508.397 223.011 506.874 222.66 503.631Z" fill="#010101"/>
<path d="M222.113 503.397C222.269 503.162 222.542 502.655 222.66 502.459C222.699 502.42 223.128 503.162 223.167 503.123C224.222 501.404 224.496 498.904 223.284 498.67C223.011 498.631 222.503 498.514 222.073 498.357C221.292 498.084 220.589 498.084 219.339 498.318C217.62 498.631 215.901 499.881 215.901 501.678C215.901 501.795 217.112 502.147 217.464 503.592C216.878 502.772 215.862 501.873 214.651 502.655C213.362 503.475 214.026 505.35 212.307 507.303C211.721 507.967 211.799 508.749 212.424 510.311C213.44 512.773 218.245 514.101 220.862 516.445C221.487 516.171 221.917 515.546 222.23 515.077C220.472 513.241 219.768 511.522 219.261 510.272C218.636 508.827 217.932 508.007 216.565 506.912C217.268 507.186 217.815 507.459 218.127 507.694C218.479 507.928 218.987 507.967 219.456 507.811C221.136 507.225 222.035 504.881 222.113 503.397Z" fill="#F0EFEF"/>
<path d="M239.106 504.022C238.989 505.506 237.895 504.764 237.309 504.491C236.137 503.983 234.965 503.631 233.598 503.631C232.231 503.631 230.473 503.749 228.949 504.139C226.84 504.725 226.214 504.686 225.277 504.217C224.339 503.709 222.699 502.459 222.699 502.459C222.699 502.459 222.66 502.85 223.05 503.358C223.558 503.983 224.691 504.764 226.215 505.272C226.957 505.506 227.543 505.35 228.207 505.194C231.684 504.334 235.356 504.178 238.442 506.053C238.599 506.131 239.146 505.897 239.38 505.545C239.692 505.038 239.106 504.022 239.106 504.022Z" fill="#010101"/>
<path d="M221.331 518.906C221.644 519.101 222.035 519.219 222.464 519.57C222.464 519.57 222.113 519.57 221.956 519.414C221.761 519.297 221.37 518.945 221.331 518.906Z" fill="#0A1825"/>
<path d="M232.621 487.927C232.504 487.575 231.645 486.95 229.652 486.95C227.504 486.95 226.879 487.614 226.84 487.966C226.84 488.083 226.683 489.333 226.644 489.841C226.644 489.841 226.644 490.466 226.683 491.403C226.722 492.029 226.879 492.38 226.957 493.201C227.035 494.06 227.269 494.607 227.699 495.31C227.894 495.427 228.051 495.545 228.246 495.584C229.027 495.74 230.395 495.779 231.137 495.584C231.566 495.466 232.113 494.724 232.231 494.06C232.387 493.24 232.543 492.654 232.582 492.146C232.66 491.638 232.699 490.505 232.738 490.193C232.856 489.333 232.66 488.005 232.621 487.927Z" fill="#F0EFEF"/>
<path d="M228.519 536.212C228.519 536.212 230.59 537.111 235.708 536.33C235.708 536.33 234.262 543.596 234.927 547.229C234.927 547.229 235.591 548.167 240.513 549.963C240.513 549.963 242.701 550.51 242.622 551.604C242.622 551.604 242.701 551.839 240.044 551.761C237.388 551.682 234.887 551.214 233.129 551.214C231.371 551.214 229.496 551.292 229.184 550.784C228.832 550.315 229.262 549.104 229.77 548.401C230.317 547.659 230.16 547.111 230.122 545.783C230.004 542.307 227.347 538.713 228.519 536.212Z" fill="#010101"/>
<path d="M228.09 536.877C227.816 537.267 228.129 538.752 228.519 540.197C228.91 541.642 229.77 542.502 229.965 544.885C230.16 547.229 230.199 547.541 229.535 548.909C228.871 550.276 228.676 551.526 230.98 551.565C233.285 551.604 234.535 551.526 236.879 551.878C239.223 552.229 240.044 552.346 241.333 552.151C242.622 551.956 242.896 551.526 242.349 551.135C241.802 550.745 239.536 550.315 238.559 549.534C237.622 548.831 234.965 547.658 234.926 547.346C234.809 546.291 234.77 542.463 234.965 541.213C235.161 539.962 235.434 538.165 235.512 537.697C235.591 537.228 235.981 536.759 235.317 536.915C234.653 537.071 232.153 537.423 230.277 537.306C228.402 537.189 228.207 536.759 228.09 536.877Z" fill="#8AC640"/>
<path opacity="0.3" d="M229.418 548.948C230.082 549.26 231.059 549.495 231.801 549.495C231.801 549.495 231.527 550.784 231.957 551.565C232.387 552.347 228.832 551.878 228.832 551.878L228.676 549.104L229.418 548.948ZM239.77 552.308C240.396 552.112 240.825 551.409 240.317 550.745C239.77 550.081 239.302 549.964 240.005 549.925C240.708 549.886 243.286 551.448 243.286 551.448L241.958 552.659L239.77 552.308ZM227.972 538.4C228.871 538.713 230.238 538.791 231.41 538.752C232.582 538.713 234.34 538.556 235.473 538.166C236.606 537.775 236.137 538.595 236.137 538.595L235.512 539.181C235.512 539.181 234.028 539.767 231.606 539.728C228.754 539.689 227.894 539.377 227.894 539.377L227.972 538.4ZM228.051 540.353C228.949 540.666 230.316 540.744 231.488 540.705C232.66 540.666 234.223 540.666 235.356 540.236C235.825 540.08 235.551 540.744 235.551 540.744L235.356 541.096C235.356 541.096 233.832 541.643 231.449 541.603C228.598 541.564 228.09 541.33 228.09 541.33L228.051 540.353Z" fill="#010101"/>
<path d="M225.472 512.968C225.472 513.242 228.519 514.765 230.199 515.078C231.879 515.39 235.395 515.078 235.942 514.961L235.864 515.508C235.864 515.508 231.684 516.133 228.48 515.273C225.277 514.414 225.629 514.218 225.629 514.218L225.472 512.968Z" fill="#010101"/>
<path d="M218.948 546.291C219.417 546.526 221.097 546.956 222.191 546.721C222.347 546.682 222.191 544.025 222.62 542.815C223.245 541.135 224.261 539.767 224.73 536.798C223.089 536.642 221.214 536.212 220.237 535.9C218.987 539.728 219.417 543.01 218.948 546.291ZM221.566 548.753C221.839 548.831 222.035 549.143 222.113 548.948C222.269 548.596 221.839 547.932 221.8 547.464V547.424C221.449 547.112 219.066 547.073 219.222 547.229C218.948 547.737 218.519 547.659 218.363 548.675C218.285 549.182 218.91 548.753 219.495 548.714C218.441 549.417 217.23 550.315 217.034 551.097C216.8 552.19 217.191 552.503 218.363 553.089C219.378 553.323 220.589 553.363 221.527 553.323C222.582 553.128 222.777 552.62 222.465 551.917C221.995 550.862 221.683 549.495 221.566 548.753Z" fill="#F0EFEF"/>
<path d="M221.995 498.006C223.285 498.748 225.082 498.553 225.746 498.514C225.902 498.514 227.465 498.24 227.543 498.279C227.699 498.318 227.699 498.435 227.699 498.435C227.699 498.435 227.113 498.748 225.785 498.826C224.535 498.904 223.05 498.826 222.23 498.435C221.253 498.006 221.995 498.006 221.995 498.006ZM235.278 498.748C235.512 498.904 237.036 499.49 237.7 500.193C238.286 500.819 237.974 500.78 237.856 500.623C237.7 500.428 236.489 499.607 236.02 499.412C235.551 499.217 234.965 498.865 234.965 498.787C234.965 498.709 235.278 498.748 235.278 498.748Z" fill="#010101"/>
<path d="M221.8 514.96C222.933 514.882 224.105 515.156 224.847 515.937C225.238 516.328 225.863 516.757 225.785 517.148C225.785 517.265 225.55 517.578 225.355 517.812C225.238 517.968 224.886 518.32 224.769 518.437C224.613 518.554 224.066 518.984 223.949 519.062C223.832 519.141 223.675 519.336 223.558 519.375C223.168 519.57 222.738 519.414 222.347 519.219C221.957 519.023 222.425 518.984 221.996 518.672C220.941 517.93 220.355 517.422 220.785 515.976C220.824 515.703 221.253 515.39 221.8 514.96Z" fill="#F0EFEF"/>
<path opacity="0.4" d="M211.838 506.014C208.322 507.421 199.376 511.874 196.837 513.242C198.947 514.57 199.923 517.773 200.236 521.016C200.275 521.328 200.314 521.602 200.353 521.914C200.392 522.188 200.431 522.383 200.47 522.5C200.47 522.54 200.47 522.618 200.509 522.657C202.814 516.367 211.057 509.726 211.369 509.218C211.526 508.984 211.174 507.968 211.721 506.991C212.424 505.741 213.792 505.194 211.838 506.014ZM220.198 535.509C221.995 531.915 222.035 528.477 221.995 524.453C221.995 522.774 223.206 520.39 222.582 521.055C220.237 523.672 214.339 528.594 210.08 528.868C216.057 528.673 218.401 531.681 220.198 535.509Z" fill="#010101"/>
<path d="M193.399 516.562C195.626 514.96 207.15 508.827 209.924 507.968C212.698 507.069 211.838 506.014 211.838 506.014C211.838 506.014 200.587 510.858 193.868 515.038" fill="#010101"/>
<path opacity="0.4" d="M226.214 505.272C225.316 504.921 224.613 505.975 224.847 506.991C225.082 508.007 227.191 509.14 227.074 512.851C226.996 515.898 226.332 517.148 226.332 517.148L224.847 515.273C224.847 515.273 224.613 511.054 224.105 510.429C223.597 509.804 221.995 508.671 221.37 508.085C220.745 507.499 222.073 506.718 221.995 505.624C221.917 504.569 222.66 502.459 222.66 502.459L226.214 505.272ZM231.645 521.914C231.567 524.844 232.231 529.18 232.504 531.251C232.778 533.321 233.129 533.478 232.504 534.415C231.879 535.314 231.059 536.798 231.059 536.798L228.363 536.564C228.363 536.564 230.512 533.829 230.629 533.321C230.746 532.814 229.535 528.946 229.535 528.946L231.645 521.914ZM226.449 494.568C226.996 495.779 227.66 496.326 228.715 496.678C229.34 496.912 231.801 497.225 232.778 496.131C233.207 495.623 232.934 494.255 232.934 494.255L230.707 496.052L227.699 495.506L227.347 494.607L226.449 494.568Z" fill="#010101"/>
<path d="M226.332 497.381C227.621 497.928 230.121 498.514 230.824 498.67C231.527 498.826 232.66 498.123 233.207 497.771C234.184 497.146 235.434 497.654 236.02 498.318C236.411 498.748 236.567 499.022 236.567 499.139C236.567 499.295 236.098 499.139 236.098 499.139C235.825 499.022 235.512 498.983 235.278 498.826C234.965 498.67 234.653 498.436 234.184 498.475C232.231 498.709 231.84 499.373 230.16 498.982C228.481 498.592 228.051 498.24 226.254 498.357" fill="#8AC640"/>
<path d="M220.277 533.868C220.198 533.79 220.355 533.712 220.277 533.712C219.769 533.712 219.066 533.321 218.675 532.774C216.995 530.352 214.534 528.751 210.08 528.868C203.4 529.024 200.743 526.29 200.236 521.055C199.962 518.203 199.181 515.429 197.579 513.867L196.641 514.453C198.438 516.015 199.024 518.555 199.415 522.031C200.04 527.266 204.259 529.688 209.182 529.767C214.299 529.845 216.135 530.899 218.049 533.478C218.674 534.298 219.378 534.572 219.925 534.689L220.277 533.868Z" fill="#010101"/>
<path opacity="0.4" d="M238.403 508.749C238.52 509.335 238.833 510.468 239.458 511.015C239.732 511.288 239.77 511.366 239.536 511.366C239.302 511.366 237.583 511.288 237.583 511.288L237.114 510.468L238.403 508.749Z" fill="#010101"/>
</g>
<defs>
<linearGradient id="paint0_linear_1_3" x1="343.784" y1="485.606" x2="353.575" y2="512.505" gradientUnits="userSpaceOnUse">
<stop stop-color="#F44F5A"/>
<stop offset="0.443" stop-color="#EE3D4A"/>
<stop offset="1" stop-color="#E52030"/>
</linearGradient>
<linearGradient id="paint1_linear_1_3" x1="342.808" y1="505.344" x2="352.541" y2="532.083" gradientUnits="userSpaceOnUse">
<stop stop-color="#AE4CD5"/>
<stop offset="1" stop-color="#9331BF"/>
</linearGradient>
<linearGradient id="paint2_linear_1_3" x1="341.598" y1="522.437" x2="351.822" y2="550.525" gradientUnits="userSpaceOnUse">
<stop stop-color="#33C481"/>
<stop offset="1" stop-color="#21A366"/>
</linearGradient>
<linearGradient id="paint3_linear_1_3" x1="360.101" y1="484.747" x2="369.757" y2="511.274" gradientUnits="userSpaceOnUse">
<stop stop-color="#F09CA2"/>
<stop offset="1" stop-color="#EB6773"/>
</linearGradient>
<linearGradient id="paint4_linear_1_3" x1="361.875" y1="505.834" x2="370.833" y2="530.448" gradientUnits="userSpaceOnUse">
<stop stop-color="#32BDEF"/>
<stop offset="1" stop-color="#1EA2E4"/>
</linearGradient>
<clipPath id="clip0_1_3">
<rect width="438" height="622" fill="white"/>
</clipPath>
</defs>
</svg>
