<svg width="438" height="622" viewBox="0 0 438 622" fill="none" xmlns="http://www.w3.org/2000/svg">
<g clip-path="url(#clip0_1_91)">
<path d="M437.32 0H0V621.25H437.32V0Z" fill="#141414"/>
<path d="M37.314 523L47.554 500.6H49.89L60.13 523H57.634L48.226 501.976H49.186L39.778 523H37.314ZM41.346 517.016L42.05 515.096H55.074L55.778 517.016H41.346ZM71.9315 506.04C73.2968 506.04 74.4915 506.307 75.5155 506.84C76.5608 507.352 77.3715 508.141 77.9475 509.208C78.5448 510.275 78.8435 511.619 78.8435 513.24V523H76.5715V513.464C76.5715 511.693 76.1235 510.36 75.2275 509.464C74.3528 508.547 73.1155 508.088 71.5155 508.088C70.3208 508.088 69.2755 508.333 68.3795 508.824C67.5048 509.293 66.8222 509.987 66.3315 510.904C65.8622 511.8 65.6275 512.888 65.6275 514.168V523H63.3555V506.2H65.5315V510.808L65.1795 509.944C65.7128 508.728 66.5662 507.779 67.7395 507.096C68.9128 506.392 70.3102 506.04 71.9315 506.04ZM95.5085 523V519.288L95.4125 518.68V512.472C95.4125 511.043 95.0072 509.944 94.1965 509.176C93.4072 508.408 92.2232 508.024 90.6445 508.024C89.5565 508.024 88.5218 508.205 87.5405 508.568C86.5592 508.931 85.7272 509.411 85.0445 510.008L84.0205 508.312C84.8738 507.587 85.8978 507.032 87.0925 506.648C88.2872 506.243 89.5458 506.04 90.8685 506.04C93.0445 506.04 94.7192 506.584 95.8925 507.672C97.0872 508.739 97.6845 510.371 97.6845 512.568V523H95.5085ZM89.7165 523.16C88.4578 523.16 87.3592 522.957 86.4205 522.552C85.5032 522.125 84.7992 521.549 84.3085 520.824C83.8178 520.077 83.5725 519.224 83.5725 518.264C83.5725 517.389 83.7752 516.6 84.1805 515.896C84.6072 515.171 85.2898 514.595 86.2285 514.168C87.1885 513.72 88.4685 513.496 90.0685 513.496H95.8605V515.192H90.1325C88.5112 515.192 87.3805 515.48 86.7405 516.056C86.1218 516.632 85.8125 517.347 85.8125 518.2C85.8125 519.16 86.1858 519.928 86.9325 520.504C87.6792 521.08 88.7245 521.368 90.0685 521.368C91.3485 521.368 92.4472 521.08 93.3645 520.504C94.3032 519.907 94.9858 519.053 95.4125 517.944L95.9245 519.512C95.4978 520.621 94.7512 521.507 93.6845 522.168C92.6392 522.829 91.3165 523.16 89.7165 523.16ZM103.856 523V499.256H106.128V523H103.856ZM112.577 529.368C111.788 529.368 111.031 529.24 110.305 528.984C109.601 528.728 108.993 528.344 108.481 527.832L109.537 526.136C109.964 526.541 110.423 526.851 110.913 527.064C111.425 527.299 111.991 527.416 112.609 527.416C113.356 527.416 113.996 527.203 114.529 526.776C115.084 526.371 115.607 525.645 116.097 524.6L117.185 522.136L117.441 521.784L124.353 506.2H126.593L118.177 525.016C117.708 526.104 117.185 526.968 116.609 527.608C116.055 528.248 115.447 528.696 114.785 528.952C114.124 529.229 113.388 529.368 112.577 529.368ZM117.057 523.48L109.313 506.2H111.681L118.529 521.624L117.057 523.48ZM127.657 523V521.496L138.857 507.32L139.337 508.088H127.849V506.2H141.129V507.672L129.961 521.88L129.385 521.112H141.353V523H127.657ZM152.679 523.16C150.93 523.16 149.394 522.797 148.071 522.072C146.748 521.325 145.714 520.312 144.967 519.032C144.22 517.731 143.847 516.248 143.847 514.584C143.847 512.92 144.199 511.448 144.903 510.168C145.628 508.888 146.61 507.885 147.847 507.16C149.106 506.413 150.514 506.04 152.071 506.04C153.65 506.04 155.047 506.403 156.263 507.128C157.5 507.832 158.471 508.835 159.175 510.136C159.879 511.416 160.231 512.899 160.231 514.584C160.231 514.691 160.22 514.808 160.199 514.936C160.199 515.043 160.199 515.16 160.199 515.288H145.575V513.592H158.983L158.087 514.264C158.087 513.048 157.82 511.971 157.287 511.032C156.775 510.072 156.071 509.325 155.175 508.792C154.279 508.259 153.244 507.992 152.071 507.992C150.919 507.992 149.884 508.259 148.967 508.792C148.05 509.325 147.335 510.072 146.823 511.032C146.311 511.992 146.055 513.091 146.055 514.328V514.68C146.055 515.96 146.332 517.091 146.887 518.072C147.463 519.032 148.252 519.789 149.255 520.344C150.279 520.877 151.442 521.144 152.743 521.144C153.767 521.144 154.716 520.963 155.591 520.6C156.487 520.237 157.255 519.683 157.895 518.936L159.175 520.408C158.428 521.304 157.49 521.987 156.359 522.456C155.25 522.925 154.023 523.16 152.679 523.16ZM169.368 523.16C167.981 523.16 166.669 522.968 165.432 522.584C164.194 522.179 163.224 521.677 162.52 521.08L163.544 519.288C164.226 519.8 165.101 520.248 166.168 520.632C167.234 520.995 168.354 521.176 169.528 521.176C171.128 521.176 172.28 520.931 172.984 520.44C173.688 519.928 174.04 519.256 174.04 518.424C174.04 517.805 173.837 517.325 173.432 516.984C173.048 516.621 172.536 516.355 171.896 516.184C171.256 515.992 170.541 515.832 169.752 515.704C168.962 515.576 168.173 515.427 167.384 515.256C166.616 515.085 165.912 514.84 165.272 514.52C164.632 514.179 164.109 513.72 163.704 513.144C163.32 512.568 163.128 511.8 163.128 510.84C163.128 509.923 163.384 509.101 163.896 508.376C164.408 507.651 165.154 507.085 166.136 506.68C167.138 506.253 168.354 506.04 169.784 506.04C170.872 506.04 171.96 506.189 173.048 506.488C174.136 506.765 175.032 507.139 175.736 507.608L174.744 509.432C173.997 508.92 173.197 508.557 172.344 508.344C171.49 508.109 170.637 507.992 169.784 507.992C168.269 507.992 167.149 508.259 166.424 508.792C165.72 509.304 165.368 509.965 165.368 510.776C165.368 511.416 165.56 511.917 165.944 512.28C166.349 512.643 166.872 512.931 167.512 513.144C168.173 513.336 168.888 513.496 169.656 513.624C170.445 513.752 171.224 513.912 171.992 514.104C172.781 514.275 173.496 514.52 174.136 514.84C174.797 515.139 175.32 515.576 175.704 516.152C176.109 516.707 176.312 517.443 176.312 518.36C176.312 519.341 176.034 520.195 175.48 520.92C174.946 521.624 174.157 522.179 173.112 522.584C172.088 522.968 170.84 523.16 169.368 523.16ZM199.384 523V519.288L199.288 518.68V512.472C199.288 511.043 198.882 509.944 198.072 509.176C197.282 508.408 196.098 508.024 194.52 508.024C193.432 508.024 192.397 508.205 191.416 508.568C190.434 508.931 189.602 509.411 188.92 510.008L187.896 508.312C188.749 507.587 189.773 507.032 190.968 506.648C192.162 506.243 193.421 506.04 194.744 506.04C196.92 506.04 198.594 506.584 199.768 507.672C200.962 508.739 201.56 510.371 201.56 512.568V523H199.384ZM193.592 523.16C192.333 523.16 191.234 522.957 190.296 522.552C189.378 522.125 188.674 521.549 188.184 520.824C187.693 520.077 187.448 519.224 187.448 518.264C187.448 517.389 187.65 516.6 188.056 515.896C188.482 515.171 189.165 514.595 190.104 514.168C191.064 513.72 192.344 513.496 193.944 513.496H199.736V515.192H194.008C192.386 515.192 191.256 515.48 190.616 516.056C189.997 516.632 189.688 517.347 189.688 518.2C189.688 519.16 190.061 519.928 190.808 520.504C191.554 521.08 192.6 521.368 193.944 521.368C195.224 521.368 196.322 521.08 197.24 520.504C198.178 519.907 198.861 519.053 199.288 517.944L199.8 519.512C199.373 520.621 198.626 521.507 197.56 522.168C196.514 522.829 195.192 523.16 193.592 523.16ZM220.618 523.16C219.231 523.16 217.919 522.968 216.682 522.584C215.444 522.179 214.474 521.677 213.77 521.08L214.794 519.288C215.476 519.8 216.351 520.248 217.418 520.632C218.484 520.995 219.604 521.176 220.778 521.176C222.378 521.176 223.53 520.931 224.234 520.44C224.938 519.928 225.29 519.256 225.29 518.424C225.29 517.805 225.087 517.325 224.682 516.984C224.298 516.621 223.786 516.355 223.146 516.184C222.506 515.992 221.791 515.832 221.002 515.704C220.212 515.576 219.423 515.427 218.634 515.256C217.866 515.085 217.162 514.84 216.522 514.52C215.882 514.179 215.359 513.72 214.954 513.144C214.57 512.568 214.378 511.8 214.378 510.84C214.378 509.923 214.634 509.101 215.146 508.376C215.658 507.651 216.404 507.085 217.386 506.68C218.388 506.253 219.604 506.04 221.034 506.04C222.122 506.04 223.21 506.189 224.298 506.488C225.386 506.765 226.282 507.139 226.986 507.608L225.994 509.432C225.247 508.92 224.447 508.557 223.594 508.344C222.74 508.109 221.887 507.992 221.034 507.992C219.519 507.992 218.399 508.259 217.674 508.792C216.97 509.304 216.618 509.965 216.618 510.776C216.618 511.416 216.81 511.917 217.194 512.28C217.599 512.643 218.122 512.931 218.762 513.144C219.423 513.336 220.138 513.496 220.906 513.624C221.695 513.752 222.474 513.912 223.242 514.104C224.031 514.275 224.746 514.52 225.386 514.84C226.047 515.139 226.57 515.576 226.954 516.152C227.359 516.707 227.562 517.443 227.562 518.36C227.562 519.341 227.284 520.195 226.73 520.92C226.196 521.624 225.407 522.179 224.362 522.584C223.338 522.968 222.09 523.16 220.618 523.16ZM237.043 523.16C235.464 523.16 234.248 522.733 233.395 521.88C232.541 521.027 232.115 519.821 232.115 518.264V502.488H234.387V518.136C234.387 519.117 234.632 519.875 235.123 520.408C235.635 520.941 236.36 521.208 237.299 521.208C238.301 521.208 239.133 520.92 239.795 520.344L240.595 521.976C240.147 522.381 239.603 522.68 238.963 522.872C238.344 523.064 237.704 523.16 237.043 523.16ZM229.107 508.088V506.2H239.507V508.088H229.107ZM250.985 523.16C249.363 523.16 247.902 522.797 246.601 522.072C245.321 521.325 244.307 520.312 243.561 519.032C242.814 517.731 242.441 516.248 242.441 514.584C242.441 512.899 242.814 511.416 243.561 510.136C244.307 508.856 245.321 507.853 246.601 507.128C247.881 506.403 249.342 506.04 250.985 506.04C252.649 506.04 254.121 506.403 255.401 507.128C256.702 507.853 257.715 508.856 258.441 510.136C259.187 511.416 259.561 512.899 259.561 514.584C259.561 516.248 259.187 517.731 258.441 519.032C257.715 520.312 256.702 521.325 255.401 522.072C254.099 522.797 252.627 523.16 250.985 523.16ZM250.985 521.144C252.201 521.144 253.278 520.877 254.217 520.344C255.155 519.789 255.891 519.021 256.425 518.04C256.979 517.037 257.257 515.885 257.257 514.584C257.257 513.261 256.979 512.109 256.425 511.128C255.891 510.147 255.155 509.389 254.217 508.856C253.278 508.301 252.211 508.024 251.017 508.024C249.822 508.024 248.755 508.301 247.817 508.856C246.878 509.389 246.131 510.147 245.577 511.128C245.022 512.109 244.745 513.261 244.745 514.584C244.745 515.885 245.022 517.037 245.577 518.04C246.131 519.021 246.878 519.789 247.817 520.344C248.755 520.877 249.811 521.144 250.985 521.144ZM271.175 523.16C269.511 523.16 268.018 522.797 266.695 522.072C265.394 521.325 264.37 520.312 263.623 519.032C262.877 517.731 262.503 516.248 262.503 514.584C262.503 512.899 262.877 511.416 263.623 510.136C264.37 508.856 265.394 507.853 266.695 507.128C268.018 506.403 269.511 506.04 271.175 506.04C272.605 506.04 273.895 506.317 275.047 506.872C276.199 507.427 277.106 508.259 277.767 509.368L276.071 510.52C275.495 509.667 274.781 509.037 273.927 508.632C273.074 508.227 272.146 508.024 271.143 508.024C269.949 508.024 268.871 508.301 267.911 508.856C266.951 509.389 266.194 510.147 265.639 511.128C265.085 512.109 264.807 513.261 264.807 514.584C264.807 515.907 265.085 517.059 265.639 518.04C266.194 519.021 266.951 519.789 267.911 520.344C268.871 520.877 269.949 521.144 271.143 521.144C272.146 521.144 273.074 520.941 273.927 520.536C274.781 520.131 275.495 519.512 276.071 518.68L277.767 519.832C277.106 520.92 276.199 521.752 275.047 522.328C273.895 522.883 272.605 523.16 271.175 523.16ZM283.773 518.648L283.837 515.736L294.301 506.2H297.085L289.693 513.272L288.413 514.36L283.773 518.648ZM281.981 523V499.256H284.253V523H281.981ZM295.005 523L287.997 514.264L289.469 512.504L297.789 523H295.005ZM299.823 507.064L301.231 501.176L301.487 502.52C300.997 502.52 300.581 502.371 300.239 502.072C299.919 501.752 299.759 501.336 299.759 500.824C299.759 500.312 299.919 499.896 300.239 499.576C300.581 499.256 300.986 499.096 301.455 499.096C301.946 499.096 302.341 499.267 302.639 499.608C302.959 499.928 303.119 500.333 303.119 500.824C303.119 500.995 303.109 501.165 303.087 501.336C303.066 501.507 303.023 501.699 302.959 501.912C302.917 502.104 302.842 502.349 302.735 502.648L301.359 507.064H299.823ZM311.993 523.16C310.606 523.16 309.294 522.968 308.057 522.584C306.819 522.179 305.849 521.677 305.145 521.08L306.169 519.288C306.851 519.8 307.726 520.248 308.793 520.632C309.859 520.995 310.979 521.176 312.153 521.176C313.753 521.176 314.905 520.931 315.609 520.44C316.313 519.928 316.665 519.256 316.665 518.424C316.665 517.805 316.462 517.325 316.057 516.984C315.673 516.621 315.161 516.355 314.521 516.184C313.881 515.992 313.166 515.832 312.377 515.704C311.587 515.576 310.798 515.427 310.009 515.256C309.241 515.085 308.537 514.84 307.897 514.52C307.257 514.179 306.734 513.72 306.329 513.144C305.945 512.568 305.753 511.8 305.753 510.84C305.753 509.923 306.009 509.101 306.521 508.376C307.033 507.651 307.779 507.085 308.761 506.68C309.763 506.253 310.979 506.04 312.409 506.04C313.497 506.04 314.585 506.189 315.673 506.488C316.761 506.765 317.657 507.139 318.361 507.608L317.369 509.432C316.622 508.92 315.822 508.557 314.969 508.344C314.115 508.109 313.262 507.992 312.409 507.992C310.894 507.992 309.774 508.259 309.049 508.792C308.345 509.304 307.993 509.965 307.993 510.776C307.993 511.416 308.185 511.917 308.569 512.28C308.974 512.643 309.497 512.931 310.137 513.144C310.798 513.336 311.513 513.496 312.281 513.624C313.07 513.752 313.849 513.912 314.617 514.104C315.406 514.275 316.121 514.52 316.761 514.84C317.422 515.139 317.945 515.576 318.329 516.152C318.734 516.707 318.937 517.443 318.937 518.36C318.937 519.341 318.659 520.195 318.105 520.92C317.571 521.624 316.782 522.179 315.737 522.584C314.713 522.968 313.465 523.16 311.993 523.16ZM338.169 523.16C336.569 523.16 335.129 522.797 333.849 522.072C332.59 521.347 331.598 520.344 330.873 519.064C330.147 517.763 329.785 516.269 329.785 514.584C329.785 512.877 330.147 511.384 330.873 510.104C331.598 508.824 332.59 507.832 333.849 507.128C335.129 506.403 336.569 506.04 338.169 506.04C339.641 506.04 340.953 506.371 342.105 507.032C343.278 507.693 344.206 508.664 344.889 509.944C345.593 511.203 345.944 512.749 345.944 514.584C345.944 516.397 345.603 517.944 344.921 519.224C344.238 520.504 343.31 521.485 342.137 522.168C340.985 522.829 339.662 523.16 338.169 523.16ZM338.329 521.144C339.523 521.144 340.59 520.877 341.529 520.344C342.489 519.789 343.235 519.021 343.769 518.04C344.323 517.037 344.601 515.885 344.601 514.584C344.601 513.261 344.323 512.109 343.769 511.128C343.235 510.147 342.489 509.389 341.529 508.856C340.59 508.301 339.523 508.024 338.329 508.024C337.155 508.024 336.099 508.301 335.161 508.856C334.222 509.389 333.475 510.147 332.921 511.128C332.366 512.109 332.089 513.261 332.089 514.584C332.089 515.885 332.366 517.037 332.921 518.04C333.475 519.021 334.222 519.789 335.161 520.344C336.099 520.877 337.155 521.144 338.329 521.144ZM344.665 523V517.944L344.889 514.552L344.569 511.16V499.256H346.841V523H344.665ZM363.696 523V519.288L363.6 518.68V512.472C363.6 511.043 363.195 509.944 362.384 509.176C361.595 508.408 360.411 508.024 358.832 508.024C357.744 508.024 356.709 508.205 355.728 508.568C354.747 508.931 353.915 509.411 353.232 510.008L352.208 508.312C353.061 507.587 354.085 507.032 355.28 506.648C356.475 506.243 357.733 506.04 359.056 506.04C361.232 506.04 362.907 506.584 364.08 507.672C365.275 508.739 365.872 510.371 365.872 512.568V523H363.696ZM357.904 523.16C356.645 523.16 355.547 522.957 354.608 522.552C353.691 522.125 352.987 521.549 352.496 520.824C352.005 520.077 351.76 519.224 351.76 518.264C351.76 517.389 351.963 516.6 352.368 515.896C352.795 515.171 353.477 514.595 354.416 514.168C355.376 513.72 356.656 513.496 358.256 513.496H364.048V515.192H358.32C356.699 515.192 355.568 515.48 354.928 516.056C354.309 516.632 354 517.347 354 518.2C354 519.16 354.373 519.928 355.12 520.504C355.867 521.08 356.912 521.368 358.256 521.368C359.536 521.368 360.635 521.08 361.552 520.504C362.491 519.907 363.173 519.053 363.6 517.944L364.112 519.512C363.685 520.621 362.939 521.507 361.872 522.168C360.827 522.829 359.504 523.16 357.904 523.16ZM377.355 523.16C375.776 523.16 374.56 522.733 373.707 521.88C372.854 521.027 372.427 519.821 372.427 518.264V502.488H374.699V518.136C374.699 519.117 374.944 519.875 375.435 520.408C375.947 520.941 376.672 521.208 377.611 521.208C378.614 521.208 379.446 520.92 380.107 520.344L380.907 521.976C380.459 522.381 379.915 522.68 379.275 522.872C378.656 523.064 378.016 523.16 377.355 523.16ZM369.419 508.088V506.2H379.819V508.088H369.419ZM395.571 523V519.288L395.475 518.68V512.472C395.475 511.043 395.07 509.944 394.259 509.176C393.47 508.408 392.286 508.024 390.707 508.024C389.619 508.024 388.584 508.205 387.603 508.568C386.622 508.931 385.79 509.411 385.107 510.008L384.083 508.312C384.936 507.587 385.96 507.032 387.155 506.648C388.35 506.243 389.608 506.04 390.931 506.04C393.107 506.04 394.782 506.584 395.955 507.672C397.15 508.739 397.747 510.371 397.747 512.568V523H395.571ZM389.779 523.16C388.52 523.16 387.422 522.957 386.483 522.552C385.566 522.125 384.862 521.549 384.371 520.824C383.88 520.077 383.635 519.224 383.635 518.264C383.635 517.389 383.838 516.6 384.243 515.896C384.67 515.171 385.352 514.595 386.291 514.168C387.251 513.72 388.531 513.496 390.131 513.496H395.923V515.192H390.195C388.574 515.192 387.443 515.48 386.803 516.056C386.184 516.632 385.875 517.347 385.875 518.2C385.875 519.16 386.248 519.928 386.995 520.504C387.742 521.08 388.787 521.368 390.131 521.368C391.411 521.368 392.51 521.08 393.427 520.504C394.366 519.907 395.048 519.053 395.475 517.944L395.987 519.512C395.56 520.621 394.814 521.507 393.747 522.168C392.702 522.829 391.379 523.16 389.779 523.16ZM50.5581 562.16C48.9795 562.16 47.7635 561.733 46.9101 560.88C46.0568 560.027 45.6301 558.821 45.6301 557.264V541.488H47.9021V557.136C47.9021 558.117 48.1475 558.875 48.6381 559.408C49.1501 559.941 49.8755 560.208 50.8141 560.208C51.8168 560.208 52.6488 559.92 53.3101 559.344L54.1101 560.976C53.6621 561.381 53.1181 561.68 52.4781 561.872C51.8595 562.064 51.2195 562.16 50.5581 562.16ZM42.6221 547.088V545.2H53.0221V547.088H42.6221ZM64.5004 562.16C62.879 562.16 61.4177 561.797 60.1164 561.072C58.8364 560.325 57.823 559.312 57.0764 558.032C56.3297 556.731 55.9564 555.248 55.9564 553.584C55.9564 551.899 56.3297 550.416 57.0764 549.136C57.823 547.856 58.8364 546.853 60.1164 546.128C61.3964 545.403 62.8577 545.04 64.5004 545.04C66.1644 545.04 67.6364 545.403 68.9164 546.128C70.2177 546.853 71.231 547.856 71.9564 549.136C72.703 550.416 73.0764 551.899 73.0764 553.584C73.0764 555.248 72.703 556.731 71.9564 558.032C71.231 559.312 70.2177 560.325 68.9164 561.072C67.615 561.797 66.143 562.16 64.5004 562.16ZM64.5004 560.144C65.7164 560.144 66.7937 559.877 67.7324 559.344C68.671 558.789 69.407 558.021 69.9404 557.04C70.495 556.037 70.7724 554.885 70.7724 553.584C70.7724 552.261 70.495 551.109 69.9404 550.128C69.407 549.147 68.671 548.389 67.7324 547.856C66.7937 547.301 65.727 547.024 64.5324 547.024C63.3377 547.024 62.271 547.301 61.3324 547.856C60.3937 548.389 59.647 549.147 59.0924 550.128C58.5377 551.109 58.2604 552.261 58.2604 553.584C58.2604 554.885 58.5377 556.037 59.0924 557.04C59.647 558.021 60.3937 558.789 61.3324 559.344C62.271 559.877 63.327 560.144 64.5004 560.144ZM92.7779 562.16C91.1779 562.16 89.7379 561.797 88.4579 561.072C87.1992 560.347 86.2072 559.344 85.4819 558.064C84.7565 556.763 84.3939 555.269 84.3939 553.584C84.3939 551.877 84.7565 550.384 85.4819 549.104C86.2072 547.824 87.1992 546.832 88.4579 546.128C89.7379 545.403 91.1779 545.04 92.7779 545.04C94.2499 545.04 95.5619 545.371 96.7139 546.032C97.8872 546.693 98.8152 547.664 99.4979 548.944C100.202 550.203 100.554 551.749 100.554 553.584C100.554 555.397 100.213 556.944 99.5299 558.224C98.8472 559.504 97.9192 560.485 96.7459 561.168C95.5939 561.829 94.2712 562.16 92.7779 562.16ZM92.9379 560.144C94.1325 560.144 95.1992 559.877 96.1379 559.344C97.0979 558.789 97.8445 558.021 98.3779 557.04C98.9325 556.037 99.2099 554.885 99.2099 553.584C99.2099 552.261 98.9325 551.109 98.3779 550.128C97.8445 549.147 97.0979 548.389 96.1379 547.856C95.1992 547.301 94.1325 547.024 92.9379 547.024C91.7645 547.024 90.7085 547.301 89.7699 547.856C88.8312 548.389 88.0845 549.147 87.5299 550.128C86.9752 551.109 86.6979 552.261 86.6979 553.584C86.6979 554.885 86.9752 556.037 87.5299 557.04C88.0845 558.021 88.8312 558.789 89.7699 559.344C90.7085 559.877 91.7645 560.144 92.9379 560.144ZM99.2739 562V556.944L99.4979 553.552L99.1779 550.16V538.256H101.45V562H99.2739ZM114.913 562.16C113.164 562.16 111.628 561.797 110.305 561.072C108.983 560.325 107.948 559.312 107.201 558.032C106.455 556.731 106.081 555.248 106.081 553.584C106.081 551.92 106.433 550.448 107.137 549.168C107.863 547.888 108.844 546.885 110.081 546.16C111.34 545.413 112.748 545.04 114.305 545.04C115.884 545.04 117.281 545.403 118.497 546.128C119.735 546.832 120.705 547.835 121.409 549.136C122.113 550.416 122.465 551.899 122.465 553.584C122.465 553.691 122.455 553.808 122.433 553.936C122.433 554.043 122.433 554.16 122.433 554.288H107.809V552.592H121.217L120.321 553.264C120.321 552.048 120.055 550.971 119.521 550.032C119.009 549.072 118.305 548.325 117.409 547.792C116.513 547.259 115.479 546.992 114.305 546.992C113.153 546.992 112.119 547.259 111.201 547.792C110.284 548.325 109.569 549.072 109.057 550.032C108.545 550.992 108.289 552.091 108.289 553.328V553.68C108.289 554.96 108.567 556.091 109.121 557.072C109.697 558.032 110.487 558.789 111.489 559.344C112.513 559.877 113.676 560.144 114.977 560.144C116.001 560.144 116.951 559.963 117.825 559.6C118.721 559.237 119.489 558.683 120.129 557.936L121.409 559.408C120.663 560.304 119.724 560.987 118.593 561.456C117.484 561.925 116.257 562.16 114.913 562.16ZM132.402 562.16C130.823 562.16 129.607 561.733 128.754 560.88C127.901 560.027 127.474 558.821 127.474 557.264V541.488H129.746V557.136C129.746 558.117 129.991 558.875 130.482 559.408C130.994 559.941 131.719 560.208 132.658 560.208C133.661 560.208 134.493 559.92 135.154 559.344L135.954 560.976C135.506 561.381 134.962 561.68 134.322 561.872C133.703 562.064 133.063 562.16 132.402 562.16ZM124.466 547.088V545.2H134.866V547.088H124.466ZM146.632 562.16C144.883 562.16 143.347 561.797 142.024 561.072C140.701 560.325 139.667 559.312 138.92 558.032C138.173 556.731 137.8 555.248 137.8 553.584C137.8 551.92 138.152 550.448 138.856 549.168C139.581 547.888 140.563 546.885 141.8 546.16C143.059 545.413 144.467 545.04 146.024 545.04C147.603 545.04 149 545.403 150.216 546.128C151.453 546.832 152.424 547.835 153.128 549.136C153.832 550.416 154.184 551.899 154.184 553.584C154.184 553.691 154.173 553.808 154.152 553.936C154.152 554.043 154.152 554.16 154.152 554.288H139.528V552.592H152.936L152.04 553.264C152.04 552.048 151.773 550.971 151.24 550.032C150.728 549.072 150.024 548.325 149.128 547.792C148.232 547.259 147.197 546.992 146.024 546.992C144.872 546.992 143.837 547.259 142.92 547.792C142.003 548.325 141.288 549.072 140.776 550.032C140.264 550.992 140.008 552.091 140.008 553.328V553.68C140.008 554.96 140.285 556.091 140.84 557.072C141.416 558.032 142.205 558.789 143.208 559.344C144.232 559.877 145.395 560.144 146.696 560.144C147.72 560.144 148.669 559.963 149.544 559.6C150.44 559.237 151.208 558.683 151.848 557.936L153.128 559.408C152.381 560.304 151.443 560.987 150.312 561.456C149.203 561.925 147.976 562.16 146.632 562.16ZM158.809 562V545.2H160.985V549.776L160.761 548.976C161.23 547.696 162.019 546.725 163.129 546.064C164.238 545.381 165.614 545.04 167.257 545.04V547.248C167.171 547.248 167.086 547.248 167.001 547.248C166.915 547.227 166.83 547.216 166.745 547.216C164.974 547.216 163.587 547.76 162.585 548.848C161.582 549.915 161.081 551.44 161.081 553.424V562H158.809ZM192.394 545.04C193.76 545.04 194.944 545.307 195.946 545.84C196.97 546.352 197.76 547.141 198.314 548.208C198.89 549.275 199.178 550.619 199.178 552.24V562H196.906V552.464C196.906 550.693 196.48 549.36 195.626 548.464C194.794 547.547 193.61 547.088 192.074 547.088C190.922 547.088 189.92 547.333 189.066 547.824C188.234 548.293 187.584 548.987 187.114 549.904C186.666 550.8 186.442 551.888 186.442 553.168V562H184.17V552.464C184.17 550.693 183.744 549.36 182.89 548.464C182.037 547.547 180.842 547.088 179.306 547.088C178.176 547.088 177.184 547.333 176.33 547.824C175.477 548.293 174.816 548.987 174.346 549.904C173.898 550.8 173.674 551.888 173.674 553.168V562H171.402V545.2H173.578V549.744L173.226 548.944C173.738 547.728 174.56 546.779 175.69 546.096C176.842 545.392 178.197 545.04 179.754 545.04C181.397 545.04 182.794 545.456 183.946 546.288C185.098 547.099 185.845 548.325 186.186 549.968L185.29 549.616C185.781 548.251 186.645 547.152 187.882 546.32C189.141 545.467 190.645 545.04 192.394 545.04ZM205.34 562V545.2H207.612V562H205.34ZM206.492 541.488C206.023 541.488 205.628 541.328 205.308 541.008C204.988 540.688 204.828 540.304 204.828 539.856C204.828 539.408 204.988 539.035 205.308 538.736C205.628 538.416 206.023 538.256 206.492 538.256C206.961 538.256 207.356 538.405 207.676 538.704C207.996 539.003 208.156 539.376 208.156 539.824C208.156 540.293 207.996 540.688 207.676 541.008C207.377 541.328 206.983 541.488 206.492 541.488ZM222.51 545.04C223.875 545.04 225.07 545.307 226.094 545.84C227.139 546.352 227.95 547.141 228.526 548.208C229.123 549.275 229.422 550.619 229.422 552.24V562H227.15V552.464C227.15 550.693 226.702 549.36 225.806 548.464C224.931 547.547 223.694 547.088 222.094 547.088C220.899 547.088 219.854 547.333 218.958 547.824C218.083 548.293 217.4 548.987 216.91 549.904C216.44 550.8 216.206 551.888 216.206 553.168V562H213.934V545.2H216.11V549.808L215.758 548.944C216.291 547.728 217.144 546.779 218.318 546.096C219.491 545.392 220.888 545.04 222.51 545.04ZM242.695 562.16C240.945 562.16 239.409 561.797 238.087 561.072C236.764 560.325 235.729 559.312 234.983 558.032C234.236 556.731 233.863 555.248 233.863 553.584C233.863 551.92 234.215 550.448 234.919 549.168C235.644 547.888 236.625 546.885 237.863 546.16C239.121 545.413 240.529 545.04 242.087 545.04C243.665 545.04 245.063 545.403 246.279 546.128C247.516 546.832 248.487 547.835 249.191 549.136C249.895 550.416 250.247 551.899 250.247 553.584C250.247 553.691 250.236 553.808 250.215 553.936C250.215 554.043 250.215 554.16 250.215 554.288H235.591V552.592H248.999L248.103 553.264C248.103 552.048 247.836 550.971 247.303 550.032C246.791 549.072 246.087 548.325 245.191 547.792C244.295 547.259 243.26 546.992 242.087 546.992C240.935 546.992 239.9 547.259 238.983 547.792C238.065 548.325 237.351 549.072 236.839 550.032C236.327 550.992 236.071 552.091 236.071 553.328V553.68C236.071 554.96 236.348 556.091 236.903 557.072C237.479 558.032 238.268 558.789 239.271 559.344C240.295 559.877 241.457 560.144 242.759 560.144C243.783 560.144 244.732 559.963 245.607 559.6C246.503 559.237 247.271 558.683 247.911 557.936L249.191 559.408C248.444 560.304 247.505 560.987 246.375 561.456C245.265 561.925 244.039 562.16 242.695 562.16ZM266.67 562L260.334 545.2H262.51L268.27 560.784H267.278L273.198 545.2H275.15L281.006 560.784H280.014L285.87 545.2H287.95L281.582 562H279.438L273.806 547.344H274.478L268.814 562H266.67ZM299.947 545.04C301.312 545.04 302.507 545.307 303.531 545.84C304.576 546.352 305.387 547.141 305.963 548.208C306.56 549.275 306.859 550.619 306.859 552.24V562H304.587V552.464C304.587 550.693 304.139 549.36 303.243 548.464C302.368 547.547 301.131 547.088 299.531 547.088C298.336 547.088 297.291 547.333 296.395 547.824C295.52 548.293 294.838 548.987 294.347 549.904C293.878 550.8 293.643 551.888 293.643 553.168V562H291.371V538.256H293.643V549.808L293.195 548.944C293.728 547.728 294.582 546.779 295.755 546.096C296.928 545.392 298.326 545.04 299.947 545.04ZM320.132 562.16C318.383 562.16 316.847 561.797 315.524 561.072C314.201 560.325 313.167 559.312 312.42 558.032C311.673 556.731 311.3 555.248 311.3 553.584C311.3 551.92 311.652 550.448 312.356 549.168C313.081 547.888 314.063 546.885 315.3 546.16C316.559 545.413 317.967 545.04 319.524 545.04C321.103 545.04 322.5 545.403 323.716 546.128C324.953 546.832 325.924 547.835 326.628 549.136C327.332 550.416 327.684 551.899 327.684 553.584C327.684 553.691 327.673 553.808 327.652 553.936C327.652 554.043 327.652 554.16 327.652 554.288H313.028V552.592H326.436L325.54 553.264C325.54 552.048 325.273 550.971 324.74 550.032C324.228 549.072 323.524 548.325 322.628 547.792C321.732 547.259 320.697 546.992 319.524 546.992C318.372 546.992 317.337 547.259 316.42 547.792C315.503 548.325 314.788 549.072 314.276 550.032C313.764 550.992 313.508 552.091 313.508 553.328V553.68C313.508 554.96 313.785 556.091 314.34 557.072C314.916 558.032 315.705 558.789 316.708 559.344C317.732 559.877 318.895 560.144 320.196 560.144C321.22 560.144 322.169 559.963 323.044 559.6C323.94 559.237 324.708 558.683 325.348 557.936L326.628 559.408C325.881 560.304 324.943 560.987 323.812 561.456C322.703 561.925 321.476 562.16 320.132 562.16ZM337.621 562.16C336.042 562.16 334.826 561.733 333.973 560.88C333.119 560.027 332.693 558.821 332.693 557.264V541.488H334.965V557.136C334.965 558.117 335.21 558.875 335.701 559.408C336.213 559.941 336.938 560.208 337.877 560.208C338.879 560.208 339.711 559.92 340.373 559.344L341.173 560.976C340.725 561.381 340.181 561.68 339.541 561.872C338.922 562.064 338.282 562.16 337.621 562.16ZM329.685 547.088V545.2H340.085V547.088H329.685ZM353.885 545.04C355.25 545.04 356.445 545.307 357.469 545.84C358.514 546.352 359.325 547.141 359.901 548.208C360.498 549.275 360.797 550.619 360.797 552.24V562H358.525V552.464C358.525 550.693 358.077 549.36 357.181 548.464C356.306 547.547 355.069 547.088 353.469 547.088C352.274 547.088 351.229 547.333 350.333 547.824C349.458 548.293 348.775 548.987 348.285 549.904C347.815 550.8 347.581 551.888 347.581 553.168V562H345.309V538.256H347.581V549.808L347.133 548.944C347.666 547.728 348.519 546.779 349.693 546.096C350.866 545.392 352.263 545.04 353.885 545.04ZM374.07 562.16C372.32 562.16 370.784 561.797 369.462 561.072C368.139 560.325 367.104 559.312 366.358 558.032C365.611 556.731 365.238 555.248 365.238 553.584C365.238 551.92 365.59 550.448 366.294 549.168C367.019 547.888 368 546.885 369.238 546.16C370.496 545.413 371.904 545.04 373.462 545.04C375.04 545.04 376.438 545.403 377.654 546.128C378.891 546.832 379.862 547.835 380.566 549.136C381.27 550.416 381.622 551.899 381.622 553.584C381.622 553.691 381.611 553.808 381.59 553.936C381.59 554.043 381.59 554.16 381.59 554.288H366.966V552.592H380.374L379.478 553.264C379.478 552.048 379.211 550.971 378.678 550.032C378.166 549.072 377.462 548.325 376.566 547.792C375.67 547.259 374.635 546.992 373.462 546.992C372.31 546.992 371.275 547.259 370.358 547.792C369.44 548.325 368.726 549.072 368.214 550.032C367.702 550.992 367.446 552.091 367.446 553.328V553.68C367.446 554.96 367.723 556.091 368.278 557.072C368.854 558.032 369.643 558.789 370.646 559.344C371.67 559.877 372.832 560.144 374.134 560.144C375.158 560.144 376.107 559.963 376.982 559.6C377.878 559.237 378.646 558.683 379.286 557.936L380.566 559.408C379.819 560.304 378.88 560.987 377.75 561.456C376.64 561.925 375.414 562.16 374.07 562.16ZM386.246 562V545.2H388.422V549.776L388.198 548.976C388.667 547.696 389.457 546.725 390.566 546.064C391.675 545.381 393.051 545.04 394.694 545.04V547.248C394.609 547.248 394.523 547.248 394.438 547.248C394.353 547.227 394.267 547.216 394.182 547.216C392.411 547.216 391.025 547.76 390.022 548.848C389.019 549.915 388.518 551.44 388.518 553.424V562H386.246ZM38.23 601.16C36.6513 601.16 35.4353 600.733 34.582 599.88C33.7287 599.027 33.302 597.821 33.302 596.264V580.488H35.574V596.136C35.574 597.117 35.8193 597.875 36.31 598.408C36.822 598.941 37.5473 599.208 38.486 599.208C39.4887 599.208 40.3207 598.92 40.982 598.344L41.782 599.976C41.334 600.381 40.79 600.68 40.15 600.872C39.5313 601.064 38.8913 601.16 38.23 601.16ZM30.294 586.088V584.2H40.694V586.088H30.294ZM52.1723 601.16C50.5509 601.16 49.0896 600.797 47.7883 600.072C46.5083 599.325 45.4949 598.312 44.7483 597.032C44.0016 595.731 43.6283 594.248 43.6283 592.584C43.6283 590.899 44.0016 589.416 44.7483 588.136C45.4949 586.856 46.5083 585.853 47.7883 585.128C49.0683 584.403 50.5296 584.04 52.1723 584.04C53.8363 584.04 55.3083 584.403 56.5883 585.128C57.8896 585.853 58.9029 586.856 59.6283 588.136C60.3749 589.416 60.7483 590.899 60.7483 592.584C60.7483 594.248 60.3749 595.731 59.6283 597.032C58.9029 598.312 57.8896 599.325 56.5883 600.072C55.2869 600.797 53.8149 601.16 52.1723 601.16ZM52.1723 599.144C53.3883 599.144 54.4656 598.877 55.4043 598.344C56.3429 597.789 57.0789 597.021 57.6123 596.04C58.1669 595.037 58.4443 593.885 58.4443 592.584C58.4443 591.261 58.1669 590.109 57.6123 589.128C57.0789 588.147 56.3429 587.389 55.4043 586.856C54.4656 586.301 53.3989 586.024 52.2043 586.024C51.0096 586.024 49.9429 586.301 49.0043 586.856C48.0656 587.389 47.3189 588.147 46.7643 589.128C46.2096 590.109 45.9323 591.261 45.9323 592.584C45.9323 593.885 46.2096 595.037 46.7643 596.04C47.3189 597.021 48.0656 597.789 49.0043 598.344C49.9429 598.877 50.9989 599.144 52.1723 599.144ZM82.4338 601.16C80.9618 601.16 79.6391 600.829 78.4658 600.168C77.2924 599.485 76.3644 598.504 75.6818 597.224C74.9991 595.944 74.6578 594.397 74.6578 592.584C74.6578 590.749 74.9991 589.203 75.6818 587.944C76.3858 586.664 77.3244 585.693 78.4978 585.032C79.6711 584.371 80.9831 584.04 82.4338 584.04C84.0338 584.04 85.4631 584.403 86.7218 585.128C88.0018 585.832 89.0044 586.824 89.7298 588.104C90.4551 589.384 90.8178 590.877 90.8178 592.584C90.8178 594.269 90.4551 595.763 89.7298 597.064C89.0044 598.344 88.0018 599.347 86.7218 600.072C85.4631 600.797 84.0338 601.16 82.4338 601.16ZM73.7618 601V577.256H76.0338V589.16L75.7138 592.552L75.9378 595.944V601H73.7618ZM82.2738 599.144C83.4684 599.144 84.5351 598.877 85.4738 598.344C86.4124 597.789 87.1591 597.021 87.7138 596.04C88.2684 595.037 88.5458 593.885 88.5458 592.584C88.5458 591.261 88.2684 590.109 87.7138 589.128C87.1591 588.147 86.4124 587.389 85.4738 586.856C84.5351 586.301 83.4684 586.024 82.2738 586.024C81.0791 586.024 80.0018 586.301 79.0417 586.856C78.1031 587.389 77.3564 588.147 76.8018 589.128C76.2684 590.109 76.0018 591.261 76.0018 592.584C76.0018 593.885 76.2684 595.037 76.8018 596.04C77.3564 597.021 78.1031 597.789 79.0417 598.344C80.0018 598.877 81.0791 599.144 82.2738 599.144ZM102.393 601.16C100.964 601.16 99.7159 600.893 98.6493 600.36C97.5826 599.827 96.7506 599.027 96.1533 597.96C95.5773 596.893 95.2893 595.56 95.2893 593.96V584.2H97.5613V593.704C97.5613 595.496 97.9986 596.851 98.8733 597.768C99.7693 598.664 101.017 599.112 102.617 599.112C103.791 599.112 104.804 598.877 105.657 598.408C106.532 597.917 107.193 597.213 107.641 596.296C108.111 595.379 108.345 594.28 108.345 593V584.2H110.617V601H108.441V596.392L108.793 597.224C108.26 598.461 107.428 599.432 106.297 600.136C105.188 600.819 103.887 601.16 102.393 601.16ZM117.077 607.368C116.288 607.368 115.531 607.24 114.805 606.984C114.101 606.728 113.493 606.344 112.981 605.832L114.037 604.136C114.464 604.541 114.923 604.851 115.413 605.064C115.925 605.299 116.491 605.416 117.109 605.416C117.856 605.416 118.496 605.203 119.029 604.776C119.584 604.371 120.107 603.645 120.597 602.6L121.685 600.136L121.941 599.784L128.853 584.2H131.093L122.677 603.016C122.208 604.104 121.685 604.968 121.109 605.608C120.555 606.248 119.947 606.696 119.285 606.952C118.624 607.229 117.888 607.368 117.077 607.368ZM121.557 601.48L113.813 584.2H116.181L123.029 599.624L121.557 601.48ZM129.387 604.2L139.948 574.056H142.028L131.468 604.2H129.387ZM146.399 601.16C145.012 601.16 143.7 600.968 142.463 600.584C141.225 600.179 140.255 599.677 139.551 599.08L140.575 597.288C141.257 597.8 142.132 598.248 143.199 598.632C144.265 598.995 145.385 599.176 146.559 599.176C148.159 599.176 149.311 598.931 150.015 598.44C150.719 597.928 151.071 597.256 151.071 596.424C151.071 595.805 150.868 595.325 150.463 594.984C150.079 594.621 149.567 594.355 148.927 594.184C148.287 593.992 147.572 593.832 146.783 593.704C145.993 593.576 145.204 593.427 144.415 593.256C143.647 593.085 142.943 592.84 142.303 592.52C141.663 592.179 141.14 591.72 140.735 591.144C140.351 590.568 140.159 589.8 140.159 588.84C140.159 587.923 140.415 587.101 140.927 586.376C141.439 585.651 142.185 585.085 143.167 584.68C144.169 584.253 145.385 584.04 146.815 584.04C147.903 584.04 148.991 584.189 150.079 584.488C151.167 584.765 152.063 585.139 152.767 585.608L151.775 587.432C151.028 586.92 150.228 586.557 149.375 586.344C148.521 586.109 147.668 585.992 146.815 585.992C145.3 585.992 144.18 586.259 143.455 586.792C142.751 587.304 142.399 587.965 142.399 588.776C142.399 589.416 142.591 589.917 142.975 590.28C143.38 590.643 143.903 590.931 144.543 591.144C145.204 591.336 145.919 591.496 146.687 591.624C147.476 591.752 148.255 591.912 149.023 592.104C149.812 592.275 150.527 592.52 151.167 592.84C151.828 593.139 152.351 593.576 152.735 594.152C153.14 594.707 153.343 595.443 153.343 596.36C153.343 597.341 153.065 598.195 152.511 598.92C151.977 599.624 151.188 600.179 150.143 600.584C149.119 600.968 147.871 601.16 146.399 601.16ZM164.648 601.16C162.898 601.16 161.362 600.797 160.04 600.072C158.717 599.325 157.682 598.312 156.936 597.032C156.189 595.731 155.816 594.248 155.816 592.584C155.816 590.92 156.168 589.448 156.872 588.168C157.597 586.888 158.578 585.885 159.816 585.16C161.074 584.413 162.482 584.04 164.04 584.04C165.618 584.04 167.016 584.403 168.232 585.128C169.469 585.832 170.44 586.835 171.144 588.136C171.848 589.416 172.2 590.899 172.2 592.584C172.2 592.691 172.189 592.808 172.168 592.936C172.168 593.043 172.168 593.16 172.168 593.288H157.544V591.592H170.952L170.056 592.264C170.056 591.048 169.789 589.971 169.256 589.032C168.744 588.072 168.04 587.325 167.144 586.792C166.248 586.259 165.213 585.992 164.04 585.992C162.888 585.992 161.853 586.259 160.936 586.792C160.018 587.325 159.304 588.072 158.792 589.032C158.28 589.992 158.024 591.091 158.024 592.328V592.68C158.024 593.96 158.301 595.091 158.856 596.072C159.432 597.032 160.221 597.789 161.224 598.344C162.248 598.877 163.41 599.144 164.712 599.144C165.736 599.144 166.685 598.963 167.56 598.6C168.456 598.237 169.224 597.683 169.864 596.936L171.144 598.408C170.397 599.304 169.458 599.987 168.328 600.456C167.218 600.925 165.992 601.16 164.648 601.16ZM176.824 601V577.256H179.096V601H176.824ZM185.418 601V577.256H187.69V601H185.418ZM190.044 604.2L200.604 574.056H202.684L192.124 604.2H190.044ZM206.523 596.648L206.587 593.736L217.051 584.2H219.835L212.443 591.272L211.163 592.36L206.523 596.648ZM204.731 601V577.256H207.003V601H204.731ZM217.755 601L210.747 592.264L212.219 590.504L220.539 601H217.755ZM230.429 601.16C228.68 601.16 227.144 600.797 225.821 600.072C224.498 599.325 223.464 598.312 222.717 597.032C221.97 595.731 221.597 594.248 221.597 592.584C221.597 590.92 221.949 589.448 222.653 588.168C223.378 586.888 224.36 585.885 225.597 585.16C226.856 584.413 228.264 584.04 229.821 584.04C231.4 584.04 232.797 584.403 234.013 585.128C235.25 585.832 236.221 586.835 236.925 588.136C237.629 589.416 237.981 590.899 237.981 592.584C237.981 592.691 237.97 592.808 237.949 592.936C237.949 593.043 237.949 593.16 237.949 593.288H223.325V591.592H236.733L235.837 592.264C235.837 591.048 235.57 589.971 235.037 589.032C234.525 588.072 233.821 587.325 232.925 586.792C232.029 586.259 230.994 585.992 229.821 585.992C228.669 585.992 227.634 586.259 226.717 586.792C225.8 587.325 225.085 588.072 224.573 589.032C224.061 589.992 223.805 591.091 223.805 592.328V592.68C223.805 593.96 224.082 595.091 224.637 596.072C225.213 597.032 226.002 597.789 227.005 598.344C228.029 598.877 229.192 599.144 230.493 599.144C231.517 599.144 232.466 598.963 233.341 598.6C234.237 598.237 235.005 597.683 235.645 596.936L236.925 598.408C236.178 599.304 235.24 599.987 234.109 600.456C233 600.925 231.773 601.16 230.429 601.16ZM249.742 601.16C247.992 601.16 246.456 600.797 245.134 600.072C243.811 599.325 242.776 598.312 242.03 597.032C241.283 595.731 240.91 594.248 240.91 592.584C240.91 590.92 241.262 589.448 241.966 588.168C242.691 586.888 243.672 585.885 244.91 585.16C246.168 584.413 247.576 584.04 249.134 584.04C250.712 584.04 252.11 584.403 253.326 585.128C254.563 585.832 255.534 586.835 256.238 588.136C256.942 589.416 257.294 590.899 257.294 592.584C257.294 592.691 257.283 592.808 257.262 592.936C257.262 593.043 257.262 593.16 257.262 593.288H242.638V591.592H256.046L255.15 592.264C255.15 591.048 254.883 589.971 254.35 589.032C253.838 588.072 253.134 587.325 252.238 586.792C251.342 586.259 250.307 585.992 249.134 585.992C247.982 585.992 246.947 586.259 246.03 586.792C245.112 587.325 244.398 588.072 243.886 589.032C243.374 589.992 243.118 591.091 243.118 592.328V592.68C243.118 593.96 243.395 595.091 243.95 596.072C244.526 597.032 245.315 597.789 246.318 598.344C247.342 598.877 248.504 599.144 249.806 599.144C250.83 599.144 251.779 598.963 252.654 598.6C253.55 598.237 254.318 597.683 254.958 596.936L256.238 598.408C255.491 599.304 254.552 599.987 253.422 600.456C252.312 600.925 251.086 601.16 249.742 601.16ZM270.59 601.16C269.139 601.16 267.827 600.829 266.654 600.168C265.481 599.485 264.542 598.515 263.838 597.256C263.155 595.976 262.814 594.419 262.814 592.584C262.814 590.749 263.155 589.203 263.838 587.944C264.521 586.664 265.449 585.693 266.622 585.032C267.795 584.371 269.118 584.04 270.59 584.04C272.19 584.04 273.619 584.403 274.878 585.128C276.158 585.832 277.161 586.835 277.886 588.136C278.611 589.416 278.974 590.899 278.974 592.584C278.974 594.291 278.611 595.784 277.886 597.064C277.161 598.344 276.158 599.347 274.878 600.072C273.619 600.797 272.19 601.16 270.59 601.16ZM261.918 607.208V584.2H264.094V589.256L263.87 592.616L264.19 596.008V607.208H261.918ZM270.43 599.144C271.625 599.144 272.691 598.877 273.63 598.344C274.569 597.789 275.315 597.021 275.87 596.04C276.425 595.037 276.702 593.885 276.702 592.584C276.702 591.283 276.425 590.141 275.87 589.16C275.315 588.179 274.569 587.411 273.63 586.856C272.691 586.301 271.625 586.024 270.43 586.024C269.235 586.024 268.158 586.301 267.198 586.856C266.259 587.411 265.513 588.179 264.958 589.16C264.425 590.141 264.158 591.283 264.158 592.584C264.158 593.885 264.425 595.037 264.958 596.04C265.513 597.021 266.259 597.789 267.198 598.344C268.158 598.877 269.235 599.144 270.43 599.144ZM302.509 601V597.288L302.413 596.68V590.472C302.413 589.043 302.007 587.944 301.197 587.176C300.407 586.408 299.223 586.024 297.645 586.024C296.557 586.024 295.522 586.205 294.541 586.568C293.559 586.931 292.727 587.411 292.045 588.008L291.021 586.312C291.874 585.587 292.898 585.032 294.093 584.648C295.287 584.243 296.546 584.04 297.869 584.04C300.045 584.04 301.719 584.584 302.893 585.672C304.087 586.739 304.685 588.371 304.685 590.568V601H302.509ZM296.717 601.16C295.458 601.16 294.359 600.957 293.421 600.552C292.503 600.125 291.799 599.549 291.309 598.824C290.818 598.077 290.573 597.224 290.573 596.264C290.573 595.389 290.775 594.6 291.181 593.896C291.607 593.171 292.29 592.595 293.229 592.168C294.189 591.72 295.469 591.496 297.069 591.496H302.861V593.192H297.133C295.511 593.192 294.381 593.48 293.741 594.056C293.122 594.632 292.812 595.347 292.812 596.2C292.812 597.16 293.186 597.928 293.933 598.504C294.679 599.08 295.725 599.368 297.069 599.368C298.349 599.368 299.447 599.08 300.365 598.504C301.303 597.907 301.986 597.053 302.413 595.944L302.925 597.512C302.498 598.621 301.751 599.507 300.685 600.168C299.639 600.829 298.317 601.16 296.717 601.16ZM323.743 601.16C322.356 601.16 321.044 600.968 319.807 600.584C318.569 600.179 317.599 599.677 316.895 599.08L317.919 597.288C318.601 597.8 319.476 598.248 320.543 598.632C321.609 598.995 322.729 599.176 323.903 599.176C325.503 599.176 326.655 598.931 327.359 598.44C328.063 597.928 328.415 597.256 328.415 596.424C328.415 595.805 328.212 595.325 327.807 594.984C327.423 594.621 326.911 594.355 326.271 594.184C325.631 593.992 324.916 593.832 324.127 593.704C323.337 593.576 322.548 593.427 321.759 593.256C320.991 593.085 320.287 592.84 319.647 592.52C319.007 592.179 318.484 591.72 318.079 591.144C317.695 590.568 317.503 589.8 317.503 588.84C317.503 587.923 317.759 587.101 318.271 586.376C318.783 585.651 319.529 585.085 320.511 584.68C321.513 584.253 322.729 584.04 324.159 584.04C325.247 584.04 326.335 584.189 327.423 584.488C328.511 584.765 329.407 585.139 330.111 585.608L329.119 587.432C328.372 586.92 327.572 586.557 326.719 586.344C325.865 586.109 325.012 585.992 324.159 585.992C322.644 585.992 321.524 586.259 320.799 586.792C320.095 587.304 319.743 587.965 319.743 588.776C319.743 589.416 319.935 589.917 320.319 590.28C320.724 590.643 321.247 590.931 321.887 591.144C322.548 591.336 323.263 591.496 324.031 591.624C324.82 591.752 325.599 591.912 326.367 592.104C327.156 592.275 327.871 592.52 328.511 592.84C329.172 593.139 329.695 593.576 330.079 594.152C330.484 594.707 330.687 595.443 330.687 596.36C330.687 597.341 330.409 598.195 329.855 598.92C329.321 599.624 328.532 600.179 327.487 600.584C326.463 600.968 325.215 601.16 323.743 601.16ZM340.168 601.16C338.589 601.16 337.373 600.733 336.52 599.88C335.666 599.027 335.24 597.821 335.24 596.264V580.488H337.512V596.136C337.512 597.117 337.757 597.875 338.248 598.408C338.76 598.941 339.485 599.208 340.424 599.208C341.426 599.208 342.258 598.92 342.92 598.344L343.72 599.976C343.272 600.381 342.728 600.68 342.088 600.872C341.469 601.064 340.829 601.16 340.168 601.16ZM332.232 586.088V584.2H342.632V586.088H332.232ZM354.11 601.16C352.488 601.16 351.027 600.797 349.726 600.072C348.446 599.325 347.432 598.312 346.686 597.032C345.939 595.731 345.566 594.248 345.566 592.584C345.566 590.899 345.939 589.416 346.686 588.136C347.432 586.856 348.446 585.853 349.726 585.128C351.006 584.403 352.467 584.04 354.11 584.04C355.774 584.04 357.246 584.403 358.526 585.128C359.827 585.853 360.84 586.856 361.566 588.136C362.312 589.416 362.686 590.899 362.686 592.584C362.686 594.248 362.312 595.731 361.566 597.032C360.84 598.312 359.827 599.325 358.526 600.072C357.224 600.797 355.752 601.16 354.11 601.16ZM354.11 599.144C355.326 599.144 356.403 598.877 357.342 598.344C358.28 597.789 359.016 597.021 359.55 596.04C360.104 595.037 360.382 593.885 360.382 592.584C360.382 591.261 360.104 590.109 359.55 589.128C359.016 588.147 358.28 587.389 357.342 586.856C356.403 586.301 355.336 586.024 354.142 586.024C352.947 586.024 351.88 586.301 350.942 586.856C350.003 587.389 349.256 588.147 348.702 589.128C348.147 590.109 347.87 591.261 347.87 592.584C347.87 593.885 348.147 595.037 348.702 596.04C349.256 597.021 350.003 597.789 350.942 598.344C351.88 598.877 352.936 599.144 354.11 599.144ZM374.3 601.16C372.636 601.16 371.143 600.797 369.82 600.072C368.519 599.325 367.495 598.312 366.748 597.032C366.002 595.731 365.628 594.248 365.628 592.584C365.628 590.899 366.002 589.416 366.748 588.136C367.495 586.856 368.519 585.853 369.82 585.128C371.143 584.403 372.636 584.04 374.3 584.04C375.73 584.04 377.02 584.317 378.172 584.872C379.324 585.427 380.231 586.259 380.892 587.368L379.196 588.52C378.62 587.667 377.906 587.037 377.052 586.632C376.199 586.227 375.271 586.024 374.268 586.024C373.074 586.024 371.996 586.301 371.036 586.856C370.076 587.389 369.319 588.147 368.764 589.128C368.21 590.109 367.932 591.261 367.932 592.584C367.932 593.907 368.21 595.059 368.764 596.04C369.319 597.021 370.076 597.789 371.036 598.344C371.996 598.877 373.074 599.144 374.268 599.144C375.271 599.144 376.199 598.941 377.052 598.536C377.906 598.131 378.62 597.512 379.196 596.68L380.892 597.832C380.231 598.92 379.324 599.752 378.172 600.328C377.02 600.883 375.73 601.16 374.3 601.16ZM386.898 596.648L386.962 593.736L397.426 584.2H400.21L392.818 591.272L391.538 592.36L386.898 596.648ZM385.106 601V577.256H387.378V601H385.106ZM398.13 601L391.122 592.264L392.594 590.504L400.914 601H398.13ZM404.861 601.16C404.391 601.16 403.986 600.989 403.645 600.648C403.325 600.307 403.165 599.891 403.165 599.4C403.165 598.888 403.325 598.472 403.645 598.152C403.986 597.832 404.391 597.672 404.861 597.672C405.33 597.672 405.725 597.832 406.045 598.152C406.386 598.472 406.557 598.888 406.557 599.4C406.557 599.891 406.386 600.307 406.045 600.648C405.725 600.989 405.33 601.16 404.861 601.16Z" fill="white"/>
<path d="M39.1781 274L67.6773 211.658H74.1787L102.678 274H95.7312L69.5476 215.488H72.2194L46.0357 274H39.1781ZM50.3997 257.346L52.359 252.002H88.6064L90.5657 257.346H50.3997ZM135.523 226.798C139.323 226.798 142.648 227.54 145.498 229.025C148.407 230.45 150.663 232.646 152.266 235.615C153.929 238.584 154.76 242.324 154.76 246.837V274H148.437V247.46C148.437 242.532 147.19 238.821 144.696 236.328C142.262 233.775 138.818 232.498 134.365 232.498C131.04 232.498 128.131 233.181 125.637 234.546C123.203 235.853 121.303 237.782 119.937 240.335C118.631 242.829 117.978 245.857 117.978 249.419V274H111.655V227.243H117.711V240.068L116.731 237.664C118.216 234.279 120.591 231.637 123.856 229.737C127.122 227.778 131.011 226.798 135.523 226.798ZM201.141 274V263.669L200.874 261.977V244.699C200.874 240.721 199.745 237.664 197.489 235.526C195.292 233.389 191.997 232.32 187.604 232.32C184.576 232.32 181.696 232.825 178.965 233.834C176.234 234.843 173.918 236.179 172.018 237.842L169.168 233.121C171.543 231.103 174.393 229.559 177.718 228.49C181.043 227.362 184.546 226.798 188.227 226.798C194.283 226.798 198.944 228.312 202.209 231.34C205.534 234.309 207.197 238.851 207.197 244.966V274H201.141ZM185.021 274.445C181.518 274.445 178.46 273.881 175.848 272.753C173.295 271.566 171.335 269.963 169.97 267.944C168.604 265.866 167.921 263.491 167.921 260.819C167.921 258.385 168.485 256.188 169.613 254.229C170.801 252.21 172.701 250.607 175.313 249.419C177.985 248.173 181.547 247.549 186 247.549H202.12V252.269H186.179C181.666 252.269 178.519 253.071 176.738 254.674C175.016 256.277 174.156 258.266 174.156 260.641C174.156 263.313 175.195 265.45 177.273 267.053C179.351 268.656 182.26 269.458 186 269.458C189.563 269.458 192.621 268.656 195.174 267.053C197.786 265.391 199.686 263.016 200.874 259.929L202.298 264.292C201.111 267.38 199.033 269.844 196.064 271.684C193.155 273.525 189.474 274.445 185.021 274.445ZM224.371 274V207.917H230.695V274H224.371ZM248.645 291.723C246.448 291.723 244.341 291.367 242.322 290.654C240.363 289.942 238.67 288.873 237.245 287.448L240.184 282.728C241.372 283.856 242.648 284.717 244.014 285.311C245.439 285.964 247.012 286.29 248.734 286.29C250.812 286.29 252.593 285.697 254.078 284.509C255.622 283.381 257.076 281.362 258.442 278.453L261.47 271.595L262.182 270.616L281.419 227.243H287.653L264.231 279.611C262.924 282.639 261.47 285.043 259.867 286.825C258.323 288.606 256.631 289.853 254.79 290.565C252.95 291.337 250.901 291.723 248.645 291.723ZM261.114 275.336L239.561 227.243H246.151L265.21 270.17L261.114 275.336ZM308.594 274.445C304.735 274.445 301.084 273.911 297.64 272.842C294.196 271.714 291.495 270.319 289.536 268.656L292.385 263.669C294.285 265.094 296.72 266.341 299.688 267.41C302.657 268.419 305.774 268.924 309.04 268.924C313.493 268.924 316.699 268.241 318.658 266.875C320.617 265.45 321.597 263.58 321.597 261.264C321.597 259.543 321.033 258.207 319.905 257.257C318.836 256.247 317.411 255.505 315.63 255.03C313.849 254.496 311.86 254.051 309.663 253.694C307.466 253.338 305.269 252.922 303.073 252.447C300.935 251.972 298.976 251.29 297.195 250.399C295.413 249.449 293.959 248.173 292.831 246.57C291.762 244.966 291.228 242.829 291.228 240.157C291.228 237.604 291.94 235.318 293.365 233.3C294.79 231.281 296.868 229.707 299.599 228.579C302.39 227.392 305.774 226.798 309.752 226.798C312.78 226.798 315.808 227.214 318.836 228.045C321.864 228.817 324.358 229.856 326.317 231.162L323.556 236.239C321.478 234.814 319.252 233.804 316.877 233.211C314.502 232.557 312.127 232.231 309.752 232.231C305.537 232.231 302.42 232.973 300.401 234.457C298.442 235.882 297.462 237.723 297.462 239.979C297.462 241.76 297.996 243.156 299.065 244.165C300.193 245.174 301.648 245.976 303.429 246.57C305.269 247.104 307.258 247.549 309.396 247.905C311.593 248.262 313.76 248.707 315.897 249.241C318.094 249.716 320.083 250.399 321.864 251.29C323.705 252.121 325.16 253.338 326.228 254.941C327.356 256.485 327.92 258.533 327.92 261.086C327.92 263.817 327.149 266.192 325.605 268.211C324.12 270.17 321.924 271.714 319.014 272.842C316.164 273.911 312.691 274.445 308.594 274.445ZM339.523 274V227.243H345.846V274H339.523ZM342.729 216.913C341.423 216.913 340.325 216.467 339.434 215.577C338.544 214.686 338.098 213.617 338.098 212.37C338.098 211.124 338.544 210.085 339.434 209.253C340.325 208.363 341.423 207.917 342.729 207.917C344.036 207.917 345.134 208.333 346.025 209.164C346.915 209.996 347.361 211.035 347.361 212.281C347.361 213.588 346.915 214.686 346.025 215.577C345.193 216.467 344.095 216.913 342.729 216.913ZM375.998 274.445C372.139 274.445 368.487 273.911 365.044 272.842C361.6 271.714 358.899 270.319 356.939 268.656L359.789 263.669C361.689 265.094 364.124 266.341 367.092 267.41C370.061 268.419 373.178 268.924 376.443 268.924C380.896 268.924 384.103 268.241 386.062 266.875C388.021 265.45 389.001 263.58 389.001 261.264C389.001 259.543 388.437 258.207 387.309 257.257C386.24 256.247 384.815 255.505 383.034 255.03C381.253 254.496 379.264 254.051 377.067 253.694C374.87 253.338 372.673 252.922 370.476 252.447C368.339 251.972 366.38 251.29 364.598 250.399C362.817 249.449 361.363 248.173 360.235 246.57C359.166 244.966 358.631 242.829 358.631 240.157C358.631 237.604 359.344 235.318 360.769 233.3C362.194 231.281 364.272 229.707 367.003 228.579C369.794 227.392 373.178 226.798 377.156 226.798C380.184 226.798 383.212 227.214 386.24 228.045C389.268 228.817 391.762 229.856 393.721 231.162L390.96 236.239C388.882 234.814 386.656 233.804 384.281 233.211C381.906 232.557 379.531 232.231 377.156 232.231C372.94 232.231 369.823 232.973 367.805 234.457C365.845 235.882 364.866 237.723 364.866 239.979C364.866 241.76 365.4 243.156 366.469 244.165C367.597 245.174 369.051 245.976 370.833 246.57C372.673 247.104 374.662 247.549 376.8 247.905C378.997 248.262 381.164 248.707 383.301 249.241C385.498 249.716 387.487 250.399 389.268 251.29C391.109 252.121 392.563 253.338 393.632 254.941C394.76 256.485 395.324 258.533 395.324 261.086C395.324 263.817 394.552 266.192 393.009 268.211C391.524 270.17 389.327 271.714 386.418 272.842C383.568 273.911 380.095 274.445 375.998 274.445Z" fill="#0255FF"/>
<path d="M66.1528 77V14.658H89.4866C94.7708 14.658 99.3128 15.5189 103.113 17.2407C106.913 18.9032 109.822 21.3375 111.841 24.5437C113.919 27.6904 114.958 31.52 114.958 36.0324C114.958 40.426 113.919 44.2259 111.841 47.4321C109.822 50.5789 106.913 53.0132 103.113 54.735C99.3128 56.4568 94.7708 57.3177 89.4866 57.3177H69.8043L72.7433 54.2006V77H66.1528ZM72.7433 54.735L69.8043 51.5288H89.3084C95.5426 51.5288 100.263 50.1929 103.469 47.5211C106.735 44.79 108.367 40.9604 108.367 36.0324C108.367 31.045 106.735 27.1858 103.469 24.4546C100.263 21.7234 95.5426 20.3578 89.3084 20.3578H69.8043L72.7433 17.2407V54.735ZM128.402 94.7229C126.205 94.7229 124.098 94.3667 122.079 93.6542C120.12 92.9417 118.428 91.873 117.003 90.4481L119.942 85.7279C121.129 86.856 122.406 87.7169 123.771 88.3106C125.196 88.9637 126.77 89.2903 128.491 89.2903C130.569 89.2903 132.351 88.6965 133.835 87.5091C135.379 86.381 136.833 84.3623 138.199 81.453L141.227 74.5954L141.939 73.6157L161.176 30.2435H167.411L143.988 82.6108C142.682 85.6388 141.227 88.0434 139.624 89.8246C138.08 91.6058 136.388 92.8527 134.547 93.5652C132.707 94.337 130.658 94.7229 128.402 94.7229ZM140.871 78.3359L119.318 30.2435H125.909L144.967 73.1704L140.871 78.3359ZM192.404 77.4453C188.011 77.4453 184.627 76.2578 182.252 73.8829C179.877 71.508 178.689 68.1534 178.689 63.8191V19.9125H185.012V63.4629C185.012 66.1941 185.695 68.3018 187.061 69.7861C188.486 71.2705 190.504 72.0126 193.117 72.0126C195.907 72.0126 198.223 71.2111 200.064 69.608L202.29 74.1501C201.043 75.2782 199.529 76.1094 197.748 76.6438C196.026 77.1781 194.245 77.4453 192.404 77.4453ZM170.318 35.498V30.2435H199.262V35.498H170.318ZM237.669 29.7982C241.469 29.7982 244.794 30.5404 247.644 32.0247C250.553 33.4497 252.809 35.6465 254.412 38.6151C256.075 41.5838 256.906 45.3243 256.906 49.8367V77H250.583V50.4601C250.583 45.5321 249.336 41.8213 246.842 39.3276C244.408 36.7746 240.964 35.498 236.511 35.498C233.186 35.498 230.277 36.1808 227.784 37.5464C225.349 38.8526 223.449 40.7823 222.084 43.3353C220.777 45.829 220.124 48.857 220.124 52.4194V77H213.801V10.9175H220.124V43.0681L218.878 40.6635C220.362 37.2792 222.737 34.6371 226.002 32.7372C229.268 30.7779 233.157 29.7982 237.669 29.7982ZM293.045 77.4453C288.533 77.4453 284.466 76.436 280.844 74.4173C277.281 72.3392 274.461 69.519 272.383 65.9566C270.305 62.3348 269.266 58.2083 269.266 53.5772C269.266 48.8867 270.305 44.7603 272.383 41.1979C274.461 37.6355 277.281 34.8449 280.844 32.8262C284.406 30.8075 288.473 29.7982 293.045 29.7982C297.676 29.7982 301.773 30.8075 305.335 32.8262C308.957 34.8449 311.777 37.6355 313.796 41.1979C315.874 44.7603 316.913 48.8867 316.913 53.5772C316.913 58.2083 315.874 62.3348 313.796 65.9566C311.777 69.519 308.957 72.3392 305.335 74.4173C301.714 76.436 297.617 77.4453 293.045 77.4453ZM293.045 71.8345C296.429 71.8345 299.428 71.0924 302.04 69.608C304.653 68.0643 306.701 65.9269 308.185 63.1957C309.729 60.4052 310.501 57.199 310.501 53.5772C310.501 49.8961 309.729 46.6899 308.185 43.9587C306.701 41.2276 304.653 39.1198 302.04 37.6355C299.428 36.0918 296.459 35.3199 293.134 35.3199C289.809 35.3199 286.841 36.0918 284.228 37.6355C281.616 39.1198 279.538 41.2276 277.994 43.9587C276.45 46.6899 275.678 49.8961 275.678 53.5772C275.678 57.199 276.45 60.4052 277.994 63.1957C279.538 65.9269 281.616 68.0643 284.228 69.608C286.841 71.0924 289.779 71.8345 293.045 71.8345ZM353.691 29.7982C357.491 29.7982 360.815 30.5404 363.665 32.0247C366.575 33.4497 368.831 35.6465 370.434 38.6151C372.096 41.5838 372.928 45.3243 372.928 49.8367V77H366.604V50.4601C366.604 45.5321 365.358 41.8213 362.864 39.3276C360.43 36.7746 356.986 35.498 352.533 35.498C349.208 35.498 346.299 36.1808 343.805 37.5464C341.371 38.8526 339.471 40.7823 338.105 43.3353C336.799 45.829 336.146 48.857 336.146 52.4194V77H329.823V30.2435H335.879V43.0681L334.899 40.6635C336.383 37.2792 338.758 34.6371 342.024 32.7372C345.289 30.7779 349.178 29.7982 353.691 29.7982Z" fill="#0255FF"/>
<path d="M185.153 374V311.658H191.743V374H185.153ZM234.56 326.798C238.359 326.798 241.684 327.54 244.534 329.025C247.444 330.45 249.7 332.646 251.303 335.615C252.965 338.584 253.797 342.324 253.797 346.837V374H247.473V347.46C247.473 342.532 246.226 338.821 243.733 336.328C241.298 333.775 237.855 332.498 233.402 332.498C230.077 332.498 227.168 333.181 224.674 334.546C222.24 335.853 220.34 337.782 218.974 340.335C217.668 342.829 217.015 345.857 217.015 349.419V374H210.691V327.243H216.748V340.068L215.768 337.664C217.252 334.279 219.627 331.637 222.893 329.737C226.158 327.778 230.047 326.798 234.56 326.798Z" fill="#0255FF"/>
<path d="M34.1528 460V397.658H57.4866C62.7708 397.658 67.3128 398.519 71.1127 400.241C74.9126 401.903 77.8219 404.337 79.8406 407.544C81.9187 410.69 82.9577 414.52 82.9577 419.032C82.9577 423.426 81.9187 427.226 79.8406 430.432C77.8219 433.579 74.9126 436.013 71.1127 437.735C67.3128 439.457 62.7708 440.318 57.4866 440.318H37.8043L40.7433 437.201V460H34.1528ZM40.7433 437.735L37.8043 434.529H57.3084C63.5426 434.529 68.2628 433.193 71.469 430.521C74.7345 427.79 76.3673 423.96 76.3673 419.032C76.3673 414.045 74.7345 410.186 71.469 407.455C68.2628 404.723 63.5426 403.358 57.3084 403.358H37.8043L40.7433 400.241V437.735ZM94.7415 460V413.243H100.798V425.979L100.174 423.753C101.48 420.19 103.677 417.489 106.765 415.648C109.852 413.748 113.682 412.798 118.253 412.798V418.943C118.016 418.943 117.778 418.943 117.541 418.943C117.303 418.884 117.066 418.854 116.828 418.854C111.9 418.854 108.041 420.368 105.251 423.396C102.46 426.365 101.065 430.61 101.065 436.132V460H94.7415ZM148.415 460.445C143.903 460.445 139.836 459.436 136.214 457.417C132.652 455.339 129.832 452.519 127.754 448.957C125.675 445.335 124.636 441.208 124.636 436.577C124.636 431.887 125.675 427.76 127.754 424.198C129.832 420.635 132.652 417.845 136.214 415.826C139.777 413.808 143.844 412.798 148.415 412.798C153.047 412.798 157.143 413.808 160.706 415.826C164.327 417.845 167.148 420.635 169.166 424.198C171.244 427.76 172.284 431.887 172.284 436.577C172.284 441.208 171.244 445.335 169.166 448.957C167.148 452.519 164.327 455.339 160.706 457.417C157.084 459.436 152.987 460.445 148.415 460.445ZM148.415 454.835C151.8 454.835 154.798 454.092 157.41 452.608C160.023 451.064 162.071 448.927 163.556 446.196C165.099 443.405 165.871 440.199 165.871 436.577C165.871 432.896 165.099 429.69 163.556 426.959C162.071 424.228 160.023 422.12 157.41 420.635C154.798 419.092 151.829 418.32 148.504 418.32C145.18 418.32 142.211 419.092 139.598 420.635C136.986 422.12 134.908 424.228 133.364 426.959C131.821 429.69 131.049 432.896 131.049 436.577C131.049 440.199 131.821 443.405 133.364 446.196C134.908 448.927 136.986 451.064 139.598 452.608C142.211 454.092 145.15 454.835 148.415 454.835ZM205.142 477.723C200.868 477.723 196.771 477.1 192.852 475.853C188.934 474.606 185.757 472.825 183.323 470.509L186.529 465.7C188.726 467.659 191.427 469.203 194.633 470.331C197.899 471.518 201.343 472.112 204.964 472.112C210.902 472.112 215.266 470.717 218.056 467.926C220.847 465.195 222.242 460.92 222.242 455.102V443.435L223.133 435.419L222.509 427.404V413.243H228.565V454.3C228.565 462.375 226.576 468.283 222.598 472.023C218.68 475.823 212.861 477.723 205.142 477.723ZM203.985 458.219C199.532 458.219 195.524 457.269 191.962 455.369C188.399 453.41 185.579 450.708 183.501 447.264C181.482 443.821 180.473 439.872 180.473 435.419C180.473 430.966 181.482 427.048 183.501 423.664C185.579 420.22 188.399 417.548 191.962 415.648C195.524 413.748 199.532 412.798 203.985 412.798C208.141 412.798 211.881 413.659 215.206 415.381C218.531 417.103 221.173 419.656 223.133 423.04C225.092 426.424 226.072 430.551 226.072 435.419C226.072 440.288 225.092 444.414 223.133 447.799C221.173 451.183 218.531 453.766 215.206 455.547C211.881 457.328 208.141 458.219 203.985 458.219ZM204.608 452.608C208.052 452.608 211.109 451.896 213.781 450.471C216.453 448.986 218.561 446.968 220.105 444.414C221.648 441.802 222.42 438.804 222.42 435.419C222.42 432.035 221.648 429.066 220.105 426.513C218.561 423.96 216.453 421.971 213.781 420.546C211.109 419.062 208.052 418.32 204.608 418.32C201.224 418.32 198.166 419.062 195.435 420.546C192.763 421.971 190.655 423.96 189.112 426.513C187.627 429.066 186.885 432.035 186.885 435.419C186.885 438.804 187.627 441.802 189.112 444.414C190.655 446.968 192.763 448.986 195.435 450.471C198.166 451.896 201.224 452.608 204.608 452.608ZM246.161 460V413.243H252.217V425.979L251.594 423.753C252.9 420.19 255.097 417.489 258.184 415.648C261.271 413.748 265.101 412.798 269.673 412.798V418.943C269.435 418.943 269.198 418.943 268.96 418.943C268.723 418.884 268.485 418.854 268.248 418.854C263.32 418.854 259.46 420.368 256.67 423.396C253.879 426.365 252.484 430.61 252.484 436.132V460H246.161ZM300.636 460.445C295.768 460.445 291.493 459.436 287.812 457.417C284.131 455.339 281.251 452.519 279.173 448.957C277.095 445.335 276.056 441.208 276.056 436.577C276.056 431.946 277.035 427.849 278.995 424.287C281.013 420.725 283.745 417.934 287.188 415.915C290.691 413.837 294.61 412.798 298.944 412.798C303.338 412.798 307.227 413.808 310.611 415.826C314.055 417.786 316.756 420.576 318.716 424.198C320.675 427.76 321.655 431.887 321.655 436.577C321.655 436.874 321.625 437.201 321.565 437.557C321.565 437.854 321.565 438.18 321.565 438.537H280.865V433.816H318.181L315.688 435.687C315.688 432.302 314.945 429.304 313.461 426.692C312.036 424.02 310.077 421.942 307.583 420.457C305.089 418.973 302.21 418.231 298.944 418.231C295.738 418.231 292.858 418.973 290.305 420.457C287.752 421.942 285.763 424.02 284.338 426.692C282.913 429.363 282.201 432.421 282.201 435.865V436.844C282.201 440.407 282.973 443.554 284.517 446.285C286.12 448.957 288.316 451.064 291.107 452.608C293.957 454.092 297.193 454.835 300.814 454.835C303.664 454.835 306.307 454.33 308.741 453.32C311.235 452.311 313.372 450.767 315.153 448.689L318.716 452.786C316.637 455.28 314.025 457.18 310.878 458.486C307.791 459.792 304.377 460.445 300.636 460.445ZM347.083 460.445C343.223 460.445 339.572 459.911 336.128 458.842C332.684 457.714 329.983 456.319 328.024 454.656L330.874 449.669C332.774 451.094 335.208 452.341 338.177 453.41C341.145 454.419 344.262 454.924 347.528 454.924C351.981 454.924 355.187 454.241 357.146 452.875C359.106 451.45 360.085 449.58 360.085 447.264C360.085 445.543 359.521 444.207 358.393 443.257C357.324 442.247 355.899 441.505 354.118 441.03C352.337 440.496 350.348 440.051 348.151 439.694C345.954 439.338 343.758 438.922 341.561 438.447C339.423 437.972 337.464 437.29 335.683 436.399C333.902 435.449 332.447 434.173 331.319 432.57C330.25 430.966 329.716 428.829 329.716 426.157C329.716 423.604 330.428 421.318 331.853 419.3C333.278 417.281 335.356 415.707 338.087 414.579C340.878 413.392 344.262 412.798 348.24 412.798C351.268 412.798 354.296 413.214 357.324 414.045C360.352 414.817 362.846 415.856 364.805 417.162L362.045 422.239C359.967 420.814 357.74 419.804 355.365 419.211C352.99 418.557 350.615 418.231 348.24 418.231C344.025 418.231 340.908 418.973 338.889 420.457C336.93 421.882 335.95 423.723 335.95 425.979C335.95 427.76 336.484 429.156 337.553 430.165C338.681 431.174 340.136 431.976 341.917 432.57C343.758 433.104 345.747 433.549 347.884 433.905C350.081 434.262 352.248 434.707 354.385 435.241C356.582 435.716 358.571 436.399 360.352 437.29C362.193 438.121 363.648 439.338 364.716 440.941C365.845 442.485 366.409 444.533 366.409 447.086C366.409 449.817 365.637 452.192 364.093 454.211C362.609 456.17 360.412 457.714 357.503 458.842C354.653 459.911 351.179 460.445 347.083 460.445ZM390.569 460.445C386.71 460.445 383.058 459.911 379.614 458.842C376.171 457.714 373.469 456.319 371.51 454.656L374.36 449.669C376.26 451.094 378.694 452.341 381.663 453.41C384.632 454.419 387.749 454.924 391.014 454.924C395.467 454.924 398.673 454.241 400.633 452.875C402.592 451.45 403.572 449.58 403.572 447.264C403.572 445.543 403.008 444.207 401.879 443.257C400.811 442.247 399.386 441.505 397.605 441.03C395.823 440.496 393.834 440.051 391.638 439.694C389.441 439.338 387.244 438.922 385.047 438.447C382.91 437.972 380.95 437.29 379.169 436.399C377.388 435.449 375.933 434.173 374.805 432.57C373.737 430.966 373.202 428.829 373.202 426.157C373.202 423.604 373.915 421.318 375.34 419.3C376.765 417.281 378.843 415.707 381.574 414.579C384.364 413.392 387.749 412.798 391.727 412.798C394.755 412.798 397.783 413.214 400.811 414.045C403.839 414.817 406.332 415.856 408.292 417.162L405.531 422.239C403.453 420.814 401.226 419.804 398.851 419.211C396.477 418.557 394.102 418.231 391.727 418.231C387.511 418.231 384.394 418.973 382.375 420.457C380.416 421.882 379.436 423.723 379.436 425.979C379.436 427.76 379.971 429.156 381.039 430.165C382.168 431.174 383.622 431.976 385.403 432.57C387.244 433.104 389.233 433.549 391.37 433.905C393.567 434.262 395.734 434.707 397.872 435.241C400.069 435.716 402.058 436.399 403.839 437.29C405.679 438.121 407.134 439.338 408.203 440.941C409.331 442.485 409.895 444.533 409.895 447.086C409.895 449.817 409.123 452.192 407.579 454.211C406.095 456.17 403.898 457.714 400.989 458.842C398.139 459.911 394.666 460.445 390.569 460.445Z" fill="#0255FF"/>
<path d="M121.775 180.534C117.144 180.534 112.691 179.792 108.416 178.308C104.2 176.764 100.935 174.805 98.6193 172.43L101.202 167.353C103.399 169.491 106.338 171.302 110.019 172.786C113.76 174.211 117.678 174.924 121.775 174.924C125.694 174.924 128.87 174.449 131.304 173.499C133.798 172.489 135.609 171.153 136.737 169.491C137.924 167.828 138.518 165.988 138.518 163.969C138.518 161.535 137.806 159.576 136.381 158.091C135.015 156.607 133.204 155.449 130.948 154.618C128.692 153.727 126.198 152.955 123.467 152.302C120.736 151.649 118.005 150.966 115.274 150.254C112.542 149.482 110.019 148.473 107.703 147.226C105.447 145.979 103.607 144.346 102.182 142.328C100.816 140.25 100.133 137.548 100.133 134.223C100.133 131.136 100.935 128.316 102.538 125.762C104.2 123.15 106.724 121.072 110.108 119.528C113.492 117.925 117.827 117.124 123.111 117.124C126.614 117.124 130.087 117.628 133.531 118.638C136.975 119.588 139.943 120.924 142.437 122.645L140.21 127.9C137.539 126.119 134.689 124.812 131.661 123.981C128.692 123.15 125.812 122.734 123.022 122.734C119.281 122.734 116.194 123.239 113.76 124.248C111.325 125.258 109.514 126.623 108.327 128.345C107.199 130.008 106.635 131.908 106.635 134.045C106.635 136.479 107.318 138.439 108.683 139.923C110.108 141.407 111.949 142.565 114.205 143.396C116.52 144.228 119.044 144.97 121.775 145.623C124.506 146.276 127.208 146.988 129.879 147.76C132.611 148.532 135.104 149.541 137.36 150.788C139.676 151.976 141.517 153.579 142.882 155.598C144.307 157.616 145.02 160.258 145.02 163.524C145.02 166.552 144.188 169.372 142.526 171.985C140.863 174.538 138.31 176.616 134.867 178.219C131.482 179.763 127.119 180.534 121.775 180.534ZM172.827 180.445C168.434 180.445 165.049 179.258 162.674 176.883C160.299 174.508 159.112 171.153 159.112 166.819V122.913H165.435V166.463C165.435 169.194 166.118 171.302 167.484 172.786C168.909 174.27 170.927 175.013 173.54 175.013C176.33 175.013 178.646 174.211 180.486 172.608L182.713 177.15C181.466 178.278 179.952 179.109 178.171 179.644C176.449 180.178 174.668 180.445 172.827 180.445ZM150.74 138.498V133.243H179.685V138.498H150.74ZM211.63 180.445C207.118 180.445 203.051 179.436 199.429 177.417C195.867 175.339 193.046 172.519 190.968 168.957C188.89 165.335 187.851 161.208 187.851 156.577C187.851 151.887 188.89 147.76 190.968 144.198C193.046 140.635 195.867 137.845 199.429 135.826C202.991 133.808 207.058 132.798 211.63 132.798C216.261 132.798 220.358 133.808 223.92 135.826C227.542 137.845 230.362 140.635 232.381 144.198C234.459 147.76 235.498 151.887 235.498 156.577C235.498 161.208 234.459 165.335 232.381 168.957C230.362 172.519 227.542 175.339 223.92 177.417C220.299 179.436 216.202 180.445 211.63 180.445ZM211.63 174.835C215.014 174.835 218.013 174.092 220.625 172.608C223.238 171.064 225.286 168.927 226.77 166.196C228.314 163.405 229.086 160.199 229.086 156.577C229.086 152.896 228.314 149.69 226.77 146.959C225.286 144.228 223.238 142.12 220.625 140.635C218.013 139.092 215.044 138.32 211.719 138.32C208.394 138.32 205.426 139.092 202.813 140.635C200.201 142.12 198.123 144.228 196.579 146.959C195.035 149.69 194.264 152.896 194.264 156.577C194.264 160.199 195.035 163.405 196.579 166.196C198.123 168.927 200.201 171.064 202.813 172.608C205.426 174.092 208.365 174.835 211.63 174.835ZM267.823 180.445C263.192 180.445 259.036 179.436 255.355 177.417C251.733 175.339 248.883 172.519 246.805 168.957C244.727 165.335 243.688 161.208 243.688 156.577C243.688 151.887 244.727 147.76 246.805 144.198C248.883 140.635 251.733 137.845 255.355 135.826C259.036 133.808 263.192 132.798 267.823 132.798C271.801 132.798 275.393 133.57 278.599 135.114C281.805 136.657 284.329 138.973 286.169 142.06L281.449 145.267C279.846 142.892 277.857 141.14 275.482 140.012C273.107 138.884 270.524 138.32 267.734 138.32C264.409 138.32 261.411 139.092 258.739 140.635C256.067 142.12 253.959 144.228 252.416 146.959C250.872 149.69 250.1 152.896 250.1 156.577C250.1 160.258 250.872 163.465 252.416 166.196C253.959 168.927 256.067 171.064 258.739 172.608C261.411 174.092 264.409 174.835 267.734 174.835C270.524 174.835 273.107 174.27 275.482 173.142C277.857 172.014 279.846 170.292 281.449 167.977L286.169 171.183C284.329 174.211 281.805 176.527 278.599 178.13C275.393 179.673 271.801 180.445 267.823 180.445ZM302.883 167.888L303.061 159.783L332.183 133.243H339.932L319.359 152.926L315.796 155.954L302.883 167.888ZM297.895 180V113.917H304.219V180H297.895ZM334.143 180L314.639 155.687L318.735 150.788L341.891 180H334.143Z" fill="#0255FF"/>
</g>
<defs>
<clipPath id="clip0_1_91">
<rect width="438" height="622" fill="white"/>
</clipPath>
</defs>
</svg>
