<svg width="438" height="622" viewBox="0 0 438 622" fill="none" xmlns="http://www.w3.org/2000/svg">
<g clip-path="url(#clip0_1_3)">
<path d="M437.32 0H0V621.25H437.32V0Z" fill="#141414"/>
<path d="M75.4729 407.491C74.91 406.392 73.335 406.39 72.7779 407.491L69.3552 413.945L61.4642 398.714C60.7773 397.44 58.8421 397.762 58.6175 399.188L50.671 450.412L83.1146 422.344L75.4729 407.491Z" fill="#FFA000"/>
<path d="M76.6177 427.964L69.3552 413.947L50.671 450.412L76.6177 427.964Z" fill="#F57F17"/>
<path d="M91.2944 412.264C91.1048 411.094 89.6683 410.63 88.8298 411.47L50.671 450.42L71.7862 461.523C73.1235 462.27 74.7525 462.27 76.0898 461.525L97.3333 450.424L91.2944 412.264Z" fill="#FFCA28"/>
<path d="M74.6324 297V274.6H83.0164C84.915 274.6 86.547 274.909 87.9124 275.528C89.2777 276.125 90.323 277 91.0484 278.152C91.795 279.283 92.1684 280.659 92.1684 282.28C92.1684 283.859 91.795 285.224 91.0484 286.376C90.323 287.507 89.2777 288.381 87.9124 289C86.547 289.619 84.915 289.928 83.0164 289.928H75.9444L77.0004 288.808V297H74.6324ZM77.0004 289L75.9444 287.848H82.9524C85.1924 287.848 86.8884 287.368 88.0404 286.408C89.2137 285.427 89.8004 284.051 89.8004 282.28C89.8004 280.488 89.2137 279.101 88.0404 278.12C86.8884 277.139 85.1924 276.648 82.9524 276.648H75.9444L77.0004 275.528V289ZM103.563 297.16C101.942 297.16 100.48 296.797 99.1789 296.072C97.8989 295.325 96.8855 294.312 96.1389 293.032C95.3922 291.731 95.0189 290.248 95.0189 288.584C95.0189 286.899 95.3922 285.416 96.1389 284.136C96.8855 282.856 97.8989 281.853 99.1789 281.128C100.459 280.403 101.92 280.04 103.563 280.04C105.227 280.04 106.699 280.403 107.979 281.128C109.28 281.853 110.294 282.856 111.019 284.136C111.766 285.416 112.139 286.899 112.139 288.584C112.139 290.248 111.766 291.731 111.019 293.032C110.294 294.312 109.28 295.325 107.979 296.072C106.678 296.797 105.206 297.16 103.563 297.16ZM103.563 295.144C104.779 295.144 105.856 294.877 106.795 294.344C107.734 293.789 108.47 293.021 109.003 292.04C109.558 291.037 109.835 289.885 109.835 288.584C109.835 287.261 109.558 286.109 109.003 285.128C108.47 284.147 107.734 283.389 106.795 282.856C105.856 282.301 104.79 282.024 103.595 282.024C102.4 282.024 101.334 282.301 100.395 282.856C99.4562 283.389 98.7095 284.147 98.1549 285.128C97.6002 286.109 97.3229 287.261 97.3229 288.584C97.3229 289.885 97.6002 291.037 98.1549 292.04C98.7095 293.021 99.4562 293.789 100.395 294.344C101.334 294.877 102.39 295.144 103.563 295.144ZM121.289 297.16C119.903 297.16 118.591 296.968 117.353 296.584C116.116 296.179 115.145 295.677 114.441 295.08L115.465 293.288C116.148 293.8 117.023 294.248 118.089 294.632C119.156 294.995 120.276 295.176 121.449 295.176C123.049 295.176 124.201 294.931 124.905 294.44C125.609 293.928 125.961 293.256 125.961 292.424C125.961 291.805 125.759 291.325 125.353 290.984C124.969 290.621 124.457 290.355 123.817 290.184C123.177 289.992 122.463 289.832 121.673 289.704C120.884 289.576 120.095 289.427 119.305 289.256C118.537 289.085 117.833 288.84 117.193 288.52C116.553 288.179 116.031 287.72 115.625 287.144C115.241 286.568 115.049 285.8 115.049 284.84C115.049 283.923 115.305 283.101 115.817 282.376C116.329 281.651 117.076 281.085 118.057 280.68C119.06 280.253 120.276 280.04 121.705 280.04C122.793 280.04 123.881 280.189 124.969 280.488C126.057 280.765 126.953 281.139 127.657 281.608L126.665 283.432C125.919 282.92 125.119 282.557 124.265 282.344C123.412 282.109 122.559 281.992 121.705 281.992C120.191 281.992 119.071 282.259 118.345 282.792C117.641 283.304 117.289 283.965 117.289 284.776C117.289 285.416 117.481 285.917 117.865 286.28C118.271 286.643 118.793 286.931 119.433 287.144C120.095 287.336 120.809 287.496 121.577 287.624C122.367 287.752 123.145 287.912 123.913 288.104C124.703 288.275 125.417 288.52 126.057 288.84C126.719 289.139 127.241 289.576 127.625 290.152C128.031 290.707 128.233 291.443 128.233 292.36C128.233 293.341 127.956 294.195 127.401 294.92C126.868 295.624 126.079 296.179 125.033 296.584C124.009 296.968 122.761 297.16 121.289 297.16ZM137.714 297.16C136.136 297.16 134.92 296.733 134.066 295.88C133.213 295.027 132.786 293.821 132.786 292.264V276.488H135.058V292.136C135.058 293.117 135.304 293.875 135.794 294.408C136.306 294.941 137.032 295.208 137.97 295.208C138.973 295.208 139.805 294.92 140.466 294.344L141.266 295.976C140.818 296.381 140.274 296.68 139.634 296.872C139.016 297.064 138.376 297.16 137.714 297.16ZM129.778 282.088V280.2H140.178V282.088H129.778ZM144.339 301.672L145.747 295.752L146.003 297.128C145.512 297.128 145.096 296.968 144.755 296.648C144.435 296.328 144.275 295.912 144.275 295.4C144.275 294.888 144.435 294.472 144.755 294.152C145.096 293.832 145.502 293.672 145.971 293.672C146.462 293.672 146.856 293.843 147.155 294.184C147.475 294.525 147.635 294.931 147.635 295.4C147.635 295.571 147.624 295.741 147.603 295.912C147.582 296.083 147.539 296.275 147.475 296.488C147.411 296.701 147.326 296.957 147.219 297.256L145.875 301.672H144.339ZM167.559 297.16C165.959 297.16 164.519 296.797 163.239 296.072C161.98 295.347 160.988 294.344 160.263 293.064C159.538 291.763 159.175 290.269 159.175 288.584C159.175 286.877 159.538 285.384 160.263 284.104C160.988 282.824 161.98 281.832 163.239 281.128C164.519 280.403 165.959 280.04 167.559 280.04C169.031 280.04 170.343 280.371 171.495 281.032C172.668 281.693 173.596 282.664 174.279 283.944C174.983 285.203 175.335 286.749 175.335 288.584C175.335 290.397 174.994 291.944 174.311 293.224C173.628 294.504 172.7 295.485 171.527 296.168C170.375 296.829 169.052 297.16 167.559 297.16ZM167.719 295.144C168.914 295.144 169.98 294.877 170.919 294.344C171.879 293.789 172.626 293.021 173.159 292.04C173.714 291.037 173.991 289.885 173.991 288.584C173.991 287.261 173.714 286.109 173.159 285.128C172.626 284.147 171.879 283.389 170.919 282.856C169.98 282.301 168.914 282.024 167.719 282.024C166.546 282.024 165.49 282.301 164.551 282.856C163.612 283.389 162.866 284.147 162.311 285.128C161.756 286.109 161.479 287.261 161.479 288.584C161.479 289.885 161.756 291.037 162.311 292.04C162.866 293.021 163.612 293.789 164.551 294.344C165.49 294.877 166.546 295.144 167.719 295.144ZM174.055 297V291.944L174.279 288.552L173.959 285.16V273.256H176.231V297H174.055ZM182.559 297V280.2H184.831V297H182.559ZM183.711 276.488C183.241 276.488 182.847 276.328 182.527 276.008C182.207 275.688 182.047 275.304 182.047 274.856C182.047 274.408 182.207 274.035 182.527 273.736C182.847 273.416 183.241 273.256 183.711 273.256C184.18 273.256 184.575 273.405 184.895 273.704C185.215 274.003 185.375 274.376 185.375 274.824C185.375 275.293 185.215 275.688 184.895 276.008C184.596 276.328 184.201 276.488 183.711 276.488ZM195.664 297.16C194.278 297.16 192.966 296.968 191.728 296.584C190.491 296.179 189.52 295.677 188.816 295.08L189.84 293.288C190.523 293.8 191.398 294.248 192.464 294.632C193.531 294.995 194.651 295.176 195.824 295.176C197.424 295.176 198.576 294.931 199.28 294.44C199.984 293.928 200.336 293.256 200.336 292.424C200.336 291.805 200.134 291.325 199.728 290.984C199.344 290.621 198.832 290.355 198.192 290.184C197.552 289.992 196.838 289.832 196.048 289.704C195.259 289.576 194.47 289.427 193.68 289.256C192.912 289.085 192.208 288.84 191.568 288.52C190.928 288.179 190.406 287.72 190 287.144C189.616 286.568 189.424 285.8 189.424 284.84C189.424 283.923 189.68 283.101 190.192 282.376C190.704 281.651 191.451 281.085 192.432 280.68C193.435 280.253 194.651 280.04 196.08 280.04C197.168 280.04 198.256 280.189 199.344 280.488C200.432 280.765 201.328 281.139 202.032 281.608L201.04 283.432C200.294 282.92 199.494 282.557 198.64 282.344C197.787 282.109 196.934 281.992 196.08 281.992C194.566 281.992 193.446 282.259 192.72 282.792C192.016 283.304 191.664 283.965 191.664 284.776C191.664 285.416 191.856 285.917 192.24 286.28C192.646 286.643 193.168 286.931 193.808 287.144C194.47 287.336 195.184 287.496 195.952 287.624C196.742 287.752 197.52 287.912 198.288 288.104C199.078 288.275 199.792 288.52 200.432 288.84C201.094 289.139 201.616 289.576 202 290.152C202.406 290.707 202.608 291.443 202.608 292.36C202.608 293.341 202.331 294.195 201.776 294.92C201.243 295.624 200.454 296.179 199.408 296.584C198.384 296.968 197.136 297.16 195.664 297.16ZM213.753 297.16C212.089 297.16 210.596 296.797 209.273 296.072C207.972 295.325 206.948 294.312 206.201 293.032C205.455 291.731 205.081 290.248 205.081 288.584C205.081 286.899 205.455 285.416 206.201 284.136C206.948 282.856 207.972 281.853 209.273 281.128C210.596 280.403 212.089 280.04 213.753 280.04C215.183 280.04 216.473 280.317 217.625 280.872C218.777 281.427 219.684 282.259 220.345 283.368L218.649 284.52C218.073 283.667 217.359 283.037 216.505 282.632C215.652 282.227 214.724 282.024 213.721 282.024C212.527 282.024 211.449 282.301 210.489 282.856C209.529 283.389 208.772 284.147 208.217 285.128C207.663 286.109 207.385 287.261 207.385 288.584C207.385 289.907 207.663 291.059 208.217 292.04C208.772 293.021 209.529 293.789 210.489 294.344C211.449 294.877 212.527 295.144 213.721 295.144C214.724 295.144 215.652 294.941 216.505 294.536C217.359 294.131 218.073 293.512 218.649 292.68L220.345 293.832C219.684 294.92 218.777 295.752 217.625 296.328C216.473 296.883 215.183 297.16 213.753 297.16ZM231.375 297.16C229.754 297.16 228.293 296.797 226.991 296.072C225.711 295.325 224.698 294.312 223.951 293.032C223.205 291.731 222.831 290.248 222.831 288.584C222.831 286.899 223.205 285.416 223.951 284.136C224.698 282.856 225.711 281.853 226.991 281.128C228.271 280.403 229.733 280.04 231.375 280.04C233.039 280.04 234.511 280.403 235.791 281.128C237.093 281.853 238.106 282.856 238.831 284.136C239.578 285.416 239.951 286.899 239.951 288.584C239.951 290.248 239.578 291.731 238.831 293.032C238.106 294.312 237.093 295.325 235.791 296.072C234.49 296.797 233.018 297.16 231.375 297.16ZM231.375 295.144C232.591 295.144 233.669 294.877 234.607 294.344C235.546 293.789 236.282 293.021 236.815 292.04C237.37 291.037 237.647 289.885 237.647 288.584C237.647 287.261 237.37 286.109 236.815 285.128C236.282 284.147 235.546 283.389 234.607 282.856C233.669 282.301 232.602 282.024 231.407 282.024C230.213 282.024 229.146 282.301 228.207 282.856C227.269 283.389 226.522 284.147 225.967 285.128C225.413 286.109 225.135 287.261 225.135 288.584C225.135 289.885 225.413 291.037 225.967 292.04C226.522 293.021 227.269 293.789 228.207 294.344C229.146 294.877 230.202 295.144 231.375 295.144ZM248.441 297L240.985 280.2H243.353L250.201 295.784H249.081L256.025 280.2H258.265L250.777 297H248.441ZM268.132 297.16C266.383 297.16 264.847 296.797 263.524 296.072C262.201 295.325 261.167 294.312 260.42 293.032C259.673 291.731 259.3 290.248 259.3 288.584C259.3 286.92 259.652 285.448 260.356 284.168C261.081 282.888 262.063 281.885 263.3 281.16C264.559 280.413 265.967 280.04 267.524 280.04C269.103 280.04 270.5 280.403 271.716 281.128C272.953 281.832 273.924 282.835 274.628 284.136C275.332 285.416 275.684 286.899 275.684 288.584C275.684 288.691 275.673 288.808 275.652 288.936C275.652 289.043 275.652 289.16 275.652 289.288H261.028V287.592H274.436L273.54 288.264C273.54 287.048 273.273 285.971 272.74 285.032C272.228 284.072 271.524 283.325 270.628 282.792C269.732 282.259 268.697 281.992 267.524 281.992C266.372 281.992 265.337 282.259 264.42 282.792C263.503 283.325 262.788 284.072 262.276 285.032C261.764 285.992 261.508 287.091 261.508 288.328V288.68C261.508 289.96 261.785 291.091 262.34 292.072C262.916 293.032 263.705 293.789 264.708 294.344C265.732 294.877 266.895 295.144 268.196 295.144C269.22 295.144 270.169 294.963 271.044 294.6C271.94 294.237 272.708 293.683 273.348 292.936L274.628 294.408C273.881 295.304 272.943 295.987 271.812 296.456C270.703 296.925 269.476 297.16 268.132 297.16ZM280.309 297V280.2H282.485V284.776L282.261 283.976C282.73 282.696 283.519 281.725 284.629 281.064C285.738 280.381 287.114 280.04 288.757 280.04V282.248C288.671 282.248 288.586 282.248 288.501 282.248C288.415 282.227 288.33 282.216 288.245 282.216C286.474 282.216 285.087 282.76 284.085 283.848C283.082 284.915 282.581 286.44 282.581 288.424V297H280.309ZM291.464 301.672L292.872 295.752L293.128 297.128C292.637 297.128 292.221 296.968 291.88 296.648C291.56 296.328 291.4 295.912 291.4 295.4C291.4 294.888 291.56 294.472 291.88 294.152C292.221 293.832 292.627 293.672 293.096 293.672C293.587 293.672 293.981 293.843 294.28 294.184C294.6 294.525 294.76 294.931 294.76 295.4C294.76 295.571 294.749 295.741 294.728 295.912C294.707 296.083 294.664 296.275 294.6 296.488C294.536 296.701 294.451 296.957 294.344 297.256L293 301.672H291.464ZM318.524 297V293.288L318.428 292.68V286.472C318.428 285.043 318.023 283.944 317.212 283.176C316.423 282.408 315.239 282.024 313.66 282.024C312.572 282.024 311.537 282.205 310.556 282.568C309.575 282.931 308.743 283.411 308.06 284.008L307.036 282.312C307.889 281.587 308.913 281.032 310.108 280.648C311.303 280.243 312.561 280.04 313.884 280.04C316.06 280.04 317.735 280.584 318.908 281.672C320.103 282.739 320.7 284.371 320.7 286.568V297H318.524ZM312.732 297.16C311.473 297.16 310.375 296.957 309.436 296.552C308.519 296.125 307.815 295.549 307.324 294.824C306.833 294.077 306.588 293.224 306.588 292.264C306.588 291.389 306.791 290.6 307.196 289.896C307.623 289.171 308.305 288.595 309.244 288.168C310.204 287.72 311.484 287.496 313.084 287.496H318.876V289.192H313.148C311.527 289.192 310.396 289.48 309.756 290.056C309.137 290.632 308.828 291.347 308.828 292.2C308.828 293.16 309.201 293.928 309.948 294.504C310.695 295.08 311.74 295.368 313.084 295.368C314.364 295.368 315.463 295.08 316.38 294.504C317.319 293.907 318.001 293.053 318.428 291.944L318.94 293.512C318.513 294.621 317.767 295.507 316.7 296.168C315.655 296.829 314.332 297.16 312.732 297.16ZM335.447 280.04C336.812 280.04 338.007 280.307 339.031 280.84C340.076 281.352 340.887 282.141 341.463 283.208C342.06 284.275 342.359 285.619 342.359 287.24V297H340.087V287.464C340.087 285.693 339.639 284.36 338.743 283.464C337.868 282.547 336.631 282.088 335.031 282.088C333.836 282.088 332.791 282.333 331.895 282.824C331.02 283.293 330.338 283.987 329.847 284.904C329.378 285.8 329.143 286.888 329.143 288.168V297H326.871V280.2H329.047V284.808L328.695 283.944C329.228 282.728 330.082 281.779 331.255 281.096C332.428 280.392 333.826 280.04 335.447 280.04ZM355.184 297.16C353.584 297.16 352.144 296.797 350.864 296.072C349.605 295.347 348.613 294.344 347.888 293.064C347.163 291.763 346.8 290.269 346.8 288.584C346.8 286.877 347.163 285.384 347.888 284.104C348.613 282.824 349.605 281.832 350.864 281.128C352.144 280.403 353.584 280.04 355.184 280.04C356.656 280.04 357.968 280.371 359.12 281.032C360.293 281.693 361.221 282.664 361.904 283.944C362.608 285.203 362.96 286.749 362.96 288.584C362.96 290.397 362.619 291.944 361.936 293.224C361.253 294.504 360.325 295.485 359.152 296.168C358 296.829 356.677 297.16 355.184 297.16ZM355.344 295.144C356.539 295.144 357.605 294.877 358.544 294.344C359.504 293.789 360.251 293.021 360.784 292.04C361.339 291.037 361.616 289.885 361.616 288.584C361.616 287.261 361.339 286.109 360.784 285.128C360.251 284.147 359.504 283.389 358.544 282.856C357.605 282.301 356.539 282.024 355.344 282.024C354.171 282.024 353.115 282.301 352.176 282.856C351.237 283.389 350.491 284.147 349.936 285.128C349.381 286.109 349.104 287.261 349.104 288.584C349.104 289.885 349.381 291.037 349.936 292.04C350.491 293.021 351.237 293.789 352.176 294.344C353.115 294.877 354.171 295.144 355.344 295.144ZM361.68 297V291.944L361.904 288.552L361.584 285.16V273.256H363.856V297H361.68ZM46.7894 336.16C45.4027 336.16 44.0907 335.968 42.8534 335.584C41.616 335.179 40.6454 334.677 39.9414 334.08L40.9654 332.288C41.648 332.8 42.5227 333.248 43.5894 333.632C44.656 333.995 45.776 334.176 46.9494 334.176C48.5494 334.176 49.7014 333.931 50.4054 333.44C51.1094 332.928 51.4614 332.256 51.4614 331.424C51.4614 330.805 51.2587 330.325 50.8534 329.984C50.4694 329.621 49.9574 329.355 49.3174 329.184C48.6774 328.992 47.9627 328.832 47.1734 328.704C46.384 328.576 45.5947 328.427 44.8054 328.256C44.0374 328.085 43.3334 327.84 42.6934 327.52C42.0534 327.179 41.5307 326.72 41.1254 326.144C40.7414 325.568 40.5494 324.8 40.5494 323.84C40.5494 322.923 40.8054 322.101 41.3174 321.376C41.8294 320.651 42.576 320.085 43.5574 319.68C44.56 319.253 45.776 319.04 47.2054 319.04C48.2934 319.04 49.3814 319.189 50.4694 319.488C51.5574 319.765 52.4534 320.139 53.1574 320.608L52.1654 322.432C51.4187 321.92 50.6187 321.557 49.7654 321.344C48.912 321.109 48.0587 320.992 47.2054 320.992C45.6907 320.992 44.5707 321.259 43.8454 321.792C43.1414 322.304 42.7894 322.965 42.7894 323.776C42.7894 324.416 42.9814 324.917 43.3654 325.28C43.7707 325.643 44.2934 325.931 44.9334 326.144C45.5947 326.336 46.3094 326.496 47.0774 326.624C47.8667 326.752 48.6454 326.912 49.4134 327.104C50.2027 327.275 50.9174 327.52 51.5574 327.84C52.2187 328.139 52.7414 328.576 53.1254 329.152C53.5307 329.707 53.7334 330.443 53.7334 331.36C53.7334 332.341 53.456 333.195 52.9014 333.92C52.368 334.624 51.5787 335.179 50.5334 335.584C49.5094 335.968 48.2614 336.16 46.7894 336.16ZM66.4784 319.04C67.8437 319.04 69.0384 319.307 70.0624 319.84C71.1077 320.352 71.9184 321.141 72.4944 322.208C73.0917 323.275 73.3904 324.619 73.3904 326.24V336H71.1184V326.464C71.1184 324.693 70.6704 323.36 69.7744 322.464C68.8997 321.547 67.6624 321.088 66.0624 321.088C64.8677 321.088 63.8224 321.333 62.9264 321.824C62.0517 322.293 61.369 322.987 60.8784 323.904C60.409 324.8 60.1744 325.888 60.1744 327.168V336H57.9024V312.256H60.1744V323.808L59.7264 322.944C60.2597 321.728 61.113 320.779 62.2864 320.096C63.4597 319.392 64.857 319.04 66.4784 319.04ZM90.0554 336V332.288L89.9594 331.68V325.472C89.9594 324.043 89.554 322.944 88.7434 322.176C87.954 321.408 86.77 321.024 85.1914 321.024C84.1034 321.024 83.0687 321.205 82.0874 321.568C81.106 321.931 80.274 322.411 79.5914 323.008L78.5674 321.312C79.4207 320.587 80.4447 320.032 81.6394 319.648C82.834 319.243 84.0927 319.04 85.4154 319.04C87.5914 319.04 89.266 319.584 90.4394 320.672C91.634 321.739 92.2314 323.371 92.2314 325.568V336H90.0554ZM84.2634 336.16C83.0047 336.16 81.906 335.957 80.9674 335.552C80.05 335.125 79.346 334.549 78.8554 333.824C78.3647 333.077 78.1194 332.224 78.1194 331.264C78.1194 330.389 78.322 329.6 78.7274 328.896C79.154 328.171 79.8367 327.595 80.7754 327.168C81.7354 326.72 83.0154 326.496 84.6154 326.496H90.4074V328.192H84.6794C83.058 328.192 81.9274 328.48 81.2874 329.056C80.6687 329.632 80.3594 330.347 80.3594 331.2C80.3594 332.16 80.7327 332.928 81.4794 333.504C82.226 334.08 83.2714 334.368 84.6154 334.368C85.8954 334.368 86.994 334.08 87.9114 333.504C88.85 332.907 89.5327 332.053 89.9594 330.944L90.4714 332.512C90.0447 333.621 89.298 334.507 88.2314 335.168C87.186 335.829 85.8634 336.16 84.2634 336.16ZM98.4024 336V319.2H100.578V323.776L100.354 322.976C100.824 321.696 101.613 320.725 102.722 320.064C103.832 319.381 105.208 319.04 106.85 319.04V321.248C106.765 321.248 106.68 321.248 106.594 321.248C106.509 321.227 106.424 321.216 106.338 321.216C104.568 321.216 103.181 321.76 102.178 322.848C101.176 323.915 100.674 325.44 100.674 327.424V336H98.4024ZM117.976 336.16C116.227 336.16 114.691 335.797 113.368 335.072C112.045 334.325 111.011 333.312 110.264 332.032C109.517 330.731 109.144 329.248 109.144 327.584C109.144 325.92 109.496 324.448 110.2 323.168C110.925 321.888 111.907 320.885 113.144 320.16C114.403 319.413 115.811 319.04 117.368 319.04C118.947 319.04 120.344 319.403 121.56 320.128C122.797 320.832 123.768 321.835 124.472 323.136C125.176 324.416 125.528 325.899 125.528 327.584C125.528 327.691 125.517 327.808 125.496 327.936C125.496 328.043 125.496 328.16 125.496 328.288H110.872V326.592H124.28L123.384 327.264C123.384 326.048 123.117 324.971 122.584 324.032C122.072 323.072 121.368 322.325 120.472 321.792C119.576 321.259 118.541 320.992 117.368 320.992C116.216 320.992 115.181 321.259 114.264 321.792C113.347 322.325 112.632 323.072 112.12 324.032C111.608 324.992 111.352 326.091 111.352 327.328V327.68C111.352 328.96 111.629 330.091 112.184 331.072C112.76 332.032 113.549 332.789 114.552 333.344C115.576 333.877 116.739 334.144 118.04 334.144C119.064 334.144 120.013 333.963 120.888 333.6C121.784 333.237 122.552 332.683 123.192 331.936L124.472 333.408C123.725 334.304 122.787 334.987 121.656 335.456C120.547 335.925 119.32 336.16 117.976 336.16ZM141.951 336L135.615 319.2H137.791L143.551 334.784H142.559L148.479 319.2H150.431L156.287 334.784H155.295L161.151 319.2H163.231L156.863 336H154.719L149.087 321.344H149.759L144.095 336H141.951ZM173.032 336.16C171.41 336.16 169.949 335.797 168.648 335.072C167.368 334.325 166.354 333.312 165.608 332.032C164.861 330.731 164.488 329.248 164.488 327.584C164.488 325.899 164.861 324.416 165.608 323.136C166.354 321.856 167.368 320.853 168.648 320.128C169.928 319.403 171.389 319.04 173.032 319.04C174.696 319.04 176.168 319.403 177.448 320.128C178.749 320.853 179.762 321.856 180.488 323.136C181.234 324.416 181.608 325.899 181.608 327.584C181.608 329.248 181.234 330.731 180.488 332.032C179.762 333.312 178.749 334.325 177.448 335.072C176.146 335.797 174.674 336.16 173.032 336.16ZM173.032 334.144C174.248 334.144 175.325 333.877 176.264 333.344C177.202 332.789 177.938 332.021 178.472 331.04C179.026 330.037 179.304 328.885 179.304 327.584C179.304 326.261 179.026 325.109 178.472 324.128C177.938 323.147 177.202 322.389 176.264 321.856C175.325 321.301 174.258 321.024 173.064 321.024C171.869 321.024 170.802 321.301 169.864 321.856C168.925 322.389 168.178 323.147 167.624 324.128C167.069 325.109 166.792 326.261 166.792 327.584C166.792 328.885 167.069 330.037 167.624 331.04C168.178 332.021 168.925 332.789 169.864 333.344C170.802 333.877 171.858 334.144 173.032 334.144ZM186.246 336V319.2H188.422V323.776L188.198 322.976C188.667 321.696 189.457 320.725 190.566 320.064C191.675 319.381 193.051 319.04 194.694 319.04V321.248C194.609 321.248 194.523 321.248 194.438 321.248C194.353 321.227 194.267 321.216 194.182 321.216C192.411 321.216 191.025 321.76 190.022 322.848C189.019 323.915 188.518 325.44 188.518 327.424V336H186.246ZM200.632 331.648L200.696 328.736L211.16 319.2H213.944L206.552 326.272L205.272 327.36L200.632 331.648ZM198.84 336V312.256H201.112V336H198.84ZM211.864 336L204.856 327.264L206.328 325.504L214.648 336H211.864ZM224.25 336.16C222.629 336.16 221.168 335.797 219.866 335.072C218.586 334.325 217.573 333.312 216.826 332.032C216.08 330.731 215.706 329.248 215.706 327.584C215.706 325.899 216.08 324.416 216.826 323.136C217.573 321.856 218.586 320.853 219.866 320.128C221.146 319.403 222.608 319.04 224.25 319.04C225.914 319.04 227.386 319.403 228.666 320.128C229.968 320.853 230.981 321.856 231.706 323.136C232.453 324.416 232.826 325.899 232.826 327.584C232.826 329.248 232.453 330.731 231.706 332.032C230.981 333.312 229.968 334.325 228.666 335.072C227.365 335.797 225.893 336.16 224.25 336.16ZM224.25 334.144C225.466 334.144 226.544 333.877 227.482 333.344C228.421 332.789 229.157 332.021 229.69 331.04C230.245 330.037 230.522 328.885 230.522 327.584C230.522 326.261 230.245 325.109 229.69 324.128C229.157 323.147 228.421 322.389 227.482 321.856C226.544 321.301 225.477 321.024 224.282 321.024C223.088 321.024 222.021 321.301 221.082 321.856C220.144 322.389 219.397 323.147 218.842 324.128C218.288 325.109 218.01 326.261 218.01 327.584C218.01 328.885 218.288 330.037 218.842 331.04C219.397 332.021 220.144 332.789 221.082 333.344C222.021 333.877 223.077 334.144 224.25 334.144ZM244.409 336.16C242.98 336.16 241.732 335.893 240.665 335.36C239.598 334.827 238.766 334.027 238.169 332.96C237.593 331.893 237.305 330.56 237.305 328.96V319.2H239.577V328.704C239.577 330.496 240.014 331.851 240.889 332.768C241.785 333.664 243.033 334.112 244.633 334.112C245.806 334.112 246.82 333.877 247.673 333.408C248.548 332.917 249.209 332.213 249.657 331.296C250.126 330.379 250.361 329.28 250.361 328V319.2H252.633V336H250.457V331.392L250.809 332.224C250.276 333.461 249.444 334.432 248.313 335.136C247.204 335.819 245.902 336.16 244.409 336.16ZM264.277 336.16C262.698 336.16 261.482 335.733 260.629 334.88C259.776 334.027 259.349 332.821 259.349 331.264V315.488H261.621V331.136C261.621 332.117 261.866 332.875 262.357 333.408C262.869 333.941 263.594 334.208 264.533 334.208C265.536 334.208 266.368 333.92 267.029 333.344L267.829 334.976C267.381 335.381 266.837 335.68 266.197 335.872C265.578 336.064 264.938 336.16 264.277 336.16ZM256.341 321.088V319.2H266.741V321.088H256.341ZM284.852 336.16C283.465 336.16 282.153 335.968 280.916 335.584C279.679 335.179 278.708 334.677 278.004 334.08L279.028 332.288C279.711 332.8 280.585 333.248 281.652 333.632C282.719 333.995 283.839 334.176 285.012 334.176C286.612 334.176 287.764 333.931 288.468 333.44C289.172 332.928 289.524 332.256 289.524 331.424C289.524 330.805 289.321 330.325 288.916 329.984C288.532 329.621 288.02 329.355 287.38 329.184C286.74 328.992 286.025 328.832 285.236 328.704C284.447 328.576 283.657 328.427 282.868 328.256C282.1 328.085 281.396 327.84 280.756 327.52C280.116 327.179 279.593 326.72 279.188 326.144C278.804 325.568 278.612 324.8 278.612 323.84C278.612 322.923 278.868 322.101 279.38 321.376C279.892 320.651 280.639 320.085 281.62 319.68C282.623 319.253 283.839 319.04 285.268 319.04C286.356 319.04 287.444 319.189 288.532 319.488C289.62 319.765 290.516 320.139 291.22 320.608L290.228 322.432C289.481 321.92 288.681 321.557 287.828 321.344C286.975 321.109 286.121 320.992 285.268 320.992C283.753 320.992 282.633 321.259 281.908 321.792C281.204 322.304 280.852 322.965 280.852 323.776C280.852 324.416 281.044 324.917 281.428 325.28C281.833 325.643 282.356 325.931 282.996 326.144C283.657 326.336 284.372 326.496 285.14 326.624C285.929 326.752 286.708 326.912 287.476 327.104C288.265 327.275 288.98 327.52 289.62 327.84C290.281 328.139 290.804 328.576 291.188 329.152C291.593 329.707 291.796 330.443 291.796 331.36C291.796 332.341 291.519 333.195 290.964 333.92C290.431 334.624 289.641 335.179 288.596 335.584C287.572 335.968 286.324 336.16 284.852 336.16ZM304.637 336.16C303.186 336.16 301.874 335.829 300.701 335.168C299.528 334.485 298.589 333.515 297.885 332.256C297.202 330.976 296.861 329.419 296.861 327.584C296.861 325.749 297.202 324.203 297.885 322.944C298.568 321.664 299.496 320.693 300.669 320.032C301.842 319.371 303.165 319.04 304.637 319.04C306.237 319.04 307.666 319.403 308.925 320.128C310.205 320.832 311.208 321.835 311.933 323.136C312.658 324.416 313.021 325.899 313.021 327.584C313.021 329.291 312.658 330.784 311.933 332.064C311.208 333.344 310.205 334.347 308.925 335.072C307.666 335.797 306.237 336.16 304.637 336.16ZM295.965 342.208V319.2H298.141V324.256L297.917 327.616L298.237 331.008V342.208H295.965ZM304.477 334.144C305.672 334.144 306.738 333.877 307.677 333.344C308.616 332.789 309.362 332.021 309.917 331.04C310.472 330.037 310.749 328.885 310.749 327.584C310.749 326.283 310.472 325.141 309.917 324.16C309.362 323.179 308.616 322.411 307.677 321.856C306.738 321.301 305.672 321.024 304.477 321.024C303.282 321.024 302.205 321.301 301.245 321.856C300.306 322.411 299.56 323.179 299.005 324.16C298.472 325.141 298.205 326.283 298.205 327.584C298.205 328.885 298.472 330.037 299.005 331.04C299.56 332.021 300.306 332.789 301.245 333.344C302.205 333.877 303.282 334.144 304.477 334.144ZM317.652 336V312.256H319.924V336H317.652ZM326.246 336V319.2H328.518V336H326.246ZM327.398 315.488C326.929 315.488 326.534 315.328 326.214 315.008C325.894 314.688 325.734 314.304 325.734 313.856C325.734 313.408 325.894 313.035 326.214 312.736C326.534 312.416 326.929 312.256 327.398 312.256C327.867 312.256 328.262 312.405 328.582 312.704C328.902 313.003 329.062 313.376 329.062 313.824C329.062 314.293 328.902 314.688 328.582 315.008C328.283 315.328 327.889 315.488 327.398 315.488ZM340.152 336.16C338.573 336.16 337.357 335.733 336.504 334.88C335.651 334.027 335.224 332.821 335.224 331.264V315.488H337.496V331.136C337.496 332.117 337.741 332.875 338.232 333.408C338.744 333.941 339.469 334.208 340.408 334.208C341.411 334.208 342.243 333.92 342.904 333.344L343.704 334.976C343.256 335.381 342.712 335.68 342.072 335.872C341.453 336.064 340.813 336.16 340.152 336.16ZM332.216 321.088V319.2H342.616V321.088H332.216ZM352.352 336.16C350.965 336.16 349.653 335.968 348.416 335.584C347.179 335.179 346.208 334.677 345.504 334.08L346.528 332.288C347.211 332.8 348.085 333.248 349.152 333.632C350.219 333.995 351.339 334.176 352.512 334.176C354.112 334.176 355.264 333.931 355.968 333.44C356.672 332.928 357.024 332.256 357.024 331.424C357.024 330.805 356.821 330.325 356.416 329.984C356.032 329.621 355.52 329.355 354.88 329.184C354.24 328.992 353.525 328.832 352.736 328.704C351.947 328.576 351.157 328.427 350.368 328.256C349.6 328.085 348.896 327.84 348.256 327.52C347.616 327.179 347.093 326.72 346.688 326.144C346.304 325.568 346.112 324.8 346.112 323.84C346.112 322.923 346.368 322.101 346.88 321.376C347.392 320.651 348.139 320.085 349.12 319.68C350.123 319.253 351.339 319.04 352.768 319.04C353.856 319.04 354.944 319.189 356.032 319.488C357.12 319.765 358.016 320.139 358.72 320.608L357.728 322.432C356.981 321.92 356.181 321.557 355.328 321.344C354.475 321.109 353.621 320.992 352.768 320.992C351.253 320.992 350.133 321.259 349.408 321.792C348.704 322.304 348.352 322.965 348.352 323.776C348.352 324.416 348.544 324.917 348.928 325.28C349.333 325.643 349.856 325.931 350.496 326.144C351.157 326.336 351.872 326.496 352.64 326.624C353.429 326.752 354.208 326.912 354.976 327.104C355.765 327.275 356.48 327.52 357.12 327.84C357.781 328.139 358.304 328.576 358.688 329.152C359.093 329.707 359.296 330.443 359.296 331.36C359.296 332.341 359.019 333.195 358.464 333.92C357.931 334.624 357.141 335.179 356.096 335.584C355.072 335.968 353.824 336.16 352.352 336.16ZM371.84 336V319.2H374.112V336H371.84ZM372.992 315.488C372.523 315.488 372.128 315.328 371.808 315.008C371.488 314.688 371.328 314.304 371.328 313.856C371.328 313.408 371.488 313.035 371.808 312.736C372.128 312.416 372.523 312.256 372.992 312.256C373.461 312.256 373.856 312.405 374.176 312.704C374.496 313.003 374.656 313.376 374.656 313.824C374.656 314.293 374.496 314.688 374.176 315.008C373.877 315.328 373.483 315.488 372.992 315.488ZM389.01 319.04C390.375 319.04 391.57 319.307 392.594 319.84C393.639 320.352 394.45 321.141 395.026 322.208C395.623 323.275 395.922 324.619 395.922 326.24V336H393.65V326.464C393.65 324.693 393.202 323.36 392.306 322.464C391.431 321.547 390.194 321.088 388.594 321.088C387.399 321.088 386.354 321.333 385.458 321.824C384.583 322.293 383.9 322.987 383.41 323.904C382.94 324.8 382.706 325.888 382.706 327.168V336H380.434V319.2H382.61V323.808L382.258 322.944C382.791 321.728 383.644 320.779 384.818 320.096C385.991 319.392 387.388 319.04 389.01 319.04ZM111.993 375V371.288L111.897 370.68V364.472C111.897 363.043 111.492 361.944 110.681 361.176C109.892 360.408 108.708 360.024 107.129 360.024C106.041 360.024 105.006 360.205 104.025 360.568C103.044 360.931 102.212 361.411 101.529 362.008L100.505 360.312C101.358 359.587 102.382 359.032 103.577 358.648C104.772 358.243 106.03 358.04 107.353 358.04C109.529 358.04 111.204 358.584 112.377 359.672C113.572 360.739 114.169 362.371 114.169 364.568V375H111.993ZM106.201 375.16C104.942 375.16 103.844 374.957 102.905 374.552C101.988 374.125 101.284 373.549 100.793 372.824C100.302 372.077 100.057 371.224 100.057 370.264C100.057 369.389 100.26 368.6 100.665 367.896C101.092 367.171 101.774 366.595 102.713 366.168C103.673 365.72 104.953 365.496 106.553 365.496H112.345V367.192H106.617C104.996 367.192 103.865 367.48 103.225 368.056C102.606 368.632 102.297 369.347 102.297 370.2C102.297 371.16 102.67 371.928 103.417 372.504C104.164 373.08 105.209 373.368 106.553 373.368C107.833 373.368 108.932 373.08 109.849 372.504C110.788 371.907 111.47 371.053 111.897 369.944L112.409 371.512C111.982 372.621 111.236 373.507 110.169 374.168C109.124 374.829 107.801 375.16 106.201 375.16ZM137.387 375.16C135.936 375.16 134.624 374.829 133.451 374.168C132.278 373.485 131.339 372.515 130.635 371.256C129.952 369.976 129.611 368.419 129.611 366.584C129.611 364.749 129.952 363.203 130.635 361.944C131.318 360.664 132.246 359.693 133.419 359.032C134.592 358.371 135.915 358.04 137.387 358.04C138.987 358.04 140.416 358.403 141.675 359.128C142.955 359.832 143.958 360.835 144.683 362.136C145.408 363.416 145.771 364.899 145.771 366.584C145.771 368.291 145.408 369.784 144.683 371.064C143.958 372.344 142.955 373.347 141.675 374.072C140.416 374.797 138.987 375.16 137.387 375.16ZM128.715 381.208V358.2H130.891V363.256L130.667 366.616L130.987 370.008V381.208H128.715ZM137.227 373.144C138.422 373.144 139.488 372.877 140.427 372.344C141.366 371.789 142.112 371.021 142.667 370.04C143.222 369.037 143.499 367.885 143.499 366.584C143.499 365.283 143.222 364.141 142.667 363.16C142.112 362.179 141.366 361.411 140.427 360.856C139.488 360.301 138.422 360.024 137.227 360.024C136.032 360.024 134.955 360.301 133.995 360.856C133.056 361.411 132.31 362.179 131.755 363.16C131.222 364.141 130.955 365.283 130.955 366.584C130.955 367.885 131.222 369.037 131.755 370.04C132.31 371.021 133.056 371.789 133.995 372.344C134.955 372.877 136.032 373.144 137.227 373.144ZM157.346 375.16C155.917 375.16 154.669 374.893 153.602 374.36C152.536 373.827 151.704 373.027 151.106 371.96C150.53 370.893 150.242 369.56 150.242 367.96V358.2H152.514V367.704C152.514 369.496 152.952 370.851 153.826 371.768C154.722 372.664 155.97 373.112 157.57 373.112C158.744 373.112 159.757 372.877 160.61 372.408C161.485 371.917 162.146 371.213 162.594 370.296C163.064 369.379 163.298 368.28 163.298 367V358.2H165.57V375H163.394V370.392L163.746 371.224C163.213 372.461 162.381 373.432 161.25 374.136C160.141 374.819 158.84 375.16 157.346 375.16ZM180.574 375.16C179.102 375.16 177.78 374.829 176.606 374.168C175.433 373.485 174.505 372.504 173.822 371.224C173.14 369.944 172.798 368.397 172.798 366.584C172.798 364.749 173.14 363.203 173.822 361.944C174.526 360.664 175.465 359.693 176.638 359.032C177.812 358.371 179.124 358.04 180.574 358.04C182.174 358.04 183.604 358.403 184.862 359.128C186.142 359.832 187.145 360.824 187.87 362.104C188.596 363.384 188.958 364.877 188.958 366.584C188.958 368.269 188.596 369.763 187.87 371.064C187.145 372.344 186.142 373.347 184.862 374.072C183.604 374.797 182.174 375.16 180.574 375.16ZM171.902 375V351.256H174.174V363.16L173.854 366.552L174.078 369.944V375H171.902ZM180.414 373.144C181.609 373.144 182.676 372.877 183.614 372.344C184.553 371.789 185.3 371.021 185.854 370.04C186.409 369.037 186.686 367.885 186.686 366.584C186.686 365.261 186.409 364.109 185.854 363.128C185.3 362.147 184.553 361.389 183.614 360.856C182.676 360.301 181.609 360.024 180.414 360.024C179.22 360.024 178.142 360.301 177.182 360.856C176.244 361.389 175.497 362.147 174.942 363.128C174.409 364.109 174.142 365.261 174.142 366.584C174.142 367.885 174.409 369.037 174.942 370.04C175.497 371.021 176.244 371.789 177.182 372.344C178.142 372.877 179.22 373.144 180.414 373.144ZM193.59 375V351.256H195.862V375H193.59ZM202.184 375V358.2H204.456V375H202.184ZM203.336 354.488C202.866 354.488 202.472 354.328 202.152 354.008C201.832 353.688 201.672 353.304 201.672 352.856C201.672 352.408 201.832 352.035 202.152 351.736C202.472 351.416 202.866 351.256 203.336 351.256C203.805 351.256 204.2 351.405 204.52 351.704C204.84 352.003 205 352.376 205 352.824C205 353.293 204.84 353.688 204.52 354.008C204.221 354.328 203.826 354.488 203.336 354.488ZM217.753 375.16C216.089 375.16 214.596 374.797 213.273 374.072C211.972 373.325 210.948 372.312 210.201 371.032C209.455 369.731 209.081 368.248 209.081 366.584C209.081 364.899 209.455 363.416 210.201 362.136C210.948 360.856 211.972 359.853 213.273 359.128C214.596 358.403 216.089 358.04 217.753 358.04C219.183 358.04 220.473 358.317 221.625 358.872C222.777 359.427 223.684 360.259 224.345 361.368L222.649 362.52C222.073 361.667 221.359 361.037 220.505 360.632C219.652 360.227 218.724 360.024 217.721 360.024C216.527 360.024 215.449 360.301 214.489 360.856C213.529 361.389 212.772 362.147 212.217 363.128C211.663 364.109 211.385 365.261 211.385 366.584C211.385 367.907 211.663 369.059 212.217 370.04C212.772 371.021 213.529 371.789 214.489 372.344C215.449 372.877 216.527 373.144 217.721 373.144C218.724 373.144 219.652 372.941 220.505 372.536C221.359 372.131 222.073 371.512 222.649 370.68L224.345 371.832C223.684 372.92 222.777 373.752 221.625 374.328C220.473 374.883 219.183 375.16 217.753 375.16ZM237.568 375V356.088C237.568 354.595 238.005 353.389 238.88 352.472C239.754 351.555 241.013 351.096 242.656 351.096C243.296 351.096 243.914 351.181 244.512 351.352C245.109 351.523 245.61 351.789 246.016 352.152L245.248 353.848C244.928 353.571 244.554 353.368 244.128 353.24C243.701 353.091 243.242 353.016 242.752 353.016C241.792 353.016 241.056 353.283 240.544 353.816C240.032 354.349 239.776 355.139 239.776 356.184V358.744L239.84 359.8V375H237.568ZM234.56 360.088V358.2H244.96V360.088H234.56ZM254.594 375.16C252.973 375.16 251.511 374.797 250.21 374.072C248.93 373.325 247.917 372.312 247.17 371.032C246.423 369.731 246.05 368.248 246.05 366.584C246.05 364.899 246.423 363.416 247.17 362.136C247.917 360.856 248.93 359.853 250.21 359.128C251.49 358.403 252.951 358.04 254.594 358.04C256.258 358.04 257.73 358.403 259.01 359.128C260.311 359.853 261.325 360.856 262.05 362.136C262.797 363.416 263.17 364.899 263.17 366.584C263.17 368.248 262.797 369.731 262.05 371.032C261.325 372.312 260.311 373.325 259.01 374.072C257.709 374.797 256.237 375.16 254.594 375.16ZM254.594 373.144C255.81 373.144 256.887 372.877 257.826 372.344C258.765 371.789 259.501 371.021 260.034 370.04C260.589 369.037 260.866 367.885 260.866 366.584C260.866 365.261 260.589 364.109 260.034 363.128C259.501 362.147 258.765 361.389 257.826 360.856C256.887 360.301 255.821 360.024 254.626 360.024C253.431 360.024 252.365 360.301 251.426 360.856C250.487 361.389 249.741 362.147 249.186 363.128C248.631 364.109 248.354 365.261 248.354 366.584C248.354 367.885 248.631 369.037 249.186 370.04C249.741 371.021 250.487 371.789 251.426 372.344C252.365 372.877 253.421 373.144 254.594 373.144ZM267.809 375V358.2H269.985V362.776L269.761 361.976C270.23 360.696 271.019 359.725 272.129 359.064C273.238 358.381 274.614 358.04 276.257 358.04V360.248C276.171 360.248 276.086 360.248 276.001 360.248C275.915 360.227 275.83 360.216 275.745 360.216C273.974 360.216 272.587 360.76 271.585 361.848C270.582 362.915 270.081 364.44 270.081 366.424V375H267.809ZM287.596 375.16C286.167 375.16 284.919 374.893 283.852 374.36C282.786 373.827 281.954 373.027 281.356 371.96C280.78 370.893 280.492 369.56 280.492 367.96V358.2H282.764V367.704C282.764 369.496 283.202 370.851 284.076 371.768C284.972 372.664 286.22 373.112 287.82 373.112C288.994 373.112 290.007 372.877 290.86 372.408C291.735 371.917 292.396 371.213 292.844 370.296C293.314 369.379 293.548 368.28 293.548 367V358.2H295.82V375H293.644V370.392L293.996 371.224C293.463 372.461 292.631 373.432 291.5 374.136C290.391 374.819 289.09 375.16 287.596 375.16ZM323.144 358.04C324.51 358.04 325.694 358.307 326.696 358.84C327.72 359.352 328.51 360.141 329.064 361.208C329.64 362.275 329.928 363.619 329.928 365.24V375H327.656V365.464C327.656 363.693 327.23 362.36 326.376 361.464C325.544 360.547 324.36 360.088 322.824 360.088C321.672 360.088 320.67 360.333 319.816 360.824C318.984 361.293 318.334 361.987 317.864 362.904C317.416 363.8 317.192 364.888 317.192 366.168V375H314.92V365.464C314.92 363.693 314.494 362.36 313.64 361.464C312.787 360.547 311.592 360.088 310.056 360.088C308.926 360.088 307.934 360.333 307.08 360.824C306.227 361.293 305.566 361.987 305.096 362.904C304.648 363.8 304.424 364.888 304.424 366.168V375H302.152V358.2H304.328V362.744L303.976 361.944C304.488 360.728 305.31 359.779 306.44 359.096C307.592 358.392 308.947 358.04 310.504 358.04C312.147 358.04 313.544 358.456 314.696 359.288C315.848 360.099 316.595 361.325 316.936 362.968L316.04 362.616C316.531 361.251 317.395 360.152 318.632 359.32C319.891 358.467 321.395 358.04 323.144 358.04ZM336.314 375.16C335.845 375.16 335.439 374.989 335.098 374.648C334.778 374.307 334.618 373.891 334.618 373.4C334.618 372.888 334.778 372.472 335.098 372.152C335.439 371.832 335.845 371.672 336.314 371.672C336.783 371.672 337.178 371.832 337.498 372.152C337.839 372.472 338.01 372.888 338.01 373.4C338.01 373.891 337.839 374.307 337.498 374.648C337.178 374.989 336.783 375.16 336.314 375.16Z" fill="white"/>
<path d="M144.178 162.933L172.678 100.591H179.179L207.678 162.933H200.732L174.548 104.42H177.22L151.036 162.933H144.178ZM155.4 146.279L157.359 140.935H193.607L195.566 146.279H155.4ZM216.655 162.933V116.176H222.979V162.933H216.655ZM219.862 105.845C218.555 105.845 217.457 105.4 216.566 104.509C215.676 103.619 215.23 102.55 215.23 101.303C215.23 100.056 215.676 99.0172 216.566 98.186C217.457 97.2954 218.555 96.8501 219.862 96.8501C221.168 96.8501 222.266 97.2657 223.157 98.0969C224.047 98.9282 224.493 99.9672 224.493 101.214C224.493 102.52 224.047 103.619 223.157 104.509C222.326 105.4 221.227 105.845 219.862 105.845ZM259.187 163.378C254.734 163.378 250.726 162.369 247.163 160.35C243.66 158.332 240.9 155.541 238.881 151.979C236.862 148.357 235.853 144.201 235.853 139.51C235.853 134.76 236.862 130.604 238.881 127.042C240.9 123.479 243.66 120.718 247.163 118.759C250.726 116.74 254.734 115.731 259.187 115.731C263.283 115.731 266.935 116.651 270.141 118.492C273.407 120.332 275.989 123.034 277.889 126.596C279.849 130.099 280.828 134.404 280.828 139.51C280.828 144.557 279.878 148.861 277.978 152.424C276.078 155.986 273.496 158.717 270.23 160.617C267.024 162.458 263.343 163.378 259.187 163.378ZM259.632 157.768C262.957 157.768 265.926 157.025 268.538 155.541C271.21 153.997 273.288 151.86 274.772 149.129C276.316 146.338 277.088 143.132 277.088 139.51C277.088 135.829 276.316 132.623 274.772 129.892C273.288 127.16 271.21 125.053 268.538 123.568C265.926 122.025 262.957 121.253 259.632 121.253C256.366 121.253 253.427 122.025 250.815 123.568C248.202 125.053 246.124 127.16 244.581 129.892C243.037 132.623 242.265 135.829 242.265 139.51C242.265 143.132 243.037 146.338 244.581 149.129C246.124 151.86 248.202 153.997 250.815 155.541C253.427 157.025 256.366 157.768 259.632 157.768ZM277.266 162.933V148.861L277.889 139.421L276.999 129.981V96.8501H283.322V162.933H277.266Z" fill="#0255FF"/>
<path d="M138.487 242.717L166.986 180.375H173.488L201.987 242.717H195.04L168.857 184.205H171.528L145.345 242.717H138.487ZM149.709 226.063L151.668 220.719H187.916L189.875 226.063H149.709ZM235.1 243.163C231.062 243.163 227.411 242.242 224.145 240.402C220.88 238.502 218.267 235.8 216.308 232.297C214.408 228.735 213.458 224.401 213.458 219.294C213.458 214.188 214.408 209.884 216.308 206.381C218.208 202.818 220.79 200.117 224.056 198.276C227.322 196.436 231.003 195.515 235.1 195.515C239.553 195.515 243.531 196.525 247.034 198.543C250.596 200.503 253.387 203.293 255.405 206.915C257.424 210.477 258.433 214.604 258.433 219.294C258.433 224.044 257.424 228.201 255.405 231.763C253.387 235.325 250.596 238.116 247.034 240.135C243.531 242.153 239.553 243.163 235.1 243.163ZM210.964 259.995V195.961H217.02V210.032L216.397 219.384L217.287 228.824V259.995H210.964ZM234.654 237.552C237.979 237.552 240.948 236.81 243.56 235.325C246.173 233.782 248.251 231.644 249.795 228.913C251.338 226.122 252.11 222.916 252.11 219.294C252.11 215.673 251.338 212.496 249.795 209.765C248.251 207.034 246.173 204.896 243.56 203.353C240.948 201.809 237.979 201.037 234.654 201.037C231.329 201.037 228.331 201.809 225.659 203.353C223.047 204.896 220.969 207.034 219.425 209.765C217.941 212.496 217.198 215.673 217.198 219.294C217.198 222.916 217.941 226.122 219.425 228.913C220.969 231.644 223.047 233.782 225.659 235.325C228.331 236.81 231.329 237.552 234.654 237.552ZM295.459 243.163C291.422 243.163 287.77 242.242 284.505 240.402C281.239 238.502 278.627 235.8 276.667 232.297C274.767 228.735 273.817 224.401 273.817 219.294C273.817 214.188 274.767 209.884 276.667 206.381C278.567 202.818 281.15 200.117 284.415 198.276C287.681 196.436 291.362 195.515 295.459 195.515C299.912 195.515 303.89 196.525 307.393 198.543C310.955 200.503 313.746 203.293 315.765 206.915C317.783 210.477 318.793 214.604 318.793 219.294C318.793 224.044 317.783 228.201 315.765 231.763C313.746 235.325 310.955 238.116 307.393 240.135C303.89 242.153 299.912 243.163 295.459 243.163ZM271.324 259.995V195.961H277.38V210.032L276.756 219.384L277.647 228.824V259.995H271.324ZM295.014 237.552C298.339 237.552 301.307 236.81 303.92 235.325C306.532 233.782 308.61 231.644 310.154 228.913C311.698 226.122 312.47 222.916 312.47 219.294C312.47 215.673 311.698 212.496 310.154 209.765C308.61 207.034 306.532 204.896 303.92 203.353C301.307 201.809 298.339 201.037 295.014 201.037C291.689 201.037 288.69 201.809 286.019 203.353C283.406 204.896 281.328 207.034 279.784 209.765C278.3 212.496 277.558 215.673 277.558 219.294C277.558 222.916 278.3 226.122 279.784 228.913C281.328 231.644 283.406 233.782 286.019 235.325C288.69 236.81 291.689 237.552 295.014 237.552Z" fill="#0255FF"/>
<path d="M76.3483 49.1317H109.301V54.8316H76.3483V49.1317ZM77.0608 81.2826H70.4703V18.9402H113.219V24.64H77.0608V81.2826ZM125.493 81.2826V34.5258H131.816V81.2826H125.493ZM128.699 24.1947C127.393 24.1947 126.295 23.7494 125.404 22.8588C124.513 21.9682 124.068 20.8995 124.068 19.6527C124.068 18.4058 124.513 17.3668 125.404 16.5355C126.295 15.6449 127.393 15.1996 128.699 15.1996C130.005 15.1996 131.104 15.6152 131.994 16.4465C132.885 17.2777 133.33 18.3167 133.33 19.5636C133.33 20.8698 132.885 21.9682 131.994 22.8588C131.163 23.7494 130.065 24.1947 128.699 24.1947ZM164.195 81.7279C159.801 81.7279 156.417 80.5404 154.042 78.1654C151.667 75.7905 150.479 72.4359 150.479 68.1016V24.1947H156.803V67.7454C156.803 70.4765 157.485 72.5843 158.851 74.0687C160.276 75.553 162.295 76.2952 164.907 76.2952C167.698 76.2952 170.013 75.4936 171.854 73.8905L174.08 78.4326C172.834 79.5607 171.32 80.392 169.538 80.9263C167.817 81.4607 166.035 81.7279 164.195 81.7279ZM142.108 39.7803V34.5258H171.052V39.7803H142.108ZM209.46 34.0805C213.26 34.0805 216.585 34.8226 219.435 36.307C222.344 37.7319 224.6 39.9288 226.203 42.8975C227.866 45.8661 228.697 49.6067 228.697 54.1191V81.2826H222.374V54.7425C222.374 49.8145 221.127 46.1036 218.633 43.6099C216.199 41.0569 212.755 39.7803 208.302 39.7803C204.977 39.7803 202.068 40.4631 199.574 41.8287C197.14 43.135 195.24 45.0646 193.874 47.6177C192.568 50.1114 191.915 53.1394 191.915 56.7018V81.2826H185.592V34.5258H191.648V47.3505L190.668 44.9459C192.152 41.5616 194.527 38.9194 197.793 37.0195C201.058 35.0601 204.947 34.0805 209.46 34.0805ZM265.637 81.7279C260.769 81.7279 256.494 80.7185 252.813 78.6998C249.132 76.6217 246.252 73.8015 244.174 70.2391C242.096 66.6173 241.057 62.4908 241.057 57.8596C241.057 53.2285 242.036 49.1317 243.996 45.5693C246.014 42.0069 248.746 39.2163 252.189 37.1976C255.692 35.1195 259.611 34.0805 263.945 34.0805C268.339 34.0805 272.228 35.0898 275.612 37.1085C279.056 39.0679 281.757 41.8584 283.717 45.4802C285.676 49.0426 286.656 53.1691 286.656 57.8596C286.656 58.1565 286.626 58.4831 286.567 58.8393C286.567 59.1362 286.567 59.4627 286.567 59.819H245.866V55.0988H283.182L280.689 56.969C280.689 53.5847 279.947 50.5864 278.462 47.9739C277.037 45.3021 275.078 43.224 272.584 41.7397C270.09 40.2553 267.211 39.5132 263.945 39.5132C260.739 39.5132 257.86 40.2553 255.306 41.7397C252.753 43.224 250.764 45.3021 249.339 47.9739C247.914 50.6457 247.202 53.7035 247.202 57.1471V58.1268C247.202 61.6892 247.974 64.836 249.517 67.5672C251.121 70.2391 253.317 72.3468 256.108 73.8905C258.958 75.3749 262.194 76.117 265.816 76.117C268.666 76.117 271.308 75.6124 273.742 74.603C276.236 73.5937 278.373 72.05 280.154 69.9719L283.717 74.0687C281.639 76.5624 279.026 78.4623 275.879 79.7685C272.792 81.0748 269.378 81.7279 265.637 81.7279ZM312.084 81.7279C308.225 81.7279 304.573 81.1935 301.129 80.1248C297.686 78.9967 294.984 77.6014 293.025 75.9389L295.875 70.9515C297.775 72.3765 300.209 73.6234 303.178 74.6921C306.147 75.7014 309.264 76.2061 312.529 76.2061C316.982 76.2061 320.188 75.5233 322.148 74.1577C324.107 72.7327 325.087 70.8625 325.087 68.5469C325.087 66.8251 324.523 65.4892 323.395 64.5392C322.326 63.5298 320.901 62.7877 319.12 62.3127C317.339 61.7783 315.349 61.333 313.153 60.9768C310.956 60.6205 308.759 60.2049 306.562 59.7299C304.425 59.2549 302.465 58.5721 300.684 57.6815C298.903 56.7315 297.448 55.455 296.32 53.8519C295.251 52.2488 294.717 50.1114 294.717 47.4395C294.717 44.8865 295.43 42.6006 296.855 40.5819C298.28 38.5632 300.358 36.9898 303.089 35.8617C305.879 34.6742 309.264 34.0805 313.242 34.0805C316.27 34.0805 319.298 34.4961 322.326 35.3273C325.354 36.0992 327.848 37.1382 329.807 38.4444L327.046 43.5209C324.968 42.0959 322.742 41.0866 320.367 40.4928C317.992 39.8397 315.617 39.5132 313.242 39.5132C309.026 39.5132 305.909 40.2553 303.89 41.7397C301.931 43.1646 300.951 45.0052 300.951 47.2614C300.951 49.0426 301.486 50.4379 302.554 51.4473C303.683 52.4566 305.137 53.2582 306.918 53.8519C308.759 54.3863 310.748 54.8316 312.885 55.1878C315.082 55.5441 317.249 55.9894 319.387 56.5237C321.584 56.9987 323.573 57.6815 325.354 58.5721C327.195 59.4034 328.649 60.6205 329.718 62.2236C330.846 63.7673 331.41 65.8157 331.41 68.3688C331.41 71.1 330.638 73.4749 329.094 75.4936C327.61 77.453 325.413 78.9967 322.504 80.1248C319.654 81.1935 316.181 81.7279 312.084 81.7279ZM355.571 81.7279C351.711 81.7279 348.06 81.1935 344.616 80.1248C341.172 78.9967 338.471 77.6014 336.512 75.9389L339.361 70.9515C341.261 72.3765 343.696 73.6234 346.664 74.6921C349.633 75.7014 352.75 76.2061 356.016 76.2061C360.469 76.2061 363.675 75.5233 365.634 74.1577C367.594 72.7327 368.573 70.8625 368.573 68.5469C368.573 66.8251 368.009 65.4892 366.881 64.5392C365.812 63.5298 364.388 62.7877 362.606 62.3127C360.825 61.7783 358.836 61.333 356.639 60.9768C354.442 60.6205 352.246 60.2049 350.049 59.7299C347.911 59.2549 345.952 58.5721 344.171 57.6815C342.39 56.7315 340.935 55.455 339.807 53.8519C338.738 52.2488 338.204 50.1114 338.204 47.4395C338.204 44.8865 338.916 42.6006 340.341 40.5819C341.766 38.5632 343.844 36.9898 346.575 35.8617C349.366 34.6742 352.75 34.0805 356.728 34.0805C359.756 34.0805 362.784 34.4961 365.812 35.3273C368.841 36.0992 371.334 37.1382 373.294 38.4444L370.533 43.5209C368.455 42.0959 366.228 41.0866 363.853 40.4928C361.478 39.8397 359.103 39.5132 356.728 39.5132C352.513 39.5132 349.396 40.2553 347.377 41.7397C345.418 43.1646 344.438 45.0052 344.438 47.2614C344.438 49.0426 344.972 50.4379 346.041 51.4473C347.169 52.4566 348.624 53.2582 350.405 53.8519C352.246 54.3863 354.235 54.8316 356.372 55.1878C358.569 55.5441 360.736 55.9894 362.873 56.5237C365.07 56.9987 367.059 57.6815 368.841 58.5721C370.681 59.4034 372.136 60.6205 373.205 62.2236C374.333 63.7673 374.897 65.8157 374.897 68.3688C374.897 71.1 374.125 73.4749 372.581 75.4936C371.097 77.453 368.9 78.9967 365.991 80.1248C363.141 81.1935 359.667 81.7279 355.571 81.7279Z" fill="#0255FF"/>
<path d="M221.917 403.833L192.75 433L201.5 441.75L239.417 403.833H221.917Z" fill="#40C4FF"/>
<path d="M239.417 430.083L223.375 446.125L214.625 437.375L221.917 430.083H239.417Z" fill="#40C4FF"/>
<path d="M214.624 437.375L205.874 446.125L214.624 454.875L223.374 446.125L214.624 437.375Z" fill="#03A9F4"/>
<path d="M239.417 462.167H221.917L214.625 454.875L223.375 446.125L239.417 462.167Z" fill="#01579B"/>
<path d="M214.625 454.875L227.75 450.5L223.375 446.125L214.625 454.875Z" fill="#084994"/>
<path d="M326.583 412.5L330.958 448.958L319.264 437.264C317.53 435.53 317.065 432.895 318.103 430.672L326.583 412.5Z" fill="#1565C0"/>
<path d="M351.84 404.215C350.608 402.983 348.938 402.292 347.197 402.292C346.11 402.292 345.04 402.561 344.083 403.076L326.583 412.5V442.167C326.583 443.714 327.197 445.197 328.293 446.291L330.958 448.958H363.042V441.667L373.25 425.625L351.84 404.215Z" fill="#42A5F5"/>
<path d="M326.583 412.5H357.709C359.256 412.5 360.739 413.114 361.833 414.209L373.25 425.625V448.958H363.042L326.583 412.5Z" fill="#1565C0"/>
<path d="M363.042 448.958H330.958L339.708 457.708H363.042V448.958Z" fill="#85CBF8"/>
<path d="M349.917 508.792H338.25C332.612 508.792 328.042 504.221 328.042 498.583C328.042 492.945 332.612 488.375 338.25 488.375H349.917V508.792Z" fill="url(#paint0_linear_1_3)"/>
<path d="M348.458 529.208H338.25C332.612 529.208 328.042 524.638 328.042 519C328.042 513.362 332.612 508.792 338.25 508.792H348.458V529.208Z" fill="url(#paint1_linear_1_3)"/>
<path d="M338.25 549.625C332.612 549.625 328.042 545.055 328.042 539.417C328.042 533.779 332.612 529.208 338.25 529.208H348.458V539.417C348.458 545.055 343.888 549.625 338.25 549.625Z" fill="url(#paint2_linear_1_3)"/>
<path d="M358.667 508.792H348.458V488.375H358.667C364.305 488.375 368.875 492.945 368.875 498.583C368.875 504.221 364.305 508.792 358.667 508.792Z" fill="url(#paint3_linear_1_3)"/>
<path d="M358.667 529.208C364.305 529.208 368.875 524.638 368.875 519C368.875 513.362 364.305 508.792 358.667 508.792C353.029 508.792 348.458 513.362 348.458 519C348.458 524.638 353.029 529.208 358.667 529.208Z" fill="url(#paint4_linear_1_3)"/>
<path d="M106.333 513.167C106.904 510.636 106.199 507.654 102.688 504.417C96.9796 509.584 98.6115 514.956 100.5 517.542C100.5 517.542 100.258 519 94.6667 519C89.0754 519 50.9167 519 50.9167 519C50.9167 519 48.2435 542.333 74.25 542.333C96.9898 542.333 103.377 524.829 104.624 520.348C105.14 520.418 105.719 520.463 106.333 520.458C109.464 520.434 113.523 518.751 115.083 512.461C110.945 511.027 108.286 511.676 106.333 513.167Z" fill="#03A9F4"/>
<path d="M51.1573 524.833C52.2292 531.744 56.7252 542.333 74.25 542.333C92.0198 542.333 99.8044 531.644 102.953 524.833H51.1573Z" fill="#0288D1"/>
<path d="M76.8925 542.243C75.5508 541.773 69.4958 540.653 68.4167 532.125C62.2785 534.842 56.8404 534.13 54.4473 533.595C57.6002 538.304 63.4452 542.333 74.25 542.333C75.1585 542.333 76.035 542.298 76.8925 542.243Z" fill="#81D4FA"/>
<path d="M74.25 527.75C73.4765 527.75 72.7346 528.057 72.1876 528.604C71.6406 529.151 71.3333 529.893 71.3333 530.667C71.3333 531.44 71.6406 532.182 72.1876 532.729C72.7346 533.276 73.4765 533.583 74.25 533.583C75.0236 533.583 75.7654 533.276 76.3124 532.729C76.8594 532.182 77.1667 531.44 77.1667 530.667C77.1667 529.893 76.8594 529.151 76.3124 528.604C75.7654 528.057 75.0236 527.75 74.25 527.75Z" fill="white"/>
<path d="M69.7496 532.996C70.0763 533.732 69.7788 534.69 69.0058 534.918C64.1919 536.337 60.0429 536.525 56.906 536.525C55.9669 535.622 55.1648 534.66 54.491 533.662C58.2608 533.662 64.2765 533.487 67.826 532.253C68.5873 531.988 69.4229 532.256 69.7496 532.996ZM50.9167 523.375C50.9167 523.375 53.651 523.557 55.2917 521.917C58.026 524.378 63.9542 523.503 65.5 521.917C67.0502 524.378 75.6179 523.922 77.1667 521.917C78.9896 524.014 86.8281 524.469 88.8333 521.917C89.5319 524.047 98.7777 524.65 100.5 521.917C102.047 523.503 107.884 524.743 111.162 521.917C111.984 523.649 115.083 523.375 115.083 523.375V524.833H50.9167M72.7917 530.667C72.7917 531.472 73.445 532.125 74.25 532.125C75.055 532.125 75.7083 531.472 75.7083 530.667C75.7083 529.862 75.055 529.208 74.25 529.208C73.445 529.208 72.7917 529.862 72.7917 530.667Z" fill="#37474F"/>
<path d="M64.0417 519H56.75V511.708H64.0417V519ZM78.625 511.708H71.3333V519H78.625V511.708ZM93.2083 511.708H85.9167V519H93.2083V511.708ZM71.3333 504.417H64.0417V511.708H71.3333V504.417ZM85.9167 504.417H78.625V511.708H85.9167V504.417Z" fill="#01579B"/>
<path d="M71.3333 519H64.0417V511.708H71.3333V519ZM85.9167 511.708H78.625V519H85.9167V511.708ZM85.9167 497.125H78.625V504.417H85.9167V497.125ZM78.625 504.417H71.3333V511.708H78.625V504.417Z" fill="#0288D1"/>
<path d="M247.599 513.288H245.25V513.167H219V524.833H235.484C233.079 531.625 226.617 536.5 219 536.5C209.336 536.5 201.5 528.664 201.5 519C201.5 509.336 209.336 501.5 219 501.5C223.461 501.5 227.52 503.183 230.61 505.932L238.86 497.682C233.65 492.827 226.682 489.833 219 489.833C202.893 489.833 189.833 502.893 189.833 519C189.833 535.107 202.893 548.167 219 548.167C235.107 548.167 248.167 535.107 248.167 519C248.167 517.044 247.965 515.135 247.599 513.288Z" fill="#FFC107"/>
<path d="M193.196 505.424L202.779 512.452C205.372 506.032 211.651 501.5 219 501.5C223.461 501.5 227.52 503.183 230.61 505.932L238.86 497.682C233.65 492.827 226.682 489.833 219 489.833C207.797 489.833 198.082 496.158 193.196 505.424Z" fill="#FF3D00"/>
<path d="M219 548.167C226.534 548.167 233.379 545.284 238.555 540.595L229.528 532.956C226.599 535.174 222.959 536.5 219 536.5C211.414 536.5 204.972 531.663 202.546 524.912L193.034 532.24C197.861 541.686 207.664 548.167 219 548.167Z" fill="#4CAF50"/>
<path d="M247.599 513.288H245.25V513.167H219V524.833H235.484C234.329 528.096 232.23 530.909 229.523 532.958L229.528 532.955L238.555 540.594C237.916 541.174 248.167 533.583 248.167 519C248.167 517.044 247.965 515.135 247.599 513.288Z" fill="#1976D2"/>
</g>
<defs>
<linearGradient id="paint0_linear_1_3" x1="335.784" y1="485.606" x2="345.575" y2="512.505" gradientUnits="userSpaceOnUse">
<stop stop-color="#F44F5A"/>
<stop offset="0.443" stop-color="#EE3D4A"/>
<stop offset="1" stop-color="#E52030"/>
</linearGradient>
<linearGradient id="paint1_linear_1_3" x1="334.808" y1="505.344" x2="344.541" y2="532.083" gradientUnits="userSpaceOnUse">
<stop stop-color="#AE4CD5"/>
<stop offset="1" stop-color="#9331BF"/>
</linearGradient>
<linearGradient id="paint2_linear_1_3" x1="333.598" y1="522.437" x2="343.822" y2="550.525" gradientUnits="userSpaceOnUse">
<stop stop-color="#33C481"/>
<stop offset="1" stop-color="#21A366"/>
</linearGradient>
<linearGradient id="paint3_linear_1_3" x1="352.101" y1="484.747" x2="361.757" y2="511.274" gradientUnits="userSpaceOnUse">
<stop stop-color="#F09CA2"/>
<stop offset="1" stop-color="#EB6773"/>
</linearGradient>
<linearGradient id="paint4_linear_1_3" x1="353.875" y1="505.834" x2="362.833" y2="530.448" gradientUnits="userSpaceOnUse">
<stop stop-color="#32BDEF"/>
<stop offset="1" stop-color="#1EA2E4"/>
</linearGradient>
<clipPath id="clip0_1_3">
<rect width="438" height="622" fill="white"/>
</clipPath>
</defs>
</svg>
