<svg width="579" height="400" viewBox="0 0 579 400" fill="none" xmlns="http://www.w3.org/2000/svg">
<path d="M80.3728 278.524L168.03 248.871L303.547 170.63L325.379 147.333L485.755 54.7405L559.784 44.0751L513.533 102.853L353.157 195.446L322.066 202.705L188.153 280.02L117.225 342.354L37.0371 388.65L0 324.5L80.1877 278.204L80.3728 278.524Z" fill="white"/>
<path d="M440.97 149.819C446.178 165.603 449 182.472 449 200C449 288.366 377.366 360 289 360C240.854 360 197.676 338.734 168.345 305.084L172.183 301.879C200.597 334.432 242.396 355 289 355C374.604 355 444 285.604 444 200C444 183.384 441.383 167.38 436.543 152.375L440.97 149.819ZM144.724 256.766C150.528 271.507 158.528 285.144 168.318 297.275L164.562 300.581C154.342 287.953 146.005 273.738 139.979 258.363L144.724 256.766ZM289 40C336.487 40 379.142 60.6886 408.444 93.543L404.019 96.0986C375.654 64.7189 334.63 45 289 45C203.396 45 134 114.396 134 200C134 218.333 137.185 235.923 143.028 252.247L138.294 253.857C132.279 237.028 129 218.897 129 200C129 111.634 200.634 40 289 40Z" fill="white"/>
<path d="M476.209 129.474C484.476 151.407 489 175.175 489 200C489 310.457 399.457 400 289 400C228.52 400 174.311 373.153 137.637 330.728L152.992 317.904C185.995 355.943 234.687 380 289 380C388.411 380 469 299.411 469 200C469 178.822 465.34 158.5 458.622 139.628L476.209 129.474ZM121.002 264.754C127.909 282.663 137.598 299.189 149.538 313.804L134.514 327.026C120.85 310.428 109.808 291.59 102.024 271.145L121.002 264.754ZM289 0C351.328 0 406.994 28.5121 443.674 73.2031L426.092 83.3545C393.076 44.5889 343.91 20 289 20C189.589 20 109 100.589 109 200C109 221.15 112.65 241.448 119.351 260.3L100.408 266.743C93.0208 245.87 89 223.404 89 200C89 89.5431 178.543 0 289 0Z" fill="white"/>
<path d="M454.218 142.171C460.554 160.274 464 179.734 464 200C464 296.65 385.65 375 289 375C236.229 375 188.915 351.641 156.83 314.699L164.507 308.289C194.756 343.036 239.312 365 289 365C380.127 365 454 291.127 454 200C454 181.559 450.974 163.824 445.393 147.266L454.218 142.171ZM135.235 259.961C141.482 275.969 150.158 290.76 160.808 303.886L153.295 310.498C141.785 296.379 132.434 280.431 125.746 263.156L135.235 259.961ZM289 25C342.055 25 389.593 48.6114 421.687 85.8975L412.863 90.9922C382.627 56.6616 338.344 35 289 35C197.873 35 124 108.873 124 200C124 219.461 127.371 238.133 133.558 255.469L124.086 258.689C117.556 240.343 114 220.587 114 200C114 103.35 192.35 25 289 25Z" fill="white"/>
</svg>
